<?xml version="1.0" encoding="UTF-8" standalone="no"?>
<!DOCTYPE svg PUBLIC "-//W3C//DTD SVG 1.1//EN"
 "http://www.w3.org/Graphics/SVG/1.1/DTD/svg11.dtd">
<!-- Generated by graphviz version 2.43.0 (0)
 -->
<!-- Title: IOManager.H Pages: 1 -->
<svg width="1828pt" height="364pt"
 viewBox="0.00 0.00 1828.00 364.00" xmlns="http://www.w3.org/2000/svg" xmlns:xlink="http://www.w3.org/1999/xlink">
<g id="graph0" class="graph" transform="scale(1 1) rotate(0) translate(4 360)">
<title>IOManager.H</title>
<polygon fill="white" stroke="transparent" points="-4,4 -4,-360 1824,-360 1824,4 -4,4"/>
<!-- Node1 -->
<g id="node1" class="node">
<title>Node1</title>
<g id="a_node1"><a xlink:title=" ">
<polygon fill="#bfbfbf" stroke="black" points="1105,-336.5 1105,-355.5 1185,-355.5 1185,-336.5 1105,-336.5"/>
<text text-anchor="middle" x="1145" y="-343.5" font-family="Helvetica,sans-Serif" font-size="10.00">IOManager.H</text>
</a>
</g>
</g>
<!-- Node2 -->
<g id="node2" class="node">
<title>Node2</title>
<g id="a_node2"><a xlink:href="_c_f_d_sim_8cpp.html" target="_top" xlink:title=" ">
<polygon fill="white" stroke="black" points="450,-280.5 450,-299.5 526,-299.5 526,-280.5 450,-280.5"/>
<text text-anchor="middle" x="488" y="-287.5" font-family="Helvetica,sans-Serif" font-size="10.00">CFDSim.cpp</text>
</a>
</g>
</g>
<!-- Node1&#45;&gt;Node2 -->
<g id="edge1" class="edge">
<title>Node1&#45;&gt;Node2</title>
<path fill="none" stroke="midnightblue" d="M1094.6,-343.25C989.95,-339.19 741.61,-327.31 535,-300 532.12,-299.62 529.14,-299.17 526.16,-298.69"/>
<polygon fill="midnightblue" stroke="midnightblue" points="1094.74,-346.76 1104.87,-343.64 1095.01,-339.77 1094.74,-346.76"/>
</g>
<!-- Node3 -->
<g id="node3" class="node">
<title>Node3</title>
<g id="a_node3"><a xlink:href="_p_d_e_ops_8_h.html" target="_top" xlink:title=" ">
<polygon fill="white" stroke="black" points="544.5,-280.5 544.5,-299.5 609.5,-299.5 609.5,-280.5 544.5,-280.5"/>
<text text-anchor="middle" x="577" y="-287.5" font-family="Helvetica,sans-Serif" font-size="10.00">PDEOps.H</text>
</a>
</g>
</g>
<!-- Node1&#45;&gt;Node3 -->
<g id="edge2" class="edge">
<title>Node1&#45;&gt;Node3</title>
<path fill="none" stroke="midnightblue" d="M1094.77,-341.51C1003.61,-334.96 804.89,-319.7 638,-300 628.75,-298.91 618.74,-297.52 609.56,-296.16"/>
<polygon fill="midnightblue" stroke="midnightblue" points="1094.6,-345.01 1104.83,-342.23 1095.1,-338.03 1094.6,-345.01"/>
</g>
<!-- Node52 -->
<g id="node34" class="node">
<title>Node52</title>
<g id="a_node34"><a xlink:href="incflo_8cpp.html" target="_top" xlink:title=" ">
<polygon fill="white" stroke="black" points="647.5,-280.5 647.5,-299.5 710.5,-299.5 710.5,-280.5 647.5,-280.5"/>
<text text-anchor="middle" x="679" y="-287.5" font-family="Helvetica,sans-Serif" font-size="10.00">incflo.cpp</text>
</a>
</g>
</g>
<!-- Node1&#45;&gt;Node52 -->
<g id="edge71" class="edge">
<title>Node1&#45;&gt;Node52</title>
<path fill="none" stroke="midnightblue" d="M1094.71,-341.49C1014.92,-335.5 854.58,-321.83 720,-300 716.98,-299.51 713.85,-298.94 710.72,-298.33"/>
<polygon fill="midnightblue" stroke="midnightblue" points="1094.73,-345 1104.96,-342.25 1095.25,-338.02 1094.73,-345"/>
</g>
<!-- Node53 -->
<g id="node35" class="node">
<title>Node53</title>
<g id="a_node35"><a xlink:href="_tioga_interface_8cpp.html" target="_top" xlink:title=" ">
<polygon fill="white" stroke="black" points="728.5,-280.5 728.5,-299.5 835.5,-299.5 835.5,-280.5 728.5,-280.5"/>
<text text-anchor="middle" x="782" y="-287.5" font-family="Helvetica,sans-Serif" font-size="10.00">TiogaInterface.cpp</text>
</a>
</g>
</g>
<!-- Node1&#45;&gt;Node53 -->
<g id="edge72" class="edge">
<title>Node1&#45;&gt;Node53</title>
<path fill="none" stroke="midnightblue" d="M1094.71,-337.52C1026.57,-327.38 905.46,-309.37 835.64,-298.98"/>
<polygon fill="midnightblue" stroke="midnightblue" points="1094.36,-341.01 1104.77,-339.01 1095.39,-334.08 1094.36,-341.01"/>
</g>
<!-- Node54 -->
<g id="node36" class="node">
<title>Node54</title>
<g id="a_node36"><a xlink:href="_turb_model_base_8_h.html" target="_top" xlink:title=" ">
<polygon fill="white" stroke="black" points="853.5,-280.5 853.5,-299.5 954.5,-299.5 954.5,-280.5 853.5,-280.5"/>
<text text-anchor="middle" x="904" y="-287.5" font-family="Helvetica,sans-Serif" font-size="10.00">TurbModelBase.H</text>
</a>
</g>
</g>
<!-- Node1&#45;&gt;Node54 -->
<g id="edge73" class="edge">
<title>Node1&#45;&gt;Node54</title>
<path fill="none" stroke="midnightblue" d="M1096.88,-334.22C1051.34,-324.01 983.89,-308.9 942.01,-299.52"/>
<polygon fill="midnightblue" stroke="midnightblue" points="1096.29,-337.67 1106.81,-336.44 1097.82,-330.84 1096.29,-337.67"/>
</g>
<!-- Node64 -->
<g id="node43" class="node">
<title>Node64</title>
<g id="a_node43"><a xlink:href="_re_averaging_8cpp.html" target="_top" xlink:title=" ">
<polygon fill="white" stroke="black" points="973,-280.5 973,-299.5 1071,-299.5 1071,-280.5 973,-280.5"/>
<text text-anchor="middle" x="1022" y="-287.5" font-family="Helvetica,sans-Serif" font-size="10.00">ReAveraging.cpp</text>
</a>
</g>
</g>
<!-- Node1&#45;&gt;Node64 -->
<g id="edge80" class="edge">
<title>Node1&#45;&gt;Node64</title>
<path fill="none" stroke="midnightblue" d="M1116.23,-332.37C1093.19,-322.26 1061.52,-308.35 1041.4,-299.52"/>
<polygon fill="midnightblue" stroke="midnightblue" points="1114.95,-335.63 1125.51,-336.44 1117.76,-329.22 1114.95,-335.63"/>
</g>
<!-- Node65 -->
<g id="node44" class="node">
<title>Node65</title>
<g id="a_node44"><a xlink:href="_reynolds_stress_8cpp.html" target="_top" xlink:title=" ">
<polygon fill="white" stroke="black" points="1089,-280.5 1089,-299.5 1201,-299.5 1201,-280.5 1089,-280.5"/>
<text text-anchor="middle" x="1145" y="-287.5" font-family="Helvetica,sans-Serif" font-size="10.00">ReynoldsStress.cpp</text>
</a>
</g>
</g>
<!-- Node1&#45;&gt;Node65 -->
<g id="edge81" class="edge">
<title>Node1&#45;&gt;Node65</title>
<path fill="none" stroke="midnightblue" d="M1145,-325.8C1145,-316.91 1145,-306.78 1145,-299.75"/>
<polygon fill="midnightblue" stroke="midnightblue" points="1141.5,-326.08 1145,-336.08 1148.5,-326.08 1141.5,-326.08"/>
</g>
<!-- Node66 -->
<g id="node45" class="node">
<title>Node66</title>
<g id="a_node45"><a xlink:href="io_8cpp.html" target="_top" xlink:title=" ">
<polygon fill="white" stroke="black" points="1219,-280.5 1219,-299.5 1265,-299.5 1265,-280.5 1219,-280.5"/>
<text text-anchor="middle" x="1242" y="-287.5" font-family="Helvetica,sans-Serif" font-size="10.00">io.cpp</text>
</a>
</g>
</g>
<!-- Node1&#45;&gt;Node66 -->
<g id="edge82" class="edge">
<title>Node1&#45;&gt;Node66</title>
<path fill="none" stroke="midnightblue" d="M1169.34,-331.45C1187.24,-321.48 1211.05,-308.23 1226.45,-299.65"/>
<polygon fill="midnightblue" stroke="midnightblue" points="1167.62,-328.4 1160.58,-336.32 1171.02,-334.52 1167.62,-328.4"/>
</g>
<!-- Node67 -->
<g id="node46" class="node">
<title>Node67</title>
<g id="a_node46"><a xlink:href="_i_o_manager_8cpp.html" target="_top" xlink:title=" ">
<polygon fill="white" stroke="black" points="1283.5,-280.5 1283.5,-299.5 1372.5,-299.5 1372.5,-280.5 1283.5,-280.5"/>
<text text-anchor="middle" x="1328" y="-287.5" font-family="Helvetica,sans-Serif" font-size="10.00">IOManager.cpp</text>
</a>
</g>
</g>
<!-- Node1&#45;&gt;Node67 -->
<g id="edge83" class="edge">
<title>Node1&#45;&gt;Node67</title>
<path fill="none" stroke="midnightblue" d="M1183.74,-333.57C1218.26,-323.38 1268.01,-308.7 1299.14,-299.52"/>
<polygon fill="midnightblue" stroke="midnightblue" points="1182.6,-330.26 1174,-336.44 1184.58,-336.97 1182.6,-330.26"/>
</g>
<!-- Node68 -->
<g id="node47" class="node">
<title>Node68</title>
<g id="a_node47"><a xlink:href="_enstrophy_8cpp.html" target="_top" xlink:title=" ">
<polygon fill="white" stroke="black" points="1390,-280.5 1390,-299.5 1474,-299.5 1474,-280.5 1390,-280.5"/>
<text text-anchor="middle" x="1432" y="-287.5" font-family="Helvetica,sans-Serif" font-size="10.00">Enstrophy.cpp</text>
</a>
</g>
</g>
<!-- Node1&#45;&gt;Node68 -->
<g id="edge84" class="edge">
<title>Node1&#45;&gt;Node68</title>
<path fill="none" stroke="midnightblue" d="M1195.11,-335.57C1250.26,-325.2 1337.93,-308.7 1389.73,-298.95"/>
<polygon fill="midnightblue" stroke="midnightblue" points="1194.39,-332.15 1185.21,-337.43 1195.68,-339.03 1194.39,-332.15"/>
</g>
<!-- Node69 -->
<g id="node48" class="node">
<title>Node69</title>
<g id="a_node48"><a xlink:href="_field_norms_8cpp.html" target="_top" xlink:title=" ">
<polygon fill="white" stroke="black" points="1492,-280.5 1492,-299.5 1584,-299.5 1584,-280.5 1492,-280.5"/>
<text text-anchor="middle" x="1538" y="-287.5" font-family="Helvetica,sans-Serif" font-size="10.00">FieldNorms.cpp</text>
</a>
</g>
</g>
<!-- Node1&#45;&gt;Node69 -->
<g id="edge85" class="edge">
<title>Node1&#45;&gt;Node69</title>
<path fill="none" stroke="midnightblue" d="M1195.25,-338.79C1261.33,-330.5 1381,-315.13 1483,-300 1485.87,-299.57 1488.82,-299.12 1491.8,-298.66"/>
<polygon fill="midnightblue" stroke="midnightblue" points="1194.61,-335.34 1185.12,-340.05 1195.47,-342.28 1194.61,-335.34"/>
</g>
<!-- Node70 -->
<g id="node49" class="node">
<title>Node70</title>
<g id="a_node49"><a xlink:href="_kinetic_energy_8cpp.html" target="_top" xlink:title=" ">
<polygon fill="white" stroke="black" points="1602.5,-280.5 1602.5,-299.5 1705.5,-299.5 1705.5,-280.5 1602.5,-280.5"/>
<text text-anchor="middle" x="1654" y="-287.5" font-family="Helvetica,sans-Serif" font-size="10.00">KineticEnergy.cpp</text>
</a>
</g>
</g>
<!-- Node1&#45;&gt;Node70 -->
<g id="edge86" class="edge">
<title>Node1&#45;&gt;Node70</title>
<path fill="none" stroke="midnightblue" d="M1195.39,-340.71C1278.4,-333.46 1449.05,-317.84 1593,-300 1596.08,-299.62 1599.25,-299.21 1602.44,-298.78"/>
<polygon fill="midnightblue" stroke="midnightblue" points="1194.89,-337.24 1185.23,-341.59 1195.49,-344.21 1194.89,-337.24"/>
</g>
<!-- Node71 -->
<g id="node50" class="node">
<title>Node71</title>
<g id="a_node50"><a xlink:href="_wave_energy_8cpp.html" target="_top" xlink:title=" ">
<polygon fill="white" stroke="black" points="1724,-280.5 1724,-299.5 1820,-299.5 1820,-280.5 1724,-280.5"/>
<text text-anchor="middle" x="1772" y="-287.5" font-family="Helvetica,sans-Serif" font-size="10.00">WaveEnergy.cpp</text>
</a>
</g>
</g>
<!-- Node1&#45;&gt;Node71 -->
<g id="edge87" class="edge">
<title>Node1&#45;&gt;Node71</title>
<path fill="none" stroke="midnightblue" d="M1195.25,-342.35C1294.72,-336.81 1523.63,-322.63 1715,-300 1717.89,-299.66 1720.85,-299.28 1723.83,-298.87"/>
<polygon fill="midnightblue" stroke="midnightblue" points="1194.98,-338.86 1185.19,-342.91 1195.36,-345.85 1194.98,-338.86"/>
</g>
<!-- Node4 -->
<g id="node4" class="node">
<title>Node4</title>
<g id="a_node4"><a xlink:href="_adv_op___godunov_8_h.html" target="_top" xlink:title=" ">
<polygon fill="white" stroke="black" points="546.5,-112.5 546.5,-131.5 653.5,-131.5 653.5,-112.5 546.5,-112.5"/>
<text text-anchor="middle" x="600" y="-119.5" font-family="Helvetica,sans-Serif" font-size="10.00">AdvOp_Godunov.H</text>
</a>
</g>
</g>
<!-- Node3&#45;&gt;Node4 -->
<g id="edge3" class="edge">
<title>Node3&#45;&gt;Node4</title>
<path fill="none" stroke="midnightblue" d="M572.97,-270.57C571.39,-262.46 569.78,-252.8 569,-244 565.19,-200.8 586.25,-151.25 595.65,-131.63"/>
<polygon fill="midnightblue" stroke="midnightblue" points="569.56,-271.35 575.01,-280.43 576.41,-269.93 569.56,-271.35"/>
</g>
<!-- Node9 -->
<g id="node8" class="node">
<title>Node9</title>
<g id="a_node8"><a xlink:href="icns__ops_8_h.html" target="_top" xlink:title=" ">
<polygon fill="white" stroke="black" points="150.5,-56.5 150.5,-75.5 219.5,-75.5 219.5,-56.5 150.5,-56.5"/>
<text text-anchor="middle" x="185" y="-63.5" font-family="Helvetica,sans-Serif" font-size="10.00">icns_ops.H</text>
</a>
</g>
</g>
<!-- Node3&#45;&gt;Node9 -->
<g id="edge69" class="edge">
<title>Node3&#45;&gt;Node9</title>
<path fill="none" stroke="midnightblue" d="M545.93,-276.6C487.67,-252.69 359.05,-196.85 261,-132 234.64,-114.57 207.35,-89.07 193.77,-75.78"/>
<polygon fill="midnightblue" stroke="midnightblue" points="544.73,-279.89 555.31,-280.42 547.37,-273.41 544.73,-279.89"/>
</g>
<!-- Node16 -->
<g id="node15" class="node">
<title>Node16</title>
<g id="a_node15"><a xlink:href="_adv_op___m_o_l_8_h.html" target="_top" xlink:title=" ">
<polygon fill="white" stroke="black" points="442,-112.5 442,-131.5 528,-131.5 528,-112.5 442,-112.5"/>
<text text-anchor="middle" x="485" y="-119.5" font-family="Helvetica,sans-Serif" font-size="10.00">AdvOp_MOL.H</text>
</a>
</g>
</g>
<!-- Node3&#45;&gt;Node16 -->
<g id="edge15" class="edge">
<title>Node3&#45;&gt;Node16</title>
<path fill="none" stroke="midnightblue" d="M567.2,-271.31C547.58,-235.92 504.16,-157.56 489.75,-131.57"/>
<polygon fill="midnightblue" stroke="midnightblue" points="564.14,-273.03 572.05,-280.08 570.27,-269.63 564.14,-273.03"/>
</g>
<!-- Node17 -->
<g id="node16" class="node">
<title>Node17</title>
<g id="a_node16"><a xlink:href="_b_c_ops_8_h.html" target="_top" xlink:title=" ">
<polygon fill="white" stroke="black" points="1002.5,-112.5 1002.5,-131.5 1061.5,-131.5 1061.5,-112.5 1002.5,-112.5"/>
<text text-anchor="middle" x="1032" y="-119.5" font-family="Helvetica,sans-Serif" font-size="10.00">BCOps.H</text>
</a>
</g>
</g>
<!-- Node3&#45;&gt;Node17 -->
<g id="edge25" class="edge">
<title>Node3&#45;&gt;Node17</title>
<path fill="none" stroke="midnightblue" d="M612.18,-277.14C637.18,-268.49 671.41,-256.2 701,-244 775.27,-213.38 789.5,-195.44 865,-168 890.19,-158.85 961.44,-140.58 1002.28,-130.36"/>
<polygon fill="midnightblue" stroke="midnightblue" points="610.74,-273.93 602.42,-280.49 613.01,-280.55 610.74,-273.93"/>
</g>
<!-- Node23 -->
<g id="node21" class="node">
<title>Node23</title>
<g id="a_node21"><a xlink:href="_comp_r_h_s_ops_8_h.html" target="_top" xlink:title=" ">
<polygon fill="white" stroke="black" points="578.5,-224.5 578.5,-243.5 673.5,-243.5 673.5,-224.5 578.5,-224.5"/>
<text text-anchor="middle" x="626" y="-231.5" font-family="Helvetica,sans-Serif" font-size="10.00">CompRHSOps.H</text>
</a>
</g>
</g>
<!-- Node3&#45;&gt;Node23 -->
<g id="edge39" class="edge">
<title>Node3&#45;&gt;Node23</title>
<path fill="none" stroke="midnightblue" d="M592.03,-272.43C600.62,-262.97 611.04,-251.48 618.06,-243.75"/>
<polygon fill="midnightblue" stroke="midnightblue" points="589.22,-270.33 585.09,-280.08 594.4,-275.03 589.22,-270.33"/>
</g>
<!-- Node24 -->
<g id="node22" class="node">
<title>Node24</title>
<g id="a_node22"><a xlink:href="_p_d_e_8_h.html" target="_top" xlink:title=" ">
<polygon fill="white" stroke="black" points="671.5,-168.5 671.5,-187.5 718.5,-187.5 718.5,-168.5 671.5,-168.5"/>
<text text-anchor="middle" x="695" y="-175.5" font-family="Helvetica,sans-Serif" font-size="10.00">PDE.H</text>
</a>
</g>
</g>
<!-- Node3&#45;&gt;Node24 -->
<g id="edge70" class="edge">
<title>Node3&#45;&gt;Node24</title>
<path fill="none" stroke="midnightblue" d="M619.6,-280.68C641.38,-274.25 666.5,-263.1 682,-244 695.34,-227.56 696.22,-201.17 695.66,-187.63"/>
<polygon fill="midnightblue" stroke="midnightblue" points="618.61,-277.32 609.87,-283.31 620.44,-284.08 618.61,-277.32"/>
</g>
<!-- Node28 -->
<g id="node25" class="node">
<title>Node28</title>
<g id="a_node25"><a xlink:href="icns__diffusion_8_h.html" target="_top" xlink:title=" ">
<polygon fill="white" stroke="black" points="0,-56.5 0,-75.5 94,-75.5 94,-56.5 0,-56.5"/>
<text text-anchor="middle" x="47" y="-63.5" font-family="Helvetica,sans-Serif" font-size="10.00">icns_diffusion.H</text>
</a>
</g>
</g>
<!-- Node3&#45;&gt;Node28 -->
<g id="edge68" class="edge">
<title>Node3&#45;&gt;Node28</title>
<path fill="none" stroke="midnightblue" d="M533.89,-280.17C434.02,-268.26 219.14,-286.32 147,-244 81.24,-205.43 55.26,-105.94 48.75,-75.79"/>
<polygon fill="midnightblue" stroke="midnightblue" points="533.67,-283.67 544.05,-281.55 534.62,-276.74 533.67,-283.67"/>
</g>
<!-- Node50 -->
<g id="node32" class="node">
<title>Node50</title>
<g id="a_node32"><a xlink:href="_diffusion_ops_8_h.html" target="_top" xlink:title=" ">
<polygon fill="white" stroke="black" points="156.5,-224.5 156.5,-243.5 245.5,-243.5 245.5,-224.5 156.5,-224.5"/>
<text text-anchor="middle" x="201" y="-231.5" font-family="Helvetica,sans-Serif" font-size="10.00">DiffusionOps.H</text>
</a>
</g>
</g>
<!-- Node3&#45;&gt;Node50 -->
<g id="edge63" class="edge">
<title>Node3&#45;&gt;Node50</title>
<path fill="none" stroke="midnightblue" d="M534.5,-280.04C414.04,-259.35 381.78,-260 265,-244 258.77,-243.15 252.21,-242.24 245.75,-241.34"/>
<polygon fill="midnightblue" stroke="midnightblue" points="534.04,-283.51 544.49,-281.77 535.23,-276.62 534.04,-283.51"/>
</g>
<!-- Node5 -->
<g id="node5" class="node">
<title>Node5</title>
<g id="a_node5"><a xlink:href="density_8cpp.html" target="_top" xlink:title=" ">
<polygon fill="white" stroke="black" points="1012.5,-56.5 1012.5,-75.5 1083.5,-75.5 1083.5,-56.5 1012.5,-56.5"/>
<text text-anchor="middle" x="1048" y="-63.5" font-family="Helvetica,sans-Serif" font-size="10.00">density.cpp</text>
</a>
</g>
</g>
<!-- Node4&#45;&gt;Node5 -->
<g id="edge4" class="edge">
<title>Node4&#45;&gt;Node5</title>
<path fill="none" stroke="midnightblue" d="M663.76,-111.96C815.52,-93.48 856.01,-98.43 1003,-76 1005.99,-75.54 1009.09,-75.02 1012.19,-74.47"/>
<polygon fill="midnightblue" stroke="midnightblue" points="663.1,-108.51 653.6,-113.21 663.95,-115.46 663.1,-108.51"/>
</g>
<!-- Node6 -->
<g id="node6" class="node">
<title>Node6</title>
<g id="a_node6"><a xlink:href="icns__advection_8_h.html" target="_top" xlink:title=" ">
<polygon fill="white" stroke="red" points="238,-56.5 238,-75.5 338,-75.5 338,-56.5 238,-56.5"/>
<text text-anchor="middle" x="288" y="-63.5" font-family="Helvetica,sans-Serif" font-size="10.00">icns_advection.H</text>
</a>
</g>
</g>
<!-- Node4&#45;&gt;Node6 -->
<g id="edge5" class="edge">
<title>Node4&#45;&gt;Node6</title>
<path fill="none" stroke="midnightblue" d="M540.65,-110.73C481.69,-100.52 392.34,-85.06 337.21,-75.52"/>
<polygon fill="midnightblue" stroke="midnightblue" points="540.11,-114.19 550.56,-112.44 541.31,-107.29 540.11,-114.19"/>
</g>
<!-- Node4&#45;&gt;Node9 -->
<g id="edge7" class="edge">
<title>Node4&#45;&gt;Node9</title>
<path fill="none" stroke="midnightblue" d="M536.31,-111.95C398.62,-94.41 361.89,-97.32 229,-76 225.92,-75.51 222.73,-74.95 219.54,-74.35"/>
<polygon fill="midnightblue" stroke="midnightblue" points="536.03,-115.44 546.4,-113.25 536.93,-108.5 536.03,-115.44"/>
</g>
<!-- Node10 -->
<g id="node9" class="node">
<title>Node10</title>
<g id="a_node9"><a xlink:href="levelset_8cpp.html" target="_top" xlink:title=" ">
<polygon fill="white" stroke="black" points="918,-56.5 918,-75.5 994,-75.5 994,-56.5 918,-56.5"/>
<text text-anchor="middle" x="956" y="-63.5" font-family="Helvetica,sans-Serif" font-size="10.00">levelset.cpp</text>
</a>
</g>
</g>
<!-- Node4&#45;&gt;Node10 -->
<g id="edge9" class="edge">
<title>Node4&#45;&gt;Node10</title>
<path fill="none" stroke="midnightblue" d="M663.88,-111.85C747.26,-99.89 885.39,-79.98 909,-76 911.87,-75.52 914.83,-75 917.81,-74.46"/>
<polygon fill="midnightblue" stroke="midnightblue" points="663.14,-108.42 653.74,-113.31 664.14,-115.35 663.14,-108.42"/>
</g>
<!-- Node11 -->
<g id="node10" class="node">
<title>Node11</title>
<g id="a_node10"><a xlink:href="passive__scalar_8cpp.html" target="_top" xlink:title=" ">
<polygon fill="white" stroke="black" points="716,-56.5 716,-75.5 824,-75.5 824,-56.5 716,-56.5"/>
<text text-anchor="middle" x="770" y="-63.5" font-family="Helvetica,sans-Serif" font-size="10.00">passive_scalar.cpp</text>
</a>
</g>
</g>
<!-- Node4&#45;&gt;Node11 -->
<g id="edge10" class="edge">
<title>Node4&#45;&gt;Node11</title>
<path fill="none" stroke="midnightblue" d="M636.82,-109.3C668.85,-99.13 714.52,-84.62 743.19,-75.52"/>
<polygon fill="midnightblue" stroke="midnightblue" points="635.41,-106.08 626.94,-112.44 637.53,-112.75 635.41,-106.08"/>
</g>
<!-- Node12 -->
<g id="node11" class="node">
<title>Node12</title>
<g id="a_node11"><a xlink:href="_s_d_r_8cpp.html" target="_top" xlink:title=" ">
<polygon fill="white" stroke="black" points="842.5,-56.5 842.5,-75.5 899.5,-75.5 899.5,-56.5 842.5,-56.5"/>
<text text-anchor="middle" x="871" y="-63.5" font-family="Helvetica,sans-Serif" font-size="10.00">SDR.cpp</text>
</a>
</g>
</g>
<!-- Node4&#45;&gt;Node12 -->
<g id="edge11" class="edge">
<title>Node4&#45;&gt;Node12</title>
<path fill="none" stroke="midnightblue" d="M657.46,-110.59C704.7,-101.87 773.33,-88.82 833,-76 836.05,-75.34 839.23,-74.63 842.4,-73.91"/>
<polygon fill="midnightblue" stroke="midnightblue" points="656.62,-107.19 647.42,-112.44 657.89,-114.07 656.62,-107.19"/>
</g>
<!-- Node13 -->
<g id="node12" class="node">
<title>Node13</title>
<g id="a_node12"><a xlink:href="temperature_8cpp.html" target="_top" xlink:title=" ">
<polygon fill="white" stroke="black" points="488,-56.5 488,-75.5 586,-75.5 586,-56.5 488,-56.5"/>
<text text-anchor="middle" x="537" y="-63.5" font-family="Helvetica,sans-Serif" font-size="10.00">temperature.cpp</text>
</a>
</g>
</g>
<!-- Node4&#45;&gt;Node13 -->
<g id="edge12" class="edge">
<title>Node4&#45;&gt;Node13</title>
<path fill="none" stroke="midnightblue" d="M581.96,-105.54C570.73,-95.91 556.68,-83.87 547.31,-75.83"/>
<polygon fill="midnightblue" stroke="midnightblue" points="580.01,-108.47 589.88,-112.32 584.56,-103.16 580.01,-108.47"/>
</g>
<!-- Node14 -->
<g id="node13" class="node">
<title>Node14</title>
<g id="a_node13"><a xlink:href="_t_k_e_8cpp.html" target="_top" xlink:title=" ">
<polygon fill="white" stroke="black" points="642,-56.5 642,-75.5 698,-75.5 698,-56.5 642,-56.5"/>
<text text-anchor="middle" x="670" y="-63.5" font-family="Helvetica,sans-Serif" font-size="10.00">TKE.cpp</text>
</a>
</g>
</g>
<!-- Node4&#45;&gt;Node14 -->
<g id="edge13" class="edge">
<title>Node4&#45;&gt;Node14</title>
<path fill="none" stroke="midnightblue" d="M619.31,-106.1C631.91,-96.38 647.93,-84.03 658.55,-75.83"/>
<polygon fill="midnightblue" stroke="midnightblue" points="617.03,-103.44 611.25,-112.32 621.3,-108.99 617.03,-103.44"/>
</g>
<!-- Node15 -->
<g id="node14" class="node">
<title>Node15</title>
<g id="a_node14"><a xlink:href="vof_8cpp.html" target="_top" xlink:title=" ">
<polygon fill="white" stroke="black" points="1317,-0.5 1317,-19.5 1369,-19.5 1369,-0.5 1317,-0.5"/>
<text text-anchor="middle" x="1343" y="-7.5" font-family="Helvetica,sans-Serif" font-size="10.00">vof.cpp</text>
</a>
</g>
</g>
<!-- Node4&#45;&gt;Node15 -->
<g id="edge14" class="edge">
<title>Node4&#45;&gt;Node15</title>
<path fill="none" stroke="midnightblue" d="M604.02,-102.55C608.39,-87.31 617.01,-66.53 633,-56 691.03,-17.8 1195.51,-11.99 1316.84,-11.14"/>
<polygon fill="midnightblue" stroke="midnightblue" points="600.58,-101.9 601.54,-112.45 607.37,-103.6 600.58,-101.9"/>
</g>
<!-- Node7 -->
<g id="node7" class="node">
<title>Node7</title>
<g id="a_node7"><a xlink:href="icns_8cpp.html" target="_top" xlink:title=" ">
<polygon fill="white" stroke="black" points="157,-0.5 157,-19.5 213,-19.5 213,-0.5 157,-0.5"/>
<text text-anchor="middle" x="185" y="-7.5" font-family="Helvetica,sans-Serif" font-size="10.00">icns.cpp</text>
</a>
</g>
</g>
<!-- Node6&#45;&gt;Node7 -->
<g id="edge6" class="edge">
<title>Node6&#45;&gt;Node7</title>
<path fill="none" stroke="midnightblue" d="M262.42,-51.59C243.38,-41.61 217.94,-28.27 201.51,-19.65"/>
<polygon fill="midnightblue" stroke="midnightblue" points="260.97,-54.78 271.45,-56.32 264.22,-48.58 260.97,-54.78"/>
</g>
<!-- Node9&#45;&gt;Node7 -->
<g id="edge8" class="edge">
<title>Node9&#45;&gt;Node7</title>
<path fill="none" stroke="midnightblue" d="M185,-45.8C185,-36.91 185,-26.78 185,-19.75"/>
<polygon fill="midnightblue" stroke="midnightblue" points="181.5,-46.08 185,-56.08 188.5,-46.08 181.5,-46.08"/>
</g>
<!-- Node16&#45;&gt;Node5 -->
<g id="edge16" class="edge">
<title>Node16&#45;&gt;Node5</title>
<path fill="none" stroke="midnightblue" d="M538.05,-111.99C744.85,-86.81 800.44,-103.98 1003,-76 1006,-75.59 1009.1,-75.1 1012.2,-74.56"/>
<polygon fill="midnightblue" stroke="midnightblue" points="537.58,-108.52 528.08,-113.22 538.44,-115.47 537.58,-108.52"/>
</g>
<!-- Node16&#45;&gt;Node6 -->
<g id="edge17" class="edge">
<title>Node16&#45;&gt;Node6</title>
<path fill="none" stroke="midnightblue" d="M443.77,-109.7C406.59,-99.51 352.73,-84.74 319.07,-75.52"/>
<polygon fill="midnightblue" stroke="midnightblue" points="443.22,-113.18 453.78,-112.44 445.07,-106.42 443.22,-113.18"/>
</g>
<!-- Node16&#45;&gt;Node9 -->
<g id="edge18" class="edge">
<title>Node16&#45;&gt;Node9</title>
<path fill="none" stroke="midnightblue" d="M431.58,-111.69C362.46,-99.63 248.53,-79.71 229,-76 225.94,-75.42 222.76,-74.8 219.57,-74.17"/>
<polygon fill="midnightblue" stroke="midnightblue" points="431.4,-115.21 441.85,-113.48 432.6,-108.32 431.4,-115.21"/>
</g>
<!-- Node16&#45;&gt;Node10 -->
<g id="edge19" class="edge">
<title>Node16&#45;&gt;Node10</title>
<path fill="none" stroke="midnightblue" d="M538.11,-111.95C703.34,-90.19 747.8,-99.18 909,-76 911.88,-75.59 914.85,-75.12 917.83,-74.62"/>
<polygon fill="midnightblue" stroke="midnightblue" points="537.54,-108.49 528.09,-113.29 538.47,-115.43 537.54,-108.49"/>
</g>
<!-- Node16&#45;&gt;Node11 -->
<g id="edge20" class="edge">
<title>Node16&#45;&gt;Node11</title>
<path fill="none" stroke="midnightblue" d="M538.32,-110.9C592.1,-100.71 674.24,-85.14 724.89,-75.55"/>
<polygon fill="midnightblue" stroke="midnightblue" points="537.46,-107.5 528.29,-112.8 538.76,-114.38 537.46,-107.5"/>
</g>
<!-- Node16&#45;&gt;Node12 -->
<g id="edge21" class="edge">
<title>Node16&#45;&gt;Node12</title>
<path fill="none" stroke="midnightblue" d="M538.17,-111.9C669.85,-93 705.73,-98.74 833,-76 836.07,-75.45 839.26,-74.81 842.44,-74.13"/>
<polygon fill="midnightblue" stroke="midnightblue" points="537.49,-108.46 528.1,-113.37 538.5,-115.39 537.49,-108.46"/>
</g>
<!-- Node16&#45;&gt;Node13 -->
<g id="edge22" class="edge">
<title>Node16&#45;&gt;Node13</title>
<path fill="none" stroke="midnightblue" d="M500.68,-104.72C509.84,-95.2 521.05,-83.56 528.57,-75.75"/>
<polygon fill="midnightblue" stroke="midnightblue" points="498,-102.45 493.59,-112.08 503.04,-107.31 498,-102.45"/>
</g>
<!-- Node16&#45;&gt;Node14 -->
<g id="edge23" class="edge">
<title>Node16&#45;&gt;Node14</title>
<path fill="none" stroke="midnightblue" d="M524.26,-109.54C559.49,-99.26 610.35,-84.41 641.73,-75.25"/>
<polygon fill="midnightblue" stroke="midnightblue" points="522.93,-106.28 514.31,-112.44 524.89,-113 522.93,-106.28"/>
</g>
<!-- Node16&#45;&gt;Node15 -->
<g id="edge24" class="edge">
<title>Node16&#45;&gt;Node15</title>
<path fill="none" stroke="midnightblue" d="M476.54,-102.57C471.27,-88.01 467.45,-68.17 479,-56 508.57,-24.85 1175.15,-13.44 1316.72,-11.36"/>
<polygon fill="midnightblue" stroke="midnightblue" points="473.4,-104.14 480.44,-112.06 479.87,-101.48 473.4,-104.14"/>
</g>
<!-- Node17&#45;&gt;Node5 -->
<g id="edge26" class="edge">
<title>Node17&#45;&gt;Node5</title>
<path fill="none" stroke="midnightblue" d="M1037.51,-102.4C1040.19,-93.36 1043.28,-82.94 1045.41,-75.75"/>
<polygon fill="midnightblue" stroke="midnightblue" points="1034.13,-101.5 1034.64,-112.08 1040.84,-103.49 1034.13,-101.5"/>
</g>
<!-- Node17&#45;&gt;Node10 -->
<g id="edge29" class="edge">
<title>Node17&#45;&gt;Node10</title>
<path fill="none" stroke="midnightblue" d="M1011.42,-106.38C997.69,-96.62 980.07,-84.11 968.43,-75.83"/>
<polygon fill="midnightblue" stroke="midnightblue" points="1009.61,-109.38 1019.79,-112.32 1013.66,-103.68 1009.61,-109.38"/>
</g>
<!-- Node17&#45;&gt;Node11 -->
<g id="edge30" class="edge">
<title>Node17&#45;&gt;Node11</title>
<path fill="none" stroke="midnightblue" d="M992.2,-111.87C924.36,-97.27 857.01,-83.9 814.08,-75.52"/>
<polygon fill="midnightblue" stroke="midnightblue" points="991.69,-115.35 1002.21,-114.04 993.17,-108.5 991.69,-115.35"/>
</g>
<!-- Node17&#45;&gt;Node12 -->
<g id="edge31" class="edge">
<title>Node17&#45;&gt;Node12</title>
<path fill="none" stroke="midnightblue" d="M996.74,-109.17C966.42,-99 923.43,-84.59 896.39,-75.52"/>
<polygon fill="midnightblue" stroke="midnightblue" points="995.9,-112.58 1006.49,-112.44 998.12,-105.95 995.9,-112.58"/>
</g>
<!-- Node17&#45;&gt;Node13 -->
<g id="edge32" class="edge">
<title>Node17&#45;&gt;Node13</title>
<path fill="none" stroke="midnightblue" d="M992.29,-112.33C934.51,-105.04 691.82,-81.76 586.24,-71.69"/>
<polygon fill="midnightblue" stroke="midnightblue" points="991.88,-115.8 1002.27,-113.72 992.85,-108.87 991.88,-115.8"/>
</g>
<!-- Node17&#45;&gt;Node14 -->
<g id="edge33" class="edge">
<title>Node17&#45;&gt;Node14</title>
<path fill="none" stroke="midnightblue" d="M992.13,-112.03C865.09,-90.03 829.8,-98.59 707,-76 704.14,-75.47 701.17,-74.86 698.21,-74.21"/>
<polygon fill="midnightblue" stroke="midnightblue" points="991.8,-115.52 1002.25,-113.81 993.01,-108.63 991.8,-115.52"/>
</g>
<!-- Node17&#45;&gt;Node15 -->
<g id="edge34" class="edge">
<title>Node17&#45;&gt;Node15</title>
<path fill="none" stroke="midnightblue" d="M1071.9,-112.22C1141.63,-102.62 1283.17,-111.37 1324,-76 1340.53,-61.68 1343.07,-33.86 1343.22,-19.71"/>
<polygon fill="midnightblue" stroke="midnightblue" points="1071.07,-108.81 1061.76,-113.86 1072.18,-115.72 1071.07,-108.81"/>
</g>
<!-- Node18 -->
<g id="node17" class="node">
<title>Node18</title>
<g id="a_node17"><a xlink:href="icns__bcop_8_h.html" target="_top" xlink:title=" ">
<polygon fill="white" stroke="black" points="356.5,-56.5 356.5,-75.5 431.5,-75.5 431.5,-56.5 356.5,-56.5"/>
<text text-anchor="middle" x="394" y="-63.5" font-family="Helvetica,sans-Serif" font-size="10.00">icns_bcop.H</text>
</a>
</g>
</g>
<!-- Node17&#45;&gt;Node18 -->
<g id="edge27" class="edge">
<title>Node17&#45;&gt;Node18</title>
<path fill="none" stroke="midnightblue" d="M992.37,-112.16C764.8,-78.65 703.89,-95.78 479,-76 463.48,-74.64 446.39,-72.88 431.63,-71.28"/>
<polygon fill="midnightblue" stroke="midnightblue" points="991.88,-115.63 1002.28,-113.64 992.91,-108.7 991.88,-115.63"/>
</g>
<!-- Node19 -->
<g id="node18" class="node">
<title>Node19</title>
<g id="a_node18"><a xlink:href="vof__bcop_8_h.html" target="_top" xlink:title=" ">
<polygon fill="white" stroke="black" points="1371.5,-56.5 1371.5,-75.5 1442.5,-75.5 1442.5,-56.5 1371.5,-56.5"/>
<text text-anchor="middle" x="1407" y="-63.5" font-family="Helvetica,sans-Serif" font-size="10.00">vof_bcop.H</text>
</a>
</g>
</g>
<!-- Node17&#45;&gt;Node19 -->
<g id="edge35" class="edge">
<title>Node17&#45;&gt;Node19</title>
<path fill="none" stroke="midnightblue" d="M1071.86,-112.02C1198.88,-89.84 1233.57,-94.86 1357,-76 1361.62,-75.29 1366.47,-74.49 1371.26,-73.67"/>
<polygon fill="midnightblue" stroke="midnightblue" points="1070.98,-108.62 1061.75,-113.81 1072.2,-115.51 1070.98,-108.62"/>
</g>
<!-- Node20 -->
<g id="node19" class="node">
<title>Node20</title>
<g id="a_node19"><a xlink:href="hos__waves__ops_8_h.html" target="_top" xlink:title=" ">
<polygon fill="white" stroke="red" points="1211,-56.5 1211,-75.5 1315,-75.5 1315,-56.5 1211,-56.5"/>
<text text-anchor="middle" x="1263" y="-63.5" font-family="Helvetica,sans-Serif" font-size="10.00">hos_waves_ops.H</text>
</a>
</g>
</g>
<!-- Node17&#45;&gt;Node20 -->
<g id="edge37" class="edge">
<title>Node17&#45;&gt;Node20</title>
<path fill="none" stroke="midnightblue" d="M1071.66,-111.73C1115.16,-101.56 1184.36,-85.38 1226.54,-75.52"/>
<polygon fill="midnightblue" stroke="midnightblue" points="1070.67,-108.37 1061.73,-114.05 1072.26,-115.18 1070.67,-108.37"/>
</g>
<!-- Node22 -->
<g id="node20" class="node">
<title>Node22</title>
<g id="a_node20"><a xlink:href="_multi_phase_8cpp.html" target="_top" xlink:title=" ">
<polygon fill="white" stroke="black" points="1101.5,-56.5 1101.5,-75.5 1192.5,-75.5 1192.5,-56.5 1101.5,-56.5"/>
<text text-anchor="middle" x="1147" y="-63.5" font-family="Helvetica,sans-Serif" font-size="10.00">MultiPhase.cpp</text>
</a>
</g>
</g>
<!-- Node17&#45;&gt;Node22 -->
<g id="edge38" class="edge">
<title>Node17&#45;&gt;Node22</title>
<path fill="none" stroke="midnightblue" d="M1059.48,-108.1C1080.97,-98.01 1110.22,-84.27 1128.86,-75.52"/>
<polygon fill="midnightblue" stroke="midnightblue" points="1057.79,-105.02 1050.22,-112.44 1060.76,-111.36 1057.79,-105.02"/>
</g>
<!-- Node18&#45;&gt;Node7 -->
<g id="edge28" class="edge">
<title>Node18&#45;&gt;Node7</title>
<path fill="none" stroke="midnightblue" d="M351.11,-53.92C309.88,-43.27 248.73,-27.47 213.27,-18.3"/>
<polygon fill="midnightblue" stroke="midnightblue" points="350.33,-57.33 360.88,-56.44 352.08,-50.55 350.33,-57.33"/>
</g>
<!-- Node19&#45;&gt;Node15 -->
<g id="edge36" class="edge">
<title>Node19&#45;&gt;Node15</title>
<path fill="none" stroke="midnightblue" d="M1389.01,-49.82C1377.54,-40.15 1363.09,-27.95 1353.47,-19.83"/>
<polygon fill="midnightblue" stroke="midnightblue" points="1386.82,-52.55 1396.72,-56.32 1391.33,-47.2 1386.82,-52.55"/>
</g>
<!-- Node23&#45;&gt;Node24 -->
<g id="edge40" class="edge">
<title>Node23&#45;&gt;Node24</title>
<path fill="none" stroke="midnightblue" d="M645.04,-218.1C657.46,-208.38 673.24,-196.03 683.71,-187.83"/>
<polygon fill="midnightblue" stroke="midnightblue" points="642.8,-215.4 637.09,-224.32 647.12,-220.92 642.8,-215.4"/>
</g>
<!-- Node25 -->
<g id="node23" class="node">
<title>Node25</title>
<g id="a_node23"><a xlink:href="density_8_h.html" target="_top" xlink:title=" ">
<polygon fill="white" stroke="red" points="1080,-112.5 1080,-131.5 1142,-131.5 1142,-112.5 1080,-112.5"/>
<text text-anchor="middle" x="1111" y="-119.5" font-family="Helvetica,sans-Serif" font-size="10.00">density.H</text>
</a>
</g>
</g>
<!-- Node24&#45;&gt;Node25 -->
<g id="edge41" class="edge">
<title>Node24&#45;&gt;Node25</title>
<path fill="none" stroke="midnightblue" d="M729.14,-174.09C795.37,-168.19 945.79,-153.52 1071,-132 1073.81,-131.52 1076.71,-130.97 1079.62,-130.38"/>
<polygon fill="midnightblue" stroke="midnightblue" points="728.53,-170.63 718.88,-175 729.15,-177.61 728.53,-170.63"/>
</g>
<!-- Node27 -->
<g id="node24" class="node">
<title>Node27</title>
<g id="a_node24"><a xlink:href="icns_8_h.html" target="_top" xlink:title=" ">
<polygon fill="white" stroke="red" points="270.5,-112.5 270.5,-131.5 317.5,-131.5 317.5,-112.5 270.5,-112.5"/>
<text text-anchor="middle" x="294" y="-119.5" font-family="Helvetica,sans-Serif" font-size="10.00">icns.H</text>
</a>
</g>
</g>
<!-- Node24&#45;&gt;Node27 -->
<g id="edge43" class="edge">
<title>Node24&#45;&gt;Node27</title>
<path fill="none" stroke="midnightblue" d="M661.02,-174.5C595.8,-169.33 448.75,-155.92 327,-132 323.97,-131.4 320.81,-130.68 317.7,-129.9"/>
<polygon fill="midnightblue" stroke="midnightblue" points="660.89,-178 671.13,-175.28 661.43,-171.02 660.89,-178"/>
</g>
<!-- Node34 -->
<g id="node26" class="node">
<title>Node34</title>
<g id="a_node26"><a xlink:href="levelset_8_h.html" target="_top" xlink:title=" ">
<polygon fill="white" stroke="red" points="918,-112.5 918,-131.5 984,-131.5 984,-112.5 918,-112.5"/>
<text text-anchor="middle" x="951" y="-119.5" font-family="Helvetica,sans-Serif" font-size="10.00">levelset.H</text>
</a>
</g>
</g>
<!-- Node24&#45;&gt;Node34 -->
<g id="edge50" class="edge">
<title>Node24&#45;&gt;Node34</title>
<path fill="none" stroke="midnightblue" d="M728.58,-168.99C730.07,-168.65 731.55,-168.32 733,-168 810.97,-150.8 830.85,-148.36 909,-132 911.92,-131.39 914.95,-130.75 917.99,-130.1"/>
<polygon fill="midnightblue" stroke="midnightblue" points="727.65,-165.61 718.69,-171.27 729.22,-172.43 727.65,-165.61"/>
</g>
<!-- Node36 -->
<g id="node27" class="node">
<title>Node36</title>
<g id="a_node27"><a xlink:href="passive__scalar_8_h.html" target="_top" xlink:title=" ">
<polygon fill="white" stroke="black" points="736,-112.5 736,-131.5 834,-131.5 834,-112.5 736,-112.5"/>
<text text-anchor="middle" x="785" y="-119.5" font-family="Helvetica,sans-Serif" font-size="10.00">passive_scalar.H</text>
</a>
</g>
</g>
<!-- Node24&#45;&gt;Node36 -->
<g id="edge52" class="edge">
<title>Node24&#45;&gt;Node36</title>
<path fill="none" stroke="midnightblue" d="M718.04,-163.18C734.6,-153.24 756.42,-140.15 770.58,-131.65"/>
<polygon fill="midnightblue" stroke="midnightblue" points="716.23,-160.18 709.46,-168.32 719.84,-166.18 716.23,-160.18"/>
</g>
<!-- Node37 -->
<g id="node28" class="node">
<title>Node37</title>
<g id="a_node28"><a xlink:href="_s_d_r_8_h.html" target="_top" xlink:title=" ">
<polygon fill="white" stroke="red" points="852.5,-112.5 852.5,-131.5 899.5,-131.5 899.5,-112.5 852.5,-112.5"/>
<text text-anchor="middle" x="876" y="-119.5" font-family="Helvetica,sans-Serif" font-size="10.00">SDR.H</text>
</a>
</g>
</g>
<!-- Node24&#45;&gt;Node37 -->
<g id="edge54" class="edge">
<title>Node24&#45;&gt;Node37</title>
<path fill="none" stroke="midnightblue" d="M728.69,-166.95C764.66,-156.22 820.76,-139.48 852.33,-130.06"/>
<polygon fill="midnightblue" stroke="midnightblue" points="727.24,-163.73 718.66,-169.94 729.25,-170.44 727.24,-163.73"/>
</g>
<!-- Node42 -->
<g id="node29" class="node">
<title>Node42</title>
<g id="a_node29"><a xlink:href="temperature_8_h.html" target="_top" xlink:title=" ">
<polygon fill="white" stroke="black" points="336,-112.5 336,-131.5 424,-131.5 424,-112.5 336,-112.5"/>
<text text-anchor="middle" x="380" y="-119.5" font-family="Helvetica,sans-Serif" font-size="10.00">temperature.H</text>
</a>
</g>
</g>
<!-- Node24&#45;&gt;Node42 -->
<g id="edge56" class="edge">
<title>Node24&#45;&gt;Node42</title>
<path fill="none" stroke="midnightblue" d="M661.35,-171.23C604.14,-161.42 487.93,-141.5 424.23,-130.58"/>
<polygon fill="midnightblue" stroke="midnightblue" points="660.88,-174.7 671.32,-172.94 662.06,-167.8 660.88,-174.7"/>
</g>
<!-- Node43 -->
<g id="node30" class="node">
<title>Node43</title>
<g id="a_node30"><a xlink:href="_t_k_e_8_h.html" target="_top" xlink:title=" ">
<polygon fill="white" stroke="red" points="672,-112.5 672,-131.5 718,-131.5 718,-112.5 672,-112.5"/>
<text text-anchor="middle" x="695" y="-119.5" font-family="Helvetica,sans-Serif" font-size="10.00">TKE.H</text>
</a>
</g>
</g>
<!-- Node24&#45;&gt;Node43 -->
<g id="edge58" class="edge">
<title>Node24&#45;&gt;Node43</title>
<path fill="none" stroke="midnightblue" d="M695,-157.8C695,-148.91 695,-138.78 695,-131.75"/>
<polygon fill="midnightblue" stroke="midnightblue" points="691.5,-158.08 695,-168.08 698.5,-158.08 691.5,-158.08"/>
</g>
<!-- Node47 -->
<g id="node31" class="node">
<title>Node47</title>
<g id="a_node31"><a xlink:href="vof_8_h.html" target="_top" xlink:title=" ">
<polygon fill="white" stroke="red" points="1386,-112.5 1386,-131.5 1428,-131.5 1428,-112.5 1386,-112.5"/>
<text text-anchor="middle" x="1407" y="-119.5" font-family="Helvetica,sans-Serif" font-size="10.00">vof.H</text>
</a>
</g>
</g>
<!-- Node24&#45;&gt;Node47 -->
<g id="edge60" class="edge">
<title>Node24&#45;&gt;Node47</title>
<path fill="none" stroke="midnightblue" d="M728.78,-174.44C853.3,-164.99 1284.64,-132.28 1385.7,-124.62"/>
<polygon fill="midnightblue" stroke="midnightblue" points="728.4,-170.96 718.69,-175.2 728.93,-177.94 728.4,-170.96"/>
</g>
<!-- Node25&#45;&gt;Node5 -->
<g id="edge42" class="edge">
<title>Node25&#45;&gt;Node5</title>
<path fill="none" stroke="midnightblue" d="M1092.96,-105.54C1081.73,-95.91 1067.68,-83.87 1058.31,-75.83"/>
<polygon fill="midnightblue" stroke="midnightblue" points="1091.01,-108.47 1100.88,-112.32 1095.56,-103.16 1091.01,-108.47"/>
</g>
<!-- Node27&#45;&gt;Node6 -->
<g id="edge45" class="edge">
<title>Node27&#45;&gt;Node6</title>
<path fill="none" stroke="midnightblue" d="M291.9,-102.1C290.9,-93.14 289.76,-82.86 288.97,-75.75"/>
<polygon fill="midnightblue" stroke="midnightblue" points="288.43,-102.53 293.01,-112.08 295.38,-101.76 288.43,-102.53"/>
</g>
<!-- Node27&#45;&gt;Node7 -->
<g id="edge44" class="edge">
<title>Node27&#45;&gt;Node7</title>
<path fill="none" stroke="midnightblue" d="M260.34,-115.86C219.79,-108.9 155.31,-95.12 141,-76 126.3,-56.36 154.03,-32.2 171.78,-19.59"/>
<polygon fill="midnightblue" stroke="midnightblue" points="259.9,-119.34 270.34,-117.52 261.05,-112.43 259.9,-119.34"/>
</g>
<!-- Node27&#45;&gt;Node9 -->
<g id="edge49" class="edge">
<title>Node27&#45;&gt;Node9</title>
<path fill="none" stroke="midnightblue" d="M267.48,-107.86C247.27,-97.85 220.01,-84.35 202.47,-75.65"/>
<polygon fill="midnightblue" stroke="midnightblue" points="265.97,-111.02 276.49,-112.32 269.08,-104.75 265.97,-111.02"/>
</g>
<!-- Node27&#45;&gt;Node18 -->
<g id="edge46" class="edge">
<title>Node27&#45;&gt;Node18</title>
<path fill="none" stroke="midnightblue" d="M319.09,-107.45C337.55,-97.48 362.1,-84.23 377.97,-75.65"/>
<polygon fill="midnightblue" stroke="midnightblue" points="317.2,-104.49 310.07,-112.32 320.53,-110.65 317.2,-104.49"/>
</g>
<!-- Node27&#45;&gt;Node28 -->
<g id="edge47" class="edge">
<title>Node27&#45;&gt;Node28</title>
<path fill="none" stroke="midnightblue" d="M260.37,-113.65C214.88,-103.7 133.95,-86.01 85.9,-75.5"/>
<polygon fill="midnightblue" stroke="midnightblue" points="259.8,-117.11 270.32,-115.82 261.29,-110.27 259.8,-117.11"/>
</g>
<!-- Node28&#45;&gt;Node7 -->
<g id="edge48" class="edge">
<title>Node28&#45;&gt;Node7</title>
<path fill="none" stroke="midnightblue" d="M78.25,-52.77C104.17,-42.63 140.36,-28.47 163.24,-19.52"/>
<polygon fill="midnightblue" stroke="midnightblue" points="76.9,-49.54 68.87,-56.44 79.45,-56.06 76.9,-49.54"/>
</g>
<!-- Node34&#45;&gt;Node10 -->
<g id="edge51" class="edge">
<title>Node34&#45;&gt;Node10</title>
<path fill="none" stroke="midnightblue" d="M952.75,-102.1C953.58,-93.14 954.53,-82.86 955.19,-75.75"/>
<polygon fill="midnightblue" stroke="midnightblue" points="949.26,-101.8 951.83,-112.08 956.23,-102.45 949.26,-101.8"/>
</g>
<!-- Node36&#45;&gt;Node11 -->
<g id="edge53" class="edge">
<title>Node36&#45;&gt;Node11</title>
<path fill="none" stroke="midnightblue" d="M779.83,-102.4C777.32,-93.36 774.43,-82.94 772.43,-75.75"/>
<polygon fill="midnightblue" stroke="midnightblue" points="776.47,-103.38 782.52,-112.08 783.22,-101.51 776.47,-103.38"/>
</g>
<!-- Node37&#45;&gt;Node12 -->
<g id="edge55" class="edge">
<title>Node37&#45;&gt;Node12</title>
<path fill="none" stroke="midnightblue" d="M874.25,-102.1C873.42,-93.14 872.47,-82.86 871.81,-75.75"/>
<polygon fill="midnightblue" stroke="midnightblue" points="870.77,-102.45 875.17,-112.08 877.74,-101.8 870.77,-102.45"/>
</g>
<!-- Node42&#45;&gt;Node13 -->
<g id="edge57" class="edge">
<title>Node42&#45;&gt;Node13</title>
<path fill="none" stroke="midnightblue" d="M414.39,-109.17C443.95,-99 485.87,-84.59 512.24,-75.52"/>
<polygon fill="midnightblue" stroke="midnightblue" points="413.2,-105.88 404.88,-112.44 415.47,-112.5 413.2,-105.88"/>
</g>
<!-- Node43&#45;&gt;Node14 -->
<g id="edge59" class="edge">
<title>Node43&#45;&gt;Node14</title>
<path fill="none" stroke="midnightblue" d="M686.66,-102.98C682.42,-93.82 677.45,-83.09 674.05,-75.75"/>
<polygon fill="midnightblue" stroke="midnightblue" points="683.49,-104.48 690.87,-112.08 689.85,-101.54 683.49,-104.48"/>
</g>
<!-- Node47&#45;&gt;Node15 -->
<g id="edge61" class="edge">
<title>Node47&#45;&gt;Node15</title>
<path fill="none" stroke="midnightblue" d="M1428.85,-106.23C1445.46,-93.11 1463.63,-73.39 1452,-56 1433.67,-28.6 1395.28,-17.87 1369.32,-13.67"/>
<polygon fill="midnightblue" stroke="midnightblue" points="1426.42,-103.67 1420.47,-112.44 1430.59,-109.3 1426.42,-103.67"/>
</g>
<!-- Node47&#45;&gt;Node19 -->
<g id="edge62" class="edge">
<title>Node47&#45;&gt;Node19</title>
<path fill="none" stroke="midnightblue" d="M1407,-101.8C1407,-92.91 1407,-82.78 1407,-75.75"/>
<polygon fill="midnightblue" stroke="midnightblue" points="1403.5,-102.08 1407,-112.08 1410.5,-102.08 1403.5,-102.08"/>
</g>
<!-- Node50&#45;&gt;Node9 -->
<g id="edge66" class="edge">
<title>Node50&#45;&gt;Node9</title>
<path fill="none" stroke="midnightblue" d="M173.17,-219.27C161.26,-211.81 148.6,-201.34 142,-188 122.12,-147.84 159.97,-96.15 177.15,-75.79"/>
<polygon fill="midnightblue" stroke="midnightblue" points="171.61,-222.41 182.02,-224.4 175.12,-216.36 171.61,-222.41"/>
</g>
<!-- Node50&#45;&gt;Node24 -->
<g id="edge67" class="edge">
<title>Node50&#45;&gt;Node24</title>
<path fill="none" stroke="midnightblue" d="M255.68,-227.02C362.85,-215.31 596.59,-189.76 671.44,-181.58"/>
<polygon fill="midnightblue" stroke="midnightblue" points="255.27,-223.55 245.71,-228.11 256.03,-230.51 255.27,-223.55"/>
</g>
<!-- Node50&#45;&gt;Node28 -->
<g id="edge65" class="edge">
<title>Node50&#45;&gt;Node28</title>
<path fill="none" stroke="midnightblue" d="M175.84,-219.4C162.26,-211.34 145.73,-200.31 133,-188 95.39,-151.63 63.35,-96.85 51.7,-75.73"/>
<polygon fill="midnightblue" stroke="midnightblue" points="174.27,-222.53 184.68,-224.48 177.75,-216.46 174.27,-222.53"/>
</g>
<!-- Node51 -->
<g id="node33" class="node">
<title>Node51</title>
<g id="a_node33"><a xlink:href="_diffusion_ops_8cpp.html" target="_top" xlink:title=" ">
<polygon fill="white" stroke="black" points="151.5,-168.5 151.5,-187.5 250.5,-187.5 250.5,-168.5 151.5,-168.5"/>
<text text-anchor="middle" x="201" y="-175.5" font-family="Helvetica,sans-Serif" font-size="10.00">DiffusionOps.cpp</text>
</a>
</g>
</g>
<!-- Node50&#45;&gt;Node51 -->
<g id="edge64" class="edge">
<title>Node50&#45;&gt;Node51</title>
<path fill="none" stroke="midnightblue" d="M201,-213.8C201,-204.91 201,-194.78 201,-187.75"/>
<polygon fill="midnightblue" stroke="midnightblue" points="197.5,-214.08 201,-224.08 204.5,-214.08 197.5,-214.08"/>
</g>
<!-- Node55 -->
<g id="node37" class="node">
<title>Node55</title>
<g id="a_node37"><a xlink:href="_a_m_d_8_h.html" target="_top" xlink:title=" ">
<polygon fill="white" stroke="black" points="879,-224.5 879,-243.5 929,-243.5 929,-224.5 879,-224.5"/>
<text text-anchor="middle" x="904" y="-231.5" font-family="Helvetica,sans-Serif" font-size="10.00">AMD.H</text>
</a>
</g>
</g>
<!-- Node54&#45;&gt;Node55 -->
<g id="edge74" class="edge">
<title>Node54&#45;&gt;Node55</title>
<path fill="none" stroke="midnightblue" d="M904,-269.8C904,-260.91 904,-250.78 904,-243.75"/>
<polygon fill="midnightblue" stroke="midnightblue" points="900.5,-270.08 904,-280.08 907.5,-270.08 900.5,-270.08"/>
</g>
<!-- Node57 -->
<g id="node39" class="node">
<title>Node57</title>
<g id="a_node39"><a xlink:href="_a_m_d_no_therm_8_h.html" target="_top" xlink:title=" ">
<polygon fill="white" stroke="red" points="947.5,-224.5 947.5,-243.5 1042.5,-243.5 1042.5,-224.5 947.5,-224.5"/>
<text text-anchor="middle" x="995" y="-231.5" font-family="Helvetica,sans-Serif" font-size="10.00">AMDNoTherm.H</text>
</a>
</g>
</g>
<!-- Node54&#45;&gt;Node57 -->
<g id="edge76" class="edge">
<title>Node54&#45;&gt;Node57</title>
<path fill="none" stroke="midnightblue" d="M927.29,-275.18C944.04,-265.24 966.1,-252.15 980.42,-243.65"/>
<polygon fill="midnightblue" stroke="midnightblue" points="925.43,-272.21 918.62,-280.32 929.01,-278.23 925.43,-272.21"/>
</g>
<!-- Node59 -->
<g id="node40" class="node">
<title>Node59</title>
<g id="a_node40"><a xlink:href="_one_eq_ksgs_8_h.html" target="_top" xlink:title=" ">
<polygon fill="white" stroke="red" points="1061,-224.5 1061,-243.5 1143,-243.5 1143,-224.5 1061,-224.5"/>
<text text-anchor="middle" x="1102" y="-231.5" font-family="Helvetica,sans-Serif" font-size="10.00">OneEqKsgs.H</text>
</a>
</g>
</g>
<!-- Node54&#45;&gt;Node59 -->
<g id="edge77" class="edge">
<title>Node54&#45;&gt;Node59</title>
<path fill="none" stroke="midnightblue" d="M945.44,-277.7C982.81,-267.51 1036.94,-252.74 1070.77,-243.52"/>
<polygon fill="midnightblue" stroke="midnightblue" points="944.1,-274.44 935.37,-280.44 945.94,-281.19 944.1,-274.44"/>
</g>
<!-- Node60 -->
<g id="node41" class="node">
<title>Node60</title>
<g id="a_node41"><a xlink:href="_smagorinsky_8_h.html" target="_top" xlink:title=" ">
<polygon fill="white" stroke="red" points="1161.5,-224.5 1161.5,-243.5 1250.5,-243.5 1250.5,-224.5 1161.5,-224.5"/>
<text text-anchor="middle" x="1206" y="-231.5" font-family="Helvetica,sans-Serif" font-size="10.00">Smagorinsky.H</text>
</a>
</g>
</g>
<!-- Node54&#45;&gt;Node60 -->
<g id="edge78" class="edge">
<title>Node54&#45;&gt;Node60</title>
<path fill="none" stroke="midnightblue" d="M961.99,-278.63C1020.13,-268.24 1108.41,-252.45 1161.32,-242.99"/>
<polygon fill="midnightblue" stroke="midnightblue" points="961.08,-275.24 951.85,-280.44 962.31,-282.13 961.08,-275.24"/>
</g>
<!-- Node62 -->
<g id="node42" class="node">
<title>Node62</title>
<g id="a_node42"><a xlink:href="_k_omega_s_s_t_8_h.html" target="_top" xlink:title=" ">
<polygon fill="white" stroke="red" points="775,-224.5 775,-243.5 861,-243.5 861,-224.5 775,-224.5"/>
<text text-anchor="middle" x="818" y="-231.5" font-family="Helvetica,sans-Serif" font-size="10.00">KOmegaSST.H</text>
</a>
</g>
</g>
<!-- Node54&#45;&gt;Node62 -->
<g id="edge79" class="edge">
<title>Node54&#45;&gt;Node62</title>
<path fill="none" stroke="midnightblue" d="M881.55,-274.9C865.78,-265 845.19,-252.07 831.78,-243.65"/>
<polygon fill="midnightblue" stroke="midnightblue" points="879.85,-277.97 890.18,-280.32 883.57,-272.04 879.85,-277.97"/>
</g>
<!-- Node56 -->
<g id="node38" class="node">
<title>Node56</title>
<g id="a_node38"><a xlink:href="_a_m_d_8cpp.html" target="_top" xlink:title=" ">
<polygon fill="white" stroke="black" points="874,-168.5 874,-187.5 934,-187.5 934,-168.5 874,-168.5"/>
<text text-anchor="middle" x="904" y="-175.5" font-family="Helvetica,sans-Serif" font-size="10.00">AMD.cpp</text>
</a>
</g>
</g>
<!-- Node55&#45;&gt;Node56 -->
<g id="edge75" class="edge">
<title>Node55&#45;&gt;Node56</title>
<path fill="none" stroke="midnightblue" d="M904,-213.8C904,-204.91 904,-194.78 904,-187.75"/>
<polygon fill="midnightblue" stroke="midnightblue" points="900.5,-214.08 904,-224.08 907.5,-214.08 900.5,-214.08"/>
</g>
</g>
</svg>
