<?xml version="1.0" encoding="UTF-8" standalone="no"?>
<!DOCTYPE svg PUBLIC "-//W3C//DTD SVG 1.1//EN"
 "http://www.w3.org/Graphics/SVG/1.1/DTD/svg11.dtd">
<!-- Generated by graphviz version 2.43.0 (0)
 -->
<!-- Title: MeshMap.H Pages: 1 -->
<svg width="4813pt" height="252pt"
 viewBox="0.00 0.00 4812.50 252.00" xmlns="http://www.w3.org/2000/svg" xmlns:xlink="http://www.w3.org/1999/xlink">
<g id="graph0" class="graph" transform="scale(1 1) rotate(0) translate(4 248)">
<title>MeshMap.H</title>
<polygon fill="white" stroke="transparent" points="-4,4 -4,-248 4808.5,-248 4808.5,4 -4,4"/>
<!-- Node1 -->
<g id="node1" class="node">
<title>Node1</title>
<g id="a_node1"><a xlink:title=" ">
<polygon fill="#bfbfbf" stroke="black" points="2627,-224.5 2627,-243.5 2701,-243.5 2701,-224.5 2627,-224.5"/>
<text text-anchor="middle" x="2664" y="-231.5" font-family="Helvetica,sans-Serif" font-size="10.00">MeshMap.H</text>
</a>
</g>
</g>
<!-- Node2 -->
<g id="node2" class="node">
<title>Node2</title>
<g id="a_node2"><a xlink:href="_c_f_d_sim_8_h.html" target="_top" xlink:title=" ">
<polygon fill="white" stroke="red" points="2578,-168.5 2578,-187.5 2644,-187.5 2644,-168.5 2578,-168.5"/>
<text text-anchor="middle" x="2611" y="-175.5" font-family="Helvetica,sans-Serif" font-size="10.00">CFDSim.H</text>
</a>
</g>
</g>
<!-- Node1&#45;&gt;Node2 -->
<g id="edge1" class="edge">
<title>Node1&#45;&gt;Node2</title>
<path fill="none" stroke="midnightblue" d="M2648.02,-216.72C2638.68,-207.2 2627.25,-195.56 2619.59,-187.75"/>
<polygon fill="midnightblue" stroke="midnightblue" points="2645.75,-219.4 2655.25,-224.08 2650.74,-214.49 2645.75,-219.4"/>
</g>
<!-- Node8 -->
<g id="node7" class="node">
<title>Node8</title>
<g id="a_node7"><a xlink:href="_mesh_map_8cpp.html" target="_top" xlink:title=" ">
<polygon fill="white" stroke="black" points="0,-112.5 0,-131.5 84,-131.5 84,-112.5 0,-112.5"/>
<text text-anchor="middle" x="42" y="-119.5" font-family="Helvetica,sans-Serif" font-size="10.00">MeshMap.cpp</text>
</a>
</g>
</g>
<!-- Node1&#45;&gt;Node8 -->
<g id="edge57" class="edge">
<title>Node1&#45;&gt;Node8</title>
<path fill="none" stroke="midnightblue" d="M2616.9,-233.25C2361,-234.17 1112.06,-233.08 98,-132 93.49,-131.55 88.8,-130.97 84.13,-130.33"/>
<polygon fill="midnightblue" stroke="midnightblue" points="2616.98,-236.75 2626.96,-233.21 2616.95,-229.75 2616.98,-236.75"/>
</g>
<!-- Node246 -->
<g id="node49" class="node">
<title>Node246</title>
<g id="a_node49"><a xlink:href="_channel_flow_map_8_h.html" target="_top" xlink:title=" ">
<polygon fill="white" stroke="red" points="2662.5,-168.5 2662.5,-187.5 2773.5,-187.5 2773.5,-168.5 2662.5,-168.5"/>
<text text-anchor="middle" x="2718" y="-175.5" font-family="Helvetica,sans-Serif" font-size="10.00">ChannelFlowMap.H</text>
</a>
</g>
</g>
<!-- Node1&#45;&gt;Node246 -->
<g id="edge58" class="edge">
<title>Node1&#45;&gt;Node246</title>
<path fill="none" stroke="midnightblue" d="M2680,-217C2689.57,-207.43 2701.36,-195.64 2709.25,-187.75"/>
<polygon fill="midnightblue" stroke="midnightblue" points="2677.51,-214.54 2672.92,-224.08 2682.46,-219.49 2677.51,-214.54"/>
</g>
<!-- Node248 -->
<g id="node50" class="node">
<title>Node248</title>
<g id="a_node50"><a xlink:href="_constant_map_8_h.html" target="_top" xlink:title=" ">
<polygon fill="white" stroke="red" points="2792,-168.5 2792,-187.5 2884,-187.5 2884,-168.5 2792,-168.5"/>
<text text-anchor="middle" x="2838" y="-175.5" font-family="Helvetica,sans-Serif" font-size="10.00">ConstantMap.H</text>
</a>
</g>
</g>
<!-- Node1&#45;&gt;Node248 -->
<g id="edge59" class="edge">
<title>Node1&#45;&gt;Node248</title>
<path fill="none" stroke="midnightblue" d="M2701.26,-221.44C2734.07,-211.26 2781.08,-196.66 2810.56,-187.52"/>
<polygon fill="midnightblue" stroke="midnightblue" points="2700.08,-218.14 2691.57,-224.44 2702.16,-224.82 2700.08,-218.14"/>
</g>
<!-- Node3 -->
<g id="node3" class="node">
<title>Node3</title>
<g id="a_node3"><a xlink:href="_wall_function_8_h.html" target="_top" xlink:title=" ">
<polygon fill="white" stroke="red" points="3999.5,-112.5 3999.5,-131.5 4088.5,-131.5 4088.5,-112.5 3999.5,-112.5"/>
<text text-anchor="middle" x="4044" y="-119.5" font-family="Helvetica,sans-Serif" font-size="10.00">WallFunction.H</text>
</a>
</g>
</g>
<!-- Node2&#45;&gt;Node3 -->
<g id="edge2" class="edge">
<title>Node2&#45;&gt;Node3</title>
<path fill="none" stroke="midnightblue" d="M2654.39,-168.08C3242.77,-98.63 3398.45,-184.46 3985,-132 3989.64,-131.58 3994.48,-131.04 3999.29,-130.42"/>
<polygon fill="midnightblue" stroke="midnightblue" points="2653.89,-164.61 2644.38,-169.27 2654.72,-171.56 2653.89,-164.61"/>
</g>
<!-- Node5 -->
<g id="node4" class="node">
<title>Node5</title>
<g id="a_node4"><a xlink:href="_channel_flow_8_h.html" target="_top" xlink:title=" ">
<polygon fill="white" stroke="black" points="3926.5,-56.5 3926.5,-75.5 4015.5,-75.5 4015.5,-56.5 3926.5,-56.5"/>
<text text-anchor="middle" x="3971" y="-63.5" font-family="Helvetica,sans-Serif" font-size="10.00">ChannelFlow.H</text>
</a>
</g>
</g>
<!-- Node2&#45;&gt;Node5 -->
<g id="edge45" class="edge">
<title>Node2&#45;&gt;Node5</title>
<path fill="none" stroke="midnightblue" d="M2654.44,-168.43C2791.91,-159.97 3871.35,-166.44 3931,-132 3952.57,-119.54 3964.03,-90.33 3968.6,-75.69"/>
<polygon fill="midnightblue" stroke="midnightblue" points="2654.05,-164.95 2644.38,-169.27 2654.63,-171.93 2654.05,-164.95"/>
</g>
<!-- Node6 -->
<g id="node5" class="node">
<title>Node6</title>
<g id="a_node5"><a xlink:href="_channel_flow_8cpp.html" target="_top" xlink:title=" ">
<polygon fill="white" stroke="black" points="1991.5,-0.5 1991.5,-19.5 2090.5,-19.5 2090.5,-0.5 1991.5,-0.5"/>
<text text-anchor="middle" x="2041" y="-7.5" font-family="Helvetica,sans-Serif" font-size="10.00">ChannelFlow.cpp</text>
</a>
</g>
</g>
<!-- Node2&#45;&gt;Node6 -->
<g id="edge44" class="edge">
<title>Node2&#45;&gt;Node6</title>
<path fill="none" stroke="midnightblue" d="M2567.5,-177.04C2242.34,-177.24 202.92,-176.73 159,-132 15.98,13.67 408.46,-71.75 612,-56 1151.18,-14.27 1807.66,-10.98 1991.23,-10.92"/>
<polygon fill="midnightblue" stroke="midnightblue" points="2567.91,-180.54 2577.91,-177.03 2567.91,-173.54 2567.91,-180.54"/>
</g>
<!-- Node7 -->
<g id="node6" class="node">
<title>Node7</title>
<g id="a_node6"><a xlink:href="_c_f_d_sim_8cpp.html" target="_top" xlink:title=" ">
<polygon fill="white" stroke="black" points="178,-112.5 178,-131.5 254,-131.5 254,-112.5 178,-112.5"/>
<text text-anchor="middle" x="216" y="-119.5" font-family="Helvetica,sans-Serif" font-size="10.00">CFDSim.cpp</text>
</a>
</g>
</g>
<!-- Node2&#45;&gt;Node7 -->
<g id="edge5" class="edge">
<title>Node2&#45;&gt;Node7</title>
<path fill="none" stroke="midnightblue" d="M2567.6,-176.61C2267.05,-173.88 500.32,-156.81 263,-132 260.11,-131.7 257.13,-131.31 254.14,-130.87"/>
<polygon fill="midnightblue" stroke="midnightblue" points="2567.63,-180.11 2577.67,-176.7 2567.7,-173.11 2567.63,-180.11"/>
</g>
<!-- Node2&#45;&gt;Node8 -->
<g id="edge6" class="edge">
<title>Node2&#45;&gt;Node8</title>
<path fill="none" stroke="midnightblue" d="M2567.53,-176.59C2254.81,-173.62 353.17,-154.67 98,-132 93.49,-131.6 88.79,-131.05 84.12,-130.42"/>
<polygon fill="midnightblue" stroke="midnightblue" points="2567.54,-180.09 2577.57,-176.69 2567.6,-173.09 2567.54,-180.09"/>
</g>
<!-- Node9 -->
<g id="node8" class="node">
<title>Node9</title>
<g id="a_node8"><a xlink:href="_a_b_l_forcing_8cpp.html" target="_top" xlink:title=" ">
<polygon fill="white" stroke="black" points="272.5,-112.5 272.5,-131.5 363.5,-131.5 363.5,-112.5 272.5,-112.5"/>
<text text-anchor="middle" x="318" y="-119.5" font-family="Helvetica,sans-Serif" font-size="10.00">ABLForcing.cpp</text>
</a>
</g>
</g>
<!-- Node2&#45;&gt;Node9 -->
<g id="edge7" class="edge">
<title>Node2&#45;&gt;Node9</title>
<path fill="none" stroke="midnightblue" d="M2567.6,-176.97C2295.54,-176.65 821.98,-173.04 373,-132 369.92,-131.72 366.74,-131.37 363.55,-130.97"/>
<polygon fill="midnightblue" stroke="midnightblue" points="2567.86,-180.47 2577.86,-176.98 2567.86,-173.47 2567.86,-180.47"/>
</g>
<!-- Node10 -->
<g id="node9" class="node">
<title>Node10</title>
<g id="a_node9"><a xlink:href="_a_b_l_mean_boussinesq_8cpp.html" target="_top" xlink:title=" ">
<polygon fill="white" stroke="black" points="382,-112.5 382,-131.5 520,-131.5 520,-112.5 382,-112.5"/>
<text text-anchor="middle" x="451" y="-119.5" font-family="Helvetica,sans-Serif" font-size="10.00">ABLMeanBoussinesq.cpp</text>
</a>
</g>
</g>
<!-- Node2&#45;&gt;Node10 -->
<g id="edge8" class="edge">
<title>Node2&#45;&gt;Node10</title>
<path fill="none" stroke="midnightblue" d="M2567.81,-176.62C2307.59,-174.22 945.92,-160.5 529,-132 526.14,-131.8 523.23,-131.58 520.29,-131.33"/>
<polygon fill="midnightblue" stroke="midnightblue" points="2567.96,-180.12 2577.99,-176.71 2568.02,-173.12 2567.96,-180.12"/>
</g>
<!-- Node11 -->
<g id="node10" class="node">
<title>Node11</title>
<g id="a_node10"><a xlink:href="_a_b_l_meso_forcing_mom_8cpp.html" target="_top" xlink:title=" ">
<polygon fill="white" stroke="black" points="538,-112.5 538,-131.5 680,-131.5 680,-112.5 538,-112.5"/>
<text text-anchor="middle" x="609" y="-119.5" font-family="Helvetica,sans-Serif" font-size="10.00">ABLMesoForcingMom.cpp</text>
</a>
</g>
</g>
<!-- Node2&#45;&gt;Node11 -->
<g id="edge9" class="edge">
<title>Node2&#45;&gt;Node11</title>
<path fill="none" stroke="midnightblue" d="M2567.63,-176.51C2318.97,-173.61 1072.08,-157.98 689,-132 686.07,-131.8 683.09,-131.57 680.07,-131.33"/>
<polygon fill="midnightblue" stroke="midnightblue" points="2567.68,-180.01 2577.72,-176.63 2567.76,-173.01 2567.68,-180.01"/>
</g>
<!-- Node12 -->
<g id="node11" class="node">
<title>Node12</title>
<g id="a_node11"><a xlink:href="_actuator_forcing_8cpp.html" target="_top" xlink:title=" ">
<polygon fill="white" stroke="black" points="698.5,-112.5 698.5,-131.5 811.5,-131.5 811.5,-112.5 698.5,-112.5"/>
<text text-anchor="middle" x="755" y="-119.5" font-family="Helvetica,sans-Serif" font-size="10.00">ActuatorForcing.cpp</text>
</a>
</g>
</g>
<!-- Node2&#45;&gt;Node12 -->
<g id="edge10" class="edge">
<title>Node2&#45;&gt;Node12</title>
<path fill="none" stroke="midnightblue" d="M2567.63,-176.56C2329.22,-174.05 1175.95,-160.58 821,-132 818,-131.76 814.93,-131.47 811.84,-131.16"/>
<polygon fill="midnightblue" stroke="midnightblue" points="2567.93,-180.06 2577.97,-176.67 2568.01,-173.06 2567.93,-180.06"/>
</g>
<!-- Node13 -->
<g id="node12" class="node">
<title>Node13</title>
<g id="a_node12"><a xlink:href="icns_2source__terms_2_body_force_8cpp.html" target="_top" xlink:title=" ">
<polygon fill="white" stroke="black" points="830,-112.5 830,-131.5 918,-131.5 918,-112.5 830,-112.5"/>
<text text-anchor="middle" x="874" y="-119.5" font-family="Helvetica,sans-Serif" font-size="10.00">BodyForce.cpp</text>
</a>
</g>
</g>
<!-- Node2&#45;&gt;Node13 -->
<g id="edge11" class="edge">
<title>Node2&#45;&gt;Node13</title>
<path fill="none" stroke="midnightblue" d="M2567.64,-176.67C2337.74,-174.81 1259.2,-164.48 927,-132 924.12,-131.72 921.16,-131.37 918.18,-130.98"/>
<polygon fill="midnightblue" stroke="midnightblue" points="2567.92,-180.18 2577.94,-176.76 2567.97,-173.18 2567.92,-180.18"/>
</g>
<!-- Node14 -->
<g id="node13" class="node">
<title>Node14</title>
<g id="a_node13"><a xlink:href="_boussinesq_buoyancy_8cpp.html" target="_top" xlink:title=" ">
<polygon fill="white" stroke="black" points="936.5,-112.5 936.5,-131.5 1075.5,-131.5 1075.5,-112.5 936.5,-112.5"/>
<text text-anchor="middle" x="1006" y="-119.5" font-family="Helvetica,sans-Serif" font-size="10.00">BoussinesqBuoyancy.cpp</text>
</a>
</g>
</g>
<!-- Node2&#45;&gt;Node14 -->
<g id="edge12" class="edge">
<title>Node2&#45;&gt;Node14</title>
<path fill="none" stroke="midnightblue" d="M2567.71,-177.08C2386.43,-177.11 1670.48,-174.4 1084,-132 1081.28,-131.8 1078.51,-131.58 1075.71,-131.34"/>
<polygon fill="midnightblue" stroke="midnightblue" points="2567.91,-180.58 2577.91,-177.07 2567.9,-173.58 2567.91,-180.58"/>
</g>
<!-- Node15 -->
<g id="node14" class="node">
<title>Node15</title>
<g id="a_node14"><a xlink:href="_burggraf_flow_forcing_8cpp.html" target="_top" xlink:title=" ">
<polygon fill="white" stroke="black" points="2094.5,-56.5 2094.5,-75.5 2231.5,-75.5 2231.5,-56.5 2094.5,-56.5"/>
<text text-anchor="middle" x="2163" y="-63.5" font-family="Helvetica,sans-Serif" font-size="10.00">BurggrafFlowForcing.cpp</text>
</a>
</g>
</g>
<!-- Node2&#45;&gt;Node15 -->
<g id="edge13" class="edge">
<title>Node2&#45;&gt;Node15</title>
<path fill="none" stroke="midnightblue" d="M2567.7,-175.81C2461.01,-172.44 2192.16,-161.12 2165,-132 2150.83,-116.81 2156,-89.87 2160.02,-75.93"/>
<polygon fill="midnightblue" stroke="midnightblue" points="2567.7,-179.31 2577.8,-176.12 2567.91,-172.32 2567.7,-179.31"/>
</g>
<!-- Node16 -->
<g id="node15" class="node">
<title>Node16</title>
<g id="a_node15"><a xlink:href="_coriolis_forcing_8cpp.html" target="_top" xlink:title=" ">
<polygon fill="white" stroke="black" points="1176.5,-112.5 1176.5,-131.5 1285.5,-131.5 1285.5,-112.5 1176.5,-112.5"/>
<text text-anchor="middle" x="1231" y="-119.5" font-family="Helvetica,sans-Serif" font-size="10.00">CoriolisForcing.cpp</text>
</a>
</g>
</g>
<!-- Node2&#45;&gt;Node16 -->
<g id="edge14" class="edge">
<title>Node2&#45;&gt;Node16</title>
<path fill="none" stroke="midnightblue" d="M2567.57,-177.21C2401.77,-177.66 1792.96,-176.04 1294,-132 1291.25,-131.76 1288.43,-131.48 1285.59,-131.17"/>
<polygon fill="midnightblue" stroke="midnightblue" points="2567.85,-180.71 2577.84,-177.18 2567.83,-173.71 2567.85,-180.71"/>
</g>
<!-- Node17 -->
<g id="node16" class="node">
<title>Node17</title>
<g id="a_node16"><a xlink:href="_density_buoyancy_8cpp.html" target="_top" xlink:title=" ">
<polygon fill="white" stroke="black" points="1303.5,-112.5 1303.5,-131.5 1424.5,-131.5 1424.5,-112.5 1303.5,-112.5"/>
<text text-anchor="middle" x="1364" y="-119.5" font-family="Helvetica,sans-Serif" font-size="10.00">DensityBuoyancy.cpp</text>
</a>
</g>
</g>
<!-- Node2&#45;&gt;Node17 -->
<g id="edge15" class="edge">
<title>Node2&#45;&gt;Node17</title>
<path fill="none" stroke="midnightblue" d="M2567.63,-176.77C2413.11,-175.67 1875.08,-169.2 1433,-132 1430.23,-131.77 1427.4,-131.5 1424.55,-131.22"/>
<polygon fill="midnightblue" stroke="midnightblue" points="2567.65,-180.27 2577.67,-176.84 2567.69,-173.27 2567.65,-180.27"/>
</g>
<!-- Node18 -->
<g id="node17" class="node">
<title>Node18</title>
<g id="a_node17"><a xlink:href="_geostrophic_forcing_8cpp.html" target="_top" xlink:title=" ">
<polygon fill="white" stroke="black" points="1442.5,-112.5 1442.5,-131.5 1573.5,-131.5 1573.5,-112.5 1442.5,-112.5"/>
<text text-anchor="middle" x="1508" y="-119.5" font-family="Helvetica,sans-Serif" font-size="10.00">GeostrophicForcing.cpp</text>
</a>
</g>
</g>
<!-- Node2&#45;&gt;Node18 -->
<g id="edge16" class="edge">
<title>Node2&#45;&gt;Node18</title>
<path fill="none" stroke="midnightblue" d="M2567.63,-176.28C2425.94,-173.66 1963.84,-163.14 1583,-132 1579.99,-131.75 1576.92,-131.48 1573.82,-131.18"/>
<polygon fill="midnightblue" stroke="midnightblue" points="2567.6,-179.78 2577.66,-176.46 2567.73,-172.78 2567.6,-179.78"/>
</g>
<!-- Node19 -->
<g id="node18" class="node">
<title>Node19</title>
<g id="a_node18"><a xlink:href="_gravity_forcing_8cpp.html" target="_top" xlink:title=" ">
<polygon fill="white" stroke="black" points="1592,-112.5 1592,-131.5 1700,-131.5 1700,-112.5 1592,-112.5"/>
<text text-anchor="middle" x="1646" y="-119.5" font-family="Helvetica,sans-Serif" font-size="10.00">GravityForcing.cpp</text>
</a>
</g>
</g>
<!-- Node2&#45;&gt;Node19 -->
<g id="edge17" class="edge">
<title>Node2&#45;&gt;Node19</title>
<path fill="none" stroke="midnightblue" d="M2567.38,-176.25C2436.87,-173.69 2038.04,-163.64 1709,-132 1706.14,-131.73 1703.21,-131.41 1700.26,-131.07"/>
<polygon fill="midnightblue" stroke="midnightblue" points="2567.68,-179.75 2577.75,-176.45 2567.82,-172.75 2567.68,-179.75"/>
</g>
<!-- Node20 -->
<g id="node19" class="node">
<title>Node20</title>
<g id="a_node19"><a xlink:href="_hurricane_forcing_8cpp.html" target="_top" xlink:title=" ">
<polygon fill="white" stroke="black" points="1718.5,-112.5 1718.5,-131.5 1837.5,-131.5 1837.5,-112.5 1718.5,-112.5"/>
<text text-anchor="middle" x="1778" y="-119.5" font-family="Helvetica,sans-Serif" font-size="10.00">HurricaneForcing.cpp</text>
</a>
</g>
</g>
<!-- Node2&#45;&gt;Node20 -->
<g id="edge18" class="edge">
<title>Node2&#45;&gt;Node20</title>
<path fill="none" stroke="midnightblue" d="M2567.49,-175.52C2450.68,-171.31 2120.54,-157.86 1847,-132 1843.99,-131.72 1840.92,-131.4 1837.81,-131.06"/>
<polygon fill="midnightblue" stroke="midnightblue" points="2567.68,-179.03 2577.8,-175.89 2567.93,-172.03 2567.68,-179.03"/>
</g>
<!-- Node21 -->
<g id="node20" class="node">
<title>Node21</title>
<g id="a_node20"><a xlink:href="_rayleigh_damping_8cpp.html" target="_top" xlink:title=" ">
<polygon fill="white" stroke="black" points="1856,-112.5 1856,-131.5 1980,-131.5 1980,-112.5 1856,-112.5"/>
<text text-anchor="middle" x="1918" y="-119.5" font-family="Helvetica,sans-Serif" font-size="10.00">RayleighDamping.cpp</text>
</a>
</g>
</g>
<!-- Node2&#45;&gt;Node21 -->
<g id="edge19" class="edge">
<title>Node2&#45;&gt;Node21</title>
<path fill="none" stroke="midnightblue" d="M2567.76,-174.68C2466.46,-169.06 2205.95,-153.58 1989,-132 1986.16,-131.72 1983.25,-131.41 1980.32,-131.09"/>
<polygon fill="midnightblue" stroke="midnightblue" points="2567.73,-178.18 2577.91,-175.24 2568.11,-171.19 2567.73,-178.18"/>
</g>
<!-- Node22 -->
<g id="node21" class="node">
<title>Node22</title>
<g id="a_node21"><a xlink:href="_synth_turb_forcing_8cpp.html" target="_top" xlink:title=" ">
<polygon fill="white" stroke="black" points="1998,-112.5 1998,-131.5 2118,-131.5 2118,-112.5 1998,-112.5"/>
<text text-anchor="middle" x="2058" y="-119.5" font-family="Helvetica,sans-Serif" font-size="10.00">SynthTurbForcing.cpp</text>
</a>
</g>
</g>
<!-- Node2&#45;&gt;Node22 -->
<g id="edge20" class="edge">
<title>Node2&#45;&gt;Node22</title>
<path fill="none" stroke="midnightblue" d="M2567.68,-173.33C2483.6,-166.12 2292.47,-149.29 2132,-132 2127.5,-131.51 2122.84,-130.99 2118.16,-130.46"/>
<polygon fill="midnightblue" stroke="midnightblue" points="2567.61,-176.84 2577.87,-174.2 2568.2,-169.86 2567.61,-176.84"/>
</g>
<!-- Node23 -->
<g id="node22" class="node">
<title>Node23</title>
<g id="a_node22"><a xlink:href="_p_d_e_8_h.html" target="_top" xlink:title=" ">
<polygon fill="white" stroke="red" points="621.5,-56.5 621.5,-75.5 668.5,-75.5 668.5,-56.5 621.5,-56.5"/>
<text text-anchor="middle" x="645" y="-63.5" font-family="Helvetica,sans-Serif" font-size="10.00">PDE.H</text>
</a>
</g>
</g>
<!-- Node2&#45;&gt;Node23 -->
<g id="edge21" class="edge">
<title>Node2&#45;&gt;Node23</title>
<path fill="none" stroke="midnightblue" d="M2567.26,-176.61C2240.35,-173.66 190.87,-154.28 169,-132 103.56,-65.34 517.08,-65.57 621.48,-66.67"/>
<polygon fill="midnightblue" stroke="midnightblue" points="2567.7,-180.12 2577.73,-176.71 2567.76,-173.12 2567.7,-180.12"/>
</g>
<!-- Node62 -->
<g id="node23" class="node">
<title>Node62</title>
<g id="a_node23"><a xlink:href="_p_d_e_base_8cpp.html" target="_top" xlink:title=" ">
<polygon fill="white" stroke="black" points="2174,-112.5 2174,-131.5 2254,-131.5 2254,-112.5 2174,-112.5"/>
<text text-anchor="middle" x="2214" y="-119.5" font-family="Helvetica,sans-Serif" font-size="10.00">PDEBase.cpp</text>
</a>
</g>
</g>
<!-- Node2&#45;&gt;Node62 -->
<g id="edge22" class="edge">
<title>Node2&#45;&gt;Node62</title>
<path fill="none" stroke="midnightblue" d="M2567.79,-172.16C2501.9,-164.61 2372.41,-149.11 2263,-132 2260.09,-131.55 2257.1,-131.05 2254.08,-130.54"/>
<polygon fill="midnightblue" stroke="midnightblue" points="2567.48,-175.65 2577.81,-173.3 2568.27,-168.69 2567.48,-175.65"/>
</g>
<!-- Node63 -->
<g id="node24" class="node">
<title>Node63</title>
<g id="a_node24"><a xlink:href="_p_d_e_ops_8_h.html" target="_top" xlink:title=" ">
<polygon fill="white" stroke="red" points="1093.5,-112.5 1093.5,-131.5 1158.5,-131.5 1158.5,-112.5 1093.5,-112.5"/>
<text text-anchor="middle" x="1126" y="-119.5" font-family="Helvetica,sans-Serif" font-size="10.00">PDEOps.H</text>
</a>
</g>
</g>
<!-- Node2&#45;&gt;Node63 -->
<g id="edge23" class="edge">
<title>Node2&#45;&gt;Node63</title>
<path fill="none" stroke="midnightblue" d="M2567.6,-176.73C2357.88,-175.26 1448.19,-166.94 1167,-132 1164.25,-131.66 1161.42,-131.22 1158.58,-130.72"/>
<polygon fill="midnightblue" stroke="midnightblue" points="2567.87,-180.23 2577.89,-176.8 2567.92,-173.23 2567.87,-180.23"/>
</g>
<!-- Node73 -->
<g id="node25" class="node">
<title>Node73</title>
<g id="a_node25"><a xlink:href="_s_d_r_src_8cpp.html" target="_top" xlink:title=" ">
<polygon fill="white" stroke="black" points="2382,-112.5 2382,-131.5 2454,-131.5 2454,-112.5 2382,-112.5"/>
<text text-anchor="middle" x="2418" y="-119.5" font-family="Helvetica,sans-Serif" font-size="10.00">SDRSrc.cpp</text>
</a>
</g>
</g>
<!-- Node2&#45;&gt;Node73 -->
<g id="edge25" class="edge">
<title>Node2&#45;&gt;Node73</title>
<path fill="none" stroke="midnightblue" d="M2570.61,-165.7C2534.18,-155.51 2481.41,-140.74 2448.44,-131.52"/>
<polygon fill="midnightblue" stroke="midnightblue" points="2569.85,-169.12 2580.42,-168.44 2571.73,-162.38 2569.85,-169.12"/>
</g>
<!-- Node74 -->
<g id="node26" class="node">
<title>Node74</title>
<g id="a_node26"><a xlink:href="_a_b_l_meso_forcing_temp_8cpp.html" target="_top" xlink:title=" ">
<polygon fill="white" stroke="black" points="2472.5,-112.5 2472.5,-131.5 2615.5,-131.5 2615.5,-112.5 2472.5,-112.5"/>
<text text-anchor="middle" x="2544" y="-119.5" font-family="Helvetica,sans-Serif" font-size="10.00">ABLMesoForcingTemp.cpp</text>
</a>
</g>
</g>
<!-- Node2&#45;&gt;Node74 -->
<g id="edge26" class="edge">
<title>Node2&#45;&gt;Node74</title>
<path fill="none" stroke="midnightblue" d="M2592.17,-161.82C2580.16,-152.15 2565.03,-139.95 2554.96,-131.83"/>
<polygon fill="midnightblue" stroke="midnightblue" points="2590.25,-164.77 2600.24,-168.32 2594.65,-159.32 2590.25,-164.77"/>
</g>
<!-- Node75 -->
<g id="node27" class="node">
<title>Node75</title>
<g id="a_node27"><a xlink:href="temperature_2source__terms_2_body_force_8cpp.html" target="_top" xlink:title=" ">
<polygon fill="white" stroke="black" points="2634,-112.5 2634,-131.5 2722,-131.5 2722,-112.5 2634,-112.5"/>
<text text-anchor="middle" x="2678" y="-119.5" font-family="Helvetica,sans-Serif" font-size="10.00">BodyForce.cpp</text>
</a>
</g>
</g>
<!-- Node2&#45;&gt;Node75 -->
<g id="edge27" class="edge">
<title>Node2&#45;&gt;Node75</title>
<path fill="none" stroke="midnightblue" d="M2629.83,-161.82C2641.84,-152.15 2656.97,-139.95 2667.04,-131.83"/>
<polygon fill="midnightblue" stroke="midnightblue" points="2627.35,-159.32 2621.76,-168.32 2631.75,-164.77 2627.35,-159.32"/>
</g>
<!-- Node76 -->
<g id="node28" class="node">
<title>Node76</title>
<g id="a_node28"><a xlink:href="_hurricane_temp_forcing_8cpp.html" target="_top" xlink:title=" ">
<polygon fill="white" stroke="black" points="2740,-112.5 2740,-131.5 2886,-131.5 2886,-112.5 2740,-112.5"/>
<text text-anchor="middle" x="2813" y="-119.5" font-family="Helvetica,sans-Serif" font-size="10.00">HurricaneTempForcing.cpp</text>
</a>
</g>
</g>
<!-- Node2&#45;&gt;Node76 -->
<g id="edge28" class="edge">
<title>Node2&#45;&gt;Node76</title>
<path fill="none" stroke="midnightblue" d="M2652.79,-165.83C2690.93,-155.63 2746.48,-140.78 2781.14,-131.52"/>
<polygon fill="midnightblue" stroke="midnightblue" points="2651.76,-162.48 2643.01,-168.44 2653.57,-169.24 2651.76,-162.48"/>
</g>
<!-- Node77 -->
<g id="node29" class="node">
<title>Node77</title>
<g id="a_node29"><a xlink:href="_ksgs_m84_src_8cpp.html" target="_top" xlink:title=" ">
<polygon fill="white" stroke="black" points="2904,-112.5 2904,-131.5 3000,-131.5 3000,-112.5 2904,-112.5"/>
<text text-anchor="middle" x="2952" y="-119.5" font-family="Helvetica,sans-Serif" font-size="10.00">KsgsM84Src.cpp</text>
</a>
</g>
</g>
<!-- Node2&#45;&gt;Node77 -->
<g id="edge29" class="edge">
<title>Node2&#45;&gt;Node77</title>
<path fill="none" stroke="midnightblue" d="M2654.37,-167.84C2761.68,-148.58 2790.67,-148 2895,-132 2897.87,-131.56 2900.82,-131.1 2903.8,-130.64"/>
<polygon fill="midnightblue" stroke="midnightblue" points="2653.65,-164.41 2644.43,-169.64 2654.9,-171.3 2653.65,-164.41"/>
</g>
<!-- Node78 -->
<g id="node30" class="node">
<title>Node78</title>
<g id="a_node30"><a xlink:href="_kw_s_s_t_src_8cpp.html" target="_top" xlink:title=" ">
<polygon fill="white" stroke="black" points="3018.5,-112.5 3018.5,-131.5 3103.5,-131.5 3103.5,-112.5 3018.5,-112.5"/>
<text text-anchor="middle" x="3061" y="-119.5" font-family="Helvetica,sans-Serif" font-size="10.00">KwSSTSrc.cpp</text>
</a>
</g>
</g>
<!-- Node2&#45;&gt;Node78 -->
<g id="edge30" class="edge">
<title>Node2&#45;&gt;Node78</title>
<path fill="none" stroke="midnightblue" d="M2654.45,-167.93C2811.84,-143.71 2854.67,-153.13 3009,-132 3012.09,-131.58 3015.27,-131.11 3018.47,-130.61"/>
<polygon fill="midnightblue" stroke="midnightblue" points="2653.75,-164.49 2644.41,-169.49 2654.83,-171.41 2653.75,-164.49"/>
</g>
<!-- Node79 -->
<g id="node31" class="node">
<title>Node79</title>
<g id="a_node31"><a xlink:href="helics_8_h.html" target="_top" xlink:title=" ">
<polygon fill="white" stroke="red" points="3122,-112.5 3122,-131.5 3178,-131.5 3178,-112.5 3122,-112.5"/>
<text text-anchor="middle" x="3150" y="-119.5" font-family="Helvetica,sans-Serif" font-size="10.00">helics.H</text>
</a>
</g>
</g>
<!-- Node2&#45;&gt;Node79 -->
<g id="edge31" class="edge">
<title>Node2&#45;&gt;Node79</title>
<path fill="none" stroke="midnightblue" d="M2650.99,-167.03C2848.33,-139.32 2904.2,-163.15 3103,-132 3109.03,-131.06 3115.51,-129.66 3121.78,-128.25"/>
<polygon fill="midnightblue" stroke="midnightblue" points="2650.27,-163.6 2640.87,-168.48 2651.26,-170.53 2650.27,-163.6"/>
</g>
<!-- Node81 -->
<g id="node32" class="node">
<title>Node81</title>
<g id="a_node32"><a xlink:href="_i_b_8cpp.html" target="_top" xlink:title=" ">
<polygon fill="white" stroke="black" points="3196.5,-112.5 3196.5,-131.5 3243.5,-131.5 3243.5,-112.5 3196.5,-112.5"/>
<text text-anchor="middle" x="3220" y="-119.5" font-family="Helvetica,sans-Serif" font-size="10.00">IB.cpp</text>
</a>
</g>
</g>
<!-- Node2&#45;&gt;Node81 -->
<g id="edge33" class="edge">
<title>Node2&#45;&gt;Node81</title>
<path fill="none" stroke="midnightblue" d="M2654.31,-168.02C2890.35,-135.98 2955.64,-170.95 3187,-132 3190.05,-131.49 3193.21,-130.81 3196.33,-130.06"/>
<polygon fill="midnightblue" stroke="midnightblue" points="2653.82,-164.55 2644.39,-169.39 2654.78,-171.49 2653.82,-164.55"/>
</g>
<!-- Node82 -->
<g id="node33" class="node">
<title>Node82</title>
<g id="a_node33"><a xlink:href="_i_b_ops_8_h.html" target="_top" xlink:title=" ">
<polygon fill="white" stroke="red" points="3262,-112.5 3262,-131.5 3318,-131.5 3318,-112.5 3262,-112.5"/>
<text text-anchor="middle" x="3290" y="-119.5" font-family="Helvetica,sans-Serif" font-size="10.00">IBOps.H</text>
</a>
</g>
</g>
<!-- Node2&#45;&gt;Node82 -->
<g id="edge34" class="edge">
<title>Node2&#45;&gt;Node82</title>
<path fill="none" stroke="midnightblue" d="M2654.69,-167.98C2919.09,-132.93 2991.5,-170.38 3252,-132 3255.22,-131.53 3258.57,-130.91 3261.88,-130.23"/>
<polygon fill="midnightblue" stroke="midnightblue" points="2653.83,-164.56 2644.39,-169.37 2654.77,-171.5 2653.83,-164.56"/>
</g>
<!-- Node92 -->
<g id="node34" class="node">
<title>Node92</title>
<g id="a_node34"><a xlink:href="incflo_8_h.html" target="_top" xlink:title=" ">
<polygon fill="white" stroke="red" points="3336.5,-112.5 3336.5,-131.5 3389.5,-131.5 3389.5,-112.5 3336.5,-112.5"/>
<text text-anchor="middle" x="3363" y="-119.5" font-family="Helvetica,sans-Serif" font-size="10.00">incflo.H</text>
</a>
</g>
</g>
<!-- Node2&#45;&gt;Node92 -->
<g id="edge35" class="edge">
<title>Node2&#45;&gt;Node92</title>
<path fill="none" stroke="midnightblue" d="M2654.61,-168C2952.19,-129.52 3033.68,-176.08 3327,-132 3330.06,-131.54 3333.23,-130.94 3336.38,-130.26"/>
<polygon fill="midnightblue" stroke="midnightblue" points="2653.85,-164.57 2644.39,-169.35 2654.76,-171.51 2653.85,-164.57"/>
</g>
<!-- Node120 -->
<g id="node35" class="node">
<title>Node120</title>
<g id="a_node35"><a xlink:href="_ocean_waves_8cpp.html" target="_top" xlink:title=" ">
<polygon fill="white" stroke="black" points="3408,-112.5 3408,-131.5 3508,-131.5 3508,-112.5 3408,-112.5"/>
<text text-anchor="middle" x="3458" y="-119.5" font-family="Helvetica,sans-Serif" font-size="10.00">OceanWaves.cpp</text>
</a>
</g>
</g>
<!-- Node2&#45;&gt;Node120 -->
<g id="edge36" class="edge">
<title>Node2&#45;&gt;Node120</title>
<path fill="none" stroke="midnightblue" d="M2654.68,-168C2983.51,-125.93 3071.49,-164.29 3398,-132 3401.25,-131.68 3404.59,-131.3 3407.96,-130.89"/>
<polygon fill="midnightblue" stroke="midnightblue" points="2653.85,-164.58 2644.39,-169.33 2654.75,-171.52 2653.85,-164.58"/>
</g>
<!-- Node121 -->
<g id="node36" class="node">
<title>Node121</title>
<g id="a_node36"><a xlink:href="_ocean_waves_ops_8_h.html" target="_top" xlink:title=" ">
<polygon fill="white" stroke="red" points="3526.5,-112.5 3526.5,-131.5 3635.5,-131.5 3635.5,-112.5 3526.5,-112.5"/>
<text text-anchor="middle" x="3581" y="-119.5" font-family="Helvetica,sans-Serif" font-size="10.00">OceanWavesOps.H</text>
</a>
</g>
</g>
<!-- Node2&#45;&gt;Node121 -->
<g id="edge37" class="edge">
<title>Node2&#45;&gt;Node121</title>
<path fill="none" stroke="midnightblue" d="M2654.31,-168.06C3036,-120.36 3137.52,-166.5 3517,-132 3520.02,-131.73 3523.11,-131.41 3526.23,-131.06"/>
<polygon fill="midnightblue" stroke="midnightblue" points="2653.87,-164.59 2644.38,-169.31 2654.74,-171.53 2653.87,-164.59"/>
</g>
<!-- Node129 -->
<g id="node37" class="node">
<title>Node129</title>
<g id="a_node37"><a xlink:href="_tioga_interface_8cpp.html" target="_top" xlink:title=" ">
<polygon fill="white" stroke="black" points="3653.5,-112.5 3653.5,-131.5 3760.5,-131.5 3760.5,-112.5 3653.5,-112.5"/>
<text text-anchor="middle" x="3707" y="-119.5" font-family="Helvetica,sans-Serif" font-size="10.00">TiogaInterface.cpp</text>
</a>
</g>
</g>
<!-- Node2&#45;&gt;Node129 -->
<g id="edge38" class="edge">
<title>Node2&#45;&gt;Node129</title>
<path fill="none" stroke="midnightblue" d="M2654.45,-168.05C3092.12,-114.49 3208.34,-170.92 3644,-132 3647.08,-131.72 3650.24,-131.4 3653.43,-131.05"/>
<polygon fill="midnightblue" stroke="midnightblue" points="2653.88,-164.6 2644.38,-169.3 2654.73,-171.54 2653.88,-164.6"/>
</g>
<!-- Node130 -->
<g id="node38" class="node">
<title>Node130</title>
<g id="a_node38"><a xlink:href="_boussinesq_bubble_8cpp.html" target="_top" xlink:title=" ">
<polygon fill="white" stroke="black" points="3779,-112.5 3779,-131.5 3905,-131.5 3905,-112.5 3779,-112.5"/>
<text text-anchor="middle" x="3842" y="-119.5" font-family="Helvetica,sans-Serif" font-size="10.00">BoussinesqBubble.cpp</text>
</a>
</g>
</g>
<!-- Node2&#45;&gt;Node130 -->
<g id="edge39" class="edge">
<title>Node2&#45;&gt;Node130</title>
<path fill="none" stroke="midnightblue" d="M2654.61,-168.04C3147.37,-108.62 3277.61,-170.14 3769,-132 3772.18,-131.75 3775.44,-131.47 3778.73,-131.16"/>
<polygon fill="midnightblue" stroke="midnightblue" points="2653.88,-164.6 2644.38,-169.28 2654.73,-171.55 2653.88,-164.6"/>
</g>
<!-- Node131 -->
<g id="node39" class="node">
<title>Node131</title>
<g id="a_node39"><a xlink:href="_burggraf_flow_8cpp.html" target="_top" xlink:title=" ">
<polygon fill="white" stroke="black" points="3037.5,-56.5 3037.5,-75.5 3138.5,-75.5 3138.5,-56.5 3037.5,-56.5"/>
<text text-anchor="middle" x="3088" y="-63.5" font-family="Helvetica,sans-Serif" font-size="10.00">BurggrafFlow.cpp</text>
</a>
</g>
</g>
<!-- Node2&#45;&gt;Node131 -->
<g id="edge40" class="edge">
<title>Node2&#45;&gt;Node131</title>
<path fill="none" stroke="midnightblue" d="M2654.35,-168.48C2790.76,-160.93 3866.63,-180.74 3914,-132 3920.2,-125.63 3920.11,-118.45 3914,-112 3887.26,-83.76 3314.33,-71.09 3138.71,-67.86"/>
<polygon fill="midnightblue" stroke="midnightblue" points="2654.07,-164.99 2644.38,-169.27 2654.62,-171.97 2654.07,-164.99"/>
</g>
<!-- Node132 -->
<g id="node40" class="node">
<title>Node132</title>
<g id="a_node40"><a xlink:href="_burggraf_flow_8_h.html" target="_top" xlink:title=" ">
<polygon fill="white" stroke="black" points="2272,-112.5 2272,-131.5 2364,-131.5 2364,-112.5 2272,-112.5"/>
<text text-anchor="middle" x="2318" y="-119.5" font-family="Helvetica,sans-Serif" font-size="10.00">BurggrafFlow.H</text>
</a>
</g>
</g>
<!-- Node2&#45;&gt;Node132 -->
<g id="edge41" class="edge">
<title>Node2&#45;&gt;Node132</title>
<path fill="none" stroke="midnightblue" d="M2567.93,-169.06C2513.45,-159.02 2420.02,-141.8 2364.13,-131.5"/>
<polygon fill="midnightblue" stroke="midnightblue" points="2567.49,-172.54 2577.96,-170.91 2568.76,-165.66 2567.49,-172.54"/>
</g>
<!-- Node133 -->
<g id="node41" class="node">
<title>Node133</title>
<g id="a_node41"><a xlink:href="_convecting_taylor_vortex_8cpp.html" target="_top" xlink:title=" ">
<polygon fill="white" stroke="black" points="4069,-56.5 4069,-75.5 4221,-75.5 4221,-56.5 4069,-56.5"/>
<text text-anchor="middle" x="4145" y="-63.5" font-family="Helvetica,sans-Serif" font-size="10.00">ConvectingTaylorVortex.cpp</text>
</a>
</g>
</g>
<!-- Node2&#45;&gt;Node133 -->
<g id="edge46" class="edge">
<title>Node2&#45;&gt;Node133</title>
<path fill="none" stroke="midnightblue" d="M2654.72,-168.4C2804.95,-159.11 4027.83,-167.99 4097,-132 4120.39,-119.83 4135.32,-90.48 4141.59,-75.75"/>
<polygon fill="midnightblue" stroke="midnightblue" points="2654.05,-164.95 2644.38,-169.26 2654.63,-171.92 2654.05,-164.95"/>
</g>
<!-- Node134 -->
<g id="node42" class="node">
<title>Node134</title>
<g id="a_node42"><a xlink:href="_convecting_taylor_vortex_8_h.html" target="_top" xlink:title=" ">
<polygon fill="white" stroke="red" points="4145.5,-112.5 4145.5,-131.5 4288.5,-131.5 4288.5,-112.5 4145.5,-112.5"/>
<text text-anchor="middle" x="4217" y="-119.5" font-family="Helvetica,sans-Serif" font-size="10.00">ConvectingTaylorVortex.H</text>
</a>
</g>
</g>
<!-- Node2&#45;&gt;Node134 -->
<g id="edge47" class="edge">
<title>Node2&#45;&gt;Node134</title>
<path fill="none" stroke="midnightblue" d="M2654.51,-168.07C3307.29,-91.68 3478.64,-174.01 4131,-132 4135.64,-131.7 4140.42,-131.34 4145.24,-130.94"/>
<polygon fill="midnightblue" stroke="midnightblue" points="2653.9,-164.61 2644.38,-169.26 2654.72,-171.57 2653.9,-164.61"/>
</g>
<!-- Node135 -->
<g id="node43" class="node">
<title>Node135</title>
<g id="a_node43"><a xlink:href="_ekman_spiral_8cpp.html" target="_top" xlink:title=" ">
<polygon fill="white" stroke="black" points="4329,-56.5 4329,-75.5 4427,-75.5 4427,-56.5 4329,-56.5"/>
<text text-anchor="middle" x="4378" y="-63.5" font-family="Helvetica,sans-Serif" font-size="10.00">EkmanSpiral.cpp</text>
</a>
</g>
</g>
<!-- Node2&#45;&gt;Node135 -->
<g id="edge49" class="edge">
<title>Node2&#45;&gt;Node135</title>
<path fill="none" stroke="midnightblue" d="M2654.41,-168.22C2875.78,-148.27 4128.08,-193.48 4297,-132 4328.85,-120.41 4357.61,-90.79 4370.63,-75.87"/>
<polygon fill="midnightblue" stroke="midnightblue" points="2653.96,-164.75 2644.38,-169.25 2654.68,-171.71 2653.96,-164.75"/>
</g>
<!-- Node136 -->
<g id="node44" class="node">
<title>Node136</title>
<g id="a_node44"><a xlink:href="_ekman_spiral_8_h.html" target="_top" xlink:title=" ">
<polygon fill="white" stroke="black" points="4456.5,-112.5 4456.5,-131.5 4545.5,-131.5 4545.5,-112.5 4456.5,-112.5"/>
<text text-anchor="middle" x="4501" y="-119.5" font-family="Helvetica,sans-Serif" font-size="10.00">EkmanSpiral.H</text>
</a>
</g>
</g>
<!-- Node2&#45;&gt;Node136 -->
<g id="edge50" class="edge">
<title>Node2&#45;&gt;Node136</title>
<path fill="none" stroke="midnightblue" d="M2654.32,-168.1C3446.91,-77.1 3656.22,-205.44 4447,-132 4450.03,-131.72 4453.14,-131.37 4456.28,-130.97"/>
<polygon fill="midnightblue" stroke="midnightblue" points="2653.91,-164.62 2644.37,-169.25 2654.71,-171.58 2653.91,-164.62"/>
</g>
<!-- Node137 -->
<g id="node45" class="node">
<title>Node137</title>
<g id="a_node45"><a xlink:href="_free_stream_8cpp.html" target="_top" xlink:title=" ">
<polygon fill="white" stroke="black" points="4345.5,-112.5 4345.5,-131.5 4438.5,-131.5 4438.5,-112.5 4345.5,-112.5"/>
<text text-anchor="middle" x="4392" y="-119.5" font-family="Helvetica,sans-Serif" font-size="10.00">FreeStream.cpp</text>
</a>
</g>
</g>
<!-- Node2&#45;&gt;Node137 -->
<g id="edge52" class="edge">
<title>Node2&#45;&gt;Node137</title>
<path fill="none" stroke="midnightblue" d="M2654.5,-168.07C3395.67,-82.48 3591.04,-194.28 4331,-132 4335.69,-131.6 4340.58,-131.08 4345.44,-130.48"/>
<polygon fill="midnightblue" stroke="midnightblue" points="2653.9,-164.62 2644.38,-169.25 2654.71,-171.57 2653.9,-164.62"/>
</g>
<!-- Node102 -->
<g id="node46" class="node">
<title>Node102</title>
<g id="a_node46"><a xlink:href="_hybrid_r_a_n_s_l_e_s_a_b_l_8cpp.html" target="_top" xlink:title=" ">
<polygon fill="white" stroke="black" points="4591.5,-56.5 4591.5,-75.5 4724.5,-75.5 4724.5,-56.5 4591.5,-56.5"/>
<text text-anchor="middle" x="4658" y="-63.5" font-family="Helvetica,sans-Serif" font-size="10.00">HybridRANSLESABL.cpp</text>
</a>
</g>
</g>
<!-- Node2&#45;&gt;Node102 -->
<g id="edge53" class="edge">
<title>Node2&#45;&gt;Node102</title>
<path fill="none" stroke="midnightblue" d="M2654.41,-168.2C2904.76,-145.1 4354.35,-191.31 4554,-132 4573.8,-126.12 4623.31,-91.82 4646.14,-75.56"/>
<polygon fill="midnightblue" stroke="midnightblue" points="2653.96,-164.73 2644.37,-169.24 2654.68,-171.7 2653.96,-164.73"/>
</g>
<!-- Node138 -->
<g id="node47" class="node">
<title>Node138</title>
<g id="a_node47"><a xlink:href="_hybrid_r_a_n_s_l_e_s_a_b_l_8_h.html" target="_top" xlink:title=" ">
<polygon fill="white" stroke="black" points="4681.5,-112.5 4681.5,-131.5 4804.5,-131.5 4804.5,-112.5 4681.5,-112.5"/>
<text text-anchor="middle" x="4743" y="-119.5" font-family="Helvetica,sans-Serif" font-size="10.00">HybridRANSLESABL.H</text>
</a>
</g>
</g>
<!-- Node2&#45;&gt;Node138 -->
<g id="edge54" class="edge">
<title>Node2&#45;&gt;Node138</title>
<path fill="none" stroke="midnightblue" d="M2654.47,-168.1C3115.48,-117.42 4228.51,-164.44 4673,-132 4675.69,-131.8 4678.43,-131.57 4681.2,-131.32"/>
<polygon fill="midnightblue" stroke="midnightblue" points="2653.92,-164.64 2644.37,-169.24 2654.7,-171.6 2653.92,-164.64"/>
</g>
<!-- Node139 -->
<g id="node48" class="node">
<title>Node139</title>
<g id="a_node48"><a xlink:href="_m_m_s_8cpp.html" target="_top" xlink:title=" ">
<polygon fill="white" stroke="black" points="4602.5,-112.5 4602.5,-131.5 4663.5,-131.5 4663.5,-112.5 4602.5,-112.5"/>
<text text-anchor="middle" x="4633" y="-119.5" font-family="Helvetica,sans-Serif" font-size="10.00">MMS.cpp</text>
</a>
</g>
</g>
<!-- Node2&#45;&gt;Node139 -->
<g id="edge56" class="edge">
<title>Node2&#45;&gt;Node139</title>
<path fill="none" stroke="midnightblue" d="M2654.46,-168.08C3509.25,-70.64 3736.2,-224.35 4588,-132 4592.59,-131.5 4597.42,-130.77 4602.13,-129.93"/>
<polygon fill="midnightblue" stroke="midnightblue" points="2653.91,-164.62 2644.37,-169.24 2654.71,-171.58 2653.91,-164.62"/>
</g>
<!-- Node3&#45;&gt;Node5 -->
<g id="edge3" class="edge">
<title>Node3&#45;&gt;Node5</title>
<path fill="none" stroke="midnightblue" d="M4023.86,-106.1C4010.72,-96.38 3994.02,-84.03 3982.94,-75.83"/>
<polygon fill="midnightblue" stroke="midnightblue" points="4022.15,-109.19 4032.27,-112.32 4026.31,-103.56 4022.15,-109.19"/>
</g>
<!-- Node5&#45;&gt;Node6 -->
<g id="edge4" class="edge">
<title>Node5&#45;&gt;Node6</title>
<path fill="none" stroke="midnightblue" d="M3915.76,-63.45C3633.97,-55.57 2359.54,-19.91 2090.84,-12.39"/>
<polygon fill="midnightblue" stroke="midnightblue" points="3916.04,-66.96 3926.13,-63.74 3916.24,-59.97 3916.04,-66.96"/>
</g>
<!-- Node63&#45;&gt;Node23 -->
<g id="edge24" class="edge">
<title>Node63&#45;&gt;Node23</title>
<path fill="none" stroke="midnightblue" d="M1082.78,-111.97C918.79,-86.57 733.8,-72.88 668.91,-68.53"/>
<polygon fill="midnightblue" stroke="midnightblue" points="1082.63,-115.49 1093.05,-113.58 1083.71,-108.58 1082.63,-115.49"/>
</g>
<!-- Node79&#45;&gt;Node2 -->
<g id="edge32" class="edge">
<title>Node79&#45;&gt;Node2</title>
<path fill="none" stroke="midnightblue" d="M3113.75,-133.08C2916.99,-162.85 2861.13,-138.99 2662,-168 2656.24,-168.84 2650.1,-170 2644.08,-171.21"/>
<polygon fill="midnightblue" stroke="midnightblue" points="3114.49,-136.51 3123.84,-131.53 3113.42,-129.59 3114.49,-136.51"/>
</g>
<!-- Node132&#45;&gt;Node15 -->
<g id="edge42" class="edge">
<title>Node132&#45;&gt;Node15</title>
<path fill="none" stroke="midnightblue" d="M2283.67,-109.04C2254.5,-98.88 2213.36,-84.55 2187.45,-75.52"/>
<polygon fill="midnightblue" stroke="midnightblue" points="2282.84,-112.46 2293.44,-112.44 2285.15,-105.85 2282.84,-112.46"/>
</g>
<!-- Node132&#45;&gt;Node131 -->
<g id="edge43" class="edge">
<title>Node132&#45;&gt;Node131</title>
<path fill="none" stroke="midnightblue" d="M2374.35,-111.96C2628.95,-83.65 2921.32,-72.18 3037.13,-68.47"/>
<polygon fill="midnightblue" stroke="midnightblue" points="2373.71,-108.51 2364.17,-113.1 2374.5,-115.47 2373.71,-108.51"/>
</g>
<!-- Node134&#45;&gt;Node133 -->
<g id="edge48" class="edge">
<title>Node134&#45;&gt;Node133</title>
<path fill="none" stroke="midnightblue" d="M4197.13,-106.1C4184.18,-96.38 4167.7,-84.03 4156.78,-75.83"/>
<polygon fill="midnightblue" stroke="midnightblue" points="4195.33,-109.12 4205.43,-112.32 4199.53,-103.52 4195.33,-109.12"/>
</g>
<!-- Node136&#45;&gt;Node135 -->
<g id="edge51" class="edge">
<title>Node136&#45;&gt;Node135</title>
<path fill="none" stroke="midnightblue" d="M4472.23,-108.37C4449.19,-98.26 4417.52,-84.35 4397.4,-75.52"/>
<polygon fill="midnightblue" stroke="midnightblue" points="4470.95,-111.63 4481.51,-112.44 4473.76,-105.22 4470.95,-111.63"/>
</g>
<!-- Node138&#45;&gt;Node102 -->
<g id="edge55" class="edge">
<title>Node138&#45;&gt;Node102</title>
<path fill="none" stroke="midnightblue" d="M4720.81,-106.9C4705.22,-97 4684.87,-84.07 4671.62,-75.65"/>
<polygon fill="midnightblue" stroke="midnightblue" points="4719.03,-109.92 4729.34,-112.32 4722.78,-104.01 4719.03,-109.92"/>
</g>
</g>
</svg>
