<?xml version="1.0" encoding="UTF-8" standalone="no"?>
<!DOCTYPE svg PUBLIC "-//W3C//DTD SVG 1.1//EN"
 "http://www.w3.org/Graphics/SVG/1.1/DTD/svg11.dtd">
<!-- Generated by graphviz version 2.43.0 (0)
 -->
<!-- Title: MomentumSource.H Pages: 1 -->
<!--zoomable 196 -->
<svg id="main" version="1.1" xmlns="http://www.w3.org/2000/svg" xmlns:xlink="http://www.w3.org/1999/xlink" xml:space="preserve" onload="init(evt)">
<style type="text/css"><![CDATA[
.edge:hover path { stroke: red; }
.edge:hover polygon { stroke: red; fill: red; }
]]></style>
<script type="text/javascript"><![CDATA[
var edges = document.getElementsByTagName('g');
if (edges && edges.length) {
  for (var i=0;i<edges.length;i++) {
    if (edges[i].id.substr(0,4)=='edge') {
      edges[i].setAttribute('class','edge');
    }
  }
}
]]></script>
        <defs>
                <circle id="rim" cx="0" cy="0" r="7"/>
                <circle id="rim2" cx="0" cy="0" r="3.5"/>
                <g id="zoomPlus">
                        <use xlink:href="#rim" fill="#404040">
                                <set attributeName="fill" to="#808080" begin="zoomplus.mouseover" end="zoomplus.mouseout"/>
                        </use>
                        <path d="M-4,0h8M0,-4v8" fill="none" stroke="white" stroke-width="1.5" pointer-events="none"/>
                </g>
                <g id="zoomMin">
                        <use xlink:href="#rim" fill="#404040">
                                <set attributeName="fill" to="#808080" begin="zoomminus.mouseover" end="zoomminus.mouseout"/>
                        </use>
                        <path d="M-4,0h8" fill="none" stroke="white" stroke-width="1.5" pointer-events="none"/>
                </g>
                <g id="dirArrow">
                        <path fill="none" stroke="white" stroke-width="1.5" d="M0,-3.0v7 M-2.5,-0.5L0,-3.0L2.5,-0.5"/>
                </g>
               <g id="resetDef">
                       <use xlink:href="#rim2" fill="#404040">
                               <set attributeName="fill" to="#808080" begin="reset.mouseover" end="reset.mouseout"/>
                       </use>
               </g>
        </defs>

<script type="text/javascript">
var viewWidth = 3255;
var viewHeight = 196;
var sectionId = 'dynsection-1';
</script>
<script xlink:href="svgpan.js"/>
<svg id="graph" class="graph">
<g id="viewport">
<title>MomentumSource.H</title>
<polygon fill="white" stroke="transparent" points="-4,4 -4,-192 3250.5,-192 3250.5,4 -4,4"/>
<!-- Node1 -->
<g id="node1" class="node">
<title>Node1</title>
<g id="a_node1"><a xlink:title=" ">
<polygon fill="#bfbfbf" stroke="black" points="2103.5,-168.5 2103.5,-187.5 2219.5,-187.5 2219.5,-168.5 2103.5,-168.5"/>
<text text-anchor="middle" x="2161.5" y="-175.5" font-family="Helvetica,sans-Serif" font-size="10.00">MomentumSource.H</text>
</a>
</g>
</g>
<!-- Node2 -->
<g id="node2" class="node">
<title>Node2</title>
<g id="a_node2"><a xlink:href="icns_8_h.html" target="_top" xlink:title=" ">
<polygon fill="white" stroke="black" points="471,-112.5 471,-131.5 518,-131.5 518,-112.5 471,-112.5"/>
<text text-anchor="middle" x="494.5" y="-119.5" font-family="Helvetica,sans-Serif" font-size="10.00">icns.H</text>
</a>
</g>
</g>
<!-- Node1&#45;&gt;Node2 -->
<g id="edge1" class="edge">
<title>Node1&#45;&gt;Node2</title>
<path fill="none" stroke="midnightblue" d="M2092.81,-174.78C1803.86,-165.41 693.77,-129.46 518,-123.76"/>
<polygon fill="midnightblue" stroke="midnightblue" points="2093.04,-178.28 2103.15,-175.11 2093.27,-171.29 2093.04,-178.28"/>
</g>
<!-- Node14 -->
<g id="node14" class="node">
<title>Node14</title>
<g id="a_node14"><a xlink:href="_a_b_l_forcing_8_h.html" target="_top" xlink:title=" ">
<polygon fill="white" stroke="black" points="1197,-112.5 1197,-131.5 1278,-131.5 1278,-112.5 1197,-112.5"/>
<text text-anchor="middle" x="1237.5" y="-119.5" font-family="Helvetica,sans-Serif" font-size="10.00">ABLForcing.H</text>
</a>
</g>
</g>
<!-- Node1&#45;&gt;Node14 -->
<g id="edge17" class="edge">
<title>Node1&#45;&gt;Node14</title>
<path fill="none" stroke="midnightblue" d="M2093.04,-174.25C1950.98,-168.32 1613.86,-153.16 1331.5,-132 1314.01,-130.69 1294.72,-128.9 1278.19,-127.27"/>
<polygon fill="midnightblue" stroke="midnightblue" points="2093.2,-177.76 2103.33,-174.67 2093.49,-170.76 2093.2,-177.76"/>
</g>
<!-- Node18 -->
<g id="node18" class="node">
<title>Node18</title>
<g id="a_node18"><a xlink:href="_a_b_l_mean_boussinesq_8_h.html" target="_top" xlink:title=" ">
<polygon fill="white" stroke="black" points="1340.5,-112.5 1340.5,-131.5 1468.5,-131.5 1468.5,-112.5 1340.5,-112.5"/>
<text text-anchor="middle" x="1404.5" y="-119.5" font-family="Helvetica,sans-Serif" font-size="10.00">ABLMeanBoussinesq.H</text>
</a>
</g>
</g>
<!-- Node1&#45;&gt;Node18 -->
<g id="edge21" class="edge">
<title>Node1&#45;&gt;Node18</title>
<path fill="none" stroke="midnightblue" d="M2093.27,-173.8C1970.1,-167.74 1702.51,-153.25 1477.5,-132 1474.58,-131.72 1471.59,-131.42 1468.57,-131.11"/>
<polygon fill="midnightblue" stroke="midnightblue" points="2093.15,-177.3 2103.31,-174.29 2093.49,-170.31 2093.15,-177.3"/>
</g>
<!-- Node20 -->
<g id="node20" class="node">
<title>Node20</title>
<g id="a_node20"><a xlink:href="_a_b_l_meso_forcing_mom_8_h.html" target="_top" xlink:title=" ">
<polygon fill="white" stroke="black" points="1486.5,-112.5 1486.5,-131.5 1618.5,-131.5 1618.5,-112.5 1486.5,-112.5"/>
<text text-anchor="middle" x="1552.5" y="-119.5" font-family="Helvetica,sans-Serif" font-size="10.00">ABLMesoForcingMom.H</text>
</a>
</g>
</g>
<!-- Node1&#45;&gt;Node20 -->
<g id="edge24" class="edge">
<title>Node1&#45;&gt;Node20</title>
<path fill="none" stroke="midnightblue" d="M2093.34,-171.58C1993.32,-163.53 1800.94,-147.67 1637.5,-132 1631.44,-131.42 1625.15,-130.79 1618.84,-130.15"/>
<polygon fill="midnightblue" stroke="midnightblue" points="2093.06,-175.07 2103.31,-172.38 2093.62,-168.09 2093.06,-175.07"/>
</g>
<!-- Node22 -->
<g id="node22" class="node">
<title>Node22</title>
<g id="a_node22"><a xlink:href="_actuator_forcing_8_h.html" target="_top" xlink:title=" ">
<polygon fill="white" stroke="black" points="1788.5,-112.5 1788.5,-131.5 1892.5,-131.5 1892.5,-112.5 1788.5,-112.5"/>
<text text-anchor="middle" x="1840.5" y="-119.5" font-family="Helvetica,sans-Serif" font-size="10.00">ActuatorForcing.H</text>
</a>
</g>
</g>
<!-- Node1&#45;&gt;Node22 -->
<g id="edge28" class="edge">
<title>Node1&#45;&gt;Node22</title>
<path fill="none" stroke="midnightblue" d="M2100.44,-166.73C2039.78,-156.52 1947.85,-141.06 1891.13,-131.52"/>
<polygon fill="midnightblue" stroke="midnightblue" points="2100.19,-170.24 2110.64,-168.44 2101.36,-163.33 2100.19,-170.24"/>
</g>
<!-- Node24 -->
<g id="node24" class="node">
<title>Node24</title>
<g id="a_node24"><a xlink:href="icns_2source__terms_2_body_force_8_h.html" target="_top" xlink:title=" ">
<polygon fill="white" stroke="black" points="1920.5,-112.5 1920.5,-131.5 1998.5,-131.5 1998.5,-112.5 1920.5,-112.5"/>
<text text-anchor="middle" x="1959.5" y="-119.5" font-family="Helvetica,sans-Serif" font-size="10.00">BodyForce.H</text>
</a>
</g>
</g>
<!-- Node1&#45;&gt;Node24 -->
<g id="edge30" class="edge">
<title>Node1&#45;&gt;Node24</title>
<path fill="none" stroke="midnightblue" d="M2119.71,-165.83C2081.57,-155.63 2026.02,-140.78 1991.36,-131.52"/>
<polygon fill="midnightblue" stroke="midnightblue" points="2118.93,-169.24 2129.49,-168.44 2120.74,-162.48 2118.93,-169.24"/>
</g>
<!-- Node26 -->
<g id="node26" class="node">
<title>Node26</title>
<g id="a_node26"><a xlink:href="_boussinesq_buoyancy_8_h.html" target="_top" xlink:title=" ">
<polygon fill="white" stroke="black" points="2024,-112.5 2024,-131.5 2153,-131.5 2153,-112.5 2024,-112.5"/>
<text text-anchor="middle" x="2088.5" y="-119.5" font-family="Helvetica,sans-Serif" font-size="10.00">BoussinesqBuoyancy.H</text>
</a>
</g>
</g>
<!-- Node1&#45;&gt;Node26 -->
<g id="edge32" class="edge">
<title>Node1&#45;&gt;Node26</title>
<path fill="none" stroke="midnightblue" d="M2141.36,-162.1C2128.22,-152.38 2111.52,-140.03 2100.44,-131.83"/>
<polygon fill="midnightblue" stroke="midnightblue" points="2139.65,-165.19 2149.77,-168.32 2143.81,-159.56 2139.65,-165.19"/>
</g>
<!-- Node28 -->
<g id="node28" class="node">
<title>Node28</title>
<g id="a_node28"><a xlink:href="_burggraf_flow_forcing_8_h.html" target="_top" xlink:title=" ">
<polygon fill="white" stroke="black" points="2175.5,-112.5 2175.5,-131.5 2303.5,-131.5 2303.5,-112.5 2175.5,-112.5"/>
<text text-anchor="middle" x="2239.5" y="-119.5" font-family="Helvetica,sans-Serif" font-size="10.00">BurggrafFlowForcing.H</text>
</a>
</g>
</g>
<!-- Node1&#45;&gt;Node28 -->
<g id="edge34" class="edge">
<title>Node1&#45;&gt;Node28</title>
<path fill="none" stroke="midnightblue" d="M2182.27,-162.62C2196.52,-152.76 2214.96,-139.99 2227,-131.65"/>
<polygon fill="midnightblue" stroke="midnightblue" points="2180.26,-159.75 2174.03,-168.32 2184.25,-165.51 2180.26,-159.75"/>
</g>
<!-- Node30 -->
<g id="node30" class="node">
<title>Node30</title>
<g id="a_node30"><a xlink:href="_coriolis_forcing_8_h.html" target="_top" xlink:title=" ">
<polygon fill="white" stroke="black" points="2329,-112.5 2329,-131.5 2428,-131.5 2428,-112.5 2329,-112.5"/>
<text text-anchor="middle" x="2378.5" y="-119.5" font-family="Helvetica,sans-Serif" font-size="10.00">CoriolisForcing.H</text>
</a>
</g>
</g>
<!-- Node1&#45;&gt;Node30 -->
<g id="edge36" class="edge">
<title>Node1&#45;&gt;Node30</title>
<path fill="none" stroke="midnightblue" d="M2205.61,-166.02C2246.6,-155.82 2306.8,-140.84 2344.28,-131.52"/>
<polygon fill="midnightblue" stroke="midnightblue" points="2204.74,-162.63 2195.88,-168.44 2206.43,-169.43 2204.74,-162.63"/>
</g>
<!-- Node32 -->
<g id="node32" class="node">
<title>Node32</title>
<g id="a_node32"><a xlink:href="_density_buoyancy_8_h.html" target="_top" xlink:title=" ">
<polygon fill="white" stroke="black" points="2454,-112.5 2454,-131.5 2565,-131.5 2565,-112.5 2454,-112.5"/>
<text text-anchor="middle" x="2509.5" y="-119.5" font-family="Helvetica,sans-Serif" font-size="10.00">DensityBuoyancy.H</text>
</a>
</g>
</g>
<!-- Node1&#45;&gt;Node32 -->
<g id="edge38" class="edge">
<title>Node1&#45;&gt;Node32</title>
<path fill="none" stroke="midnightblue" d="M2226.89,-166.85C2292.64,-156.65 2392.87,-141.1 2454.62,-131.52"/>
<polygon fill="midnightblue" stroke="midnightblue" points="2225.99,-163.45 2216.64,-168.44 2227.06,-170.37 2225.99,-163.45"/>
</g>
<!-- Node34 -->
<g id="node34" class="node">
<title>Node34</title>
<g id="a_node34"><a xlink:href="_geostrophic_forcing_8_h.html" target="_top" xlink:title=" ">
<polygon fill="white" stroke="black" points="2592,-112.5 2592,-131.5 2713,-131.5 2713,-112.5 2592,-112.5"/>
<text text-anchor="middle" x="2652.5" y="-119.5" font-family="Helvetica,sans-Serif" font-size="10.00">GeostrophicForcing.H</text>
</a>
</g>
</g>
<!-- Node1&#45;&gt;Node34 -->
<g id="edge40" class="edge">
<title>Node1&#45;&gt;Node34</title>
<path fill="none" stroke="midnightblue" d="M2229.66,-169.65C2311.37,-160.82 2452.46,-145.5 2573.5,-132 2579.4,-131.34 2585.55,-130.65 2591.69,-129.96"/>
<polygon fill="midnightblue" stroke="midnightblue" points="2229.07,-166.2 2219.51,-170.75 2229.82,-173.16 2229.07,-166.2"/>
</g>
<!-- Node36 -->
<g id="node36" class="node">
<title>Node36</title>
<g id="a_node36"><a xlink:href="_gravity_forcing_8_h.html" target="_top" xlink:title=" ">
<polygon fill="white" stroke="black" points="2741.5,-112.5 2741.5,-131.5 2839.5,-131.5 2839.5,-112.5 2741.5,-112.5"/>
<text text-anchor="middle" x="2790.5" y="-119.5" font-family="Helvetica,sans-Serif" font-size="10.00">GravityForcing.H</text>
</a>
</g>
</g>
<!-- Node1&#45;&gt;Node36 -->
<g id="edge42" class="edge">
<title>Node1&#45;&gt;Node36</title>
<path fill="none" stroke="midnightblue" d="M2229.83,-172.6C2335.42,-165.56 2544.55,-150.64 2721.5,-132 2727.87,-131.33 2734.56,-130.55 2741.16,-129.74"/>
<polygon fill="midnightblue" stroke="midnightblue" points="2229.38,-169.13 2219.63,-173.28 2229.84,-176.11 2229.38,-169.13"/>
</g>
<!-- Node38 -->
<g id="node38" class="node">
<title>Node38</title>
<g id="a_node38"><a xlink:href="_hurricane_forcing_8_h.html" target="_top" xlink:title=" ">
<polygon fill="white" stroke="black" points="1646.5,-112.5 1646.5,-131.5 1756.5,-131.5 1756.5,-112.5 1646.5,-112.5"/>
<text text-anchor="middle" x="1701.5" y="-119.5" font-family="Helvetica,sans-Serif" font-size="10.00">HurricaneForcing.H</text>
</a>
</g>
</g>
<!-- Node1&#45;&gt;Node38 -->
<g id="edge44" class="edge">
<title>Node1&#45;&gt;Node38</title>
<path fill="none" stroke="midnightblue" d="M2093.25,-168.99C2001.76,-158.25 1841.12,-139.39 1756.78,-129.49"/>
<polygon fill="midnightblue" stroke="midnightblue" points="2092.9,-172.47 2103.24,-170.16 2093.72,-165.52 2092.9,-172.47"/>
</g>
<!-- Node40 -->
<g id="node40" class="node">
<title>Node40</title>
<g id="a_node40"><a xlink:href="_rayleigh_damping_8_h.html" target="_top" xlink:title=" ">
<polygon fill="white" stroke="black" points="2867.5,-112.5 2867.5,-131.5 2981.5,-131.5 2981.5,-112.5 2867.5,-112.5"/>
<text text-anchor="middle" x="2924.5" y="-119.5" font-family="Helvetica,sans-Serif" font-size="10.00">RayleighDamping.H</text>
</a>
</g>
</g>
<!-- Node1&#45;&gt;Node40 -->
<g id="edge47" class="edge">
<title>Node1&#45;&gt;Node40</title>
<path fill="none" stroke="midnightblue" d="M2230.02,-173.7C2353.72,-167.49 2622.46,-152.77 2848.5,-132 2854.59,-131.44 2860.94,-130.79 2867.27,-130.1"/>
<polygon fill="midnightblue" stroke="midnightblue" points="2229.75,-170.21 2219.94,-174.21 2230.1,-177.2 2229.75,-170.21"/>
</g>
<!-- Node42 -->
<g id="node42" class="node">
<title>Node42</title>
<g id="a_node42"><a xlink:href="_synth_turb_forcing_8_h.html" target="_top" xlink:title=" ">
<polygon fill="white" stroke="black" points="3009.5,-112.5 3009.5,-131.5 3119.5,-131.5 3119.5,-112.5 3009.5,-112.5"/>
<text text-anchor="middle" x="3064.5" y="-119.5" font-family="Helvetica,sans-Serif" font-size="10.00">SynthTurbForcing.H</text>
</a>
</g>
</g>
<!-- Node1&#45;&gt;Node42 -->
<g id="edge49" class="edge">
<title>Node1&#45;&gt;Node42</title>
<path fill="none" stroke="midnightblue" d="M2229.93,-174.83C2371.9,-170 2708.77,-156.75 2990.5,-132 2996.56,-131.47 3002.89,-130.83 3009.18,-130.14"/>
<polygon fill="midnightblue" stroke="midnightblue" points="2229.51,-171.35 2219.64,-175.18 2229.75,-178.34 2229.51,-171.35"/>
</g>
<!-- Node44 -->
<g id="node44" class="node">
<title>Node44</title>
<g id="a_node44"><a xlink:href="_m_m_s_forcing_8_h.html" target="_top" xlink:title=" ">
<polygon fill="white" stroke="black" points="3147.5,-112.5 3147.5,-131.5 3233.5,-131.5 3233.5,-112.5 3147.5,-112.5"/>
<text text-anchor="middle" x="3190.5" y="-119.5" font-family="Helvetica,sans-Serif" font-size="10.00">MMSForcing.H</text>
</a>
</g>
</g>
<!-- Node1&#45;&gt;Node44 -->
<g id="edge51" class="edge">
<title>Node1&#45;&gt;Node44</title>
<path fill="none" stroke="midnightblue" d="M2229.75,-176.11C2388.03,-173.55 2792.29,-164.15 3128.5,-132 3134.56,-131.42 3140.94,-130.66 3147.2,-129.83"/>
<polygon fill="midnightblue" stroke="midnightblue" points="2229.62,-172.61 2219.68,-176.27 2229.74,-179.61 2229.62,-172.61"/>
</g>
<!-- Node3 -->
<g id="node3" class="node">
<title>Node3</title>
<g id="a_node3"><a xlink:href="icns_8cpp.html" target="_top" xlink:title=" ">
<polygon fill="white" stroke="black" points="181.5,-0.5 181.5,-19.5 237.5,-19.5 237.5,-0.5 181.5,-0.5"/>
<text text-anchor="middle" x="209.5" y="-7.5" font-family="Helvetica,sans-Serif" font-size="10.00">icns.cpp</text>
</a>
</g>
</g>
<!-- Node2&#45;&gt;Node3 -->
<g id="edge2" class="edge">
<title>Node2&#45;&gt;Node3</title>
<path fill="none" stroke="midnightblue" d="M460.55,-119.64C396.75,-116.4 262.33,-106.09 228.5,-76 212.16,-61.47 209.53,-33.74 209.32,-19.66"/>
<polygon fill="midnightblue" stroke="midnightblue" points="460.72,-123.15 470.88,-120.13 461.06,-116.16 460.72,-123.15"/>
</g>
<!-- Node4 -->
<g id="node4" class="node">
<title>Node4</title>
<g id="a_node4"><a xlink:href="icns__advection_8_h.html" target="_top" xlink:title=" ">
<polygon fill="white" stroke="black" points="925.5,-56.5 925.5,-75.5 1025.5,-75.5 1025.5,-56.5 925.5,-56.5"/>
<text text-anchor="middle" x="975.5" y="-63.5" font-family="Helvetica,sans-Serif" font-size="10.00">icns_advection.H</text>
</a>
</g>
</g>
<!-- Node2&#45;&gt;Node4 -->
<g id="edge3" class="edge">
<title>Node2&#45;&gt;Node4</title>
<path fill="none" stroke="midnightblue" d="M528.51,-117.86C600.18,-111.13 771.95,-94.43 915.5,-76 918.74,-75.58 922.07,-75.14 925.43,-74.67"/>
<polygon fill="midnightblue" stroke="midnightblue" points="527.91,-114.4 518.28,-118.81 528.56,-121.37 527.91,-114.4"/>
</g>
<!-- Node6 -->
<g id="node6" class="node">
<title>Node6</title>
<g id="a_node6"><a xlink:href="icns__bcop_8_h.html" target="_top" xlink:title=" ">
<polygon fill="white" stroke="black" points="238,-56.5 238,-75.5 313,-75.5 313,-56.5 238,-56.5"/>
<text text-anchor="middle" x="275.5" y="-63.5" font-family="Helvetica,sans-Serif" font-size="10.00">icns_bcop.H</text>
</a>
</g>
</g>
<!-- Node2&#45;&gt;Node6 -->
<g id="edge6" class="edge">
<title>Node2&#45;&gt;Node6</title>
<path fill="none" stroke="midnightblue" d="M460.89,-112.71C420.02,-102.63 351.4,-85.72 310.09,-75.53"/>
<polygon fill="midnightblue" stroke="midnightblue" points="460.1,-116.12 470.65,-115.12 461.78,-109.33 460.1,-116.12"/>
</g>
<!-- Node7 -->
<g id="node7" class="node">
<title>Node7</title>
<g id="a_node7"><a xlink:href="icns__diffusion_8_h.html" target="_top" xlink:title=" ">
<polygon fill="white" stroke="black" points="87.5,-56.5 87.5,-75.5 181.5,-75.5 181.5,-56.5 87.5,-56.5"/>
<text text-anchor="middle" x="134.5" y="-63.5" font-family="Helvetica,sans-Serif" font-size="10.00">icns_diffusion.H</text>
</a>
</g>
</g>
<!-- Node2&#45;&gt;Node7 -->
<g id="edge8" class="edge">
<title>Node2&#45;&gt;Node7</title>
<path fill="none" stroke="midnightblue" d="M460.85,-115.95C396.39,-106.28 255.34,-85.13 181.58,-74.06"/>
<polygon fill="midnightblue" stroke="midnightblue" points="460.47,-119.43 470.88,-117.46 461.51,-112.51 460.47,-119.43"/>
</g>
<!-- Node8 -->
<g id="node8" class="node">
<title>Node8</title>
<g id="a_node8"><a xlink:href="icns__ops_8_h.html" target="_top" xlink:title=" ">
<polygon fill="white" stroke="black" points="0,-56.5 0,-75.5 69,-75.5 69,-56.5 0,-56.5"/>
<text text-anchor="middle" x="34.5" y="-63.5" font-family="Helvetica,sans-Serif" font-size="10.00">icns_ops.H</text>
</a>
</g>
</g>
<!-- Node2&#45;&gt;Node8 -->
<g id="edge10" class="edge">
<title>Node2&#45;&gt;Node8</title>
<path fill="none" stroke="midnightblue" d="M460.81,-118.44C389.84,-112.8 219.82,-98.05 78.5,-76 75.42,-75.52 72.23,-74.97 69.03,-74.38"/>
<polygon fill="midnightblue" stroke="midnightblue" points="460.7,-121.94 470.94,-119.23 461.25,-114.96 460.7,-121.94"/>
</g>
<!-- Node9 -->
<g id="node9" class="node">
<title>Node9</title>
<g id="a_node9"><a xlink:href="_burggraf_lid_8cpp.html" target="_top" xlink:title=" ">
<polygon fill="white" stroke="black" points="331,-56.5 331,-75.5 424,-75.5 424,-56.5 331,-56.5"/>
<text text-anchor="middle" x="377.5" y="-63.5" font-family="Helvetica,sans-Serif" font-size="10.00">BurggrafLid.cpp</text>
</a>
</g>
</g>
<!-- Node2&#45;&gt;Node9 -->
<g id="edge12" class="edge">
<title>Node2&#45;&gt;Node9</title>
<path fill="none" stroke="midnightblue" d="M466.84,-108.23C444.95,-98.13 415,-84.31 395.95,-75.52"/>
<polygon fill="midnightblue" stroke="midnightblue" points="465.41,-111.43 475.96,-112.44 468.35,-105.08 465.41,-111.43"/>
</g>
<!-- Node10 -->
<g id="node10" class="node">
<title>Node10</title>
<g id="a_node10"><a xlink:href="_custom_scalar_8cpp.html" target="_top" xlink:title=" ">
<polygon fill="white" stroke="black" points="442.5,-56.5 442.5,-75.5 546.5,-75.5 546.5,-56.5 442.5,-56.5"/>
<text text-anchor="middle" x="494.5" y="-63.5" font-family="Helvetica,sans-Serif" font-size="10.00">CustomScalar.cpp</text>
</a>
</g>
</g>
<!-- Node2&#45;&gt;Node10 -->
<g id="edge13" class="edge">
<title>Node2&#45;&gt;Node10</title>
<path fill="none" stroke="midnightblue" d="M494.5,-101.8C494.5,-92.91 494.5,-82.78 494.5,-75.75"/>
<polygon fill="midnightblue" stroke="midnightblue" points="491,-102.08 494.5,-112.08 498,-102.08 491,-102.08"/>
</g>
<!-- Node11 -->
<g id="node11" class="node">
<title>Node11</title>
<g id="a_node11"><a xlink:href="_custom_velocity_8cpp.html" target="_top" xlink:title=" ">
<polygon fill="white" stroke="black" points="564.5,-56.5 564.5,-75.5 676.5,-75.5 676.5,-56.5 564.5,-56.5"/>
<text text-anchor="middle" x="620.5" y="-63.5" font-family="Helvetica,sans-Serif" font-size="10.00">CustomVelocity.cpp</text>
</a>
</g>
</g>
<!-- Node2&#45;&gt;Node11 -->
<g id="edge14" class="edge">
<title>Node2&#45;&gt;Node11</title>
<path fill="none" stroke="midnightblue" d="M523.66,-108.5C547.28,-98.38 579.93,-84.39 600.63,-75.52"/>
<polygon fill="midnightblue" stroke="midnightblue" points="522.28,-105.29 514.47,-112.44 525.04,-111.72 522.28,-105.29"/>
</g>
<!-- Node12 -->
<g id="node12" class="node">
<title>Node12</title>
<g id="a_node12"><a xlink:href="_power_law_profile_8cpp.html" target="_top" xlink:title=" ">
<polygon fill="white" stroke="black" points="695,-56.5 695,-75.5 812,-75.5 812,-56.5 695,-56.5"/>
<text text-anchor="middle" x="753.5" y="-63.5" font-family="Helvetica,sans-Serif" font-size="10.00">PowerLawProfile.cpp</text>
</a>
</g>
</g>
<!-- Node2&#45;&gt;Node12 -->
<g id="edge15" class="edge">
<title>Node2&#45;&gt;Node12</title>
<path fill="none" stroke="midnightblue" d="M528.45,-113.92C575.77,-104.06 661.46,-86.19 712.35,-75.58"/>
<polygon fill="midnightblue" stroke="midnightblue" points="527.48,-110.55 518.4,-116.02 528.91,-117.4 527.48,-110.55"/>
</g>
<!-- Node13 -->
<g id="node13" class="node">
<title>Node13</title>
<g id="a_node13"><a xlink:href="_rankine_8cpp.html" target="_top" xlink:title=" ">
<polygon fill="white" stroke="black" points="830,-56.5 830,-75.5 907,-75.5 907,-56.5 830,-56.5"/>
<text text-anchor="middle" x="868.5" y="-63.5" font-family="Helvetica,sans-Serif" font-size="10.00">Rankine.cpp</text>
</a>
</g>
</g>
<!-- Node2&#45;&gt;Node13 -->
<g id="edge16" class="edge">
<title>Node2&#45;&gt;Node13</title>
<path fill="none" stroke="midnightblue" d="M528.21,-116.89C587.46,-109.55 714.1,-93.31 820.5,-76 823.51,-75.51 826.63,-74.98 829.76,-74.43"/>
<polygon fill="midnightblue" stroke="midnightblue" points="527.78,-113.42 518.28,-118.12 528.64,-120.36 527.78,-113.42"/>
</g>
<!-- Node4&#45;&gt;Node3 -->
<g id="edge4" class="edge">
<title>Node4&#45;&gt;Node3</title>
<path fill="none" stroke="midnightblue" d="M915.8,-56.03C915.7,-56.02 915.6,-56.01 915.5,-56 652.93,-27.99 333.43,-15.29 237.82,-11.94"/>
<polygon fill="midnightblue" stroke="midnightblue" points="915.11,-59.48 925.45,-57.17 915.93,-52.52 915.11,-59.48"/>
</g>
<!-- Node5 -->
<g id="node5" class="node">
<title>Node5</title>
<g id="a_node5"><a xlink:href="icns__advection_8cpp.html" target="_top" xlink:title=" ">
<polygon fill="white" stroke="black" points="920.5,-0.5 920.5,-19.5 1030.5,-19.5 1030.5,-0.5 920.5,-0.5"/>
<text text-anchor="middle" x="975.5" y="-7.5" font-family="Helvetica,sans-Serif" font-size="10.00">icns_advection.cpp</text>
</a>
</g>
</g>
<!-- Node4&#45;&gt;Node5 -->
<g id="edge5" class="edge">
<title>Node4&#45;&gt;Node5</title>
<path fill="none" stroke="midnightblue" d="M975.5,-45.8C975.5,-36.91 975.5,-26.78 975.5,-19.75"/>
<polygon fill="midnightblue" stroke="midnightblue" points="972,-46.08 975.5,-56.08 979,-46.08 972,-46.08"/>
</g>
<!-- Node6&#45;&gt;Node3 -->
<g id="edge7" class="edge">
<title>Node6&#45;&gt;Node3</title>
<path fill="none" stroke="midnightblue" d="M256.95,-49.82C245.12,-40.15 230.21,-27.95 220.3,-19.83"/>
<polygon fill="midnightblue" stroke="midnightblue" points="254.94,-52.7 264.9,-56.32 259.37,-47.28 254.94,-52.7"/>
</g>
<!-- Node7&#45;&gt;Node3 -->
<g id="edge9" class="edge">
<title>Node7&#45;&gt;Node3</title>
<path fill="none" stroke="midnightblue" d="M154.81,-50.38C168.36,-40.62 185.74,-28.11 197.23,-19.83"/>
<polygon fill="midnightblue" stroke="midnightblue" points="152.62,-47.64 146.55,-56.32 156.71,-53.32 152.62,-47.64"/>
</g>
<!-- Node8&#45;&gt;Node3 -->
<g id="edge11" class="edge">
<title>Node8&#45;&gt;Node3</title>
<path fill="none" stroke="midnightblue" d="M71.97,-53.44C104.97,-43.26 152.26,-28.66 181.9,-19.52"/>
<polygon fill="midnightblue" stroke="midnightblue" points="70.75,-50.15 62.23,-56.44 72.82,-56.84 70.75,-50.15"/>
</g>
<!-- Node15 -->
<g id="node15" class="node">
<title>Node15</title>
<g id="a_node15"><a xlink:href="_a_b_l_forcing_8cpp.html" target="_top" xlink:title=" ">
<polygon fill="white" stroke="black" points="1044,-56.5 1044,-75.5 1135,-75.5 1135,-56.5 1044,-56.5"/>
<text text-anchor="middle" x="1089.5" y="-63.5" font-family="Helvetica,sans-Serif" font-size="10.00">ABLForcing.cpp</text>
</a>
</g>
</g>
<!-- Node14&#45;&gt;Node15 -->
<g id="edge18" class="edge">
<title>Node14&#45;&gt;Node15</title>
<path fill="none" stroke="midnightblue" d="M1204.35,-108.91C1176.53,-98.75 1137.48,-84.51 1112.84,-75.52"/>
<polygon fill="midnightblue" stroke="midnightblue" points="1203.46,-112.3 1214.05,-112.44 1205.85,-105.73 1203.46,-112.3"/>
</g>
<!-- Node16 -->
<g id="node16" class="node">
<title>Node16</title>
<g id="a_node16"><a xlink:href="_a_b_l_8cpp.html" target="_top" xlink:title=" ">
<polygon fill="white" stroke="black" points="1407.5,-56.5 1407.5,-75.5 1463.5,-75.5 1463.5,-56.5 1407.5,-56.5"/>
<text text-anchor="middle" x="1435.5" y="-63.5" font-family="Helvetica,sans-Serif" font-size="10.00">ABL.cpp</text>
</a>
</g>
</g>
<!-- Node14&#45;&gt;Node16 -->
<g id="edge19" class="edge">
<title>Node14&#45;&gt;Node16</title>
<path fill="none" stroke="midnightblue" d="M1278.76,-109.75C1317.33,-99.23 1373.89,-83.8 1407.47,-74.64"/>
<polygon fill="midnightblue" stroke="midnightblue" points="1277.6,-106.44 1268.87,-112.44 1279.44,-113.19 1277.6,-106.44"/>
</g>
<!-- Node17 -->
<g id="node17" class="node">
<title>Node17</title>
<g id="a_node17"><a xlink:href="_a_b_l_stats_8cpp.html" target="_top" xlink:title=" ">
<polygon fill="white" stroke="black" points="1153.5,-56.5 1153.5,-75.5 1233.5,-75.5 1233.5,-56.5 1153.5,-56.5"/>
<text text-anchor="middle" x="1193.5" y="-63.5" font-family="Helvetica,sans-Serif" font-size="10.00">ABLStats.cpp</text>
</a>
</g>
</g>
<!-- Node14&#45;&gt;Node17 -->
<g id="edge20" class="edge">
<title>Node14&#45;&gt;Node17</title>
<path fill="none" stroke="midnightblue" d="M1223.77,-104.14C1216.1,-94.74 1206.87,-83.4 1200.63,-75.75"/>
<polygon fill="midnightblue" stroke="midnightblue" points="1221.2,-106.54 1230.23,-112.08 1226.63,-102.12 1221.2,-106.54"/>
</g>
<!-- Node18&#45;&gt;Node16 -->
<g id="edge23" class="edge">
<title>Node18&#45;&gt;Node16</title>
<path fill="none" stroke="midnightblue" d="M1414.68,-103.27C1419.97,-94.05 1426.22,-83.17 1430.48,-75.75"/>
<polygon fill="midnightblue" stroke="midnightblue" points="1411.56,-101.67 1409.62,-112.08 1417.63,-105.15 1411.56,-101.67"/>
</g>
<!-- Node19 -->
<g id="node19" class="node">
<title>Node19</title>
<g id="a_node19"><a xlink:href="_a_b_l_mean_boussinesq_8cpp.html" target="_top" xlink:title=" ">
<polygon fill="white" stroke="black" points="1251.5,-56.5 1251.5,-75.5 1389.5,-75.5 1389.5,-56.5 1251.5,-56.5"/>
<text text-anchor="middle" x="1320.5" y="-63.5" font-family="Helvetica,sans-Serif" font-size="10.00">ABLMeanBoussinesq.cpp</text>
</a>
</g>
</g>
<!-- Node18&#45;&gt;Node19 -->
<g id="edge22" class="edge">
<title>Node18&#45;&gt;Node19</title>
<path fill="none" stroke="midnightblue" d="M1382.57,-106.9C1367.16,-97 1347.05,-84.07 1333.96,-75.65"/>
<polygon fill="midnightblue" stroke="midnightblue" points="1380.7,-109.86 1391,-112.32 1384.48,-103.97 1380.7,-109.86"/>
</g>
<!-- Node20&#45;&gt;Node16 -->
<g id="edge26" class="edge">
<title>Node20&#45;&gt;Node16</title>
<path fill="none" stroke="midnightblue" d="M1524.84,-108.23C1502.95,-98.13 1473,-84.31 1453.95,-75.52"/>
<polygon fill="midnightblue" stroke="midnightblue" points="1523.41,-111.43 1533.96,-112.44 1526.35,-105.08 1523.41,-111.43"/>
</g>
<!-- Node20&#45;&gt;Node17 -->
<g id="edge27" class="edge">
<title>Node20&#45;&gt;Node17</title>
<path fill="none" stroke="midnightblue" d="M1478.65,-111.07C1415.77,-102.43 1323.07,-89.24 1242.5,-76 1239.6,-75.52 1236.6,-75.01 1233.59,-74.49"/>
<polygon fill="midnightblue" stroke="midnightblue" points="1478.48,-114.58 1488.87,-112.47 1479.43,-107.65 1478.48,-114.58"/>
</g>
<!-- Node21 -->
<g id="node21" class="node">
<title>Node21</title>
<g id="a_node21"><a xlink:href="_a_b_l_meso_forcing_mom_8cpp.html" target="_top" xlink:title=" ">
<polygon fill="white" stroke="black" points="1481.5,-56.5 1481.5,-75.5 1623.5,-75.5 1623.5,-56.5 1481.5,-56.5"/>
<text text-anchor="middle" x="1552.5" y="-63.5" font-family="Helvetica,sans-Serif" font-size="10.00">ABLMesoForcingMom.cpp</text>
</a>
</g>
</g>
<!-- Node20&#45;&gt;Node21 -->
<g id="edge25" class="edge">
<title>Node20&#45;&gt;Node21</title>
<path fill="none" stroke="midnightblue" d="M1552.5,-101.8C1552.5,-92.91 1552.5,-82.78 1552.5,-75.75"/>
<polygon fill="midnightblue" stroke="midnightblue" points="1549,-102.08 1552.5,-112.08 1556,-102.08 1549,-102.08"/>
</g>
<!-- Node23 -->
<g id="node23" class="node">
<title>Node23</title>
<g id="a_node23"><a xlink:href="_actuator_forcing_8cpp.html" target="_top" xlink:title=" ">
<polygon fill="white" stroke="black" points="1779,-56.5 1779,-75.5 1892,-75.5 1892,-56.5 1779,-56.5"/>
<text text-anchor="middle" x="1835.5" y="-63.5" font-family="Helvetica,sans-Serif" font-size="10.00">ActuatorForcing.cpp</text>
</a>
</g>
</g>
<!-- Node22&#45;&gt;Node23 -->
<g id="edge29" class="edge">
<title>Node22&#45;&gt;Node23</title>
<path fill="none" stroke="midnightblue" d="M1838.75,-102.1C1837.92,-93.14 1836.97,-82.86 1836.31,-75.75"/>
<polygon fill="midnightblue" stroke="midnightblue" points="1835.27,-102.45 1839.67,-112.08 1842.24,-101.8 1835.27,-102.45"/>
</g>
<!-- Node25 -->
<g id="node25" class="node">
<title>Node25</title>
<g id="a_node25"><a xlink:href="icns_2source__terms_2_body_force_8cpp.html" target="_top" xlink:title=" ">
<polygon fill="white" stroke="black" points="1910.5,-56.5 1910.5,-75.5 1998.5,-75.5 1998.5,-56.5 1910.5,-56.5"/>
<text text-anchor="middle" x="1954.5" y="-63.5" font-family="Helvetica,sans-Serif" font-size="10.00">BodyForce.cpp</text>
</a>
</g>
</g>
<!-- Node24&#45;&gt;Node25 -->
<g id="edge31" class="edge">
<title>Node24&#45;&gt;Node25</title>
<path fill="none" stroke="midnightblue" d="M1957.75,-102.1C1956.92,-93.14 1955.97,-82.86 1955.31,-75.75"/>
<polygon fill="midnightblue" stroke="midnightblue" points="1954.27,-102.45 1958.67,-112.08 1961.24,-101.8 1954.27,-102.45"/>
</g>
<!-- Node27 -->
<g id="node27" class="node">
<title>Node27</title>
<g id="a_node27"><a xlink:href="_boussinesq_buoyancy_8cpp.html" target="_top" xlink:title=" ">
<polygon fill="white" stroke="black" points="2017,-56.5 2017,-75.5 2156,-75.5 2156,-56.5 2017,-56.5"/>
<text text-anchor="middle" x="2086.5" y="-63.5" font-family="Helvetica,sans-Serif" font-size="10.00">BoussinesqBuoyancy.cpp</text>
</a>
</g>
</g>
<!-- Node26&#45;&gt;Node27 -->
<g id="edge33" class="edge">
<title>Node26&#45;&gt;Node27</title>
<path fill="none" stroke="midnightblue" d="M2087.79,-101.8C2087.46,-92.91 2087.08,-82.78 2086.82,-75.75"/>
<polygon fill="midnightblue" stroke="midnightblue" points="2084.3,-102.22 2088.17,-112.08 2091.3,-101.96 2084.3,-102.22"/>
</g>
<!-- Node29 -->
<g id="node29" class="node">
<title>Node29</title>
<g id="a_node29"><a xlink:href="_burggraf_flow_forcing_8cpp.html" target="_top" xlink:title=" ">
<polygon fill="white" stroke="black" points="2174,-56.5 2174,-75.5 2311,-75.5 2311,-56.5 2174,-56.5"/>
<text text-anchor="middle" x="2242.5" y="-63.5" font-family="Helvetica,sans-Serif" font-size="10.00">BurggrafFlowForcing.cpp</text>
</a>
</g>
</g>
<!-- Node28&#45;&gt;Node29 -->
<g id="edge35" class="edge">
<title>Node28&#45;&gt;Node29</title>
<path fill="none" stroke="midnightblue" d="M2240.57,-101.8C2241.06,-92.91 2241.62,-82.78 2242.01,-75.75"/>
<polygon fill="midnightblue" stroke="midnightblue" points="2237.06,-101.9 2240,-112.08 2244.04,-102.29 2237.06,-101.9"/>
</g>
<!-- Node31 -->
<g id="node31" class="node">
<title>Node31</title>
<g id="a_node31"><a xlink:href="_coriolis_forcing_8cpp.html" target="_top" xlink:title=" ">
<polygon fill="white" stroke="black" points="2329,-56.5 2329,-75.5 2438,-75.5 2438,-56.5 2329,-56.5"/>
<text text-anchor="middle" x="2383.5" y="-63.5" font-family="Helvetica,sans-Serif" font-size="10.00">CoriolisForcing.cpp</text>
</a>
</g>
</g>
<!-- Node30&#45;&gt;Node31 -->
<g id="edge37" class="edge">
<title>Node30&#45;&gt;Node31</title>
<path fill="none" stroke="midnightblue" d="M2380.25,-102.1C2381.08,-93.14 2382.03,-82.86 2382.69,-75.75"/>
<polygon fill="midnightblue" stroke="midnightblue" points="2376.76,-101.8 2379.33,-112.08 2383.73,-102.45 2376.76,-101.8"/>
</g>
<!-- Node33 -->
<g id="node33" class="node">
<title>Node33</title>
<g id="a_node33"><a xlink:href="_density_buoyancy_8cpp.html" target="_top" xlink:title=" ">
<polygon fill="white" stroke="black" points="2456,-56.5 2456,-75.5 2577,-75.5 2577,-56.5 2456,-56.5"/>
<text text-anchor="middle" x="2516.5" y="-63.5" font-family="Helvetica,sans-Serif" font-size="10.00">DensityBuoyancy.cpp</text>
</a>
</g>
</g>
<!-- Node32&#45;&gt;Node33 -->
<g id="edge39" class="edge">
<title>Node32&#45;&gt;Node33</title>
<path fill="none" stroke="midnightblue" d="M2511.95,-102.1C2513.11,-93.14 2514.44,-82.86 2515.37,-75.75"/>
<polygon fill="midnightblue" stroke="midnightblue" points="2508.47,-101.72 2510.66,-112.08 2515.41,-102.62 2508.47,-101.72"/>
</g>
<!-- Node35 -->
<g id="node35" class="node">
<title>Node35</title>
<g id="a_node35"><a xlink:href="_geostrophic_forcing_8cpp.html" target="_top" xlink:title=" ">
<polygon fill="white" stroke="black" points="2595,-56.5 2595,-75.5 2726,-75.5 2726,-56.5 2595,-56.5"/>
<text text-anchor="middle" x="2660.5" y="-63.5" font-family="Helvetica,sans-Serif" font-size="10.00">GeostrophicForcing.cpp</text>
</a>
</g>
</g>
<!-- Node34&#45;&gt;Node35 -->
<g id="edge41" class="edge">
<title>Node34&#45;&gt;Node35</title>
<path fill="none" stroke="midnightblue" d="M2655.3,-102.1C2656.63,-93.14 2658.15,-82.86 2659.2,-75.75"/>
<polygon fill="midnightblue" stroke="midnightblue" points="2651.82,-101.68 2653.82,-112.08 2658.75,-102.7 2651.82,-101.68"/>
</g>
<!-- Node37 -->
<g id="node37" class="node">
<title>Node37</title>
<g id="a_node37"><a xlink:href="_gravity_forcing_8cpp.html" target="_top" xlink:title=" ">
<polygon fill="white" stroke="black" points="2744.5,-56.5 2744.5,-75.5 2852.5,-75.5 2852.5,-56.5 2744.5,-56.5"/>
<text text-anchor="middle" x="2798.5" y="-63.5" font-family="Helvetica,sans-Serif" font-size="10.00">GravityForcing.cpp</text>
</a>
</g>
</g>
<!-- Node36&#45;&gt;Node37 -->
<g id="edge43" class="edge">
<title>Node36&#45;&gt;Node37</title>
<path fill="none" stroke="midnightblue" d="M2793.3,-102.1C2794.63,-93.14 2796.15,-82.86 2797.2,-75.75"/>
<polygon fill="midnightblue" stroke="midnightblue" points="2789.82,-101.68 2791.82,-112.08 2796.75,-102.7 2789.82,-101.68"/>
</g>
<!-- Node38&#45;&gt;Node16 -->
<g id="edge46" class="edge">
<title>Node38&#45;&gt;Node16</title>
<path fill="none" stroke="midnightblue" d="M1645.01,-110.63C1598.57,-101.92 1531.12,-88.88 1472.5,-76 1469.66,-75.38 1466.7,-74.7 1463.75,-74.01"/>
<polygon fill="midnightblue" stroke="midnightblue" points="1644.41,-114.07 1654.88,-112.47 1645.7,-107.19 1644.41,-114.07"/>
</g>
<!-- Node39 -->
<g id="node39" class="node">
<title>Node39</title>
<g id="a_node39"><a xlink:href="_hurricane_forcing_8cpp.html" target="_top" xlink:title=" ">
<polygon fill="white" stroke="black" points="1642,-56.5 1642,-75.5 1761,-75.5 1761,-56.5 1642,-56.5"/>
<text text-anchor="middle" x="1701.5" y="-63.5" font-family="Helvetica,sans-Serif" font-size="10.00">HurricaneForcing.cpp</text>
</a>
</g>
</g>
<!-- Node38&#45;&gt;Node39 -->
<g id="edge45" class="edge">
<title>Node38&#45;&gt;Node39</title>
<path fill="none" stroke="midnightblue" d="M1701.5,-101.8C1701.5,-92.91 1701.5,-82.78 1701.5,-75.75"/>
<polygon fill="midnightblue" stroke="midnightblue" points="1698,-102.08 1701.5,-112.08 1705,-102.08 1698,-102.08"/>
</g>
<!-- Node41 -->
<g id="node41" class="node">
<title>Node41</title>
<g id="a_node41"><a xlink:href="_rayleigh_damping_8cpp.html" target="_top" xlink:title=" ">
<polygon fill="white" stroke="black" points="2870.5,-56.5 2870.5,-75.5 2994.5,-75.5 2994.5,-56.5 2870.5,-56.5"/>
<text text-anchor="middle" x="2932.5" y="-63.5" font-family="Helvetica,sans-Serif" font-size="10.00">RayleighDamping.cpp</text>
</a>
</g>
</g>
<!-- Node40&#45;&gt;Node41 -->
<g id="edge48" class="edge">
<title>Node40&#45;&gt;Node41</title>
<path fill="none" stroke="midnightblue" d="M2927.3,-102.1C2928.63,-93.14 2930.15,-82.86 2931.2,-75.75"/>
<polygon fill="midnightblue" stroke="midnightblue" points="2923.82,-101.68 2925.82,-112.08 2930.75,-102.7 2923.82,-101.68"/>
</g>
<!-- Node43 -->
<g id="node43" class="node">
<title>Node43</title>
<g id="a_node43"><a xlink:href="_synth_turb_forcing_8cpp.html" target="_top" xlink:title=" ">
<polygon fill="white" stroke="black" points="3012.5,-56.5 3012.5,-75.5 3132.5,-75.5 3132.5,-56.5 3012.5,-56.5"/>
<text text-anchor="middle" x="3072.5" y="-63.5" font-family="Helvetica,sans-Serif" font-size="10.00">SynthTurbForcing.cpp</text>
</a>
</g>
</g>
<!-- Node42&#45;&gt;Node43 -->
<g id="edge50" class="edge">
<title>Node42&#45;&gt;Node43</title>
<path fill="none" stroke="midnightblue" d="M3067.3,-102.1C3068.63,-93.14 3070.15,-82.86 3071.2,-75.75"/>
<polygon fill="midnightblue" stroke="midnightblue" points="3063.82,-101.68 3065.82,-112.08 3070.75,-102.7 3063.82,-101.68"/>
</g>
<!-- Node45 -->
<g id="node45" class="node">
<title>Node45</title>
<g id="a_node45"><a xlink:href="_m_m_s_forcing_8cpp.html" target="_top" xlink:title=" ">
<polygon fill="white" stroke="black" points="3150.5,-56.5 3150.5,-75.5 3246.5,-75.5 3246.5,-56.5 3150.5,-56.5"/>
<text text-anchor="middle" x="3198.5" y="-63.5" font-family="Helvetica,sans-Serif" font-size="10.00">MMSForcing.cpp</text>
</a>
</g>
</g>
<!-- Node44&#45;&gt;Node45 -->
<g id="edge52" class="edge">
<title>Node44&#45;&gt;Node45</title>
<path fill="none" stroke="midnightblue" d="M3193.3,-102.1C3194.63,-93.14 3196.15,-82.86 3197.2,-75.75"/>
<polygon fill="midnightblue" stroke="midnightblue" points="3189.82,-101.68 3191.82,-112.08 3196.75,-102.7 3189.82,-101.68"/>
</g>
</g>
</svg>
        <g id="navigator" transform="translate(0 0)" fill="#404254">
                <rect fill="#f2f5e9" fill-opacity="0.5" stroke="#606060" stroke-width=".5" x="0" y="0" width="60" height="60"/>
                <use id="zoomplus" xlink:href="#zoomPlus" x="17" y="9" onmousedown="handleZoom(evt,'in')"/>
                <use id="zoomminus" xlink:href="#zoomMin" x="42" y="9" onmousedown="handleZoom(evt,'out')"/>
                <use id="reset" xlink:href="#resetDef" x="30" y="36" onmousedown="handleReset()"/>
                <g id="arrowUp" xlink:href="#dirArrow" transform="translate(30 24)" onmousedown="handlePan(0,-1)">
                  <use xlink:href="#rim" fill="#404040">
                        <set attributeName="fill" to="#808080" begin="arrowUp.mouseover" end="arrowUp.mouseout"/>
                  </use>
                  <path fill="none" stroke="white" stroke-width="1.5" d="M0,-3.0v7 M-2.5,-0.5L0,-3.0L2.5,-0.5"/>
                </g>
                <g id="arrowRight" xlink:href="#dirArrow" transform="rotate(90) translate(36 -43)" onmousedown="handlePan(1,0)">
                  <use xlink:href="#rim" fill="#404040">
                        <set attributeName="fill" to="#808080" begin="arrowRight.mouseover" end="arrowRight.mouseout"/>
                  </use>
                  <path fill="none" stroke="white" stroke-width="1.5" d="M0,-3.0v7 M-2.5,-0.5L0,-3.0L2.5,-0.5"/>
                </g>
                <g id="arrowDown" xlink:href="#dirArrow" transform="rotate(180) translate(-30 -48)" onmousedown="handlePan(0,1)">
                  <use xlink:href="#rim" fill="#404040">
                        <set attributeName="fill" to="#808080" begin="arrowDown.mouseover" end="arrowDown.mouseout"/>
                  </use>
                  <path fill="none" stroke="white" stroke-width="1.5" d="M0,-3.0v7 M-2.5,-0.5L0,-3.0L2.5,-0.5"/>
                </g>
                <g id="arrowLeft" xlink:href="#dirArrow" transform="rotate(270) translate(-36 17)" onmousedown="handlePan(-1,0)">
                  <use xlink:href="#rim" fill="#404040">
                        <set attributeName="fill" to="#808080" begin="arrowLeft.mouseover" end="arrowLeft.mouseout"/>
                  </use>
                  <path fill="none" stroke="white" stroke-width="1.5" d="M0,-3.0v7 M-2.5,-0.5L0,-3.0L2.5,-0.5"/>
                </g>
        </g>
        <svg viewBox="0 0 15 15" width="100%" height="30px" preserveAspectRatio="xMaxYMin meet">
         <g id="arrow_out" transform="scale(0.3 0.3)">
          <a xlink:href="_momentum_source_8_h__dep__incl_org.svg" target="_base">
           <rect id="button" ry="5" rx="5" y="6" x="6" height="38" width="38"
                fill="#f2f5e9" fill-opacity="0.5" stroke="#606060" stroke-width="1.0"/>
           <path id="arrow"
             d="M 11.500037,31.436501 C 11.940474,20.09759 22.043105,11.32322 32.158766,21.979434 L 37.068811,17.246167 C 37.068811,17.246167 37.088388,32 37.088388,32 L 22.160133,31.978069 C 22.160133,31.978069 26.997745,27.140456 26.997745,27.140456 C 18.528582,18.264221 13.291696,25.230495 11.500037,31.436501 z"
             style="fill:#404040;"/>
          </a>
         </g>
        </svg>
</svg>
