<?xml version="1.0" encoding="UTF-8" standalone="no"?>
<!DOCTYPE svg PUBLIC "-//W3C//DTD SVG 1.1//EN"
 "http://www.w3.org/Graphics/SVG/1.1/DTD/svg11.dtd">
<!-- Generated by graphviz version 2.43.0 (0)
 -->
<!-- Title: PDEBase.H Pages: 1 -->
<!--zoomable 252 -->
<svg id="main" version="1.1" xmlns="http://www.w3.org/2000/svg" xmlns:xlink="http://www.w3.org/1999/xlink" xml:space="preserve" onload="init(evt)">
<style type="text/css"><![CDATA[
.edge:hover path { stroke: red; }
.edge:hover polygon { stroke: red; fill: red; }
]]></style>
<script type="text/javascript"><![CDATA[
var edges = document.getElementsByTagName('g');
if (edges && edges.length) {
  for (var i=0;i<edges.length;i++) {
    if (edges[i].id.substr(0,4)=='edge') {
      edges[i].setAttribute('class','edge');
    }
  }
}
]]></script>
        <defs>
                <circle id="rim" cx="0" cy="0" r="7"/>
                <circle id="rim2" cx="0" cy="0" r="3.5"/>
                <g id="zoomPlus">
                        <use xlink:href="#rim" fill="#404040">
                                <set attributeName="fill" to="#808080" begin="zoomplus.mouseover" end="zoomplus.mouseout"/>
                        </use>
                        <path d="M-4,0h8M0,-4v8" fill="none" stroke="white" stroke-width="1.5" pointer-events="none"/>
                </g>
                <g id="zoomMin">
                        <use xlink:href="#rim" fill="#404040">
                                <set attributeName="fill" to="#808080" begin="zoomminus.mouseover" end="zoomminus.mouseout"/>
                        </use>
                        <path d="M-4,0h8" fill="none" stroke="white" stroke-width="1.5" pointer-events="none"/>
                </g>
                <g id="dirArrow">
                        <path fill="none" stroke="white" stroke-width="1.5" d="M0,-3.0v7 M-2.5,-0.5L0,-3.0L2.5,-0.5"/>
                </g>
               <g id="resetDef">
                       <use xlink:href="#rim2" fill="#404040">
                               <set attributeName="fill" to="#808080" begin="reset.mouseover" end="reset.mouseout"/>
                       </use>
               </g>
        </defs>

<script type="text/javascript">
var viewWidth = 4878;
var viewHeight = 252;
var sectionId = 'dynsection-1';
</script>
<script xlink:href="svgpan.js"/>
<svg id="graph" class="graph">
<g id="viewport">
<title>PDEBase.H</title>
<polygon fill="white" stroke="transparent" points="-4,4 -4,-248 4874.42,-248 4874.42,4 -4,4"/>
<!-- Node1 -->
<g id="node1" class="node">
<title>Node1</title>
<g id="a_node1"><a xlink:title=" ">
<polygon fill="#bfbfbf" stroke="black" points="4462.92,-224.5 4462.92,-243.5 4533.92,-243.5 4533.92,-224.5 4462.92,-224.5"/>
<text text-anchor="middle" x="4498.42" y="-231.5" font-family="Helvetica,sans-Serif" font-size="10.00">PDEBase.H</text>
</a>
</g>
</g>
<!-- Node2 -->
<g id="node2" class="node">
<title>Node2</title>
<g id="a_node2"><a xlink:href="_c_f_d_sim_8_h.html" target="_top" xlink:title=" ">
<polygon fill="white" stroke="red" points="2136.42,-168.5 2136.42,-187.5 2202.42,-187.5 2202.42,-168.5 2136.42,-168.5"/>
<text text-anchor="middle" x="2169.42" y="-175.5" font-family="Helvetica,sans-Serif" font-size="10.00">CFDSim.H</text>
</a>
</g>
</g>
<!-- Node1&#45;&gt;Node2 -->
<g id="edge1" class="edge">
<title>Node1&#45;&gt;Node2</title>
<path fill="none" stroke="midnightblue" d="M4452.66,-231.94C4151.78,-224.96 2461.18,-185.76 2202.6,-179.77"/>
<polygon fill="midnightblue" stroke="midnightblue" points="4452.69,-235.44 4462.77,-232.17 4452.85,-228.44 4452.69,-235.44"/>
</g>
<!-- Node23 -->
<g id="node22" class="node">
<title>Node23</title>
<g id="a_node22"><a xlink:href="_p_d_e_8_h.html" target="_top" xlink:title=" ">
<polygon fill="white" stroke="red" points="23.92,-56.5 23.92,-75.5 70.92,-75.5 70.92,-56.5 23.92,-56.5"/>
<text text-anchor="middle" x="47.42" y="-63.5" font-family="Helvetica,sans-Serif" font-size="10.00">PDE.H</text>
</a>
</g>
</g>
<!-- Node1&#45;&gt;Node23 -->
<g id="edge54" class="edge">
<title>Node1&#45;&gt;Node23</title>
<path fill="none" stroke="midnightblue" d="M4452.5,-232.86C3984.05,-231.33 87.28,-216.05 5.42,-132 -11.74,-114.39 17.1,-88.74 34.94,-75.55"/>
<polygon fill="midnightblue" stroke="midnightblue" points="4452.61,-236.36 4462.62,-232.89 4452.63,-229.36 4452.61,-236.36"/>
</g>
<!-- Node62 -->
<g id="node23" class="node">
<title>Node62</title>
<g id="a_node23"><a xlink:href="_p_d_e_base_8cpp.html" target="_top" xlink:title=" ">
<polygon fill="white" stroke="black" points="4245.42,-112.5 4245.42,-131.5 4325.42,-131.5 4325.42,-112.5 4245.42,-112.5"/>
<text text-anchor="middle" x="4285.42" y="-119.5" font-family="Helvetica,sans-Serif" font-size="10.00">PDEBase.cpp</text>
</a>
</g>
</g>
<!-- Node1&#45;&gt;Node62 -->
<g id="edge55" class="edge">
<title>Node1&#45;&gt;Node62</title>
<path fill="none" stroke="midnightblue" d="M4472.73,-219.73C4428.48,-196.88 4339.08,-150.71 4302.05,-131.59"/>
<polygon fill="midnightblue" stroke="midnightblue" points="4471.21,-222.89 4481.7,-224.37 4474.43,-216.67 4471.21,-222.89"/>
</g>
<!-- Node94 -->
<g id="node35" class="node">
<title>Node94</title>
<g id="a_node35"><a xlink:href="incflo_8cpp.html" target="_top" xlink:title=" ">
<polygon fill="white" stroke="black" points="4221.92,-56.5 4221.92,-75.5 4284.92,-75.5 4284.92,-56.5 4221.92,-56.5"/>
<text text-anchor="middle" x="4253.42" y="-63.5" font-family="Helvetica,sans-Serif" font-size="10.00">incflo.cpp</text>
</a>
</g>
</g>
<!-- Node1&#45;&gt;Node94 -->
<g id="edge56" class="edge">
<title>Node1&#45;&gt;Node94</title>
<path fill="none" stroke="midnightblue" d="M4497.91,-214.15C4496.12,-187.37 4488.75,-138.62 4459.42,-112 4434.14,-89.06 4336.36,-75.66 4285.13,-70.08"/>
<polygon fill="midnightblue" stroke="midnightblue" points="4494.43,-214.63 4498.39,-224.45 4501.42,-214.3 4494.43,-214.63"/>
</g>
<!-- Node95 -->
<g id="node36" class="node">
<title>Node95</title>
<g id="a_node36"><a xlink:href="incflo__advance_8cpp.html" target="_top" xlink:title=" ">
<polygon fill="white" stroke="black" points="4409.42,-56.5 4409.42,-75.5 4519.42,-75.5 4519.42,-56.5 4409.42,-56.5"/>
<text text-anchor="middle" x="4464.42" y="-63.5" font-family="Helvetica,sans-Serif" font-size="10.00">incflo_advance.cpp</text>
</a>
</g>
</g>
<!-- Node1&#45;&gt;Node95 -->
<g id="edge57" class="edge">
<title>Node1&#45;&gt;Node95</title>
<path fill="none" stroke="midnightblue" d="M4500.63,-214.24C4502.82,-190 4504.44,-146.78 4493.42,-112 4488.98,-98 4478.98,-84.14 4471.96,-75.58"/>
<polygon fill="midnightblue" stroke="midnightblue" points="4497.14,-213.92 4499.59,-224.22 4504.11,-214.64 4497.14,-213.92"/>
</g>
<!-- Node129 -->
<g id="node39" class="node">
<title>Node129</title>
<g id="a_node39"><a xlink:href="_tioga_interface_8cpp.html" target="_top" xlink:title=" ">
<polygon fill="white" stroke="black" points="4343.92,-112.5 4343.92,-131.5 4450.92,-131.5 4450.92,-112.5 4343.92,-112.5"/>
<text text-anchor="middle" x="4397.42" y="-119.5" font-family="Helvetica,sans-Serif" font-size="10.00">TiogaInterface.cpp</text>
</a>
</g>
</g>
<!-- Node1&#45;&gt;Node129 -->
<g id="edge58" class="edge">
<title>Node1&#45;&gt;Node129</title>
<path fill="none" stroke="midnightblue" d="M4483.63,-216.9C4461.92,-193.25 4422.16,-149.95 4405.31,-131.59"/>
<polygon fill="midnightblue" stroke="midnightblue" points="4481.15,-219.37 4490.49,-224.37 4486.31,-214.64 4481.15,-219.37"/>
</g>
<!-- Node55 -->
<g id="node47" class="node">
<title>Node55</title>
<g id="a_node47"><a xlink:href="_one_eq_ksgs_8cpp.html" target="_top" xlink:title=" ">
<polygon fill="white" stroke="black" points="4545.42,-168.5 4545.42,-187.5 4637.42,-187.5 4637.42,-168.5 4545.42,-168.5"/>
<text text-anchor="middle" x="4591.42" y="-175.5" font-family="Helvetica,sans-Serif" font-size="10.00">OneEqKsgs.cpp</text>
</a>
</g>
</g>
<!-- Node1&#45;&gt;Node55 -->
<g id="edge59" class="edge">
<title>Node1&#45;&gt;Node55</title>
<path fill="none" stroke="midnightblue" d="M4522.22,-219.18C4539.34,-209.24 4561.88,-196.15 4576.51,-187.65"/>
<polygon fill="midnightblue" stroke="midnightblue" points="4520.25,-216.28 4513.36,-224.32 4523.77,-222.33 4520.25,-216.28"/>
</g>
<!-- Node47 -->
<g id="node48" class="node">
<title>Node47</title>
<g id="a_node48"><a xlink:href="_k_omega_s_s_t_8cpp.html" target="_top" xlink:title=" ">
<polygon fill="white" stroke="black" points="4622.92,-112.5 4622.92,-131.5 4717.92,-131.5 4717.92,-112.5 4622.92,-112.5"/>
<text text-anchor="middle" x="4670.42" y="-119.5" font-family="Helvetica,sans-Serif" font-size="10.00">KOmegaSST.cpp</text>
</a>
</g>
</g>
<!-- Node1&#45;&gt;Node47 -->
<g id="edge60" class="edge">
<title>Node1&#45;&gt;Node47</title>
<path fill="none" stroke="midnightblue" d="M4544.05,-229.71C4576.37,-225.1 4618.74,-214.1 4646.42,-188 4662.52,-172.81 4667.87,-145.88 4669.61,-131.93"/>
<polygon fill="midnightblue" stroke="midnightblue" points="4543.42,-226.26 4533.94,-230.99 4544.3,-233.21 4543.42,-226.26"/>
</g>
<!-- Node48 -->
<g id="node49" class="node">
<title>Node48</title>
<g id="a_node49"><a xlink:href="_k_omega_s_s_t_i_8_h.html" target="_top" xlink:title=" ">
<polygon fill="white" stroke="black" points="4693.92,-168.5 4693.92,-187.5 4782.92,-187.5 4782.92,-168.5 4693.92,-168.5"/>
<text text-anchor="middle" x="4738.42" y="-175.5" font-family="Helvetica,sans-Serif" font-size="10.00">KOmegaSSTI.H</text>
</a>
</g>
</g>
<!-- Node1&#45;&gt;Node48 -->
<g id="edge61" class="edge">
<title>Node1&#45;&gt;Node48</title>
<path fill="none" stroke="midnightblue" d="M4543.96,-222.75C4589.31,-212.55 4658.12,-197.07 4700.57,-187.52"/>
<polygon fill="midnightblue" stroke="midnightblue" points="4543.08,-219.36 4534.09,-224.97 4544.61,-226.19 4543.08,-219.36"/>
</g>
<!-- Node49 -->
<g id="node50" class="node">
<title>Node49</title>
<g id="a_node50"><a xlink:href="_k_omega_s_s_t_i_d_d_e_s_8cpp.html" target="_top" xlink:title=" ">
<polygon fill="white" stroke="black" points="4744.42,-112.5 4744.42,-131.5 4870.42,-131.5 4870.42,-112.5 4744.42,-112.5"/>
<text text-anchor="middle" x="4807.42" y="-119.5" font-family="Helvetica,sans-Serif" font-size="10.00">KOmegaSSTIDDES.cpp</text>
</a>
</g>
</g>
<!-- Node1&#45;&gt;Node49 -->
<g id="edge64" class="edge">
<title>Node1&#45;&gt;Node49</title>
<path fill="none" stroke="midnightblue" d="M4544.4,-231.99C4617.64,-229.41 4756.13,-220.28 4791.42,-188 4807.37,-173.41 4808.59,-145.71 4808.06,-131.65"/>
<polygon fill="midnightblue" stroke="midnightblue" points="4543.97,-228.5 4534.09,-232.32 4544.2,-235.5 4543.97,-228.5"/>
</g>
<!-- Node3 -->
<g id="node3" class="node">
<title>Node3</title>
<g id="a_node3"><a xlink:href="_wall_function_8_h.html" target="_top" xlink:title=" ">
<polygon fill="white" stroke="red" points="1659.92,-112.5 1659.92,-131.5 1748.92,-131.5 1748.92,-112.5 1659.92,-112.5"/>
<text text-anchor="middle" x="1704.42" y="-119.5" font-family="Helvetica,sans-Serif" font-size="10.00">WallFunction.H</text>
</a>
</g>
</g>
<!-- Node2&#45;&gt;Node3 -->
<g id="edge2" class="edge">
<title>Node2&#45;&gt;Node3</title>
<path fill="none" stroke="midnightblue" d="M2126.3,-173.08C2051.35,-166.09 1892.21,-150.46 1758.42,-132 1755.41,-131.58 1752.3,-131.13 1749.18,-130.66"/>
<polygon fill="midnightblue" stroke="midnightblue" points="2126.03,-176.57 2136.31,-174.01 2126.68,-169.6 2126.03,-176.57"/>
</g>
<!-- Node5 -->
<g id="node4" class="node">
<title>Node5</title>
<g id="a_node4"><a xlink:href="_channel_flow_8_h.html" target="_top" xlink:title=" ">
<polygon fill="white" stroke="black" points="2554.92,-56.5 2554.92,-75.5 2643.92,-75.5 2643.92,-56.5 2554.92,-56.5"/>
<text text-anchor="middle" x="2599.42" y="-63.5" font-family="Helvetica,sans-Serif" font-size="10.00">ChannelFlow.H</text>
</a>
</g>
</g>
<!-- Node2&#45;&gt;Node5 -->
<g id="edge47" class="edge">
<title>Node2&#45;&gt;Node5</title>
<path fill="none" stroke="midnightblue" d="M2212.59,-174.92C2312.15,-169.75 2551.53,-155.05 2579.42,-132 2596.34,-118.01 2599.23,-90.03 2599.55,-75.78"/>
<polygon fill="midnightblue" stroke="midnightblue" points="2212.36,-171.43 2202.56,-175.43 2212.72,-178.42 2212.36,-171.43"/>
</g>
<!-- Node6 -->
<g id="node5" class="node">
<title>Node6</title>
<g id="a_node5"><a xlink:href="_channel_flow_8cpp.html" target="_top" xlink:title=" ">
<polygon fill="white" stroke="black" points="2960.92,-0.5 2960.92,-19.5 3059.92,-19.5 3059.92,-0.5 2960.92,-0.5"/>
<text text-anchor="middle" x="3010.42" y="-7.5" font-family="Helvetica,sans-Serif" font-size="10.00">ChannelFlow.cpp</text>
</a>
</g>
</g>
<!-- Node2&#45;&gt;Node6 -->
<g id="edge46" class="edge">
<title>Node2&#45;&gt;Node6</title>
<path fill="none" stroke="midnightblue" d="M2212.94,-177.08C2427.1,-177.29 3360.31,-175.67 3402.42,-132 3504.5,-26.12 3186.83,-12.32 3060.17,-10.95"/>
<polygon fill="midnightblue" stroke="midnightblue" points="2212.72,-173.58 2202.72,-177.07 2212.72,-180.58 2212.72,-173.58"/>
</g>
<!-- Node7 -->
<g id="node6" class="node">
<title>Node7</title>
<g id="a_node6"><a xlink:href="_c_f_d_sim_8cpp.html" target="_top" xlink:title=" ">
<polygon fill="white" stroke="black" points="1051.42,-112.5 1051.42,-131.5 1127.42,-131.5 1127.42,-112.5 1051.42,-112.5"/>
<text text-anchor="middle" x="1089.42" y="-119.5" font-family="Helvetica,sans-Serif" font-size="10.00">CFDSim.cpp</text>
</a>
</g>
</g>
<!-- Node2&#45;&gt;Node7 -->
<g id="edge5" class="edge">
<title>Node2&#45;&gt;Node7</title>
<path fill="none" stroke="midnightblue" d="M2126.22,-177.36C1984.08,-178.08 1518.22,-176.63 1136.42,-132 1133.53,-131.66 1130.55,-131.25 1127.57,-130.79"/>
<polygon fill="midnightblue" stroke="midnightblue" points="2126.3,-180.86 2136.28,-177.31 2126.26,-173.86 2126.3,-180.86"/>
</g>
<!-- Node8 -->
<g id="node7" class="node">
<title>Node8</title>
<g id="a_node7"><a xlink:href="_mesh_map_8cpp.html" target="_top" xlink:title=" ">
<polygon fill="white" stroke="black" points="1145.42,-112.5 1145.42,-131.5 1229.42,-131.5 1229.42,-112.5 1145.42,-112.5"/>
<text text-anchor="middle" x="1187.42" y="-119.5" font-family="Helvetica,sans-Serif" font-size="10.00">MeshMap.cpp</text>
</a>
</g>
</g>
<!-- Node2&#45;&gt;Node8 -->
<g id="edge6" class="edge">
<title>Node2&#45;&gt;Node8</title>
<path fill="none" stroke="midnightblue" d="M2126.14,-176.85C1993.17,-175.97 1578.97,-170.12 1238.42,-132 1235.56,-131.68 1232.62,-131.3 1229.66,-130.88"/>
<polygon fill="midnightblue" stroke="midnightblue" points="2126.29,-180.35 2136.31,-176.91 2126.34,-173.35 2126.29,-180.35"/>
</g>
<!-- Node9 -->
<g id="node8" class="node">
<title>Node9</title>
<g id="a_node8"><a xlink:href="_a_b_l_forcing_8cpp.html" target="_top" xlink:title=" ">
<polygon fill="white" stroke="black" points="1247.92,-112.5 1247.92,-131.5 1338.92,-131.5 1338.92,-112.5 1247.92,-112.5"/>
<text text-anchor="middle" x="1293.42" y="-119.5" font-family="Helvetica,sans-Serif" font-size="10.00">ABLForcing.cpp</text>
</a>
</g>
</g>
<!-- Node2&#45;&gt;Node9 -->
<g id="edge7" class="edge">
<title>Node2&#45;&gt;Node9</title>
<path fill="none" stroke="midnightblue" d="M2125.97,-176.26C2003.39,-173.82 1644.54,-164.25 1348.42,-132 1345.34,-131.66 1342.17,-131.27 1338.99,-130.84"/>
<polygon fill="midnightblue" stroke="midnightblue" points="2126.01,-179.76 2136.08,-176.46 2126.15,-172.76 2126.01,-179.76"/>
</g>
<!-- Node10 -->
<g id="node9" class="node">
<title>Node10</title>
<g id="a_node9"><a xlink:href="_a_b_l_mean_boussinesq_8cpp.html" target="_top" xlink:title=" ">
<polygon fill="white" stroke="black" points="1357.42,-112.5 1357.42,-131.5 1495.42,-131.5 1495.42,-112.5 1357.42,-112.5"/>
<text text-anchor="middle" x="1426.42" y="-119.5" font-family="Helvetica,sans-Serif" font-size="10.00">ABLMeanBoussinesq.cpp</text>
</a>
</g>
</g>
<!-- Node2&#45;&gt;Node10 -->
<g id="edge8" class="edge">
<title>Node2&#45;&gt;Node10</title>
<path fill="none" stroke="midnightblue" d="M2126.16,-174.78C2020.07,-169.19 1738.61,-153.42 1504.42,-132 1501.57,-131.74 1498.66,-131.46 1495.72,-131.17"/>
<polygon fill="midnightblue" stroke="midnightblue" points="2125.99,-178.28 2136.16,-175.31 2126.36,-171.29 2125.99,-178.28"/>
</g>
<!-- Node11 -->
<g id="node10" class="node">
<title>Node11</title>
<g id="a_node10"><a xlink:href="_a_b_l_meso_forcing_mom_8cpp.html" target="_top" xlink:title=" ">
<polygon fill="white" stroke="black" points="1767.42,-112.5 1767.42,-131.5 1909.42,-131.5 1909.42,-112.5 1767.42,-112.5"/>
<text text-anchor="middle" x="1838.42" y="-119.5" font-family="Helvetica,sans-Serif" font-size="10.00">ABLMesoForcingMom.cpp</text>
</a>
</g>
</g>
<!-- Node2&#45;&gt;Node11 -->
<g id="edge9" class="edge">
<title>Node2&#45;&gt;Node11</title>
<path fill="none" stroke="midnightblue" d="M2126.17,-169.94C2065.58,-160.06 1955.6,-142.12 1890.57,-131.51"/>
<polygon fill="midnightblue" stroke="midnightblue" points="2125.73,-173.42 2136.17,-171.58 2126.86,-166.51 2125.73,-173.42"/>
</g>
<!-- Node12 -->
<g id="node11" class="node">
<title>Node12</title>
<g id="a_node11"><a xlink:href="_actuator_forcing_8cpp.html" target="_top" xlink:title=" ">
<polygon fill="white" stroke="black" points="1927.92,-112.5 1927.92,-131.5 2040.92,-131.5 2040.92,-112.5 1927.92,-112.5"/>
<text text-anchor="middle" x="1984.42" y="-119.5" font-family="Helvetica,sans-Serif" font-size="10.00">ActuatorForcing.cpp</text>
</a>
</g>
</g>
<!-- Node2&#45;&gt;Node12 -->
<g id="edge10" class="edge">
<title>Node2&#45;&gt;Node12</title>
<path fill="none" stroke="midnightblue" d="M2130.25,-165.57C2095.35,-155.38 2045.07,-140.7 2013.6,-131.52"/>
<polygon fill="midnightblue" stroke="midnightblue" points="2129.52,-169 2140.1,-168.44 2131.49,-162.28 2129.52,-169"/>
</g>
<!-- Node13 -->
<g id="node12" class="node">
<title>Node13</title>
<g id="a_node12"><a xlink:href="icns_2source__terms_2_body_force_8cpp.html" target="_top" xlink:title=" ">
<polygon fill="white" stroke="black" points="2059.42,-112.5 2059.42,-131.5 2147.42,-131.5 2147.42,-112.5 2059.42,-112.5"/>
<text text-anchor="middle" x="2103.42" y="-119.5" font-family="Helvetica,sans-Serif" font-size="10.00">BodyForce.cpp</text>
</a>
</g>
</g>
<!-- Node2&#45;&gt;Node13 -->
<g id="edge11" class="edge">
<title>Node2&#45;&gt;Node13</title>
<path fill="none" stroke="midnightblue" d="M2150.86,-161.82C2139.04,-152.15 2124.13,-139.95 2114.22,-131.83"/>
<polygon fill="midnightblue" stroke="midnightblue" points="2148.86,-164.7 2158.81,-168.32 2153.29,-159.28 2148.86,-164.7"/>
</g>
<!-- Node14 -->
<g id="node13" class="node">
<title>Node14</title>
<g id="a_node13"><a xlink:href="_boussinesq_buoyancy_8cpp.html" target="_top" xlink:title=" ">
<polygon fill="white" stroke="black" points="2165.92,-112.5 2165.92,-131.5 2304.92,-131.5 2304.92,-112.5 2165.92,-112.5"/>
<text text-anchor="middle" x="2235.42" y="-119.5" font-family="Helvetica,sans-Serif" font-size="10.00">BoussinesqBuoyancy.cpp</text>
</a>
</g>
</g>
<!-- Node2&#45;&gt;Node14 -->
<g id="edge12" class="edge">
<title>Node2&#45;&gt;Node14</title>
<path fill="none" stroke="midnightblue" d="M2187.97,-161.82C2199.8,-152.15 2214.7,-139.95 2224.62,-131.83"/>
<polygon fill="midnightblue" stroke="midnightblue" points="2185.55,-159.28 2180.02,-168.32 2189.98,-164.7 2185.55,-159.28"/>
</g>
<!-- Node15 -->
<g id="node14" class="node">
<title>Node15</title>
<g id="a_node14"><a xlink:href="_burggraf_flow_forcing_8cpp.html" target="_top" xlink:title=" ">
<polygon fill="white" stroke="black" points="736.92,-56.5 736.92,-75.5 873.92,-75.5 873.92,-56.5 736.92,-56.5"/>
<text text-anchor="middle" x="805.42" y="-63.5" font-family="Helvetica,sans-Serif" font-size="10.00">BurggrafFlowForcing.cpp</text>
</a>
</g>
</g>
<!-- Node2&#45;&gt;Node15 -->
<g id="edge13" class="edge">
<title>Node2&#45;&gt;Node15</title>
<path fill="none" stroke="midnightblue" d="M2126.29,-176.38C1907.7,-173.15 930.26,-157.31 871.42,-132 843.64,-120.05 821.07,-90.6 811.04,-75.79"/>
<polygon fill="midnightblue" stroke="midnightblue" points="2126.36,-179.88 2136.41,-176.53 2126.46,-172.89 2126.36,-179.88"/>
</g>
<!-- Node16 -->
<g id="node15" class="node">
<title>Node16</title>
<g id="a_node15"><a xlink:href="_coriolis_forcing_8cpp.html" target="_top" xlink:title=" ">
<polygon fill="white" stroke="black" points="2322.92,-112.5 2322.92,-131.5 2431.92,-131.5 2431.92,-112.5 2322.92,-112.5"/>
<text text-anchor="middle" x="2377.42" y="-119.5" font-family="Helvetica,sans-Serif" font-size="10.00">CoriolisForcing.cpp</text>
</a>
</g>
</g>
<!-- Node2&#45;&gt;Node16 -->
<g id="edge14" class="edge">
<title>Node2&#45;&gt;Node16</title>
<path fill="none" stroke="midnightblue" d="M2212.2,-165.89C2251.48,-155.7 2308.85,-140.8 2344.61,-131.52"/>
<polygon fill="midnightblue" stroke="midnightblue" points="2211.18,-162.54 2202.38,-168.44 2212.94,-169.32 2211.18,-162.54"/>
</g>
<!-- Node17 -->
<g id="node16" class="node">
<title>Node17</title>
<g id="a_node16"><a xlink:href="_density_buoyancy_8cpp.html" target="_top" xlink:title=" ">
<polygon fill="white" stroke="black" points="2449.92,-112.5 2449.92,-131.5 2570.92,-131.5 2570.92,-112.5 2449.92,-112.5"/>
<text text-anchor="middle" x="2510.42" y="-119.5" font-family="Helvetica,sans-Serif" font-size="10.00">DensityBuoyancy.cpp</text>
</a>
</g>
</g>
<!-- Node2&#45;&gt;Node17 -->
<g id="edge15" class="edge">
<title>Node2&#45;&gt;Node17</title>
<path fill="none" stroke="midnightblue" d="M2212.65,-170.15C2274.72,-160.32 2389.03,-142.22 2456.53,-131.53"/>
<polygon fill="midnightblue" stroke="midnightblue" points="2211.75,-166.75 2202.42,-171.77 2212.85,-173.67 2211.75,-166.75"/>
</g>
<!-- Node18 -->
<g id="node17" class="node">
<title>Node18</title>
<g id="a_node17"><a xlink:href="_geostrophic_forcing_8cpp.html" target="_top" xlink:title=" ">
<polygon fill="white" stroke="black" points="2627.92,-112.5 2627.92,-131.5 2758.92,-131.5 2758.92,-112.5 2627.92,-112.5"/>
<text text-anchor="middle" x="2693.42" y="-119.5" font-family="Helvetica,sans-Serif" font-size="10.00">GeostrophicForcing.cpp</text>
</a>
</g>
</g>
<!-- Node2&#45;&gt;Node18 -->
<g id="edge16" class="edge">
<title>Node2&#45;&gt;Node18</title>
<path fill="none" stroke="midnightblue" d="M2212.68,-172.77C2292.11,-164.98 2466.51,-147.71 2613.42,-132 2618,-131.51 2622.74,-131 2627.5,-130.47"/>
<polygon fill="midnightblue" stroke="midnightblue" points="2212.18,-169.31 2202.57,-173.77 2212.87,-176.27 2212.18,-169.31"/>
</g>
<!-- Node19 -->
<g id="node18" class="node">
<title>Node19</title>
<g id="a_node18"><a xlink:href="_gravity_forcing_8cpp.html" target="_top" xlink:title=" ">
<polygon fill="white" stroke="black" points="2777.42,-112.5 2777.42,-131.5 2885.42,-131.5 2885.42,-112.5 2777.42,-112.5"/>
<text text-anchor="middle" x="2831.42" y="-119.5" font-family="Helvetica,sans-Serif" font-size="10.00">GravityForcing.cpp</text>
</a>
</g>
</g>
<!-- Node2&#45;&gt;Node19 -->
<g id="edge17" class="edge">
<title>Node2&#45;&gt;Node19</title>
<path fill="none" stroke="midnightblue" d="M2212.72,-174.7C2311.34,-169.26 2560.18,-154.35 2767.42,-132 2770.65,-131.65 2773.98,-131.27 2777.33,-130.86"/>
<polygon fill="midnightblue" stroke="midnightblue" points="2212.34,-171.22 2202.55,-175.26 2212.73,-178.21 2212.34,-171.22"/>
</g>
<!-- Node20 -->
<g id="node19" class="node">
<title>Node20</title>
<g id="a_node19"><a xlink:href="_hurricane_forcing_8cpp.html" target="_top" xlink:title=" ">
<polygon fill="white" stroke="black" points="2903.92,-112.5 2903.92,-131.5 3022.92,-131.5 3022.92,-112.5 2903.92,-112.5"/>
<text text-anchor="middle" x="2963.42" y="-119.5" font-family="Helvetica,sans-Serif" font-size="10.00">HurricaneForcing.cpp</text>
</a>
</g>
</g>
<!-- Node2&#45;&gt;Node20 -->
<g id="edge18" class="edge">
<title>Node2&#45;&gt;Node20</title>
<path fill="none" stroke="midnightblue" d="M2213.02,-175.32C2325.84,-170.77 2636.61,-156.79 2894.42,-132 2897.42,-131.71 2900.5,-131.39 2903.61,-131.05"/>
<polygon fill="midnightblue" stroke="midnightblue" points="2212.58,-171.84 2202.72,-175.74 2212.85,-178.83 2212.58,-171.84"/>
</g>
<!-- Node21 -->
<g id="node20" class="node">
<title>Node21</title>
<g id="a_node20"><a xlink:href="_rayleigh_damping_8cpp.html" target="_top" xlink:title=" ">
<polygon fill="white" stroke="black" points="3041.42,-112.5 3041.42,-131.5 3165.42,-131.5 3165.42,-112.5 3041.42,-112.5"/>
<text text-anchor="middle" x="3103.42" y="-119.5" font-family="Helvetica,sans-Serif" font-size="10.00">RayleighDamping.cpp</text>
</a>
</g>
</g>
<!-- Node2&#45;&gt;Node21 -->
<g id="edge19" class="edge">
<title>Node2&#45;&gt;Node21</title>
<path fill="none" stroke="midnightblue" d="M2212.82,-175.84C2339.25,-172.23 2718.17,-159.72 3031.42,-132 3034.68,-131.71 3038.02,-131.39 3041.4,-131.04"/>
<polygon fill="midnightblue" stroke="midnightblue" points="2212.66,-172.35 2202.76,-176.13 2212.85,-179.34 2212.66,-172.35"/>
</g>
<!-- Node22 -->
<g id="node21" class="node">
<title>Node22</title>
<g id="a_node21"><a xlink:href="_synth_turb_forcing_8cpp.html" target="_top" xlink:title=" ">
<polygon fill="white" stroke="black" points="3183.42,-112.5 3183.42,-131.5 3303.42,-131.5 3303.42,-112.5 3183.42,-112.5"/>
<text text-anchor="middle" x="3243.42" y="-119.5" font-family="Helvetica,sans-Serif" font-size="10.00">SynthTurbForcing.cpp</text>
</a>
</g>
</g>
<!-- Node2&#45;&gt;Node22 -->
<g id="edge20" class="edge">
<title>Node2&#45;&gt;Node22</title>
<path fill="none" stroke="midnightblue" d="M2212.72,-176.37C2352.33,-174.08 2803.06,-164.47 3174.42,-132 3177.31,-131.75 3180.26,-131.46 3183.24,-131.16"/>
<polygon fill="midnightblue" stroke="midnightblue" points="2212.39,-172.88 2202.45,-176.54 2212.51,-179.88 2212.39,-172.88"/>
</g>
<!-- Node2&#45;&gt;Node23 -->
<g id="edge21" class="edge">
<title>Node2&#45;&gt;Node23</title>
<path fill="none" stroke="midnightblue" d="M2126.07,-176.49C1895.82,-173.66 821.08,-159.08 675.42,-132 649.02,-127.09 644.69,-117.55 618.42,-112 409.72,-67.94 149.88,-66.12 71.12,-66.69"/>
<polygon fill="midnightblue" stroke="midnightblue" points="2126.35,-179.99 2136.39,-176.61 2126.43,-172.99 2126.35,-179.99"/>
</g>
<!-- Node2&#45;&gt;Node62 -->
<g id="edge22" class="edge">
<title>Node2&#45;&gt;Node62</title>
<path fill="none" stroke="midnightblue" d="M2212.72,-176.98C2472.15,-176.72 3823.03,-173.35 4235.42,-132 4238.67,-131.67 4242.02,-131.25 4245.38,-130.78"/>
<polygon fill="midnightblue" stroke="midnightblue" points="2212.57,-173.48 2202.57,-176.99 2212.57,-180.48 2212.57,-173.48"/>
</g>
<!-- Node63 -->
<g id="node24" class="node">
<title>Node63</title>
<g id="a_node24"><a xlink:href="_p_d_e_ops_8_h.html" target="_top" xlink:title=" ">
<polygon fill="white" stroke="red" points="14.92,-112.5 14.92,-131.5 79.92,-131.5 79.92,-112.5 14.92,-112.5"/>
<text text-anchor="middle" x="47.42" y="-119.5" font-family="Helvetica,sans-Serif" font-size="10.00">PDEOps.H</text>
</a>
</g>
</g>
<!-- Node2&#45;&gt;Node63 -->
<g id="edge23" class="edge">
<title>Node2&#45;&gt;Node63</title>
<path fill="none" stroke="midnightblue" d="M2126.19,-177.21C1865.78,-178.3 503.16,-181.53 88.42,-132 85.67,-131.67 82.83,-131.24 79.99,-130.75"/>
<polygon fill="midnightblue" stroke="midnightblue" points="2126.4,-180.71 2136.38,-177.17 2126.37,-173.71 2126.4,-180.71"/>
</g>
<!-- Node73 -->
<g id="node25" class="node">
<title>Node73</title>
<g id="a_node25"><a xlink:href="_s_d_r_src_8cpp.html" target="_top" xlink:title=" ">
<polygon fill="white" stroke="black" points="3321.42,-112.5 3321.42,-131.5 3393.42,-131.5 3393.42,-112.5 3321.42,-112.5"/>
<text text-anchor="middle" x="3357.42" y="-119.5" font-family="Helvetica,sans-Serif" font-size="10.00">SDRSrc.cpp</text>
</a>
</g>
</g>
<!-- Node2&#45;&gt;Node73 -->
<g id="edge25" class="edge">
<title>Node2&#45;&gt;Node73</title>
<path fill="none" stroke="midnightblue" d="M2212.78,-176.21C2394.24,-172.77 3093.45,-158.04 3312.42,-132 3315.27,-131.66 3318.2,-131.24 3321.15,-130.77"/>
<polygon fill="midnightblue" stroke="midnightblue" points="2212.49,-172.72 2202.56,-176.4 2212.62,-179.71 2212.49,-172.72"/>
</g>
<!-- Node74 -->
<g id="node26" class="node">
<title>Node74</title>
<g id="a_node26"><a xlink:href="_a_b_l_meso_forcing_temp_8cpp.html" target="_top" xlink:title=" ">
<polygon fill="white" stroke="black" points="3449.92,-112.5 3449.92,-131.5 3592.92,-131.5 3592.92,-112.5 3449.92,-112.5"/>
<text text-anchor="middle" x="3521.42" y="-119.5" font-family="Helvetica,sans-Serif" font-size="10.00">ABLMesoForcingTemp.cpp</text>
</a>
</g>
</g>
<!-- Node2&#45;&gt;Node74 -->
<g id="edge26" class="edge">
<title>Node2&#45;&gt;Node74</title>
<path fill="none" stroke="midnightblue" d="M2212.74,-176.54C2374.26,-174.59 2956.68,-165.52 3435.42,-132 3440.06,-131.67 3444.84,-131.3 3449.65,-130.88"/>
<polygon fill="midnightblue" stroke="midnightblue" points="2212.67,-173.04 2202.72,-176.66 2212.76,-180.04 2212.67,-173.04"/>
</g>
<!-- Node75 -->
<g id="node27" class="node">
<title>Node75</title>
<g id="a_node27"><a xlink:href="temperature_2source__terms_2_body_force_8cpp.html" target="_top" xlink:title=" ">
<polygon fill="white" stroke="black" points="3611.42,-112.5 3611.42,-131.5 3699.42,-131.5 3699.42,-112.5 3611.42,-112.5"/>
<text text-anchor="middle" x="3655.42" y="-119.5" font-family="Helvetica,sans-Serif" font-size="10.00">BodyForce.cpp</text>
</a>
</g>
</g>
<!-- Node2&#45;&gt;Node75 -->
<g id="edge27" class="edge">
<title>Node2&#45;&gt;Node75</title>
<path fill="none" stroke="midnightblue" d="M2212.77,-176.42C2421.23,-173.51 3321.92,-159.56 3601.42,-132 3604.63,-131.68 3607.95,-131.29 3611.28,-130.85"/>
<polygon fill="midnightblue" stroke="midnightblue" points="2212.48,-172.92 2202.53,-176.56 2212.58,-179.92 2212.48,-172.92"/>
</g>
<!-- Node76 -->
<g id="node28" class="node">
<title>Node76</title>
<g id="a_node28"><a xlink:href="_hurricane_temp_forcing_8cpp.html" target="_top" xlink:title=" ">
<polygon fill="white" stroke="black" points="3717.42,-112.5 3717.42,-131.5 3863.42,-131.5 3863.42,-112.5 3717.42,-112.5"/>
<text text-anchor="middle" x="3790.42" y="-119.5" font-family="Helvetica,sans-Serif" font-size="10.00">HurricaneTempForcing.cpp</text>
</a>
</g>
</g>
<!-- Node2&#45;&gt;Node76 -->
<g id="edge28" class="edge">
<title>Node2&#45;&gt;Node76</title>
<path fill="none" stroke="midnightblue" d="M2212.74,-177C2394.92,-176.75 3116.88,-173.04 3708.42,-132 3711.28,-131.8 3714.19,-131.58 3717.13,-131.34"/>
<polygon fill="midnightblue" stroke="midnightblue" points="2212.49,-173.5 2202.5,-177.01 2212.5,-180.5 2212.49,-173.5"/>
</g>
<!-- Node77 -->
<g id="node29" class="node">
<title>Node77</title>
<g id="a_node29"><a xlink:href="_ksgs_m84_src_8cpp.html" target="_top" xlink:title=" ">
<polygon fill="white" stroke="black" points="3881.42,-112.5 3881.42,-131.5 3977.42,-131.5 3977.42,-112.5 3881.42,-112.5"/>
<text text-anchor="middle" x="3929.42" y="-119.5" font-family="Helvetica,sans-Serif" font-size="10.00">KsgsM84Src.cpp</text>
</a>
</g>
</g>
<!-- Node2&#45;&gt;Node77 -->
<g id="edge29" class="edge">
<title>Node2&#45;&gt;Node77</title>
<path fill="none" stroke="midnightblue" d="M2212.54,-176.62C2443.46,-174.48 3535.94,-162.88 3872.42,-132 3875.31,-131.73 3878.28,-131.41 3881.27,-131.05"/>
<polygon fill="midnightblue" stroke="midnightblue" points="2212.47,-173.12 2202.51,-176.71 2212.54,-180.12 2212.47,-173.12"/>
</g>
<!-- Node78 -->
<g id="node30" class="node">
<title>Node78</title>
<g id="a_node30"><a xlink:href="_kw_s_s_t_src_8cpp.html" target="_top" xlink:title=" ">
<polygon fill="white" stroke="black" points="3995.92,-112.5 3995.92,-131.5 4080.92,-131.5 4080.92,-112.5 3995.92,-112.5"/>
<text text-anchor="middle" x="4038.42" y="-119.5" font-family="Helvetica,sans-Serif" font-size="10.00">KwSSTSrc.cpp</text>
</a>
</g>
</g>
<!-- Node2&#45;&gt;Node78 -->
<g id="edge30" class="edge">
<title>Node2&#45;&gt;Node78</title>
<path fill="none" stroke="midnightblue" d="M2212.71,-176.79C2453.15,-175.49 3626.32,-167.43 3986.42,-132 3989.43,-131.7 3992.52,-131.33 3995.64,-130.92"/>
<polygon fill="midnightblue" stroke="midnightblue" points="2212.6,-173.29 2202.61,-176.84 2212.63,-180.29 2212.6,-173.29"/>
</g>
<!-- Node79 -->
<g id="node31" class="node">
<title>Node79</title>
<g id="a_node31"><a xlink:href="helics_8_h.html" target="_top" xlink:title=" ">
<polygon fill="white" stroke="red" points="4099.42,-112.5 4099.42,-131.5 4155.42,-131.5 4155.42,-112.5 4099.42,-112.5"/>
<text text-anchor="middle" x="4127.42" y="-119.5" font-family="Helvetica,sans-Serif" font-size="10.00">helics.H</text>
</a>
</g>
</g>
<!-- Node2&#45;&gt;Node79 -->
<g id="edge31" class="edge">
<title>Node2&#45;&gt;Node79</title>
<path fill="none" stroke="midnightblue" d="M2212.71,-177.23C2460.61,-178.28 3701.22,-180.8 4080.42,-132 4086.47,-131.22 4092.96,-129.88 4099.23,-128.46"/>
<polygon fill="midnightblue" stroke="midnightblue" points="2212.67,-173.73 2202.65,-177.18 2212.63,-180.73 2212.67,-173.73"/>
</g>
<!-- Node81 -->
<g id="node32" class="node">
<title>Node81</title>
<g id="a_node32"><a xlink:href="_i_b_8cpp.html" target="_top" xlink:title=" ">
<polygon fill="white" stroke="black" points="97.92,-112.5 97.92,-131.5 144.92,-131.5 144.92,-112.5 97.92,-112.5"/>
<text text-anchor="middle" x="121.42" y="-119.5" font-family="Helvetica,sans-Serif" font-size="10.00">IB.cpp</text>
</a>
</g>
</g>
<!-- Node2&#45;&gt;Node81 -->
<g id="edge33" class="edge">
<title>Node2&#45;&gt;Node81</title>
<path fill="none" stroke="midnightblue" d="M2125.88,-176.66C1850.47,-174.46 355.49,-161.22 154.42,-132 151.36,-131.56 148.19,-130.92 145.07,-130.19"/>
<polygon fill="midnightblue" stroke="midnightblue" points="2126.23,-180.17 2136.26,-176.75 2126.28,-173.17 2126.23,-180.17"/>
</g>
<!-- Node82 -->
<g id="node33" class="node">
<title>Node82</title>
<g id="a_node33"><a xlink:href="_i_b_ops_8_h.html" target="_top" xlink:title=" ">
<polygon fill="white" stroke="red" points="163.42,-112.5 163.42,-131.5 219.42,-131.5 219.42,-112.5 163.42,-112.5"/>
<text text-anchor="middle" x="191.42" y="-119.5" font-family="Helvetica,sans-Serif" font-size="10.00">IBOps.H</text>
</a>
</g>
</g>
<!-- Node2&#45;&gt;Node82 -->
<g id="edge34" class="edge">
<title>Node2&#45;&gt;Node82</title>
<path fill="none" stroke="midnightblue" d="M2125.95,-177.26C1875.36,-178.59 613.06,-182.64 228.42,-132 225.53,-131.62 222.55,-131.11 219.58,-130.51"/>
<polygon fill="midnightblue" stroke="midnightblue" points="2126.13,-180.76 2136.11,-177.21 2126.1,-173.76 2126.13,-180.76"/>
</g>
<!-- Node92 -->
<g id="node34" class="node">
<title>Node92</title>
<g id="a_node34"><a xlink:href="incflo_8_h.html" target="_top" xlink:title=" ">
<polygon fill="white" stroke="red" points="4173.92,-112.5 4173.92,-131.5 4226.92,-131.5 4226.92,-112.5 4173.92,-112.5"/>
<text text-anchor="middle" x="4200.42" y="-119.5" font-family="Helvetica,sans-Serif" font-size="10.00">incflo.H</text>
</a>
</g>
</g>
<!-- Node2&#45;&gt;Node92 -->
<g id="edge35" class="edge">
<title>Node2&#45;&gt;Node92</title>
<path fill="none" stroke="midnightblue" d="M2212.96,-176.6C2486.72,-174 3965.15,-158.82 4164.42,-132 4167.48,-131.59 4170.66,-131.01 4173.81,-130.35"/>
<polygon fill="midnightblue" stroke="midnightblue" points="2212.6,-173.1 2202.63,-176.7 2212.67,-180.1 2212.6,-173.1"/>
</g>
<!-- Node120 -->
<g id="node37" class="node">
<title>Node120</title>
<g id="a_node37"><a xlink:href="_ocean_waves_8cpp.html" target="_top" xlink:title=" ">
<polygon fill="white" stroke="black" points="237.42,-112.5 237.42,-131.5 337.42,-131.5 337.42,-112.5 237.42,-112.5"/>
<text text-anchor="middle" x="287.42" y="-119.5" font-family="Helvetica,sans-Serif" font-size="10.00">OceanWaves.cpp</text>
</a>
</g>
</g>
<!-- Node2&#45;&gt;Node120 -->
<g id="edge38" class="edge">
<title>Node2&#45;&gt;Node120</title>
<path fill="none" stroke="midnightblue" d="M2125.99,-176.68C1884.82,-174.76 708.05,-163.92 346.42,-132 343.53,-131.74 340.56,-131.44 337.58,-131.09"/>
<polygon fill="midnightblue" stroke="midnightblue" points="2126.09,-180.18 2136.12,-176.76 2126.15,-173.18 2126.09,-180.18"/>
</g>
<!-- Node121 -->
<g id="node38" class="node">
<title>Node121</title>
<g id="a_node38"><a xlink:href="_ocean_waves_ops_8_h.html" target="_top" xlink:title=" ">
<polygon fill="white" stroke="red" points="355.92,-112.5 355.92,-131.5 464.92,-131.5 464.92,-112.5 355.92,-112.5"/>
<text text-anchor="middle" x="410.42" y="-119.5" font-family="Helvetica,sans-Serif" font-size="10.00">OceanWavesOps.H</text>
</a>
</g>
</g>
<!-- Node2&#45;&gt;Node121 -->
<g id="edge39" class="edge">
<title>Node2&#45;&gt;Node121</title>
<path fill="none" stroke="midnightblue" d="M2126.14,-176.52C1895.54,-173.83 809.38,-159.91 474.42,-132 471.4,-131.75 468.31,-131.45 465.19,-131.12"/>
<polygon fill="midnightblue" stroke="midnightblue" points="2126.12,-180.02 2136.16,-176.63 2126.2,-173.02 2126.12,-180.02"/>
</g>
<!-- Node2&#45;&gt;Node129 -->
<g id="edge40" class="edge">
<title>Node2&#45;&gt;Node129</title>
<path fill="none" stroke="midnightblue" d="M2212.66,-176.82C2479.06,-175.58 3900.41,-167.38 4334.42,-132 4337.5,-131.75 4340.66,-131.44 4343.85,-131.1"/>
<polygon fill="midnightblue" stroke="midnightblue" points="2212.59,-173.32 2202.6,-176.86 2212.62,-180.32 2212.59,-173.32"/>
</g>
<!-- Node130 -->
<g id="node40" class="node">
<title>Node130</title>
<g id="a_node40"><a xlink:href="_boussinesq_bubble_8cpp.html" target="_top" xlink:title=" ">
<polygon fill="white" stroke="black" points="483.42,-112.5 483.42,-131.5 609.42,-131.5 609.42,-112.5 483.42,-112.5"/>
<text text-anchor="middle" x="546.42" y="-119.5" font-family="Helvetica,sans-Serif" font-size="10.00">BoussinesqBubble.cpp</text>
</a>
</g>
</g>
<!-- Node2&#45;&gt;Node130 -->
<g id="edge41" class="edge">
<title>Node2&#45;&gt;Node130</title>
<path fill="none" stroke="midnightblue" d="M2126.17,-177.12C1943.57,-177.35 1217.79,-175.3 623.42,-132 618.99,-131.68 614.42,-131.29 609.83,-130.86"/>
<polygon fill="midnightblue" stroke="midnightblue" points="2126.19,-180.62 2136.18,-177.11 2126.18,-173.62 2126.19,-180.62"/>
</g>
<!-- Node131 -->
<g id="node41" class="node">
<title>Node131</title>
<g id="a_node41"><a xlink:href="_burggraf_flow_8cpp.html" target="_top" xlink:title=" ">
<polygon fill="white" stroke="black" points="617.92,-56.5 617.92,-75.5 718.92,-75.5 718.92,-56.5 617.92,-56.5"/>
<text text-anchor="middle" x="668.42" y="-63.5" font-family="Helvetica,sans-Serif" font-size="10.00">BurggrafFlow.cpp</text>
</a>
</g>
</g>
<!-- Node2&#45;&gt;Node131 -->
<g id="edge42" class="edge">
<title>Node2&#45;&gt;Node131</title>
<path fill="none" stroke="midnightblue" d="M2125.99,-177.01C1888.4,-176.88 754.54,-174.05 694.42,-132 675.69,-118.9 670.45,-89.99 668.98,-75.55"/>
<polygon fill="midnightblue" stroke="midnightblue" points="2126.3,-180.51 2136.3,-177.01 2126.3,-173.51 2126.3,-180.51"/>
</g>
<!-- Node132 -->
<g id="node42" class="node">
<title>Node132</title>
<g id="a_node42"><a xlink:href="_burggraf_flow_8_h.html" target="_top" xlink:title=" ">
<polygon fill="white" stroke="black" points="703.42,-112.5 703.42,-131.5 795.42,-131.5 795.42,-112.5 703.42,-112.5"/>
<text text-anchor="middle" x="749.42" y="-119.5" font-family="Helvetica,sans-Serif" font-size="10.00">BurggrafFlow.H</text>
</a>
</g>
</g>
<!-- Node2&#45;&gt;Node132 -->
<g id="edge43" class="edge">
<title>Node2&#45;&gt;Node132</title>
<path fill="none" stroke="midnightblue" d="M2125.95,-177.39C1956.75,-178.52 1325.92,-179.12 809.42,-132 804.91,-131.59 800.22,-131.06 795.54,-130.47"/>
<polygon fill="midnightblue" stroke="midnightblue" points="2126.22,-180.89 2136.19,-177.32 2126.17,-173.89 2126.22,-180.89"/>
</g>
<!-- Node133 -->
<g id="node43" class="node">
<title>Node133</title>
<g id="a_node43"><a xlink:href="_convecting_taylor_vortex_8cpp.html" target="_top" xlink:title=" ">
<polygon fill="white" stroke="black" points="892.42,-56.5 892.42,-75.5 1044.42,-75.5 1044.42,-56.5 892.42,-56.5"/>
<text text-anchor="middle" x="968.42" y="-63.5" font-family="Helvetica,sans-Serif" font-size="10.00">ConvectingTaylorVortex.cpp</text>
</a>
</g>
</g>
<!-- Node2&#45;&gt;Node133 -->
<g id="edge48" class="edge">
<title>Node2&#45;&gt;Node133</title>
<path fill="none" stroke="midnightblue" d="M2126.05,-177.16C1906.32,-177.74 924.61,-177.76 880.42,-132 857.53,-108.3 906.08,-86.87 939.76,-75.52"/>
<polygon fill="midnightblue" stroke="midnightblue" points="2126.24,-180.66 2136.23,-177.13 2126.22,-173.66 2126.24,-180.66"/>
</g>
<!-- Node134 -->
<g id="node44" class="node">
<title>Node134</title>
<g id="a_node44"><a xlink:href="_convecting_taylor_vortex_8_h.html" target="_top" xlink:title=" ">
<polygon fill="white" stroke="red" points="889.92,-112.5 889.92,-131.5 1032.92,-131.5 1032.92,-112.5 889.92,-112.5"/>
<text text-anchor="middle" x="961.42" y="-119.5" font-family="Helvetica,sans-Serif" font-size="10.00">ConvectingTaylorVortex.H</text>
</a>
</g>
</g>
<!-- Node2&#45;&gt;Node134 -->
<g id="edge49" class="edge">
<title>Node2&#45;&gt;Node134</title>
<path fill="none" stroke="midnightblue" d="M2125.99,-176.37C1975.69,-173.96 1463.83,-163.79 1042.42,-132 1039.31,-131.77 1036.15,-131.51 1032.95,-131.23"/>
<polygon fill="midnightblue" stroke="midnightblue" points="2126.13,-179.87 2136.18,-176.53 2126.24,-172.87 2126.13,-179.87"/>
</g>
<!-- Node135 -->
<g id="node45" class="node">
<title>Node135</title>
<g id="a_node45"><a xlink:href="_ekman_spiral_8cpp.html" target="_top" xlink:title=" ">
<polygon fill="white" stroke="black" points="1545.42,-56.5 1545.42,-75.5 1643.42,-75.5 1643.42,-56.5 1545.42,-56.5"/>
<text text-anchor="middle" x="1594.42" y="-63.5" font-family="Helvetica,sans-Serif" font-size="10.00">EkmanSpiral.cpp</text>
</a>
</g>
</g>
<!-- Node2&#45;&gt;Node135 -->
<g id="edge51" class="edge">
<title>Node2&#45;&gt;Node135</title>
<path fill="none" stroke="midnightblue" d="M2126.26,-177.38C2017.14,-177.7 1733.09,-174.31 1650.42,-132 1625.49,-119.24 1606.97,-90.17 1598.9,-75.62"/>
<polygon fill="midnightblue" stroke="midnightblue" points="2126.27,-180.88 2136.26,-177.34 2126.24,-173.88 2126.27,-180.88"/>
</g>
<!-- Node136 -->
<g id="node46" class="node">
<title>Node136</title>
<g id="a_node46"><a xlink:href="_ekman_spiral_8_h.html" target="_top" xlink:title=" ">
<polygon fill="white" stroke="black" points="1513.92,-112.5 1513.92,-131.5 1602.92,-131.5 1602.92,-112.5 1513.92,-112.5"/>
<text text-anchor="middle" x="1558.42" y="-119.5" font-family="Helvetica,sans-Serif" font-size="10.00">EkmanSpiral.H</text>
</a>
</g>
</g>
<!-- Node2&#45;&gt;Node136 -->
<g id="edge52" class="edge">
<title>Node2&#45;&gt;Node136</title>
<path fill="none" stroke="midnightblue" d="M2126.19,-174.51C2033.02,-168.92 1806.39,-154.09 1617.42,-132 1612.79,-131.46 1607.96,-130.83 1603.15,-130.16"/>
<polygon fill="midnightblue" stroke="midnightblue" points="2126.17,-178.01 2136.36,-175.12 2126.59,-171.03 2126.17,-178.01"/>
</g>
<!-- Node3&#45;&gt;Node5 -->
<g id="edge3" class="edge">
<title>Node3&#45;&gt;Node5</title>
<path fill="none" stroke="midnightblue" d="M1759.24,-112.05C2069.32,-78.55 2430.09,-69.79 2554.6,-67.64"/>
<polygon fill="midnightblue" stroke="midnightblue" points="1758.72,-108.58 1749.15,-113.15 1759.47,-115.54 1758.72,-108.58"/>
</g>
<!-- Node5&#45;&gt;Node6 -->
<g id="edge4" class="edge">
<title>Node5&#45;&gt;Node6</title>
<path fill="none" stroke="midnightblue" d="M2654.11,-57.81C2734.43,-47.26 2883.16,-27.72 2960.61,-17.54"/>
<polygon fill="midnightblue" stroke="midnightblue" points="2653.64,-54.35 2644.19,-59.12 2654.56,-61.29 2653.64,-54.35"/>
</g>
<!-- Node63&#45;&gt;Node23 -->
<g id="edge24" class="edge">
<title>Node63&#45;&gt;Node23</title>
<path fill="none" stroke="midnightblue" d="M47.42,-101.8C47.42,-92.91 47.42,-82.78 47.42,-75.75"/>
<polygon fill="midnightblue" stroke="midnightblue" points="43.92,-102.08 47.42,-112.08 50.92,-102.08 43.92,-102.08"/>
</g>
<!-- Node79&#45;&gt;Node2 -->
<g id="edge32" class="edge">
<title>Node79&#45;&gt;Node2</title>
<path fill="none" stroke="midnightblue" d="M4091.48,-132.81C3689.41,-181.76 2424.45,-178.14 2202.72,-177.16"/>
<polygon fill="midnightblue" stroke="midnightblue" points="4092.19,-136.25 4101.68,-131.53 4091.32,-129.3 4092.19,-136.25"/>
</g>
<!-- Node92&#45;&gt;Node94 -->
<g id="edge36" class="edge">
<title>Node92&#45;&gt;Node94</title>
<path fill="none" stroke="midnightblue" d="M4216.4,-104.72C4225.74,-95.2 4237.16,-83.56 4244.83,-75.75"/>
<polygon fill="midnightblue" stroke="midnightblue" points="4213.68,-102.49 4209.17,-112.08 4218.67,-107.4 4213.68,-102.49"/>
</g>
<!-- Node92&#45;&gt;Node95 -->
<g id="edge37" class="edge">
<title>Node92&#45;&gt;Node95</title>
<path fill="none" stroke="midnightblue" d="M4237.21,-111.91C4305.57,-96.76 4373.52,-83.72 4417.55,-75.54"/>
<polygon fill="midnightblue" stroke="midnightblue" points="4236.12,-108.57 4227.12,-114.17 4237.64,-115.4 4236.12,-108.57"/>
</g>
<!-- Node132&#45;&gt;Node15 -->
<g id="edge44" class="edge">
<title>Node132&#45;&gt;Node15</title>
<path fill="none" stroke="midnightblue" d="M765.75,-105.25C775.68,-95.67 788.01,-83.79 796.26,-75.83"/>
<polygon fill="midnightblue" stroke="midnightblue" points="763.18,-102.86 758.42,-112.32 768.04,-107.9 763.18,-102.86"/>
</g>
<!-- Node132&#45;&gt;Node131 -->
<g id="edge45" class="edge">
<title>Node132&#45;&gt;Node131</title>
<path fill="none" stroke="midnightblue" d="M727.85,-106.62C713.05,-96.76 693.91,-83.99 681.4,-75.65"/>
<polygon fill="midnightblue" stroke="midnightblue" points="726.14,-109.69 736.4,-112.32 730.03,-103.86 726.14,-109.69"/>
</g>
<!-- Node134&#45;&gt;Node133 -->
<g id="edge50" class="edge">
<title>Node134&#45;&gt;Node133</title>
<path fill="none" stroke="midnightblue" d="M963.87,-102.1C965.03,-93.14 966.36,-82.86 967.28,-75.75"/>
<polygon fill="midnightblue" stroke="midnightblue" points="960.39,-101.72 962.57,-112.08 967.33,-102.62 960.39,-101.72"/>
</g>
<!-- Node136&#45;&gt;Node135 -->
<g id="edge53" class="edge">
<title>Node136&#45;&gt;Node135</title>
<path fill="none" stroke="midnightblue" d="M1570.04,-103.57C1576.24,-94.27 1583.59,-83.25 1588.58,-75.75"/>
<polygon fill="midnightblue" stroke="midnightblue" points="1567,-101.82 1564.36,-112.08 1572.82,-105.7 1567,-101.82"/>
</g>
<!-- Node48&#45;&gt;Node47 -->
<g id="edge62" class="edge">
<title>Node48&#45;&gt;Node47</title>
<path fill="none" stroke="midnightblue" d="M4719.66,-162.1C4707.42,-152.38 4691.86,-140.03 4681.54,-131.83"/>
<polygon fill="midnightblue" stroke="midnightblue" points="4717.49,-164.85 4727.49,-168.32 4721.84,-159.36 4717.49,-164.85"/>
</g>
<!-- Node48&#45;&gt;Node49 -->
<g id="edge63" class="edge">
<title>Node48&#45;&gt;Node49</title>
<path fill="none" stroke="midnightblue" d="M4757.46,-162.1C4769.87,-152.38 4785.66,-140.03 4796.13,-131.83"/>
<polygon fill="midnightblue" stroke="midnightblue" points="4755.22,-159.4 4749.5,-168.32 4759.54,-164.92 4755.22,-159.4"/>
</g>
</g>
</svg>
        <g id="navigator" transform="translate(0 0)" fill="#404254">
                <rect fill="#f2f5e9" fill-opacity="0.5" stroke="#606060" stroke-width=".5" x="0" y="0" width="60" height="60"/>
                <use id="zoomplus" xlink:href="#zoomPlus" x="17" y="9" onmousedown="handleZoom(evt,'in')"/>
                <use id="zoomminus" xlink:href="#zoomMin" x="42" y="9" onmousedown="handleZoom(evt,'out')"/>
                <use id="reset" xlink:href="#resetDef" x="30" y="36" onmousedown="handleReset()"/>
                <g id="arrowUp" xlink:href="#dirArrow" transform="translate(30 24)" onmousedown="handlePan(0,-1)">
                  <use xlink:href="#rim" fill="#404040">
                        <set attributeName="fill" to="#808080" begin="arrowUp.mouseover" end="arrowUp.mouseout"/>
                  </use>
                  <path fill="none" stroke="white" stroke-width="1.5" d="M0,-3.0v7 M-2.5,-0.5L0,-3.0L2.5,-0.5"/>
                </g>
                <g id="arrowRight" xlink:href="#dirArrow" transform="rotate(90) translate(36 -43)" onmousedown="handlePan(1,0)">
                  <use xlink:href="#rim" fill="#404040">
                        <set attributeName="fill" to="#808080" begin="arrowRight.mouseover" end="arrowRight.mouseout"/>
                  </use>
                  <path fill="none" stroke="white" stroke-width="1.5" d="M0,-3.0v7 M-2.5,-0.5L0,-3.0L2.5,-0.5"/>
                </g>
                <g id="arrowDown" xlink:href="#dirArrow" transform="rotate(180) translate(-30 -48)" onmousedown="handlePan(0,1)">
                  <use xlink:href="#rim" fill="#404040">
                        <set attributeName="fill" to="#808080" begin="arrowDown.mouseover" end="arrowDown.mouseout"/>
                  </use>
                  <path fill="none" stroke="white" stroke-width="1.5" d="M0,-3.0v7 M-2.5,-0.5L0,-3.0L2.5,-0.5"/>
                </g>
                <g id="arrowLeft" xlink:href="#dirArrow" transform="rotate(270) translate(-36 17)" onmousedown="handlePan(-1,0)">
                  <use xlink:href="#rim" fill="#404040">
                        <set attributeName="fill" to="#808080" begin="arrowLeft.mouseover" end="arrowLeft.mouseout"/>
                  </use>
                  <path fill="none" stroke="white" stroke-width="1.5" d="M0,-3.0v7 M-2.5,-0.5L0,-3.0L2.5,-0.5"/>
                </g>
        </g>
        <svg viewBox="0 0 15 15" width="100%" height="30px" preserveAspectRatio="xMaxYMin meet">
         <g id="arrow_out" transform="scale(0.3 0.3)">
          <a xlink:href="_p_d_e_base_8_h__dep__incl_org.svg" target="_base">
           <rect id="button" ry="5" rx="5" y="6" x="6" height="38" width="38"
                fill="#f2f5e9" fill-opacity="0.5" stroke="#606060" stroke-width="1.0"/>
           <path id="arrow"
             d="M 11.500037,31.436501 C 11.940474,20.09759 22.043105,11.32322 32.158766,21.979434 L 37.068811,17.246167 C 37.068811,17.246167 37.088388,32 37.088388,32 L 22.160133,31.978069 C 22.160133,31.978069 26.997745,27.140456 26.997745,27.140456 C 18.528582,18.264221 13.291696,25.230495 11.500037,31.436501 z"
             style="fill:#404040;"/>
          </a>
         </g>
        </svg>
</svg>
