<?xml version="1.0" encoding="UTF-8" standalone="no"?>
<!DOCTYPE svg PUBLIC "-//W3C//DTD SVG 1.1//EN"
 "http://www.w3.org/Graphics/SVG/1.1/DTD/svg11.dtd">
<!-- Generated by graphviz version 2.43.0 (0)
 -->
<!-- Title: source_terms Pages: 1 -->
<svg width="205pt" height="367pt"
 viewBox="0.00 0.00 204.50 367.00" xmlns="http://www.w3.org/2000/svg" xmlns:xlink="http://www.w3.org/1999/xlink">
<g id="graph0" class="graph" transform="scale(1 1) rotate(0) translate(4 363)">
<title>source_terms</title>
<polygon fill="white" stroke="transparent" points="-4,4 -4,-363 200.5,-363 200.5,4 -4,4"/>
<g id="clust1" class="cluster">
<title>clusterdir_4012ff34c1bb5bd303e44a1c9cef6c8a</title>
<g id="a_clust1"><a xlink:href="dir_4012ff34c1bb5bd303e44a1c9cef6c8a.html" target="_top" xlink:title="icns">
<polygon fill="#ddddee" stroke="black" points="88.5,-280 88.5,-351 188.5,-351 188.5,-280 88.5,-280"/>
<text text-anchor="middle" x="138.5" y="-339" font-family="Helvetica,sans-Serif" font-size="10.00">icns</text>
</a>
</g>
</g>
<!-- dir_5d2cf0e24161a778738de20190787a10 -->
<g id="node1" class="node">
<title>dir_5d2cf0e24161a778738de20190787a10</title>
<g id="a_node1"><a xlink:href="dir_5d2cf0e24161a778738de20190787a10.html" target="_top" xlink:title="source_terms">
<polygon fill="#eeeeff" stroke="black" points="180,-324 97,-324 97,-288 180,-288 180,-324"/>
<text text-anchor="middle" x="138.5" y="-303.5" font-family="Helvetica,sans-Serif" font-size="10.00">source_terms</text>
</a>
</g>
</g>
<!-- dir_0c368f76a33d967d5b838b5681461de6 -->
<g id="node2" class="node">
<title>dir_0c368f76a33d967d5b838b5681461de6</title>
<g id="a_node2"><a xlink:href="dir_0c368f76a33d967d5b838b5681461de6.html" target="_top" xlink:title="wind_energy">
<polygon fill="white" stroke="red" points="79,-324 0,-324 0,-288 79,-288 79,-324"/>
<text text-anchor="middle" x="39.5" y="-303.5" font-family="Helvetica,sans-Serif" font-size="10.00">wind_energy</text>
</a>
</g>
</g>
<!-- dir_5d2cf0e24161a778738de20190787a10&#45;&gt;dir_0c368f76a33d967d5b838b5681461de6 -->
<g id="edge1" class="edge">
<title>dir_5d2cf0e24161a778738de20190787a10&#45;&gt;dir_0c368f76a33d967d5b838b5681461de6</title>
<path fill="none" stroke="black" d="M96.9,-306C94.43,-306 91.96,-306 89.49,-306"/>
<polygon fill="black" stroke="black" points="89.33,-302.5 79.33,-306 89.33,-309.5 89.33,-302.5"/>
<g id="a_edge1&#45;headlabel"><a xlink:href="dir_000004_000001.html" target="_top" xlink:title="7">
<text text-anchor="middle" x="92.93" y="-297.16" font-family="Helvetica,sans-Serif" font-size="10.00">7</text>
</a>
</g>
</g>
<!-- dir_3d3615e9a999cab4f3407307569d6ced -->
<g id="node3" class="node">
<title>dir_3d3615e9a999cab4f3407307569d6ced</title>
<g id="a_node3"><a xlink:href="dir_3d3615e9a999cab4f3407307569d6ced.html" target="_top" xlink:title="core">
<polygon fill="white" stroke="red" points="159.5,-252 105.5,-252 105.5,-216 159.5,-216 159.5,-252"/>
<text text-anchor="middle" x="132.5" y="-231.5" font-family="Helvetica,sans-Serif" font-size="10.00">core</text>
</a>
</g>
</g>
<!-- dir_5d2cf0e24161a778738de20190787a10&#45;&gt;dir_3d3615e9a999cab4f3407307569d6ced -->
<g id="edge2" class="edge">
<title>dir_5d2cf0e24161a778738de20190787a10&#45;&gt;dir_3d3615e9a999cab4f3407307569d6ced</title>
<path fill="none" stroke="black" d="M137.02,-287.7C136.36,-279.98 135.56,-270.71 134.82,-262.11"/>
<polygon fill="black" stroke="black" points="138.31,-261.77 133.97,-252.1 131.33,-262.37 138.31,-261.77"/>
<g id="a_edge2&#45;headlabel"><a xlink:href="dir_000004_000024.html" target="_top" xlink:title="22">
<text text-anchor="middle" x="141.44" y="-262.61" font-family="Helvetica,sans-Serif" font-size="10.00">22</text>
</a>
</g>
</g>
<!-- dir_bfcf7e25e8a41bb3b30f8e11e2280479 -->
<g id="node4" class="node">
<title>dir_bfcf7e25e8a41bb3b30f8e11e2280479</title>
<g id="a_node4"><a xlink:href="dir_bfcf7e25e8a41bb3b30f8e11e2280479.html" target="_top" xlink:title="vof">
<polygon fill="none" stroke="black" points="121.5,-36 67.5,-36 67.5,0 121.5,0 121.5,-36"/>
<text text-anchor="middle" x="94.5" y="-15.5" font-family="Helvetica,sans-Serif" font-size="10.00">vof</text>
</a>
</g>
</g>
<!-- dir_5d2cf0e24161a778738de20190787a10&#45;&gt;dir_bfcf7e25e8a41bb3b30f8e11e2280479 -->
<g id="edge3" class="edge">
<title>dir_5d2cf0e24161a778738de20190787a10&#45;&gt;dir_bfcf7e25e8a41bb3b30f8e11e2280479</title>
<path fill="none" stroke="black" d="M158.88,-287.53C168.31,-278.09 178.51,-265.6 183.5,-252 189.02,-236.98 185.45,-231.88 183.5,-216 175.44,-150.52 180,-129.41 147.5,-72 141.45,-61.32 132.66,-51.31 123.97,-42.93"/>
<polygon fill="black" stroke="black" points="126.17,-40.19 116.43,-36.01 121.43,-45.35 126.17,-40.19"/>
<g id="a_edge3&#45;headlabel"><a xlink:href="dir_000004_000033.html" target="_top" xlink:title="2">
<text text-anchor="middle" x="130.73" y="-38.03" font-family="Helvetica,sans-Serif" font-size="10.00">2</text>
</a>
</g>
</g>
<!-- dir_e4cd57caa88bf1f4e1bf9521bc47c3c0 -->
<g id="node5" class="node">
<title>dir_e4cd57caa88bf1f4e1bf9521bc47c3c0</title>
<g id="a_node5"><a xlink:href="dir_e4cd57caa88bf1f4e1bf9521bc47c3c0.html" target="_top" xlink:title="utilities">
<polygon fill="white" stroke="red" points="83.5,-180 29.5,-180 29.5,-144 83.5,-144 83.5,-180"/>
<text text-anchor="middle" x="56.5" y="-159.5" font-family="Helvetica,sans-Serif" font-size="10.00">utilities</text>
</a>
</g>
</g>
<!-- dir_5d2cf0e24161a778738de20190787a10&#45;&gt;dir_e4cd57caa88bf1f4e1bf9521bc47c3c0 -->
<g id="edge4" class="edge">
<title>dir_5d2cf0e24161a778738de20190787a10&#45;&gt;dir_e4cd57caa88bf1f4e1bf9521bc47c3c0</title>
<path fill="none" stroke="black" d="M122.95,-287.66C114.48,-277.68 104.18,-264.64 96.5,-252 84.32,-231.97 73.62,-207.59 66.36,-189.42"/>
<polygon fill="black" stroke="black" points="69.59,-188.07 62.69,-180.02 63.07,-190.61 69.59,-188.07"/>
<g id="a_edge4&#45;headlabel"><a xlink:href="dir_000004_000014.html" target="_top" xlink:title="13">
<text text-anchor="middle" x="73.54" y="-187.88" font-family="Helvetica,sans-Serif" font-size="10.00">13</text>
</a>
</g>
</g>
<!-- dir_f2c65bfcbdc19ebacbfc0bbbfb0d01b6 -->
<g id="node6" class="node">
<title>dir_f2c65bfcbdc19ebacbfc0bbbfb0d01b6</title>
<g id="a_node6"><a xlink:href="dir_f2c65bfcbdc19ebacbfc0bbbfb0d01b6.html" target="_top" xlink:title="physics">
<polygon fill="white" stroke="red" points="121.5,-108 67.5,-108 67.5,-72 121.5,-72 121.5,-108"/>
<text text-anchor="middle" x="94.5" y="-87.5" font-family="Helvetica,sans-Serif" font-size="10.00">physics</text>
</a>
</g>
</g>
<!-- dir_5d2cf0e24161a778738de20190787a10&#45;&gt;dir_f2c65bfcbdc19ebacbfc0bbbfb0d01b6 -->
<g id="edge5" class="edge">
<title>dir_5d2cf0e24161a778738de20190787a10&#45;&gt;dir_f2c65bfcbdc19ebacbfc0bbbfb0d01b6</title>
<path fill="none" stroke="black" d="M151.23,-287.85C157.79,-277.92 165.11,-264.88 168.5,-252 172.58,-236.53 172.6,-231.47 168.5,-216 158.5,-178.22 133.49,-140.37 115.31,-116.39"/>
<polygon fill="black" stroke="black" points="117.85,-113.96 108.96,-108.2 112.32,-118.25 117.85,-113.96"/>
<g id="a_edge5&#45;headlabel"><a xlink:href="dir_000004_000019.html" target="_top" xlink:title="3">
<text text-anchor="middle" x="122.3" y="-112.56" font-family="Helvetica,sans-Serif" font-size="10.00">3</text>
</a>
</g>
</g>
<!-- dir_0c368f76a33d967d5b838b5681461de6&#45;&gt;dir_5d2cf0e24161a778738de20190787a10 -->
<g id="edge11" class="edge">
<title>dir_0c368f76a33d967d5b838b5681461de6&#45;&gt;dir_5d2cf0e24161a778738de20190787a10</title>
<path fill="none" stroke="black" d="M79.33,-306C81.8,-306 84.27,-306 86.74,-306"/>
<polygon fill="black" stroke="black" points="86.9,-309.5 96.9,-306 86.9,-302.5 86.9,-309.5"/>
<g id="a_edge11&#45;headlabel"><a xlink:href="dir_000001_000004.html" target="_top" xlink:title="6">
<text text-anchor="middle" x="83.3" y="-309.84" font-family="Helvetica,sans-Serif" font-size="10.00">6</text>
</a>
</g>
</g>
<!-- dir_0c368f76a33d967d5b838b5681461de6&#45;&gt;dir_3d3615e9a999cab4f3407307569d6ced -->
<g id="edge10" class="edge">
<title>dir_0c368f76a33d967d5b838b5681461de6&#45;&gt;dir_3d3615e9a999cab4f3407307569d6ced</title>
<path fill="none" stroke="black" d="M62.49,-287.7C74.31,-278.8 88.89,-267.82 101.68,-258.2"/>
<polygon fill="black" stroke="black" points="103.89,-260.91 109.78,-252.1 99.68,-255.32 103.89,-260.91"/>
<g id="a_edge10&#45;headlabel"><a xlink:href="dir_000001_000024.html" target="_top" xlink:title="33">
<text text-anchor="middle" x="102.73" y="-262.84" font-family="Helvetica,sans-Serif" font-size="10.00">33</text>
</a>
</g>
</g>
<!-- dir_0c368f76a33d967d5b838b5681461de6&#45;&gt;dir_e4cd57caa88bf1f4e1bf9521bc47c3c0 -->
<g id="edge12" class="edge">
<title>dir_0c368f76a33d967d5b838b5681461de6&#45;&gt;dir_e4cd57caa88bf1f4e1bf9521bc47c3c0</title>
<path fill="none" stroke="black" d="M41.55,-287.87C44.45,-263.67 49.77,-219.21 53.22,-190.39"/>
<polygon fill="black" stroke="black" points="56.73,-190.53 54.44,-180.19 49.78,-189.7 56.73,-190.53"/>
<g id="a_edge12&#45;headlabel"><a xlink:href="dir_000001_000014.html" target="_top" xlink:title="47">
<text text-anchor="middle" x="59.12" y="-191.94" font-family="Helvetica,sans-Serif" font-size="10.00">47</text>
</a>
</g>
</g>
<!-- dir_3d3615e9a999cab4f3407307569d6ced&#45;&gt;dir_e4cd57caa88bf1f4e1bf9521bc47c3c0 -->
<g id="edge18" class="edge">
<title>dir_3d3615e9a999cab4f3407307569d6ced&#45;&gt;dir_e4cd57caa88bf1f4e1bf9521bc47c3c0</title>
<path fill="none" stroke="black" d="M107.8,-215.7C97.62,-207.14 86.06,-196.66 76.43,-187.3"/>
<polygon fill="black" stroke="black" points="78.74,-184.67 69.18,-180.1 73.8,-189.63 78.74,-184.67"/>
<g id="a_edge18&#45;headlabel"><a xlink:href="dir_000024_000014.html" target="_top" xlink:title="1">
<text text-anchor="middle" x="83.29" y="-182.69" font-family="Helvetica,sans-Serif" font-size="10.00">1</text>
</a>
</g>
</g>
<!-- dir_bfcf7e25e8a41bb3b30f8e11e2280479&#45;&gt;dir_3d3615e9a999cab4f3407307569d6ced -->
<g id="edge16" class="edge">
<title>dir_bfcf7e25e8a41bb3b30f8e11e2280479&#45;&gt;dir_3d3615e9a999cab4f3407307569d6ced</title>
<path fill="none" stroke="black" d="M110.04,-36.25C117.79,-46 126.36,-58.84 130.5,-72 144.66,-117.04 141,-172.73 136.88,-205.42"/>
<polygon fill="black" stroke="black" points="133.38,-205.19 135.49,-215.57 140.31,-206.14 133.38,-205.19"/>
<g id="a_edge16&#45;headlabel"><a xlink:href="dir_000033_000024.html" target="_top" xlink:title="2">
<text text-anchor="middle" x="131.05" y="-198.74" font-family="Helvetica,sans-Serif" font-size="10.00">2</text>
</a>
</g>
</g>
<!-- dir_bfcf7e25e8a41bb3b30f8e11e2280479&#45;&gt;dir_f2c65bfcbdc19ebacbfc0bbbfb0d01b6 -->
<g id="edge17" class="edge">
<title>dir_bfcf7e25e8a41bb3b30f8e11e2280479&#45;&gt;dir_f2c65bfcbdc19ebacbfc0bbbfb0d01b6</title>
<path fill="none" stroke="black" d="M100.4,-36.1C101.2,-43.79 101.44,-53.05 101.1,-61.67"/>
<polygon fill="black" stroke="black" points="97.61,-61.48 100.42,-71.7 104.59,-61.96 97.61,-61.48"/>
<g id="a_edge17&#45;headlabel"><a xlink:href="dir_000033_000019.html" target="_top" xlink:title="1">
<text text-anchor="middle" x="95.02" y="-55.2" font-family="Helvetica,sans-Serif" font-size="10.00">1</text>
</a>
</g>
</g>
<!-- dir_e4cd57caa88bf1f4e1bf9521bc47c3c0&#45;&gt;dir_3d3615e9a999cab4f3407307569d6ced -->
<g id="edge13" class="edge">
<title>dir_e4cd57caa88bf1f4e1bf9521bc47c3c0&#45;&gt;dir_3d3615e9a999cab4f3407307569d6ced</title>
<path fill="none" stroke="black" d="M80.97,-180.1C91.12,-188.64 102.69,-199.11 112.35,-208.48"/>
<polygon fill="black" stroke="black" points="110.06,-211.14 119.63,-215.7 114.99,-206.17 110.06,-211.14"/>
<g id="a_edge13&#45;headlabel"><a xlink:href="dir_000014_000024.html" target="_top" xlink:title="28">
<text text-anchor="middle" x="105.51" y="-208.13" font-family="Helvetica,sans-Serif" font-size="10.00">28</text>
</a>
</g>
</g>
<!-- dir_e4cd57caa88bf1f4e1bf9521bc47c3c0&#45;&gt;dir_bfcf7e25e8a41bb3b30f8e11e2280479 -->
<g id="edge14" class="edge">
<title>dir_e4cd57caa88bf1f4e1bf9521bc47c3c0&#45;&gt;dir_bfcf7e25e8a41bb3b30f8e11e2280479</title>
<path fill="none" stroke="black" d="M54.06,-143.8C52.11,-125.52 50.83,-95.99 58.5,-72 61.62,-62.25 67.15,-52.66 72.95,-44.38"/>
<polygon fill="black" stroke="black" points="75.83,-46.37 79.01,-36.26 70.22,-42.18 75.83,-46.37"/>
<g id="a_edge14&#45;headlabel"><a xlink:href="dir_000014_000033.html" target="_top" xlink:title="1">
<text text-anchor="middle" x="75.95" y="-48.45" font-family="Helvetica,sans-Serif" font-size="10.00">1</text>
</a>
</g>
</g>
<!-- dir_e4cd57caa88bf1f4e1bf9521bc47c3c0&#45;&gt;dir_f2c65bfcbdc19ebacbfc0bbbfb0d01b6 -->
<g id="edge15" class="edge">
<title>dir_e4cd57caa88bf1f4e1bf9521bc47c3c0&#45;&gt;dir_f2c65bfcbdc19ebacbfc0bbbfb0d01b6</title>
<path fill="none" stroke="black" d="M59.98,-143.7C63.56,-135.56 68.71,-125.69 74.01,-116.7"/>
<polygon fill="black" stroke="black" points="77.05,-118.45 79.32,-108.1 71.09,-114.78 77.05,-118.45"/>
<g id="a_edge15&#45;headlabel"><a xlink:href="dir_000014_000019.html" target="_top" xlink:title="1">
<text text-anchor="middle" x="77.57" y="-120.5" font-family="Helvetica,sans-Serif" font-size="10.00">1</text>
</a>
</g>
</g>
<!-- dir_f2c65bfcbdc19ebacbfc0bbbfb0d01b6&#45;&gt;dir_0c368f76a33d967d5b838b5681461de6 -->
<g id="edge6" class="edge">
<title>dir_f2c65bfcbdc19ebacbfc0bbbfb0d01b6&#45;&gt;dir_0c368f76a33d967d5b838b5681461de6</title>
<path fill="none" stroke="black" d="M67.44,-102.42C50.59,-111.12 30.32,-124.88 20.5,-144 -1.65,-187.11 14.59,-245.06 27.6,-278.39"/>
<polygon fill="black" stroke="black" points="24.47,-279.97 31.49,-287.9 30.94,-277.32 24.47,-279.97"/>
<g id="a_edge6&#45;headlabel"><a xlink:href="dir_000019_000001.html" target="_top" xlink:title="1">
<text text-anchor="middle" x="20.48" y="-275.21" font-family="Helvetica,sans-Serif" font-size="10.00">1</text>
</a>
</g>
</g>
<!-- dir_f2c65bfcbdc19ebacbfc0bbbfb0d01b6&#45;&gt;dir_3d3615e9a999cab4f3407307569d6ced -->
<g id="edge7" class="edge">
<title>dir_f2c65bfcbdc19ebacbfc0bbbfb0d01b6&#45;&gt;dir_3d3615e9a999cab4f3407307569d6ced</title>
<path fill="none" stroke="black" d="M99.1,-108.19C105.61,-132.53 117.59,-177.28 125.29,-206.06"/>
<polygon fill="black" stroke="black" points="121.95,-207.12 127.92,-215.87 128.71,-205.31 121.95,-207.12"/>
<g id="a_edge7&#45;headlabel"><a xlink:href="dir_000019_000024.html" target="_top" xlink:title="76">
<text text-anchor="middle" x="118.28" y="-201.88" font-family="Helvetica,sans-Serif" font-size="10.00">76</text>
</a>
</g>
</g>
<!-- dir_f2c65bfcbdc19ebacbfc0bbbfb0d01b6&#45;&gt;dir_bfcf7e25e8a41bb3b30f8e11e2280479 -->
<g id="edge8" class="edge">
<title>dir_f2c65bfcbdc19ebacbfc0bbbfb0d01b6&#45;&gt;dir_bfcf7e25e8a41bb3b30f8e11e2280479</title>
<path fill="none" stroke="black" d="M88.58,-71.7C87.79,-63.98 87.56,-54.71 87.9,-46.11"/>
<polygon fill="black" stroke="black" points="91.4,-46.32 88.6,-36.1 84.42,-45.84 91.4,-46.32"/>
<g id="a_edge8&#45;headlabel"><a xlink:href="dir_000019_000033.html" target="_top" xlink:title="1">
<text text-anchor="middle" x="93.98" y="-47.61" font-family="Helvetica,sans-Serif" font-size="10.00">1</text>
</a>
</g>
</g>
<!-- dir_f2c65bfcbdc19ebacbfc0bbbfb0d01b6&#45;&gt;dir_e4cd57caa88bf1f4e1bf9521bc47c3c0 -->
<g id="edge9" class="edge">
<title>dir_f2c65bfcbdc19ebacbfc0bbbfb0d01b6&#45;&gt;dir_e4cd57caa88bf1f4e1bf9521bc47c3c0</title>
<path fill="none" stroke="black" d="M91.11,-108.1C87.56,-116.21 82.42,-126.08 77.12,-135.08"/>
<polygon fill="black" stroke="black" points="74.07,-133.35 71.81,-143.7 80.03,-137.02 74.07,-133.35"/>
<g id="a_edge9&#45;headlabel"><a xlink:href="dir_000019_000014.html" target="_top" xlink:title="14">
<text text-anchor="middle" x="73.54" y="-126.3" font-family="Helvetica,sans-Serif" font-size="10.00">14</text>
</a>
</g>
</g>
</g>
</svg>
