<?xml version="1.0" encoding="UTF-8" standalone="no"?>
<!DOCTYPE svg PUBLIC "-//W3C//DTD SVG 1.1//EN"
 "http://www.w3.org/Graphics/SVG/1.1/DTD/svg11.dtd">
<!-- Generated by graphviz version 2.43.0 (0)
 -->
<!-- Title: equation_systems Pages: 1 -->
<svg width="909pt" height="527pt"
 viewBox="0.00 0.00 909.00 527.00" xmlns="http://www.w3.org/2000/svg" xmlns:xlink="http://www.w3.org/1999/xlink">
<g id="graph0" class="graph" transform="scale(1 1) rotate(0) translate(4 523)">
<title>equation_systems</title>
<polygon fill="white" stroke="transparent" points="-4,4 -4,-523 905,-523 905,4 -4,4"/>
<g id="clust1" class="cluster">
<title>clusterdir_d85575251dd712327fe3cf057fa568b4</title>
<g id="a_clust1"><a xlink:href="dir_d85575251dd712327fe3cf057fa568b4.html" target="_top" xlink:title="amr&#45;wind">
<polygon fill="#ddddee" stroke="black" points="8,-8 8,-511 893,-511 893,-8 8,-8"/>
<text text-anchor="middle" x="450.5" y="-499" font-family="Helvetica,sans-Serif" font-size="10.00">amr&#45;wind</text>
</a>
</g>
</g>
<g id="clust2" class="cluster">
<title>clusterdir_4bb30ed846ea1df1fc4d16874a455d91</title>
<g id="a_clust2"><a xlink:href="dir_4bb30ed846ea1df1fc4d16874a455d91.html" target="_top">
<polygon fill="#eeeeff" stroke="black" points="16,-296 16,-420 703,-420 703,-296 16,-296"/>
</a>
</g>
</g>
<!-- dir_35ffb1505af3943bdf99903da87524fe -->
<g id="node1" class="node">
<title>dir_35ffb1505af3943bdf99903da87524fe</title>
<g id="a_node1"><a xlink:href="dir_35ffb1505af3943bdf99903da87524fe.html" target="_top" xlink:title="convection">
<polygon fill="none" stroke="black" points="749,-484 679,-484 679,-448 749,-448 749,-484"/>
<text text-anchor="middle" x="714" y="-463.5" font-family="Helvetica,sans-Serif" font-size="10.00">convection</text>
</a>
</g>
</g>
<!-- dir_3d3615e9a999cab4f3407307569d6ced -->
<g id="node2" class="node">
<title>dir_3d3615e9a999cab4f3407307569d6ced</title>
<g id="a_node2"><a xlink:href="dir_3d3615e9a999cab4f3407307569d6ced.html" target="_top" xlink:title="core">
<polygon fill="white" stroke="red" points="787,-412 733,-412 733,-376 787,-376 787,-412"/>
<text text-anchor="middle" x="760" y="-391.5" font-family="Helvetica,sans-Serif" font-size="10.00">core</text>
</a>
</g>
</g>
<!-- dir_35ffb1505af3943bdf99903da87524fe&#45;&gt;dir_3d3615e9a999cab4f3407307569d6ced -->
<g id="edge19" class="edge">
<title>dir_35ffb1505af3943bdf99903da87524fe&#45;&gt;dir_3d3615e9a999cab4f3407307569d6ced</title>
<path fill="none" stroke="black" d="M725.37,-447.7C730.72,-439.56 737.2,-429.69 743.11,-420.7"/>
<polygon fill="black" stroke="black" points="746.19,-422.38 748.76,-412.1 740.34,-418.54 746.19,-422.38"/>
<g id="a_edge19&#45;headlabel"><a xlink:href="dir_000032_000024.html" target="_top" xlink:title="2">
<text text-anchor="middle" x="746.59" y="-424.45" font-family="Helvetica,sans-Serif" font-size="10.00">2</text>
</a>
</g>
</g>
<!-- dir_e4cd57caa88bf1f4e1bf9521bc47c3c0 -->
<g id="node5" class="node">
<title>dir_e4cd57caa88bf1f4e1bf9521bc47c3c0</title>
<g id="a_node5"><a xlink:href="dir_e4cd57caa88bf1f4e1bf9521bc47c3c0.html" target="_top" xlink:title="utilities">
<polygon fill="white" stroke="red" points="765,-340 711,-340 711,-304 765,-304 765,-340"/>
<text text-anchor="middle" x="738" y="-319.5" font-family="Helvetica,sans-Serif" font-size="10.00">utilities</text>
</a>
</g>
</g>
<!-- dir_35ffb1505af3943bdf99903da87524fe&#45;&gt;dir_e4cd57caa88bf1f4e1bf9521bc47c3c0 -->
<g id="edge20" class="edge">
<title>dir_35ffb1505af3943bdf99903da87524fe&#45;&gt;dir_e4cd57caa88bf1f4e1bf9521bc47c3c0</title>
<path fill="none" stroke="black" d="M715.18,-447.83C716.59,-429.82 719.36,-400.76 724,-376 725.6,-367.45 727.84,-358.25 730.07,-349.95"/>
<polygon fill="black" stroke="black" points="733.51,-350.61 732.82,-340.04 726.77,-348.74 733.51,-350.61"/>
<g id="a_edge20&#45;headlabel"><a xlink:href="dir_000032_000014.html" target="_top" xlink:title="1">
<text text-anchor="middle" x="735.29" y="-352.34" font-family="Helvetica,sans-Serif" font-size="10.00">1</text>
</a>
</g>
</g>
<!-- dir_3d3615e9a999cab4f3407307569d6ced&#45;&gt;dir_e4cd57caa88bf1f4e1bf9521bc47c3c0 -->
<g id="edge49" class="edge">
<title>dir_3d3615e9a999cab4f3407307569d6ced&#45;&gt;dir_e4cd57caa88bf1f4e1bf9521bc47c3c0</title>
<path fill="none" stroke="black" d="M748.65,-375.7C745.39,-367.9 742.22,-358.51 739.85,-349.83"/>
<polygon fill="black" stroke="black" points="743.25,-348.99 737.48,-340.1 736.45,-350.65 743.25,-348.99"/>
<g id="a_edge49&#45;headlabel"><a xlink:href="dir_000024_000014.html" target="_top" xlink:title="1">
<text text-anchor="middle" x="746.86" y="-349.31" font-family="Helvetica,sans-Serif" font-size="10.00">1</text>
</a>
</g>
</g>
<!-- dir_ebb19deee3cd40f4ac122fef25c04ca8 -->
<g id="node6" class="node">
<title>dir_ebb19deee3cd40f4ac122fef25c04ca8</title>
<g id="a_node6"><a xlink:href="dir_ebb19deee3cd40f4ac122fef25c04ca8.html" target="_top" xlink:title="boundary_conditions">
<polygon fill="white" stroke="red" points="697,-196 579,-196 579,-160 697,-160 697,-196"/>
<text text-anchor="middle" x="638" y="-175.5" font-family="Helvetica,sans-Serif" font-size="10.00">boundary_conditions</text>
</a>
</g>
</g>
<!-- dir_3d3615e9a999cab4f3407307569d6ced&#45;&gt;dir_ebb19deee3cd40f4ac122fef25c04ca8 -->
<g id="edge48" class="edge">
<title>dir_3d3615e9a999cab4f3407307569d6ced&#45;&gt;dir_ebb19deee3cd40f4ac122fef25c04ca8</title>
<path fill="none" stroke="black" d="M785.59,-375.96C798.38,-367.22 812.52,-355.17 820,-340 828.64,-322.46 829.56,-313.06 820,-296 793.32,-248.37 738.47,-217.8 695.84,-199.89"/>
<polygon fill="black" stroke="black" points="696.98,-196.58 686.4,-196.05 694.34,-203.06 696.98,-196.58"/>
<g id="a_edge48&#45;headlabel"><a xlink:href="dir_000024_000016.html" target="_top" xlink:title="1">
<text text-anchor="middle" x="701.38" y="-192.8" font-family="Helvetica,sans-Serif" font-size="10.00">1</text>
</a>
</g>
</g>
<!-- dir_9ff815a534beac751fa88e427dbab695 -->
<g id="node3" class="node">
<title>dir_9ff815a534beac751fa88e427dbab695</title>
<g id="a_node3"><a xlink:href="dir_9ff815a534beac751fa88e427dbab695.html" target="_top" xlink:title="turbulence">
<polygon fill="white" stroke="red" points="200,-196 132,-196 132,-160 200,-160 200,-196"/>
<text text-anchor="middle" x="166" y="-175.5" font-family="Helvetica,sans-Serif" font-size="10.00">turbulence</text>
</a>
</g>
</g>
<!-- dir_9ff815a534beac751fa88e427dbab695&#45;&gt;dir_3d3615e9a999cab4f3407307569d6ced -->
<g id="edge1" class="edge">
<title>dir_9ff815a534beac751fa88e427dbab695&#45;&gt;dir_3d3615e9a999cab4f3407307569d6ced</title>
<path fill="none" stroke="black" d="M200.26,-178.26C282.08,-177.43 494.49,-180.83 662,-232 720.18,-249.77 751.61,-243.89 783,-296 796.09,-317.73 786.65,-346.37 776.19,-366.89"/>
<polygon fill="black" stroke="black" points="773.11,-365.23 771.39,-375.69 779.25,-368.58 773.11,-365.23"/>
<g id="a_edge1&#45;headlabel"><a xlink:href="dir_000012_000024.html" target="_top" xlink:title="7">
<text text-anchor="middle" x="772.34" y="-358.22" font-family="Helvetica,sans-Serif" font-size="10.00">7</text>
</a>
</g>
</g>
<!-- dir_9ff815a534beac751fa88e427dbab695&#45;&gt;dir_e4cd57caa88bf1f4e1bf9521bc47c3c0 -->
<g id="edge4" class="edge">
<title>dir_9ff815a534beac751fa88e427dbab695&#45;&gt;dir_e4cd57caa88bf1f4e1bf9521bc47c3c0</title>
<path fill="none" stroke="black" d="M200.23,-186.18C317.32,-210.77 695.28,-290.4 707,-296 708.36,-296.65 709.72,-297.38 711.06,-298.15"/>
<polygon fill="black" stroke="black" points="709.35,-301.22 719.6,-303.89 713.25,-295.41 709.35,-301.22"/>
<g id="a_edge4&#45;headlabel"><a xlink:href="dir_000012_000014.html" target="_top" xlink:title="1">
<text text-anchor="middle" x="704.78" y="-299.07" font-family="Helvetica,sans-Serif" font-size="10.00">1</text>
</a>
</g>
</g>
<!-- dir_9f8434f21d2c2598f33c85a8b98c6d56 -->
<g id="node14" class="node">
<title>dir_9f8434f21d2c2598f33c85a8b98c6d56</title>
<g id="a_node14"><a xlink:href="dir_9f8434f21d2c2598f33c85a8b98c6d56.html" target="_top" xlink:title="sdr">
<polygon fill="white" stroke="red" points="78,-412 24,-412 24,-376 78,-376 78,-412"/>
<text text-anchor="middle" x="51" y="-391.5" font-family="Helvetica,sans-Serif" font-size="10.00">sdr</text>
</a>
</g>
</g>
<!-- dir_9ff815a534beac751fa88e427dbab695&#45;&gt;dir_9f8434f21d2c2598f33c85a8b98c6d56 -->
<g id="edge2" class="edge">
<title>dir_9ff815a534beac751fa88e427dbab695&#45;&gt;dir_9f8434f21d2c2598f33c85a8b98c6d56</title>
<path fill="none" stroke="black" d="M156.14,-196.11C150.23,-206.46 142.59,-219.94 136,-232 110.16,-279.25 81.07,-334.92 64.49,-366.87"/>
<polygon fill="black" stroke="black" points="61.26,-365.5 59.77,-375.99 67.48,-368.72 61.26,-365.5"/>
<g id="a_edge2&#45;headlabel"><a xlink:href="dir_000012_000050.html" target="_top" xlink:title="3">
<text text-anchor="middle" x="60.39" y="-358.5" font-family="Helvetica,sans-Serif" font-size="10.00">3</text>
</a>
</g>
</g>
<!-- dir_be932497d8c26b6aa8596ee64638838f -->
<g id="node16" class="node">
<title>dir_be932497d8c26b6aa8596ee64638838f</title>
<g id="a_node16"><a xlink:href="dir_be932497d8c26b6aa8596ee64638838f.html" target="_top" xlink:title="tke">
<polygon fill="white" stroke="red" points="150,-412 96,-412 96,-376 150,-376 150,-412"/>
<text text-anchor="middle" x="123" y="-391.5" font-family="Helvetica,sans-Serif" font-size="10.00">tke</text>
</a>
</g>
</g>
<!-- dir_9ff815a534beac751fa88e427dbab695&#45;&gt;dir_be932497d8c26b6aa8596ee64638838f -->
<g id="edge3" class="edge">
<title>dir_9ff815a534beac751fa88e427dbab695&#45;&gt;dir_be932497d8c26b6aa8596ee64638838f</title>
<path fill="none" stroke="black" d="M163.63,-196.04C159.39,-225.54 149.85,-288 138,-340 136.04,-348.62 133.54,-357.92 131.14,-366.29"/>
<polygon fill="black" stroke="black" points="127.77,-365.35 128.32,-375.93 134.49,-367.32 127.77,-365.35"/>
<g id="a_edge3&#45;headlabel"><a xlink:href="dir_000012_000039.html" target="_top" xlink:title="4">
<text text-anchor="middle" x="126.06" y="-358.6" font-family="Helvetica,sans-Serif" font-size="10.00">4</text>
</a>
</g>
</g>
<!-- dir_a816a247b59c90f95e41afe29b966a18 -->
<g id="node4" class="node">
<title>dir_a816a247b59c90f95e41afe29b966a18</title>
<g id="a_node4"><a xlink:href="dir_a816a247b59c90f95e41afe29b966a18.html" target="_top" xlink:title="diffusion">
<polygon fill="none" stroke="black" points="623.5,-52 564.5,-52 564.5,-16 623.5,-16 623.5,-52"/>
<text text-anchor="middle" x="594" y="-31.5" font-family="Helvetica,sans-Serif" font-size="10.00">diffusion</text>
</a>
</g>
</g>
<!-- dir_a816a247b59c90f95e41afe29b966a18&#45;&gt;dir_3d3615e9a999cab4f3407307569d6ced -->
<g id="edge44" class="edge">
<title>dir_a816a247b59c90f95e41afe29b966a18&#45;&gt;dir_3d3615e9a999cab4f3407307569d6ced</title>
<path fill="none" stroke="black" d="M623.67,-35.96C697.58,-40.1 884,-61.94 884,-177 884,-251 884,-251 884,-251 884,-294.37 872.44,-307.26 844,-340 830.96,-355.02 812.61,-367.26 796.39,-376.19"/>
<polygon fill="black" stroke="black" points="794.36,-373.3 787.14,-381.05 797.62,-379.49 794.36,-373.3"/>
<g id="a_edge44&#45;headlabel"><a xlink:href="dir_000028_000024.html" target="_top" xlink:title="1">
<text text-anchor="middle" x="796.22" y="-366.61" font-family="Helvetica,sans-Serif" font-size="10.00">1</text>
</a>
</g>
</g>
<!-- dir_e4cd57caa88bf1f4e1bf9521bc47c3c0&#45;&gt;dir_3d3615e9a999cab4f3407307569d6ced -->
<g id="edge33" class="edge">
<title>dir_e4cd57caa88bf1f4e1bf9521bc47c3c0&#45;&gt;dir_3d3615e9a999cab4f3407307569d6ced</title>
<path fill="none" stroke="black" d="M749.27,-340.1C752.53,-347.88 755.71,-357.26 758.09,-365.95"/>
<polygon fill="black" stroke="black" points="754.7,-366.82 760.48,-375.7 761.5,-365.15 754.7,-366.82"/>
<g id="a_edge33&#45;headlabel"><a xlink:href="dir_000014_000024.html" target="_top" xlink:title="28">
<text text-anchor="middle" x="751.09" y="-361.5" font-family="Helvetica,sans-Serif" font-size="10.00">28</text>
</a>
</g>
</g>
<!-- dir_f2c65bfcbdc19ebacbfc0bbbfb0d01b6 -->
<g id="node7" class="node">
<title>dir_f2c65bfcbdc19ebacbfc0bbbfb0d01b6</title>
<g id="a_node7"><a xlink:href="dir_f2c65bfcbdc19ebacbfc0bbbfb0d01b6.html" target="_top" xlink:title="physics">
<polygon fill="white" stroke="red" points="653,-268 599,-268 599,-232 653,-232 653,-268"/>
<text text-anchor="middle" x="626" y="-247.5" font-family="Helvetica,sans-Serif" font-size="10.00">physics</text>
</a>
</g>
</g>
<!-- dir_e4cd57caa88bf1f4e1bf9521bc47c3c0&#45;&gt;dir_f2c65bfcbdc19ebacbfc0bbbfb0d01b6 -->
<g id="edge35" class="edge">
<title>dir_e4cd57caa88bf1f4e1bf9521bc47c3c0&#45;&gt;dir_f2c65bfcbdc19ebacbfc0bbbfb0d01b6</title>
<path fill="none" stroke="black" d="M710.92,-305.39C706.62,-302.15 702.24,-298.86 698,-296 686.09,-287.98 672.64,-280.08 660.55,-273.19"/>
<polygon fill="black" stroke="black" points="662.05,-270.02 651.62,-268.14 658.6,-276.11 662.05,-270.02"/>
<g id="a_edge35&#45;headlabel"><a xlink:href="dir_000014_000019.html" target="_top" xlink:title="1">
<text text-anchor="middle" x="666.58" y="-266.82" font-family="Helvetica,sans-Serif" font-size="10.00">1</text>
</a>
</g>
</g>
<!-- dir_bfcf7e25e8a41bb3b30f8e11e2280479 -->
<g id="node17" class="node">
<title>dir_bfcf7e25e8a41bb3b30f8e11e2280479</title>
<g id="a_node17"><a xlink:href="dir_bfcf7e25e8a41bb3b30f8e11e2280479.html" target="_top" xlink:title="vof">
<polygon fill="white" stroke="black" points="693,-340 639,-340 639,-304 693,-304 693,-340"/>
<text text-anchor="middle" x="666" y="-319.5" font-family="Helvetica,sans-Serif" font-size="10.00">vof</text>
</a>
</g>
</g>
<!-- dir_e4cd57caa88bf1f4e1bf9521bc47c3c0&#45;&gt;dir_bfcf7e25e8a41bb3b30f8e11e2280479 -->
<g id="edge34" class="edge">
<title>dir_e4cd57caa88bf1f4e1bf9521bc47c3c0&#45;&gt;dir_bfcf7e25e8a41bb3b30f8e11e2280479</title>
<path fill="none" stroke="black" d="M710.75,-322C708.29,-322 705.84,-322 703.38,-322"/>
<polygon fill="black" stroke="black" points="703.28,-318.5 693.28,-322 703.28,-325.5 703.28,-318.5"/>
<g id="a_edge34&#45;headlabel"><a xlink:href="dir_000014_000033.html" target="_top" xlink:title="1">
<text text-anchor="middle" x="706.88" y="-313.16" font-family="Helvetica,sans-Serif" font-size="10.00">1</text>
</a>
</g>
</g>
<!-- dir_ebb19deee3cd40f4ac122fef25c04ca8&#45;&gt;dir_3d3615e9a999cab4f3407307569d6ced -->
<g id="edge28" class="edge">
<title>dir_ebb19deee3cd40f4ac122fef25c04ca8&#45;&gt;dir_3d3615e9a999cab4f3407307569d6ced</title>
<path fill="none" stroke="black" d="M697.44,-194.87C745.15,-211.82 808.64,-243.58 838,-296 847.56,-313.06 846.64,-322.46 838,-340 829.52,-357.22 812.46,-370.4 796.32,-379.31"/>
<polygon fill="black" stroke="black" points="794.32,-376.4 787,-384.06 797.5,-382.64 794.32,-376.4"/>
<g id="a_edge28&#45;headlabel"><a xlink:href="dir_000016_000024.html" target="_top" xlink:title="13">
<text text-anchor="middle" x="796.23" y="-369.74" font-family="Helvetica,sans-Serif" font-size="10.00">13</text>
</a>
</g>
</g>
<!-- dir_ebb19deee3cd40f4ac122fef25c04ca8&#45;&gt;dir_a816a247b59c90f95e41afe29b966a18 -->
<g id="edge32" class="edge">
<title>dir_ebb19deee3cd40f4ac122fef25c04ca8&#45;&gt;dir_a816a247b59c90f95e41afe29b966a18</title>
<path fill="none" stroke="black" d="M632.69,-159.87C625.16,-135.56 611.3,-90.82 602.37,-62.01"/>
<polygon fill="black" stroke="black" points="605.63,-60.71 599.33,-52.19 598.94,-62.78 605.63,-60.71"/>
<g id="a_edge32&#45;headlabel"><a xlink:href="dir_000016_000028.html" target="_top" xlink:title="1">
<text text-anchor="middle" x="609.41" y="-60.8" font-family="Helvetica,sans-Serif" font-size="10.00">1</text>
</a>
</g>
</g>
<!-- dir_ebb19deee3cd40f4ac122fef25c04ca8&#45;&gt;dir_e4cd57caa88bf1f4e1bf9521bc47c3c0 -->
<g id="edge31" class="edge">
<title>dir_ebb19deee3cd40f4ac122fef25c04ca8&#45;&gt;dir_e4cd57caa88bf1f4e1bf9521bc47c3c0</title>
<path fill="none" stroke="black" d="M650.11,-196.19C667.55,-220.96 699.87,-266.86 720.08,-295.56"/>
<polygon fill="black" stroke="black" points="717.32,-297.71 725.94,-303.87 723.04,-293.68 717.32,-297.71"/>
<g id="a_edge31&#45;headlabel"><a xlink:href="dir_000016_000014.html" target="_top" xlink:title="3">
<text text-anchor="middle" x="712.93" y="-293.91" font-family="Helvetica,sans-Serif" font-size="10.00">3</text>
</a>
</g>
</g>
<!-- dir_ebb19deee3cd40f4ac122fef25c04ca8&#45;&gt;dir_f2c65bfcbdc19ebacbfc0bbbfb0d01b6 -->
<g id="edge29" class="edge">
<title>dir_ebb19deee3cd40f4ac122fef25c04ca8&#45;&gt;dir_f2c65bfcbdc19ebacbfc0bbbfb0d01b6</title>
<path fill="none" stroke="black" d="M640.96,-196.1C640.44,-203.88 639.07,-213.26 637.23,-221.95"/>
<polygon fill="black" stroke="black" points="633.82,-221.16 634.88,-231.7 640.63,-222.79 633.82,-221.16"/>
<g id="a_edge29&#45;headlabel"><a xlink:href="dir_000016_000019.html" target="_top" xlink:title="6">
<text text-anchor="middle" x="631.9" y="-214.5" font-family="Helvetica,sans-Serif" font-size="10.00">6</text>
</a>
</g>
</g>
<!-- dir_0c368f76a33d967d5b838b5681461de6 -->
<g id="node8" class="node">
<title>dir_0c368f76a33d967d5b838b5681461de6</title>
<g id="a_node8"><a xlink:href="dir_0c368f76a33d967d5b838b5681461de6.html" target="_top" xlink:title="wind_energy">
<polygon fill="white" stroke="red" points="599.5,-124 520.5,-124 520.5,-88 599.5,-88 599.5,-124"/>
<text text-anchor="middle" x="560" y="-103.5" font-family="Helvetica,sans-Serif" font-size="10.00">wind_energy</text>
</a>
</g>
</g>
<!-- dir_ebb19deee3cd40f4ac122fef25c04ca8&#45;&gt;dir_0c368f76a33d967d5b838b5681461de6 -->
<g id="edge30" class="edge">
<title>dir_ebb19deee3cd40f4ac122fef25c04ca8&#45;&gt;dir_0c368f76a33d967d5b838b5681461de6</title>
<path fill="none" stroke="black" d="M618.72,-159.7C609.08,-151.05 597.27,-140.45 586.77,-131.03"/>
<polygon fill="black" stroke="black" points="588.84,-128.18 579.06,-124.1 584.16,-133.39 588.84,-128.18"/>
<g id="a_edge30&#45;headlabel"><a xlink:href="dir_000016_000001.html" target="_top" xlink:title="1">
<text text-anchor="middle" x="593.41" y="-125.97" font-family="Helvetica,sans-Serif" font-size="10.00">1</text>
</a>
</g>
</g>
<!-- dir_f2c65bfcbdc19ebacbfc0bbbfb0d01b6&#45;&gt;dir_3d3615e9a999cab4f3407307569d6ced -->
<g id="edge9" class="edge">
<title>dir_f2c65bfcbdc19ebacbfc0bbbfb0d01b6&#45;&gt;dir_3d3615e9a999cab4f3407307569d6ced</title>
<path fill="none" stroke="black" d="M653.26,-255.35C691.91,-262.14 759.57,-276.53 774,-296 788.96,-316.18 782.01,-345.34 773.44,-366.41"/>
<polygon fill="black" stroke="black" points="770.16,-365.19 769.34,-375.75 776.57,-368.01 770.16,-365.19"/>
<g id="a_edge9&#45;headlabel"><a xlink:href="dir_000019_000024.html" target="_top" xlink:title="76">
<text text-anchor="middle" x="769.01" y="-358.25" font-family="Helvetica,sans-Serif" font-size="10.00">76</text>
</a>
</g>
</g>
<!-- dir_f2c65bfcbdc19ebacbfc0bbbfb0d01b6&#45;&gt;dir_9ff815a534beac751fa88e427dbab695 -->
<g id="edge11" class="edge">
<title>dir_f2c65bfcbdc19ebacbfc0bbbfb0d01b6&#45;&gt;dir_9ff815a534beac751fa88e427dbab695</title>
<path fill="none" stroke="black" d="M598.87,-240.56C588.37,-237.53 576.2,-234.29 565,-232 437.6,-205.92 284.57,-189.75 210.5,-182.86"/>
<polygon fill="black" stroke="black" points="210.44,-179.34 200.16,-181.91 209.8,-186.31 210.44,-179.34"/>
<g id="a_edge11&#45;headlabel"><a xlink:href="dir_000019_000012.html" target="_top" xlink:title="2">
<text text-anchor="middle" x="214.28" y="-174.34" font-family="Helvetica,sans-Serif" font-size="10.00">2</text>
</a>
</g>
</g>
<!-- dir_f2c65bfcbdc19ebacbfc0bbbfb0d01b6&#45;&gt;dir_e4cd57caa88bf1f4e1bf9521bc47c3c0 -->
<g id="edge13" class="edge">
<title>dir_f2c65bfcbdc19ebacbfc0bbbfb0d01b6&#45;&gt;dir_e4cd57caa88bf1f4e1bf9521bc47c3c0</title>
<path fill="none" stroke="black" d="M653.06,-260.82C671.62,-269.38 695.99,-282.52 716,-296 716.78,-296.52 717.56,-297.06 718.34,-297.61"/>
<polygon fill="black" stroke="black" points="716.48,-300.59 726.57,-303.82 720.69,-295 716.48,-300.59"/>
<g id="a_edge13&#45;headlabel"><a xlink:href="dir_000019_000014.html" target="_top" xlink:title="14">
<text text-anchor="middle" x="711.9" y="-298.19" font-family="Helvetica,sans-Serif" font-size="10.00">14</text>
</a>
</g>
</g>
<!-- dir_f2c65bfcbdc19ebacbfc0bbbfb0d01b6&#45;&gt;dir_ebb19deee3cd40f4ac122fef25c04ca8 -->
<g id="edge14" class="edge">
<title>dir_f2c65bfcbdc19ebacbfc0bbbfb0d01b6&#45;&gt;dir_ebb19deee3cd40f4ac122fef25c04ca8</title>
<path fill="none" stroke="black" d="M623.05,-231.7C623.58,-223.9 624.97,-214.51 626.82,-205.83"/>
<polygon fill="black" stroke="black" points="630.22,-206.65 629.17,-196.1 623.42,-205 630.22,-206.65"/>
<g id="a_edge14&#45;headlabel"><a xlink:href="dir_000019_000016.html" target="_top" xlink:title="1">
<text text-anchor="middle" x="632.13" y="-208.31" font-family="Helvetica,sans-Serif" font-size="10.00">1</text>
</a>
</g>
</g>
<!-- dir_f2c65bfcbdc19ebacbfc0bbbfb0d01b6&#45;&gt;dir_0c368f76a33d967d5b838b5681461de6 -->
<g id="edge8" class="edge">
<title>dir_f2c65bfcbdc19ebacbfc0bbbfb0d01b6&#45;&gt;dir_0c368f76a33d967d5b838b5681461de6</title>
<path fill="none" stroke="black" d="M601.16,-231.96C589.71,-222.71 577.11,-210.26 570,-196 560.43,-176.81 558.27,-152.46 558.31,-134.08"/>
<polygon fill="black" stroke="black" points="561.81,-134.12 558.55,-124.04 554.82,-133.95 561.81,-134.12"/>
<g id="a_edge8&#45;headlabel"><a xlink:href="dir_000019_000001.html" target="_top" xlink:title="1">
<text text-anchor="middle" x="564.57" y="-135.28" font-family="Helvetica,sans-Serif" font-size="10.00">1</text>
</a>
</g>
</g>
<!-- dir_4012ff34c1bb5bd303e44a1c9cef6c8a -->
<g id="node11" class="node">
<title>dir_4012ff34c1bb5bd303e44a1c9cef6c8a</title>
<g id="a_node11"><a xlink:href="dir_4012ff34c1bb5bd303e44a1c9cef6c8a.html" target="_top" xlink:title="icns">
<polygon fill="white" stroke="red" points="695,-412 641,-412 641,-376 695,-376 695,-412"/>
<text text-anchor="middle" x="668" y="-391.5" font-family="Helvetica,sans-Serif" font-size="10.00">icns</text>
</a>
</g>
</g>
<!-- dir_f2c65bfcbdc19ebacbfc0bbbfb0d01b6&#45;&gt;dir_4012ff34c1bb5bd303e44a1c9cef6c8a -->
<g id="edge10" class="edge">
<title>dir_f2c65bfcbdc19ebacbfc0bbbfb0d01b6&#45;&gt;dir_4012ff34c1bb5bd303e44a1c9cef6c8a</title>
<path fill="none" stroke="black" d="M618.97,-268.08C612.49,-286.52 605.23,-316.41 615,-340 619.54,-350.97 627.59,-360.86 636.05,-369.04"/>
<polygon fill="black" stroke="black" points="633.75,-371.67 643.52,-375.77 638.44,-366.47 633.75,-371.67"/>
<g id="a_edge10&#45;headlabel"><a xlink:href="dir_000019_000003.html" target="_top" xlink:title="6">
<text text-anchor="middle" x="629.18" y="-368.88" font-family="Helvetica,sans-Serif" font-size="10.00">6</text>
</a>
</g>
</g>
<!-- dir_f2c65bfcbdc19ebacbfc0bbbfb0d01b6&#45;&gt;dir_bfcf7e25e8a41bb3b30f8e11e2280479 -->
<g id="edge12" class="edge">
<title>dir_f2c65bfcbdc19ebacbfc0bbbfb0d01b6&#45;&gt;dir_bfcf7e25e8a41bb3b30f8e11e2280479</title>
<path fill="none" stroke="black" d="M641.67,-268.1C647.04,-276.04 652.76,-285.67 657.43,-294.51"/>
<polygon fill="black" stroke="black" points="654.42,-296.32 662.03,-303.7 660.68,-293.19 654.42,-296.32"/>
<g id="a_edge12&#45;headlabel"><a xlink:href="dir_000019_000033.html" target="_top" xlink:title="1">
<text text-anchor="middle" x="650.28" y="-291.87" font-family="Helvetica,sans-Serif" font-size="10.00">1</text>
</a>
</g>
</g>
<!-- dir_0c368f76a33d967d5b838b5681461de6&#45;&gt;dir_3d3615e9a999cab4f3407307569d6ced -->
<g id="edge21" class="edge">
<title>dir_0c368f76a33d967d5b838b5681461de6&#45;&gt;dir_3d3615e9a999cab4f3407307569d6ced</title>
<path fill="none" stroke="black" d="M599.77,-111.12C638.59,-116.79 697.81,-129.96 740,-160 800.48,-203.07 814.37,-225.29 837,-296 842.96,-314.62 846.1,-322.69 837,-340 828.29,-356.57 811.79,-368.97 796.3,-377.59"/>
<polygon fill="black" stroke="black" points="794.62,-374.52 787.36,-382.23 797.84,-380.73 794.62,-374.52"/>
<g id="a_edge21&#45;headlabel"><a xlink:href="dir_000001_000024.html" target="_top" xlink:title="33">
<text text-anchor="middle" x="796.5" y="-367.84" font-family="Helvetica,sans-Serif" font-size="10.00">33</text>
</a>
</g>
</g>
<!-- dir_0c368f76a33d967d5b838b5681461de6&#45;&gt;dir_a816a247b59c90f95e41afe29b966a18 -->
<g id="edge24" class="edge">
<title>dir_0c368f76a33d967d5b838b5681461de6&#45;&gt;dir_a816a247b59c90f95e41afe29b966a18</title>
<path fill="none" stroke="black" d="M568.4,-87.7C572.27,-79.73 576.95,-70.1 581.24,-61.26"/>
<polygon fill="black" stroke="black" points="584.47,-62.63 585.69,-52.1 578.17,-59.57 584.47,-62.63"/>
<g id="a_edge24&#45;headlabel"><a xlink:href="dir_000001_000028.html" target="_top" xlink:title="1">
<text text-anchor="middle" x="585.45" y="-64.6" font-family="Helvetica,sans-Serif" font-size="10.00">1</text>
</a>
</g>
</g>
<!-- dir_0c368f76a33d967d5b838b5681461de6&#45;&gt;dir_e4cd57caa88bf1f4e1bf9521bc47c3c0 -->
<g id="edge27" class="edge">
<title>dir_0c368f76a33d967d5b838b5681461de6&#45;&gt;dir_e4cd57caa88bf1f4e1bf9521bc47c3c0</title>
<path fill="none" stroke="black" d="M599.82,-110.79C633.14,-116.13 679.39,-129 706,-160 738.3,-197.62 741.47,-258.48 740.2,-293.61"/>
<polygon fill="black" stroke="black" points="736.7,-293.46 739.68,-303.63 743.69,-293.82 736.7,-293.46"/>
<g id="a_edge27&#45;headlabel"><a xlink:href="dir_000001_000014.html" target="_top" xlink:title="47">
<text text-anchor="middle" x="734.05" y="-287.23" font-family="Helvetica,sans-Serif" font-size="10.00">47</text>
</a>
</g>
</g>
<!-- dir_4bb30ed846ea1df1fc4d16874a455d91 -->
<g id="node9" class="node">
<title>dir_4bb30ed846ea1df1fc4d16874a455d91</title>
<text text-anchor="middle" x="221" y="-391.5" font-family="Helvetica,sans-Serif" font-size="10.00">equation_systems</text>
</g>
<!-- dir_0c368f76a33d967d5b838b5681461de6&#45;&gt;dir_4bb30ed846ea1df1fc4d16874a455d91 -->
<g id="edge23" class="edge">
<title>dir_0c368f76a33d967d5b838b5681461de6&#45;&gt;dir_4bb30ed846ea1df1fc4d16874a455d91</title>
<path fill="none" stroke="black" d="M537.63,-124.01C524.44,-134.21 507.54,-147.57 493,-160 403.35,-236.64 390.14,-266.38 298,-340 284.79,-350.55 269.58,-361.29 256.19,-370.32"/>
<polygon fill="black" stroke="black" points="254.06,-367.53 247.69,-375.99 257.95,-373.36 254.06,-367.53"/>
<g id="a_edge23&#45;headlabel"><a xlink:href="dir_000001_000002.html" target="_top" xlink:title="12">
<text text-anchor="middle" x="255.48" y="-360.67" font-family="Helvetica,sans-Serif" font-size="10.00">12</text>
</a>
</g>
</g>
<!-- dir_0c368f76a33d967d5b838b5681461de6&#45;&gt;dir_4012ff34c1bb5bd303e44a1c9cef6c8a -->
<g id="edge22" class="edge">
<title>dir_0c368f76a33d967d5b838b5681461de6&#45;&gt;dir_4012ff34c1bb5bd303e44a1c9cef6c8a</title>
<path fill="none" stroke="black" d="M557.08,-124.06C551,-165.27 541.15,-271.84 588,-340 593.96,-348.67 613.52,-361.69 631.8,-372.66"/>
<polygon fill="black" stroke="black" points="630.22,-375.79 640.61,-377.85 633.77,-369.75 630.22,-375.79"/>
<g id="a_edge22&#45;headlabel"><a xlink:href="dir_000001_000003.html" target="_top" xlink:title="6">
<text text-anchor="middle" x="625.68" y="-373.91" font-family="Helvetica,sans-Serif" font-size="10.00">6</text>
</a>
</g>
</g>
<!-- dir_c96908905c9887b0bdc2167e5354d30c -->
<g id="node15" class="node">
<title>dir_c96908905c9887b0bdc2167e5354d30c</title>
<g id="a_node15"><a xlink:href="dir_c96908905c9887b0bdc2167e5354d30c.html" target="_top" xlink:title="temperature">
<polygon fill="white" stroke="red" points="476.5,-412 399.5,-412 399.5,-376 476.5,-376 476.5,-412"/>
<text text-anchor="middle" x="438" y="-391.5" font-family="Helvetica,sans-Serif" font-size="10.00">temperature</text>
</a>
</g>
</g>
<!-- dir_0c368f76a33d967d5b838b5681461de6&#45;&gt;dir_c96908905c9887b0bdc2167e5354d30c -->
<g id="edge26" class="edge">
<title>dir_0c368f76a33d967d5b838b5681461de6&#45;&gt;dir_c96908905c9887b0bdc2167e5354d30c</title>
<path fill="none" stroke="black" d="M544.45,-124.34C535.97,-134.32 525.68,-147.36 518,-160 483.61,-216.62 477.05,-232.86 457,-296 449.68,-319.05 444.66,-346.11 441.63,-365.78"/>
<polygon fill="black" stroke="black" points="438.14,-365.48 440.15,-375.88 445.06,-366.5 438.14,-365.48"/>
<g id="a_edge26&#45;headlabel"><a xlink:href="dir_000001_000005.html" target="_top" xlink:title="3">
<text text-anchor="middle" x="435.85" y="-359.01" font-family="Helvetica,sans-Serif" font-size="10.00">3</text>
</a>
</g>
</g>
<!-- dir_0c368f76a33d967d5b838b5681461de6&#45;&gt;dir_be932497d8c26b6aa8596ee64638838f -->
<g id="edge25" class="edge">
<title>dir_0c368f76a33d967d5b838b5681461de6&#45;&gt;dir_be932497d8c26b6aa8596ee64638838f</title>
<path fill="none" stroke="black" d="M520.35,-123.89C498.78,-133.59 471.9,-146.49 449,-160 333.88,-227.92 207.93,-325.14 152.25,-369.41"/>
<polygon fill="black" stroke="black" points="149.87,-366.83 144.24,-375.8 154.24,-372.3 149.87,-366.83"/>
<g id="a_edge25&#45;headlabel"><a xlink:href="dir_000001_000039.html" target="_top" xlink:title="1">
<text text-anchor="middle" x="150.91" y="-359.87" font-family="Helvetica,sans-Serif" font-size="10.00">1</text>
</a>
</g>
</g>
<!-- dir_4bb30ed846ea1df1fc4d16874a455d91&#45;&gt;dir_35ffb1505af3943bdf99903da87524fe -->
<g id="edge50" class="edge">
<title>dir_4bb30ed846ea1df1fc4d16874a455d91&#45;&gt;dir_35ffb1505af3943bdf99903da87524fe</title>
<path fill="none" stroke="black" d="M259.1,-412.05C267.19,-415.12 275.77,-417.98 284,-420 421.42,-453.78 589.66,-462.21 668.78,-464.31"/>
<polygon fill="black" stroke="black" points="668.81,-467.81 678.89,-464.56 668.98,-460.81 668.81,-467.81"/>
<g id="a_edge50&#45;headlabel"><a xlink:href="dir_000002_000032.html" target="_top" xlink:title="2">
<text text-anchor="middle" x="665.14" y="-468.06" font-family="Helvetica,sans-Serif" font-size="10.00">2</text>
</a>
</g>
</g>
<!-- dir_4bb30ed846ea1df1fc4d16874a455d91&#45;&gt;dir_9ff815a534beac751fa88e427dbab695 -->
<g id="edge51" class="edge">
<title>dir_4bb30ed846ea1df1fc4d16874a455d91&#45;&gt;dir_9ff815a534beac751fa88e427dbab695</title>
<path fill="none" stroke="black" d="M216.59,-375.85C207.06,-338.75 184.46,-250.81 172.97,-206.1"/>
<polygon fill="black" stroke="black" points="176.31,-205.05 170.43,-196.23 169.53,-206.79 176.31,-205.05"/>
<g id="a_edge51&#45;headlabel"><a xlink:href="dir_000002_000012.html" target="_top" xlink:title="4">
<text text-anchor="middle" x="179.95" y="-205.32" font-family="Helvetica,sans-Serif" font-size="10.00">4</text>
</a>
</g>
</g>
<!-- dir_4bb30ed846ea1df1fc4d16874a455d91&#45;&gt;dir_a816a247b59c90f95e41afe29b966a18 -->
<g id="edge52" class="edge">
<title>dir_4bb30ed846ea1df1fc4d16874a455d91&#45;&gt;dir_a816a247b59c90f95e41afe29b966a18</title>
<path fill="none" stroke="black" d="M236.62,-375.62C257.8,-350.19 293,-300.48 293,-251 293,-251 293,-251 293,-177 293,-62.83 472.31,-40.31 554.14,-35.97"/>
<polygon fill="black" stroke="black" points="554.49,-39.46 564.32,-35.5 554.16,-32.47 554.49,-39.46"/>
<g id="a_edge52&#45;headlabel"><a xlink:href="dir_000002_000028.html" target="_top" xlink:title="1">
<text text-anchor="middle" x="551.03" y="-39.96" font-family="Helvetica,sans-Serif" font-size="10.00">1</text>
</a>
</g>
</g>
<!-- dir_4bb30ed846ea1df1fc4d16874a455d91&#45;&gt;dir_e4cd57caa88bf1f4e1bf9521bc47c3c0 -->
<g id="edge53" class="edge">
<title>dir_4bb30ed846ea1df1fc4d16874a455d91&#45;&gt;dir_e4cd57caa88bf1f4e1bf9521bc47c3c0</title>
<path fill="none" stroke="black" d="M274.13,-377.95C277.45,-377.23 280.76,-376.57 284,-376 466.56,-343.87 524.35,-392.77 701.27,-341.51"/>
<polygon fill="black" stroke="black" points="702.29,-344.86 710.89,-338.67 700.31,-338.15 702.29,-344.86"/>
<g id="a_edge53&#45;headlabel"><a xlink:href="dir_000002_000014.html" target="_top" xlink:title="24">
<text text-anchor="middle" x="699.65" y="-346.11" font-family="Helvetica,sans-Serif" font-size="10.00">24</text>
</a>
</g>
</g>
<!-- dir_4bb30ed846ea1df1fc4d16874a455d91&#45;&gt;dir_ebb19deee3cd40f4ac122fef25c04ca8 -->
<g id="edge54" class="edge">
<title>dir_4bb30ed846ea1df1fc4d16874a455d91&#45;&gt;dir_ebb19deee3cd40f4ac122fef25c04ca8</title>
<path fill="none" stroke="black" d="M267.4,-375.9C292.74,-366.14 324.48,-353.25 352,-340 444.22,-295.62 547.82,-234.26 601.43,-201.6"/>
<polygon fill="black" stroke="black" points="603.52,-204.42 610.22,-196.22 599.87,-198.45 603.52,-204.42"/>
<g id="a_edge54&#45;headlabel"><a xlink:href="dir_000002_000016.html" target="_top" xlink:title="4">
<text text-anchor="middle" x="601.93" y="-206.22" font-family="Helvetica,sans-Serif" font-size="10.00">4</text>
</a>
</g>
</g>
<!-- dir_70329d5a297148af2b67b1d844b9f654 -->
<g id="node10" class="node">
<title>dir_70329d5a297148af2b67b1d844b9f654</title>
<g id="a_node10"><a xlink:href="dir_70329d5a297148af2b67b1d844b9f654.html" target="_top" xlink:title="density">
<polygon fill="white" stroke="black" points="623,-412 569,-412 569,-376 623,-376 623,-412"/>
<text text-anchor="middle" x="596" y="-391.5" font-family="Helvetica,sans-Serif" font-size="10.00">density</text>
</a>
</g>
</g>
<!-- dir_70329d5a297148af2b67b1d844b9f654&#45;&gt;dir_3d3615e9a999cab4f3407307569d6ced -->
<g id="edge5" class="edge">
<title>dir_70329d5a297148af2b67b1d844b9f654&#45;&gt;dir_3d3615e9a999cab4f3407307569d6ced</title>
<path fill="none" stroke="black" d="M610.68,-412.1C618.66,-420.47 629.28,-429.54 641,-434 664.68,-443 673.7,-441.16 698,-434 709.29,-430.67 720.46,-424.58 730.15,-418.14"/>
<polygon fill="black" stroke="black" points="732.42,-420.82 738.58,-412.19 728.39,-415.1 732.42,-420.82"/>
<g id="a_edge5&#45;headlabel"><a xlink:href="dir_000027_000024.html" target="_top" xlink:title="4">
<text text-anchor="middle" x="731.12" y="-422.71" font-family="Helvetica,sans-Serif" font-size="10.00">4</text>
</a>
</g>
</g>
<!-- dir_4012ff34c1bb5bd303e44a1c9cef6c8a&#45;&gt;dir_3d3615e9a999cab4f3407307569d6ced -->
<g id="edge36" class="edge">
<title>dir_4012ff34c1bb5bd303e44a1c9cef6c8a&#45;&gt;dir_3d3615e9a999cab4f3407307569d6ced</title>
<path fill="none" stroke="black" d="M695.31,-394C704.53,-394 713.75,-394 722.96,-394"/>
<polygon fill="black" stroke="black" points="722.96,-397.5 732.96,-394 722.96,-390.5 722.96,-397.5"/>
<g id="a_edge36&#45;headlabel"><a xlink:href="dir_000003_000024.html" target="_top" xlink:title="27">
<text text-anchor="middle" x="719.37" y="-397.84" font-family="Helvetica,sans-Serif" font-size="10.00">27</text>
</a>
</g>
</g>
<!-- dir_4012ff34c1bb5bd303e44a1c9cef6c8a&#45;&gt;dir_e4cd57caa88bf1f4e1bf9521bc47c3c0 -->
<g id="edge38" class="edge">
<title>dir_4012ff34c1bb5bd303e44a1c9cef6c8a&#45;&gt;dir_e4cd57caa88bf1f4e1bf9521bc47c3c0</title>
<path fill="none" stroke="black" d="M685.3,-375.7C693.86,-367.14 704.34,-356.66 713.7,-347.3"/>
<polygon fill="black" stroke="black" points="716.3,-349.65 720.9,-340.1 711.35,-344.7 716.3,-349.65"/>
<g id="a_edge38&#45;headlabel"><a xlink:href="dir_000003_000014.html" target="_top" xlink:title="16">
<text text-anchor="middle" x="715.77" y="-351.7" font-family="Helvetica,sans-Serif" font-size="10.00">16</text>
</a>
</g>
</g>
<!-- dir_4012ff34c1bb5bd303e44a1c9cef6c8a&#45;&gt;dir_ebb19deee3cd40f4ac122fef25c04ca8 -->
<g id="edge39" class="edge">
<title>dir_4012ff34c1bb5bd303e44a1c9cef6c8a&#45;&gt;dir_ebb19deee3cd40f4ac122fef25c04ca8</title>
<path fill="none" stroke="black" d="M640.88,-375.89C628.45,-366.7 614.61,-354.32 606,-340 589.12,-311.9 593.58,-300.58 590,-268 588.25,-252.1 584.24,-246.93 590,-232 594.1,-221.36 601.44,-211.53 609.17,-203.3"/>
<polygon fill="black" stroke="black" points="611.67,-205.75 616.29,-196.21 606.73,-200.78 611.67,-205.75"/>
<g id="a_edge39&#45;headlabel"><a xlink:href="dir_000003_000016.html" target="_top" xlink:title="1">
<text text-anchor="middle" x="611.12" y="-207.79" font-family="Helvetica,sans-Serif" font-size="10.00">1</text>
</a>
</g>
</g>
<!-- dir_4012ff34c1bb5bd303e44a1c9cef6c8a&#45;&gt;dir_f2c65bfcbdc19ebacbfc0bbbfb0d01b6 -->
<g id="edge41" class="edge">
<title>dir_4012ff34c1bb5bd303e44a1c9cef6c8a&#45;&gt;dir_f2c65bfcbdc19ebacbfc0bbbfb0d01b6</title>
<path fill="none" stroke="black" d="M651.78,-375.84C643.65,-366.12 634.6,-353.27 630,-340 623.13,-320.18 622.42,-296.38 623.27,-278.38"/>
<polygon fill="black" stroke="black" points="626.77,-278.48 623.93,-268.27 619.78,-278.02 626.77,-278.48"/>
<g id="a_edge41&#45;headlabel"><a xlink:href="dir_000003_000019.html" target="_top" xlink:title="3">
<text text-anchor="middle" x="629.36" y="-279.75" font-family="Helvetica,sans-Serif" font-size="10.00">3</text>
</a>
</g>
</g>
<!-- dir_4012ff34c1bb5bd303e44a1c9cef6c8a&#45;&gt;dir_0c368f76a33d967d5b838b5681461de6 -->
<g id="edge40" class="edge">
<title>dir_4012ff34c1bb5bd303e44a1c9cef6c8a&#45;&gt;dir_0c368f76a33d967d5b838b5681461de6</title>
<path fill="none" stroke="black" d="M695.01,-378.08C696.35,-377.37 697.69,-376.67 699,-376 731.89,-359.1 754.31,-371.29 774,-340 784.41,-323.45 777.61,-315.22 774,-296 762.02,-232.24 768.08,-204.63 721,-160 690.77,-131.35 644.76,-118.18 609.65,-112.13"/>
<polygon fill="black" stroke="black" points="610.03,-108.64 599.6,-110.54 608.93,-115.56 610.03,-108.64"/>
<g id="a_edge40&#45;headlabel"><a xlink:href="dir_000003_000001.html" target="_top" xlink:title="7">
<text text-anchor="middle" x="614.02" y="-103.9" font-family="Helvetica,sans-Serif" font-size="10.00">7</text>
</a>
</g>
</g>
<!-- dir_4012ff34c1bb5bd303e44a1c9cef6c8a&#45;&gt;dir_bfcf7e25e8a41bb3b30f8e11e2280479 -->
<g id="edge37" class="edge">
<title>dir_4012ff34c1bb5bd303e44a1c9cef6c8a&#45;&gt;dir_bfcf7e25e8a41bb3b30f8e11e2280479</title>
<path fill="none" stroke="black" d="M667.51,-375.7C667.29,-367.98 667.02,-358.71 666.77,-350.11"/>
<polygon fill="black" stroke="black" points="670.27,-350 666.49,-340.1 663.28,-350.2 670.27,-350"/>
<g id="a_edge37&#45;headlabel"><a xlink:href="dir_000003_000033.html" target="_top" xlink:title="3">
<text text-anchor="middle" x="673.21" y="-351.01" font-family="Helvetica,sans-Serif" font-size="10.00">3</text>
</a>
</g>
</g>
<!-- dir_ce0741f9b73f67c263a459724eeecf8b -->
<g id="node12" class="node">
<title>dir_ce0741f9b73f67c263a459724eeecf8b</title>
<g id="a_node12"><a xlink:href="dir_ce0741f9b73f67c263a459724eeecf8b.html" target="_top" xlink:title="levelset">
<polygon fill="white" stroke="black" points="551,-412 495,-412 495,-376 551,-376 551,-412"/>
<text text-anchor="middle" x="523" y="-391.5" font-family="Helvetica,sans-Serif" font-size="10.00">levelset</text>
</a>
</g>
</g>
<!-- dir_ce0741f9b73f67c263a459724eeecf8b&#45;&gt;dir_f2c65bfcbdc19ebacbfc0bbbfb0d01b6 -->
<g id="edge15" class="edge">
<title>dir_ce0741f9b73f67c263a459724eeecf8b&#45;&gt;dir_f2c65bfcbdc19ebacbfc0bbbfb0d01b6</title>
<path fill="none" stroke="black" d="M535.42,-375.87C553.37,-351.14 586.66,-305.24 607.49,-276.51"/>
<polygon fill="black" stroke="black" points="610.49,-278.34 613.53,-268.19 604.83,-274.23 610.49,-278.34"/>
<g id="a_edge15&#45;headlabel"><a xlink:href="dir_000041_000019.html" target="_top" xlink:title="1">
<text text-anchor="middle" x="610.68" y="-280.42" font-family="Helvetica,sans-Serif" font-size="10.00">1</text>
</a>
</g>
</g>
<!-- dir_102e906ba364e25c0f580e6fb606c52d -->
<g id="node13" class="node">
<title>dir_102e906ba364e25c0f580e6fb606c52d</title>
<g id="a_node13"><a xlink:href="dir_102e906ba364e25c0f580e6fb606c52d.html" target="_top" xlink:title="passive_scalar">
<polygon fill="white" stroke="black" points="381.5,-412 292.5,-412 292.5,-376 381.5,-376 381.5,-412"/>
<text text-anchor="middle" x="337" y="-391.5" font-family="Helvetica,sans-Serif" font-size="10.00">passive_scalar</text>
</a>
</g>
</g>
<!-- dir_9f8434f21d2c2598f33c85a8b98c6d56&#45;&gt;dir_3d3615e9a999cab4f3407307569d6ced -->
<g id="edge42" class="edge">
<title>dir_9f8434f21d2c2598f33c85a8b98c6d56&#45;&gt;dir_3d3615e9a999cab4f3407307569d6ced</title>
<path fill="none" stroke="black" d="M65.68,-412.1C73.66,-420.47 84.28,-429.54 96,-434 127.26,-445.89 665.92,-443.45 698,-434 709.29,-430.67 720.46,-424.58 730.15,-418.14"/>
<polygon fill="black" stroke="black" points="732.42,-420.82 738.58,-412.19 728.39,-415.1 732.42,-420.82"/>
<g id="a_edge42&#45;headlabel"><a xlink:href="dir_000050_000024.html" target="_top" xlink:title="6">
<text text-anchor="middle" x="731.12" y="-422.71" font-family="Helvetica,sans-Serif" font-size="10.00">6</text>
</a>
</g>
</g>
<!-- dir_9f8434f21d2c2598f33c85a8b98c6d56&#45;&gt;dir_9ff815a534beac751fa88e427dbab695 -->
<g id="edge43" class="edge">
<title>dir_9f8434f21d2c2598f33c85a8b98c6d56&#45;&gt;dir_9ff815a534beac751fa88e427dbab695</title>
<path fill="none" stroke="black" d="M53.42,-375.67C56.57,-355.87 63.01,-322.73 74,-296 86.67,-265.19 92.41,-258.18 113,-232 120.92,-221.93 130.58,-211.77 139.48,-203.07"/>
<polygon fill="black" stroke="black" points="141.91,-205.59 146.72,-196.15 137.07,-200.53 141.91,-205.59"/>
<g id="a_edge43&#45;headlabel"><a xlink:href="dir_000050_000012.html" target="_top" xlink:title="1">
<text text-anchor="middle" x="141.28" y="-207.63" font-family="Helvetica,sans-Serif" font-size="10.00">1</text>
</a>
</g>
</g>
<!-- dir_c96908905c9887b0bdc2167e5354d30c&#45;&gt;dir_3d3615e9a999cab4f3407307569d6ced -->
<g id="edge17" class="edge">
<title>dir_c96908905c9887b0bdc2167e5354d30c&#45;&gt;dir_3d3615e9a999cab4f3407307569d6ced</title>
<path fill="none" stroke="black" d="M457.46,-412.17C467.78,-420.57 481.17,-429.63 495,-434 538.02,-447.59 654.73,-446.75 698,-434 709.29,-430.67 720.46,-424.58 730.15,-418.14"/>
<polygon fill="black" stroke="black" points="732.42,-420.82 738.58,-412.19 728.39,-415.1 732.42,-420.82"/>
<g id="a_edge17&#45;headlabel"><a xlink:href="dir_000005_000024.html" target="_top" xlink:title="11">
<text text-anchor="middle" x="731.12" y="-422.71" font-family="Helvetica,sans-Serif" font-size="10.00">11</text>
</a>
</g>
</g>
<!-- dir_c96908905c9887b0bdc2167e5354d30c&#45;&gt;dir_e4cd57caa88bf1f4e1bf9521bc47c3c0 -->
<g id="edge18" class="edge">
<title>dir_c96908905c9887b0bdc2167e5354d30c&#45;&gt;dir_e4cd57caa88bf1f4e1bf9521bc47c3c0</title>
<path fill="none" stroke="black" d="M476.59,-378.66C479.75,-377.69 482.92,-376.79 486,-376 579.2,-352.11 610.8,-371.04 701.31,-341.74"/>
<polygon fill="black" stroke="black" points="702.48,-345.04 710.85,-338.54 700.25,-338.4 702.48,-345.04"/>
<g id="a_edge18&#45;headlabel"><a xlink:href="dir_000005_000014.html" target="_top" xlink:title="6">
<text text-anchor="middle" x="699.97" y="-346.37" font-family="Helvetica,sans-Serif" font-size="10.00">6</text>
</a>
</g>
</g>
<!-- dir_c96908905c9887b0bdc2167e5354d30c&#45;&gt;dir_0c368f76a33d967d5b838b5681461de6 -->
<g id="edge16" class="edge">
<title>dir_c96908905c9887b0bdc2167e5354d30c&#45;&gt;dir_0c368f76a33d967d5b838b5681461de6</title>
<path fill="none" stroke="black" d="M445.27,-375.97C465.73,-327.99 523.96,-191.5 548.68,-133.54"/>
<polygon fill="black" stroke="black" points="551.91,-134.88 552.62,-124.31 545.47,-132.13 551.91,-134.88"/>
<g id="a_edge16&#45;headlabel"><a xlink:href="dir_000005_000001.html" target="_top" xlink:title="4">
<text text-anchor="middle" x="553.11" y="-136.8" font-family="Helvetica,sans-Serif" font-size="10.00">4</text>
</a>
</g>
</g>
<!-- dir_be932497d8c26b6aa8596ee64638838f&#45;&gt;dir_3d3615e9a999cab4f3407307569d6ced -->
<g id="edge6" class="edge">
<title>dir_be932497d8c26b6aa8596ee64638838f&#45;&gt;dir_3d3615e9a999cab4f3407307569d6ced</title>
<path fill="none" stroke="black" d="M137.68,-412.1C145.66,-420.47 156.28,-429.54 168,-434 195.52,-444.46 669.76,-442.32 698,-434 709.29,-430.67 720.46,-424.58 730.15,-418.14"/>
<polygon fill="black" stroke="black" points="732.42,-420.82 738.58,-412.19 728.39,-415.1 732.42,-420.82"/>
<g id="a_edge6&#45;headlabel"><a xlink:href="dir_000039_000024.html" target="_top" xlink:title="6">
<text text-anchor="middle" x="731.12" y="-422.71" font-family="Helvetica,sans-Serif" font-size="10.00">6</text>
</a>
</g>
</g>
<!-- dir_be932497d8c26b6aa8596ee64638838f&#45;&gt;dir_9ff815a534beac751fa88e427dbab695 -->
<g id="edge7" class="edge">
<title>dir_be932497d8c26b6aa8596ee64638838f&#45;&gt;dir_9ff815a534beac751fa88e427dbab695</title>
<path fill="none" stroke="black" d="M124.67,-375.89C127.77,-346.26 135.3,-283.64 148,-232 150.11,-223.41 153,-214.23 155.84,-205.97"/>
<polygon fill="black" stroke="black" points="159.17,-207.04 159.23,-196.44 152.58,-204.69 159.17,-207.04"/>
<g id="a_edge7&#45;headlabel"><a xlink:href="dir_000039_000012.html" target="_top" xlink:title="2">
<text text-anchor="middle" x="160.64" y="-208.87" font-family="Helvetica,sans-Serif" font-size="10.00">2</text>
</a>
</g>
</g>
<!-- dir_bfcf7e25e8a41bb3b30f8e11e2280479&#45;&gt;dir_3d3615e9a999cab4f3407307569d6ced -->
<g id="edge45" class="edge">
<title>dir_bfcf7e25e8a41bb3b30f8e11e2280479&#45;&gt;dir_3d3615e9a999cab4f3407307569d6ced</title>
<path fill="none" stroke="black" d="M688.97,-340.1C700.88,-348.97 715.61,-359.94 728.56,-369.59"/>
<polygon fill="black" stroke="black" points="726.65,-372.53 736.76,-375.7 730.83,-366.92 726.65,-372.53"/>
<g id="a_edge45&#45;headlabel"><a xlink:href="dir_000033_000024.html" target="_top" xlink:title="2">
<text text-anchor="middle" x="722.07" y="-370.16" font-family="Helvetica,sans-Serif" font-size="10.00">2</text>
</a>
</g>
</g>
<!-- dir_bfcf7e25e8a41bb3b30f8e11e2280479&#45;&gt;dir_ebb19deee3cd40f4ac122fef25c04ca8 -->
<g id="edge46" class="edge">
<title>dir_bfcf7e25e8a41bb3b30f8e11e2280479&#45;&gt;dir_ebb19deee3cd40f4ac122fef25c04ca8</title>
<path fill="none" stroke="black" d="M667.14,-303.67C667.89,-285.54 667.84,-256.37 662,-232 659.84,-222.96 656.13,-213.58 652.26,-205.26"/>
<polygon fill="black" stroke="black" points="655.3,-203.5 647.74,-196.07 649.02,-206.59 655.3,-203.5"/>
<g id="a_edge46&#45;headlabel"><a xlink:href="dir_000033_000016.html" target="_top" xlink:title="1">
<text text-anchor="middle" x="659.43" y="-202.97" font-family="Helvetica,sans-Serif" font-size="10.00">1</text>
</a>
</g>
</g>
<!-- dir_bfcf7e25e8a41bb3b30f8e11e2280479&#45;&gt;dir_f2c65bfcbdc19ebacbfc0bbbfb0d01b6 -->
<g id="edge47" class="edge">
<title>dir_bfcf7e25e8a41bb3b30f8e11e2280479&#45;&gt;dir_f2c65bfcbdc19ebacbfc0bbbfb0d01b6</title>
<path fill="none" stroke="black" d="M650.2,-303.7C644.82,-295.73 639.1,-286.1 634.45,-277.26"/>
<polygon fill="black" stroke="black" points="637.47,-275.49 629.88,-268.1 631.21,-278.62 637.47,-275.49"/>
<g id="a_edge47&#45;headlabel"><a xlink:href="dir_000033_000019.html" target="_top" xlink:title="1">
<text text-anchor="middle" x="641.62" y="-274.94" font-family="Helvetica,sans-Serif" font-size="10.00">1</text>
</a>
</g>
</g>
</g>
</svg>
