<?xml version="1.0" encoding="UTF-8" standalone="no"?>
<!DOCTYPE svg PUBLIC "-//W3C//DTD SVG 1.1//EN"
 "http://www.w3.org/Graphics/SVG/1.1/DTD/svg11.dtd">
<!-- Generated by graphviz version 2.43.0 (0)
 -->
<!-- Title: helics.H Pages: 1 -->
<!--zoomable 252 -->
<svg id="main" version="1.1" xmlns="http://www.w3.org/2000/svg" xmlns:xlink="http://www.w3.org/1999/xlink" xml:space="preserve" onload="init(evt)">
<style type="text/css"><![CDATA[
.edge:hover path { stroke: red; }
.edge:hover polygon { stroke: red; fill: red; }
]]></style>
<script type="text/javascript"><![CDATA[
var edges = document.getElementsByTagName('g');
if (edges && edges.length) {
  for (var i=0;i<edges.length;i++) {
    if (edges[i].id.substr(0,4)=='edge') {
      edges[i].setAttribute('class','edge');
    }
  }
}
]]></script>
        <defs>
                <circle id="rim" cx="0" cy="0" r="7"/>
                <circle id="rim2" cx="0" cy="0" r="3.5"/>
                <g id="zoomPlus">
                        <use xlink:href="#rim" fill="#404040">
                                <set attributeName="fill" to="#808080" begin="zoomplus.mouseover" end="zoomplus.mouseout"/>
                        </use>
                        <path d="M-4,0h8M0,-4v8" fill="none" stroke="white" stroke-width="1.5" pointer-events="none"/>
                </g>
                <g id="zoomMin">
                        <use xlink:href="#rim" fill="#404040">
                                <set attributeName="fill" to="#808080" begin="zoomminus.mouseover" end="zoomminus.mouseout"/>
                        </use>
                        <path d="M-4,0h8" fill="none" stroke="white" stroke-width="1.5" pointer-events="none"/>
                </g>
                <g id="dirArrow">
                        <path fill="none" stroke="white" stroke-width="1.5" d="M0,-3.0v7 M-2.5,-0.5L0,-3.0L2.5,-0.5"/>
                </g>
               <g id="resetDef">
                       <use xlink:href="#rim2" fill="#404040">
                               <set attributeName="fill" to="#808080" begin="reset.mouseover" end="reset.mouseout"/>
                       </use>
               </g>
        </defs>

<script type="text/javascript">
var viewWidth = 4887;
var viewHeight = 252;
var sectionId = 'dynsection-1';
</script>
<script xlink:href="svgpan.js"/>
<svg id="graph" class="graph">
<g id="viewport">
<title>helics.H</title>
<polygon fill="white" stroke="transparent" points="-4,4 -4,-248 4882.5,-248 4882.5,4 -4,4"/>
<!-- Node1 -->
<g id="node1" class="node">
<title>Node1</title>
<g id="a_node1"><a xlink:title=" ">
<polygon fill="#bfbfbf" stroke="black" points="2557.5,-224.5 2557.5,-243.5 2613.5,-243.5 2613.5,-224.5 2557.5,-224.5"/>
<text text-anchor="middle" x="2585.5" y="-231.5" font-family="Helvetica,sans-Serif" font-size="10.00">helics.H</text>
</a>
</g>
</g>
<!-- Node2 -->
<g id="node2" class="node">
<title>Node2</title>
<g id="a_node2"><a xlink:href="_c_f_d_sim_8_h.html" target="_top" xlink:title=" ">
<polygon fill="white" stroke="red" points="2552.5,-168.5 2552.5,-187.5 2618.5,-187.5 2618.5,-168.5 2552.5,-168.5"/>
<text text-anchor="middle" x="2585.5" y="-175.5" font-family="Helvetica,sans-Serif" font-size="10.00">CFDSim.H</text>
</a>
</g>
</g>
<!-- Node1&#45;&gt;Node2 -->
<g id="edge1" class="edge">
<title>Node1&#45;&gt;Node2</title>
<path fill="none" stroke="midnightblue" d="M2579.03,-214.1C2578.4,-205.14 2578.84,-194.86 2580.37,-187.75"/>
<polygon fill="midnightblue" stroke="midnightblue" points="2575.57,-214.62 2580.33,-224.08 2582.51,-213.71 2575.57,-214.62"/>
</g>
<!-- Node175 -->
<g id="node50" class="node">
<title>Node175</title>
<g id="a_node50"><a xlink:href="helics_8cpp.html" target="_top" xlink:title=" ">
<polygon fill="white" stroke="black" points="2637,-168.5 2637,-187.5 2702,-187.5 2702,-168.5 2637,-168.5"/>
<text text-anchor="middle" x="2669.5" y="-175.5" font-family="Helvetica,sans-Serif" font-size="10.00">helics.cpp</text>
</a>
</g>
</g>
<!-- Node1&#45;&gt;Node175 -->
<g id="edge59" class="edge">
<title>Node1&#45;&gt;Node175</title>
<path fill="none" stroke="midnightblue" d="M2607.43,-218.9C2622.84,-209 2642.95,-196.07 2656.04,-187.65"/>
<polygon fill="midnightblue" stroke="midnightblue" points="2605.52,-215.97 2599,-224.32 2609.3,-221.86 2605.52,-215.97"/>
</g>
<!-- Node2&#45;&gt;Node1 -->
<g id="edge31" class="edge">
<title>Node2&#45;&gt;Node1</title>
<path fill="none" stroke="midnightblue" d="M2591.96,-197.69C2592.61,-206.64 2592.18,-216.93 2590.67,-224.08"/>
<polygon fill="midnightblue" stroke="midnightblue" points="2595.42,-197.2 2590.63,-187.75 2588.48,-198.13 2595.42,-197.2"/>
</g>
<!-- Node3 -->
<g id="node3" class="node">
<title>Node3</title>
<g id="a_node3"><a xlink:href="_wall_function_8_h.html" target="_top" xlink:title=" ">
<polygon fill="white" stroke="red" points="80,-112.5 80,-131.5 169,-131.5 169,-112.5 80,-112.5"/>
<text text-anchor="middle" x="124.5" y="-119.5" font-family="Helvetica,sans-Serif" font-size="10.00">WallFunction.H</text>
</a>
</g>
</g>
<!-- Node2&#45;&gt;Node3 -->
<g id="edge2" class="edge">
<title>Node2&#45;&gt;Node3</title>
<path fill="none" stroke="midnightblue" d="M2542.01,-177.06C2257.91,-177.31 663.11,-176.67 178.5,-132 175.47,-131.72 172.36,-131.37 169.22,-130.97"/>
<polygon fill="midnightblue" stroke="midnightblue" points="2542.32,-180.56 2552.31,-177.05 2542.31,-173.56 2542.32,-180.56"/>
</g>
<!-- Node5 -->
<g id="node4" class="node">
<title>Node5</title>
<g id="a_node4"><a xlink:href="_channel_flow_8_h.html" target="_top" xlink:title=" ">
<polygon fill="white" stroke="black" points="42,-56.5 42,-75.5 131,-75.5 131,-56.5 42,-56.5"/>
<text text-anchor="middle" x="86.5" y="-63.5" font-family="Helvetica,sans-Serif" font-size="10.00">ChannelFlow.H</text>
</a>
</g>
</g>
<!-- Node2&#45;&gt;Node5 -->
<g id="edge44" class="edge">
<title>Node2&#45;&gt;Node5</title>
<path fill="none" stroke="midnightblue" d="M2542.42,-177.06C2213.83,-177.42 115.63,-177.94 70.5,-132 55.52,-116.74 70.34,-89.84 79.86,-75.91"/>
<polygon fill="midnightblue" stroke="midnightblue" points="2542.49,-180.56 2552.49,-177.05 2542.48,-173.56 2542.49,-180.56"/>
</g>
<!-- Node6 -->
<g id="node5" class="node">
<title>Node6</title>
<g id="a_node5"><a xlink:href="_channel_flow_8cpp.html" target="_top" xlink:title=" ">
<polygon fill="white" stroke="black" points="0,-0.5 0,-19.5 99,-19.5 99,-0.5 0,-0.5"/>
<text text-anchor="middle" x="49.5" y="-7.5" font-family="Helvetica,sans-Serif" font-size="10.00">ChannelFlow.cpp</text>
</a>
</g>
</g>
<!-- Node2&#45;&gt;Node6 -->
<g id="edge43" class="edge">
<title>Node2&#45;&gt;Node6</title>
<path fill="none" stroke="midnightblue" d="M2542.42,-176.85C2213.82,-175.63 115.19,-166.48 60.5,-132 30.05,-112.8 26.03,-91.41 32.5,-56 34.9,-42.86 40.94,-28.56 45.13,-19.69"/>
<polygon fill="midnightblue" stroke="midnightblue" points="2542.48,-180.35 2552.49,-176.89 2542.5,-173.35 2542.48,-180.35"/>
</g>
<!-- Node7 -->
<g id="node6" class="node">
<title>Node7</title>
<g id="a_node6"><a xlink:href="_c_f_d_sim_8cpp.html" target="_top" xlink:title=" ">
<polygon fill="white" stroke="black" points="187.5,-112.5 187.5,-131.5 263.5,-131.5 263.5,-112.5 187.5,-112.5"/>
<text text-anchor="middle" x="225.5" y="-119.5" font-family="Helvetica,sans-Serif" font-size="10.00">CFDSim.cpp</text>
</a>
</g>
</g>
<!-- Node2&#45;&gt;Node7 -->
<g id="edge5" class="edge">
<title>Node2&#45;&gt;Node7</title>
<path fill="none" stroke="midnightblue" d="M2542.38,-177.16C2265.73,-178.04 736.89,-180.62 272.5,-132 269.61,-131.7 266.63,-131.31 263.64,-130.86"/>
<polygon fill="midnightblue" stroke="midnightblue" points="2542.44,-180.66 2552.43,-177.13 2542.42,-173.66 2542.44,-180.66"/>
</g>
<!-- Node8 -->
<g id="node7" class="node">
<title>Node8</title>
<g id="a_node7"><a xlink:href="_mesh_map_8cpp.html" target="_top" xlink:title=" ">
<polygon fill="white" stroke="black" points="281.5,-112.5 281.5,-131.5 365.5,-131.5 365.5,-112.5 281.5,-112.5"/>
<text text-anchor="middle" x="323.5" y="-119.5" font-family="Helvetica,sans-Serif" font-size="10.00">MeshMap.cpp</text>
</a>
</g>
</g>
<!-- Node2&#45;&gt;Node8 -->
<g id="edge6" class="edge">
<title>Node2&#45;&gt;Node8</title>
<path fill="none" stroke="midnightblue" d="M2542.19,-177.03C2272.25,-177.09 817.56,-175.34 374.5,-132 371.64,-131.72 368.69,-131.37 365.73,-130.97"/>
<polygon fill="midnightblue" stroke="midnightblue" points="2542.37,-180.53 2552.37,-177.03 2542.37,-173.53 2542.37,-180.53"/>
</g>
<!-- Node9 -->
<g id="node8" class="node">
<title>Node9</title>
<g id="a_node8"><a xlink:href="_a_b_l_forcing_8cpp.html" target="_top" xlink:title=" ">
<polygon fill="white" stroke="black" points="384,-112.5 384,-131.5 475,-131.5 475,-112.5 384,-112.5"/>
<text text-anchor="middle" x="429.5" y="-119.5" font-family="Helvetica,sans-Serif" font-size="10.00">ABLForcing.cpp</text>
</a>
</g>
</g>
<!-- Node2&#45;&gt;Node9 -->
<g id="edge7" class="edge">
<title>Node2&#45;&gt;Node9</title>
<path fill="none" stroke="midnightblue" d="M2541.89,-176.9C2279.17,-176.19 904.43,-170.66 484.5,-132 481.42,-131.72 478.25,-131.36 475.06,-130.96"/>
<polygon fill="midnightblue" stroke="midnightblue" points="2542.16,-180.4 2552.17,-176.93 2542.18,-173.4 2542.16,-180.4"/>
</g>
<!-- Node10 -->
<g id="node9" class="node">
<title>Node10</title>
<g id="a_node9"><a xlink:href="_a_b_l_mean_boussinesq_8cpp.html" target="_top" xlink:title=" ">
<polygon fill="white" stroke="black" points="493.5,-112.5 493.5,-131.5 631.5,-131.5 631.5,-112.5 493.5,-112.5"/>
<text text-anchor="middle" x="562.5" y="-119.5" font-family="Helvetica,sans-Serif" font-size="10.00">ABLMeanBoussinesq.cpp</text>
</a>
</g>
</g>
<!-- Node2&#45;&gt;Node10 -->
<g id="edge8" class="edge">
<title>Node2&#45;&gt;Node10</title>
<path fill="none" stroke="midnightblue" d="M2542.01,-176.54C2291.32,-173.79 1028.33,-158.8 640.5,-132 637.64,-131.8 634.73,-131.58 631.79,-131.33"/>
<polygon fill="midnightblue" stroke="midnightblue" points="2542.15,-180.04 2552.18,-176.65 2542.22,-173.04 2542.15,-180.04"/>
</g>
<!-- Node11 -->
<g id="node10" class="node">
<title>Node11</title>
<g id="a_node10"><a xlink:href="_a_b_l_meso_forcing_mom_8cpp.html" target="_top" xlink:title=" ">
<polygon fill="white" stroke="black" points="649.5,-112.5 649.5,-131.5 791.5,-131.5 791.5,-112.5 649.5,-112.5"/>
<text text-anchor="middle" x="720.5" y="-119.5" font-family="Helvetica,sans-Serif" font-size="10.00">ABLMesoForcingMom.cpp</text>
</a>
</g>
</g>
<!-- Node2&#45;&gt;Node11 -->
<g id="edge9" class="edge">
<title>Node2&#45;&gt;Node11</title>
<path fill="none" stroke="midnightblue" d="M2542.24,-177.29C2343.06,-178.35 1494.37,-179.69 800.5,-132 797.57,-131.8 794.59,-131.57 791.57,-131.32"/>
<polygon fill="midnightblue" stroke="midnightblue" points="2542.32,-180.79 2552.3,-177.24 2542.28,-173.79 2542.32,-180.79"/>
</g>
<!-- Node12 -->
<g id="node11" class="node">
<title>Node12</title>
<g id="a_node11"><a xlink:href="_actuator_forcing_8cpp.html" target="_top" xlink:title=" ">
<polygon fill="white" stroke="black" points="810,-112.5 810,-131.5 923,-131.5 923,-112.5 810,-112.5"/>
<text text-anchor="middle" x="866.5" y="-119.5" font-family="Helvetica,sans-Serif" font-size="10.00">ActuatorForcing.cpp</text>
</a>
</g>
</g>
<!-- Node2&#45;&gt;Node12 -->
<g id="edge10" class="edge">
<title>Node2&#45;&gt;Node12</title>
<path fill="none" stroke="midnightblue" d="M2542.23,-176.46C2315.09,-173.51 1258.7,-158.6 932.5,-132 929.5,-131.76 926.43,-131.47 923.34,-131.15"/>
<polygon fill="midnightblue" stroke="midnightblue" points="2542.36,-179.96 2552.41,-176.59 2542.45,-172.96 2542.36,-179.96"/>
</g>
<!-- Node13 -->
<g id="node12" class="node">
<title>Node13</title>
<g id="a_node12"><a xlink:href="icns_2source__terms_2_body_force_8cpp.html" target="_top" xlink:title=" ">
<polygon fill="white" stroke="black" points="941.5,-112.5 941.5,-131.5 1029.5,-131.5 1029.5,-112.5 941.5,-112.5"/>
<text text-anchor="middle" x="985.5" y="-119.5" font-family="Helvetica,sans-Serif" font-size="10.00">BodyForce.cpp</text>
</a>
</g>
</g>
<!-- Node2&#45;&gt;Node13 -->
<g id="edge11" class="edge">
<title>Node2&#45;&gt;Node13</title>
<path fill="none" stroke="midnightblue" d="M2542.22,-176.56C2323.89,-174.19 1342.02,-162.04 1038.5,-132 1035.62,-131.72 1032.66,-131.37 1029.68,-130.98"/>
<polygon fill="midnightblue" stroke="midnightblue" points="2542.29,-180.06 2552.32,-176.66 2542.36,-173.06 2542.29,-180.06"/>
</g>
<!-- Node14 -->
<g id="node13" class="node">
<title>Node14</title>
<g id="a_node13"><a xlink:href="_boussinesq_buoyancy_8cpp.html" target="_top" xlink:title=" ">
<polygon fill="white" stroke="black" points="1048,-112.5 1048,-131.5 1187,-131.5 1187,-112.5 1048,-112.5"/>
<text text-anchor="middle" x="1117.5" y="-119.5" font-family="Helvetica,sans-Serif" font-size="10.00">BoussinesqBuoyancy.cpp</text>
</a>
</g>
</g>
<!-- Node2&#45;&gt;Node14 -->
<g id="edge12" class="edge">
<title>Node2&#45;&gt;Node14</title>
<path fill="none" stroke="midnightblue" d="M2542.15,-176.76C2371.4,-175.57 1728.86,-168.77 1201.5,-132 1196.82,-131.67 1191.99,-131.29 1187.14,-130.86"/>
<polygon fill="midnightblue" stroke="midnightblue" points="2542.23,-180.26 2552.25,-176.83 2542.27,-173.26 2542.23,-180.26"/>
</g>
<!-- Node15 -->
<g id="node14" class="node">
<title>Node15</title>
<g id="a_node14"><a xlink:href="_burggraf_flow_forcing_8cpp.html" target="_top" xlink:title=" ">
<polygon fill="white" stroke="black" points="3028,-56.5 3028,-75.5 3165,-75.5 3165,-56.5 3028,-56.5"/>
<text text-anchor="middle" x="3096.5" y="-63.5" font-family="Helvetica,sans-Serif" font-size="10.00">BurggrafFlowForcing.cpp</text>
</a>
</g>
</g>
<!-- Node2&#45;&gt;Node15 -->
<g id="edge13" class="edge">
<title>Node2&#45;&gt;Node15</title>
<path fill="none" stroke="midnightblue" d="M2542.33,-174.53C2479.57,-169.46 2374.71,-154.5 2414.5,-112 2455.78,-67.9 2862.88,-65.49 3027.73,-66.34"/>
<polygon fill="midnightblue" stroke="midnightblue" points="2542.15,-178.03 2552.39,-175.29 2542.68,-171.05 2542.15,-178.03"/>
</g>
<!-- Node16 -->
<g id="node15" class="node">
<title>Node16</title>
<g id="a_node15"><a xlink:href="_coriolis_forcing_8cpp.html" target="_top" xlink:title=" ">
<polygon fill="white" stroke="black" points="1244,-112.5 1244,-131.5 1353,-131.5 1353,-112.5 1244,-112.5"/>
<text text-anchor="middle" x="1298.5" y="-119.5" font-family="Helvetica,sans-Serif" font-size="10.00">CoriolisForcing.cpp</text>
</a>
</g>
</g>
<!-- Node2&#45;&gt;Node16 -->
<g id="edge14" class="edge">
<title>Node2&#45;&gt;Node16</title>
<path fill="none" stroke="midnightblue" d="M2542.04,-177.05C2383.6,-176.89 1822.16,-173.26 1361.5,-132 1358.75,-131.75 1355.93,-131.47 1353.09,-131.16"/>
<polygon fill="midnightblue" stroke="midnightblue" points="2542.31,-180.55 2552.31,-177.06 2542.32,-173.55 2542.31,-180.55"/>
</g>
<!-- Node17 -->
<g id="node16" class="node">
<title>Node17</title>
<g id="a_node16"><a xlink:href="_density_buoyancy_8cpp.html" target="_top" xlink:title=" ">
<polygon fill="white" stroke="black" points="1371,-112.5 1371,-131.5 1492,-131.5 1492,-112.5 1371,-112.5"/>
<text text-anchor="middle" x="1431.5" y="-119.5" font-family="Helvetica,sans-Serif" font-size="10.00">DensityBuoyancy.cpp</text>
</a>
</g>
</g>
<!-- Node2&#45;&gt;Node17 -->
<g id="edge15" class="edge">
<title>Node2&#45;&gt;Node17</title>
<path fill="none" stroke="midnightblue" d="M2541.74,-176.57C2394.57,-174.83 1904.12,-166.62 1500.5,-132 1497.73,-131.76 1494.9,-131.5 1492.05,-131.2"/>
<polygon fill="midnightblue" stroke="midnightblue" points="2542.1,-180.07 2552.14,-176.69 2542.18,-173.07 2542.1,-180.07"/>
</g>
<!-- Node18 -->
<g id="node17" class="node">
<title>Node18</title>
<g id="a_node17"><a xlink:href="_geostrophic_forcing_8cpp.html" target="_top" xlink:title=" ">
<polygon fill="white" stroke="black" points="1510,-112.5 1510,-131.5 1641,-131.5 1641,-112.5 1510,-112.5"/>
<text text-anchor="middle" x="1575.5" y="-119.5" font-family="Helvetica,sans-Serif" font-size="10.00">GeostrophicForcing.cpp</text>
</a>
</g>
</g>
<!-- Node2&#45;&gt;Node18 -->
<g id="edge16" class="edge">
<title>Node2&#45;&gt;Node18</title>
<path fill="none" stroke="midnightblue" d="M2542.12,-176.01C2408.81,-172.74 1993.44,-160.79 1650.5,-132 1647.49,-131.75 1644.42,-131.47 1641.32,-131.17"/>
<polygon fill="midnightblue" stroke="midnightblue" points="2542.24,-179.52 2552.32,-176.26 2542.41,-172.52 2542.24,-179.52"/>
</g>
<!-- Node19 -->
<g id="node18" class="node">
<title>Node19</title>
<g id="a_node18"><a xlink:href="_gravity_forcing_8cpp.html" target="_top" xlink:title=" ">
<polygon fill="white" stroke="black" points="1659.5,-112.5 1659.5,-131.5 1767.5,-131.5 1767.5,-112.5 1659.5,-112.5"/>
<text text-anchor="middle" x="1713.5" y="-119.5" font-family="Helvetica,sans-Serif" font-size="10.00">GravityForcing.cpp</text>
</a>
</g>
</g>
<!-- Node2&#45;&gt;Node19 -->
<g id="edge17" class="edge">
<title>Node2&#45;&gt;Node19</title>
<path fill="none" stroke="midnightblue" d="M2541.93,-175.9C2420.48,-172.55 2067.97,-160.87 1776.5,-132 1773.64,-131.72 1770.71,-131.4 1767.76,-131.05"/>
<polygon fill="midnightblue" stroke="midnightblue" points="2542.19,-179.41 2552.29,-176.18 2542.38,-172.41 2542.19,-179.41"/>
</g>
<!-- Node20 -->
<g id="node19" class="node">
<title>Node20</title>
<g id="a_node19"><a xlink:href="_hurricane_forcing_8cpp.html" target="_top" xlink:title=" ">
<polygon fill="white" stroke="black" points="1786,-112.5 1786,-131.5 1905,-131.5 1905,-112.5 1786,-112.5"/>
<text text-anchor="middle" x="1845.5" y="-119.5" font-family="Helvetica,sans-Serif" font-size="10.00">HurricaneForcing.cpp</text>
</a>
</g>
</g>
<!-- Node2&#45;&gt;Node20 -->
<g id="edge18" class="edge">
<title>Node2&#45;&gt;Node20</title>
<path fill="none" stroke="midnightblue" d="M2542.21,-175.04C2435.41,-170 2150.92,-155.32 1914.5,-132 1911.49,-131.7 1908.42,-131.38 1905.31,-131.04"/>
<polygon fill="midnightblue" stroke="midnightblue" points="2542.12,-178.54 2552.28,-175.51 2542.45,-171.55 2542.12,-178.54"/>
</g>
<!-- Node21 -->
<g id="node20" class="node">
<title>Node21</title>
<g id="a_node20"><a xlink:href="_rayleigh_damping_8cpp.html" target="_top" xlink:title=" ">
<polygon fill="white" stroke="black" points="1923.5,-112.5 1923.5,-131.5 2047.5,-131.5 2047.5,-112.5 1923.5,-112.5"/>
<text text-anchor="middle" x="1985.5" y="-119.5" font-family="Helvetica,sans-Serif" font-size="10.00">RayleighDamping.cpp</text>
</a>
</g>
</g>
<!-- Node2&#45;&gt;Node21 -->
<g id="edge19" class="edge">
<title>Node2&#45;&gt;Node21</title>
<path fill="none" stroke="midnightblue" d="M2542.2,-173.92C2451.83,-167.37 2236.58,-151.07 2056.5,-132 2053.66,-131.7 2050.75,-131.38 2047.82,-131.05"/>
<polygon fill="midnightblue" stroke="midnightblue" points="2542.11,-177.43 2552.34,-174.66 2542.62,-170.45 2542.11,-177.43"/>
</g>
<!-- Node22 -->
<g id="node21" class="node">
<title>Node22</title>
<g id="a_node21"><a xlink:href="_synth_turb_forcing_8cpp.html" target="_top" xlink:title=" ">
<polygon fill="white" stroke="black" points="2065.5,-112.5 2065.5,-131.5 2185.5,-131.5 2185.5,-112.5 2065.5,-112.5"/>
<text text-anchor="middle" x="2125.5" y="-119.5" font-family="Helvetica,sans-Serif" font-size="10.00">SynthTurbForcing.cpp</text>
</a>
</g>
</g>
<!-- Node2&#45;&gt;Node22 -->
<g id="edge20" class="edge">
<title>Node2&#45;&gt;Node22</title>
<path fill="none" stroke="midnightblue" d="M2542.19,-172.23C2470.05,-164.24 2320.71,-147.49 2194.5,-132 2191.62,-131.65 2188.68,-131.28 2185.7,-130.91"/>
<polygon fill="midnightblue" stroke="midnightblue" points="2541.94,-175.73 2552.27,-173.35 2542.71,-168.77 2541.94,-175.73"/>
</g>
<!-- Node23 -->
<g id="node22" class="node">
<title>Node23</title>
<g id="a_node22"><a xlink:href="_p_d_e_8_h.html" target="_top" xlink:title=" ">
<polygon fill="white" stroke="red" points="1702,-56.5 1702,-75.5 1749,-75.5 1749,-56.5 1702,-56.5"/>
<text text-anchor="middle" x="1725.5" y="-63.5" font-family="Helvetica,sans-Serif" font-size="10.00">PDE.H</text>
</a>
</g>
</g>
<!-- Node2&#45;&gt;Node23 -->
<g id="edge21" class="edge">
<title>Node2&#45;&gt;Node23</title>
<path fill="none" stroke="midnightblue" d="M2542.24,-177.23C2316.36,-178.21 1281,-180.08 1234.5,-132 1167.4,-62.62 1595.59,-64.94 1701.98,-66.56"/>
<polygon fill="midnightblue" stroke="midnightblue" points="2542.39,-180.73 2552.37,-177.18 2542.36,-173.73 2542.39,-180.73"/>
</g>
<!-- Node62 -->
<g id="node23" class="node">
<title>Node62</title>
<g id="a_node23"><a xlink:href="_p_d_e_base_8cpp.html" target="_top" xlink:title=" ">
<polygon fill="white" stroke="black" points="2287.5,-112.5 2287.5,-131.5 2367.5,-131.5 2367.5,-112.5 2287.5,-112.5"/>
<text text-anchor="middle" x="2327.5" y="-119.5" font-family="Helvetica,sans-Serif" font-size="10.00">PDEBase.cpp</text>
</a>
</g>
</g>
<!-- Node2&#45;&gt;Node62 -->
<g id="edge22" class="edge">
<title>Node2&#45;&gt;Node62</title>
<path fill="none" stroke="midnightblue" d="M2542.39,-167.98C2493.75,-157.8 2415.23,-141.36 2367.78,-131.43"/>
<polygon fill="midnightblue" stroke="midnightblue" points="2541.79,-171.43 2552.3,-170.05 2543.23,-164.58 2541.79,-171.43"/>
</g>
<!-- Node63 -->
<g id="node24" class="node">
<title>Node63</title>
<g id="a_node24"><a xlink:href="_p_d_e_ops_8_h.html" target="_top" xlink:title=" ">
<polygon fill="white" stroke="red" points="2204,-112.5 2204,-131.5 2269,-131.5 2269,-112.5 2204,-112.5"/>
<text text-anchor="middle" x="2236.5" y="-119.5" font-family="Helvetica,sans-Serif" font-size="10.00">PDEOps.H</text>
</a>
</g>
</g>
<!-- Node2&#45;&gt;Node63 -->
<g id="edge23" class="edge">
<title>Node2&#45;&gt;Node63</title>
<path fill="none" stroke="midnightblue" d="M2542.05,-171.54C2482.43,-163.85 2372.02,-148.86 2278.5,-132 2275.42,-131.44 2272.22,-130.83 2269.02,-130.19"/>
<polygon fill="midnightblue" stroke="midnightblue" points="2541.86,-175.05 2552.22,-172.85 2542.75,-168.1 2541.86,-175.05"/>
</g>
<!-- Node73 -->
<g id="node25" class="node">
<title>Node73</title>
<g id="a_node25"><a xlink:href="_s_d_r_src_8cpp.html" target="_top" xlink:title=" ">
<polygon fill="white" stroke="black" points="2423.5,-112.5 2423.5,-131.5 2495.5,-131.5 2495.5,-112.5 2423.5,-112.5"/>
<text text-anchor="middle" x="2459.5" y="-119.5" font-family="Helvetica,sans-Serif" font-size="10.00">SDRSrc.cpp</text>
</a>
</g>
</g>
<!-- Node2&#45;&gt;Node73 -->
<g id="edge25" class="edge">
<title>Node2&#45;&gt;Node73</title>
<path fill="none" stroke="midnightblue" d="M2556.34,-164.5C2532.72,-154.38 2500.07,-140.39 2479.37,-131.52"/>
<polygon fill="midnightblue" stroke="midnightblue" points="2554.96,-167.72 2565.53,-168.44 2557.72,-161.29 2554.96,-167.72"/>
</g>
<!-- Node74 -->
<g id="node26" class="node">
<title>Node74</title>
<g id="a_node26"><a xlink:href="_a_b_l_meso_forcing_temp_8cpp.html" target="_top" xlink:title=" ">
<polygon fill="white" stroke="black" points="2514,-112.5 2514,-131.5 2657,-131.5 2657,-112.5 2514,-112.5"/>
<text text-anchor="middle" x="2585.5" y="-119.5" font-family="Helvetica,sans-Serif" font-size="10.00">ABLMesoForcingTemp.cpp</text>
</a>
</g>
</g>
<!-- Node2&#45;&gt;Node74 -->
<g id="edge26" class="edge">
<title>Node2&#45;&gt;Node74</title>
<path fill="none" stroke="midnightblue" d="M2585.5,-157.8C2585.5,-148.91 2585.5,-138.78 2585.5,-131.75"/>
<polygon fill="midnightblue" stroke="midnightblue" points="2582,-158.08 2585.5,-168.08 2589,-158.08 2582,-158.08"/>
</g>
<!-- Node75 -->
<g id="node27" class="node">
<title>Node75</title>
<g id="a_node27"><a xlink:href="temperature_2source__terms_2_body_force_8cpp.html" target="_top" xlink:title=" ">
<polygon fill="white" stroke="black" points="2675.5,-112.5 2675.5,-131.5 2763.5,-131.5 2763.5,-112.5 2675.5,-112.5"/>
<text text-anchor="middle" x="2719.5" y="-119.5" font-family="Helvetica,sans-Serif" font-size="10.00">BodyForce.cpp</text>
</a>
</g>
</g>
<!-- Node2&#45;&gt;Node75 -->
<g id="edge27" class="edge">
<title>Node2&#45;&gt;Node75</title>
<path fill="none" stroke="midnightblue" d="M2616.18,-164.64C2641.32,-154.5 2676.25,-140.43 2698.37,-131.52"/>
<polygon fill="midnightblue" stroke="midnightblue" points="2614.7,-161.46 2606.73,-168.44 2617.32,-167.95 2614.7,-161.46"/>
</g>
<!-- Node76 -->
<g id="node28" class="node">
<title>Node76</title>
<g id="a_node28"><a xlink:href="_hurricane_temp_forcing_8cpp.html" target="_top" xlink:title=" ">
<polygon fill="white" stroke="black" points="2781.5,-112.5 2781.5,-131.5 2927.5,-131.5 2927.5,-112.5 2781.5,-112.5"/>
<text text-anchor="middle" x="2854.5" y="-119.5" font-family="Helvetica,sans-Serif" font-size="10.00">HurricaneTempForcing.cpp</text>
</a>
</g>
</g>
<!-- Node2&#45;&gt;Node76 -->
<g id="edge28" class="edge">
<title>Node2&#45;&gt;Node76</title>
<path fill="none" stroke="midnightblue" d="M2628.71,-167.77C2697.9,-153.55 2766.9,-140 2810.52,-131.51"/>
<polygon fill="midnightblue" stroke="midnightblue" points="2627.59,-164.43 2618.5,-169.88 2629.01,-171.29 2627.59,-164.43"/>
</g>
<!-- Node77 -->
<g id="node29" class="node">
<title>Node77</title>
<g id="a_node29"><a xlink:href="_ksgs_m84_src_8cpp.html" target="_top" xlink:title=" ">
<polygon fill="white" stroke="black" points="2945.5,-112.5 2945.5,-131.5 3041.5,-131.5 3041.5,-112.5 2945.5,-112.5"/>
<text text-anchor="middle" x="2993.5" y="-119.5" font-family="Helvetica,sans-Serif" font-size="10.00">KsgsM84Src.cpp</text>
</a>
</g>
</g>
<!-- Node2&#45;&gt;Node77 -->
<g id="edge29" class="edge">
<title>Node2&#45;&gt;Node77</title>
<path fill="none" stroke="midnightblue" d="M2628.93,-167.9C2765.64,-145.72 2802.73,-150.35 2936.5,-132 2939.38,-131.61 2942.34,-131.18 2945.32,-130.75"/>
<polygon fill="midnightblue" stroke="midnightblue" points="2628.22,-164.47 2618.92,-169.54 2629.35,-171.37 2628.22,-164.47"/>
</g>
<!-- Node78 -->
<g id="node30" class="node">
<title>Node78</title>
<g id="a_node30"><a xlink:href="_kw_s_s_t_src_8cpp.html" target="_top" xlink:title=" ">
<polygon fill="white" stroke="black" points="3060,-112.5 3060,-131.5 3145,-131.5 3145,-112.5 3060,-112.5"/>
<text text-anchor="middle" x="3102.5" y="-119.5" font-family="Helvetica,sans-Serif" font-size="10.00">KwSSTSrc.cpp</text>
</a>
</g>
</g>
<!-- Node2&#45;&gt;Node78 -->
<g id="edge30" class="edge">
<title>Node2&#45;&gt;Node78</title>
<path fill="none" stroke="midnightblue" d="M2629.06,-167.94C2815.89,-140.73 2866.66,-155.69 3050.5,-132 3053.59,-131.6 3056.78,-131.15 3059.98,-130.67"/>
<polygon fill="midnightblue" stroke="midnightblue" points="2628.28,-164.52 2618.9,-169.45 2629.31,-171.45 2628.28,-164.52"/>
</g>
<!-- Node79 -->
<g id="node31" class="node">
<title>Node79</title>
<g id="a_node31"><a xlink:href="_i_b_8cpp.html" target="_top" xlink:title=" ">
<polygon fill="white" stroke="black" points="3163,-112.5 3163,-131.5 3210,-131.5 3210,-112.5 3163,-112.5"/>
<text text-anchor="middle" x="3186.5" y="-119.5" font-family="Helvetica,sans-Serif" font-size="10.00">IB.cpp</text>
</a>
</g>
</g>
<!-- Node2&#45;&gt;Node79 -->
<g id="edge32" class="edge">
<title>Node2&#45;&gt;Node79</title>
<path fill="none" stroke="midnightblue" d="M2629.01,-167.99C2861.36,-136.36 2925.72,-170.47 3153.5,-132 3156.54,-131.49 3159.71,-130.81 3162.83,-130.06"/>
<polygon fill="midnightblue" stroke="midnightblue" points="2628.32,-164.55 2618.89,-169.39 2629.28,-171.49 2628.32,-164.55"/>
</g>
<!-- Node80 -->
<g id="node32" class="node">
<title>Node80</title>
<g id="a_node32"><a xlink:href="_i_b_ops_8_h.html" target="_top" xlink:title=" ">
<polygon fill="white" stroke="red" points="3228.5,-112.5 3228.5,-131.5 3284.5,-131.5 3284.5,-112.5 3228.5,-112.5"/>
<text text-anchor="middle" x="3256.5" y="-119.5" font-family="Helvetica,sans-Serif" font-size="10.00">IBOps.H</text>
</a>
</g>
</g>
<!-- Node2&#45;&gt;Node80 -->
<g id="edge33" class="edge">
<title>Node2&#45;&gt;Node80</title>
<path fill="none" stroke="midnightblue" d="M2629.05,-168C2890.03,-133.29 2961.48,-169.98 3218.5,-132 3221.72,-131.52 3225.07,-130.91 3228.38,-130.23"/>
<polygon fill="midnightblue" stroke="midnightblue" points="2628.33,-164.56 2618.89,-169.37 2629.27,-171.5 2628.33,-164.56"/>
</g>
<!-- Node90 -->
<g id="node33" class="node">
<title>Node90</title>
<g id="a_node33"><a xlink:href="incflo_8_h.html" target="_top" xlink:title=" ">
<polygon fill="white" stroke="red" points="3303,-112.5 3303,-131.5 3356,-131.5 3356,-112.5 3303,-112.5"/>
<text text-anchor="middle" x="3329.5" y="-119.5" font-family="Helvetica,sans-Serif" font-size="10.00">incflo.H</text>
</a>
</g>
</g>
<!-- Node2&#45;&gt;Node90 -->
<g id="edge34" class="edge">
<title>Node2&#45;&gt;Node90</title>
<path fill="none" stroke="midnightblue" d="M2628.99,-168.02C2923.13,-129.88 3003.67,-175.65 3293.5,-132 3296.56,-131.54 3299.73,-130.94 3302.88,-130.26"/>
<polygon fill="midnightblue" stroke="midnightblue" points="2628.34,-164.57 2618.89,-169.35 2629.26,-171.51 2628.34,-164.57"/>
</g>
<!-- Node118 -->
<g id="node34" class="node">
<title>Node118</title>
<g id="a_node34"><a xlink:href="_ocean_waves_8cpp.html" target="_top" xlink:title=" ">
<polygon fill="white" stroke="black" points="3374.5,-112.5 3374.5,-131.5 3474.5,-131.5 3474.5,-112.5 3374.5,-112.5"/>
<text text-anchor="middle" x="3424.5" y="-119.5" font-family="Helvetica,sans-Serif" font-size="10.00">OceanWaves.cpp</text>
</a>
</g>
</g>
<!-- Node2&#45;&gt;Node118 -->
<g id="edge35" class="edge">
<title>Node2&#45;&gt;Node118</title>
<path fill="none" stroke="midnightblue" d="M2629.08,-168.01C2954.46,-126.29 3041.5,-164.03 3364.5,-132 3367.75,-131.68 3371.09,-131.3 3374.46,-130.89"/>
<polygon fill="midnightblue" stroke="midnightblue" points="2628.35,-164.58 2618.89,-169.33 2629.25,-171.52 2628.35,-164.58"/>
</g>
<!-- Node119 -->
<g id="node35" class="node">
<title>Node119</title>
<g id="a_node35"><a xlink:href="_ocean_waves_ops_8_h.html" target="_top" xlink:title=" ">
<polygon fill="white" stroke="red" points="3493,-112.5 3493,-131.5 3602,-131.5 3602,-112.5 3493,-112.5"/>
<text text-anchor="middle" x="3547.5" y="-119.5" font-family="Helvetica,sans-Serif" font-size="10.00">OceanWavesOps.H</text>
</a>
</g>
</g>
<!-- Node2&#45;&gt;Node119 -->
<g id="edge36" class="edge">
<title>Node2&#45;&gt;Node119</title>
<path fill="none" stroke="midnightblue" d="M2629,-168.03C3007,-120.75 3107.62,-166.25 3483.5,-132 3486.52,-131.73 3489.61,-131.41 3492.73,-131.06"/>
<polygon fill="midnightblue" stroke="midnightblue" points="2628.36,-164.59 2618.88,-169.31 2629.24,-171.53 2628.36,-164.59"/>
</g>
<!-- Node127 -->
<g id="node36" class="node">
<title>Node127</title>
<g id="a_node36"><a xlink:href="_tioga_interface_8cpp.html" target="_top" xlink:title=" ">
<polygon fill="white" stroke="black" points="3620,-112.5 3620,-131.5 3727,-131.5 3727,-112.5 3620,-112.5"/>
<text text-anchor="middle" x="3673.5" y="-119.5" font-family="Helvetica,sans-Serif" font-size="10.00">TiogaInterface.cpp</text>
</a>
</g>
</g>
<!-- Node2&#45;&gt;Node127 -->
<g id="edge37" class="edge">
<title>Node2&#45;&gt;Node127</title>
<path fill="none" stroke="midnightblue" d="M2628.87,-168.06C3063.07,-114.85 3178.35,-170.67 3610.5,-132 3613.58,-131.72 3616.74,-131.4 3619.93,-131.04"/>
<polygon fill="midnightblue" stroke="midnightblue" points="2628.38,-164.6 2618.88,-169.3 2629.24,-171.54 2628.38,-164.6"/>
</g>
<!-- Node128 -->
<g id="node37" class="node">
<title>Node128</title>
<g id="a_node37"><a xlink:href="_boussinesq_bubble_8cpp.html" target="_top" xlink:title=" ">
<polygon fill="white" stroke="black" points="3745.5,-112.5 3745.5,-131.5 3871.5,-131.5 3871.5,-112.5 3745.5,-112.5"/>
<text text-anchor="middle" x="3808.5" y="-119.5" font-family="Helvetica,sans-Serif" font-size="10.00">BoussinesqBubble.cpp</text>
</a>
</g>
</g>
<!-- Node2&#45;&gt;Node128 -->
<g id="edge38" class="edge">
<title>Node2&#45;&gt;Node128</title>
<path fill="none" stroke="midnightblue" d="M2629.03,-168.05C3118.32,-108.99 3247.64,-169.92 3735.5,-132 3738.68,-131.75 3741.94,-131.47 3745.23,-131.15"/>
<polygon fill="midnightblue" stroke="midnightblue" points="2628.38,-164.6 2618.88,-169.28 2629.23,-171.55 2628.38,-164.6"/>
</g>
<!-- Node129 -->
<g id="node38" class="node">
<title>Node129</title>
<g id="a_node38"><a xlink:href="_burggraf_flow_8cpp.html" target="_top" xlink:title=" ">
<polygon fill="white" stroke="black" points="3899,-56.5 3899,-75.5 4000,-75.5 4000,-56.5 3899,-56.5"/>
<text text-anchor="middle" x="3949.5" y="-63.5" font-family="Helvetica,sans-Serif" font-size="10.00">BurggrafFlow.cpp</text>
</a>
</g>
</g>
<!-- Node2&#45;&gt;Node129 -->
<g id="edge39" class="edge">
<title>Node2&#45;&gt;Node129</title>
<path fill="none" stroke="midnightblue" d="M2629.15,-168.46C2774.06,-160.55 3939.2,-184.68 3990.5,-132 4007.54,-114.51 3979.26,-88.81 3961.76,-75.58"/>
<polygon fill="midnightblue" stroke="midnightblue" points="2628.57,-164.99 2618.88,-169.27 2629.12,-171.97 2628.57,-164.99"/>
</g>
<!-- Node130 -->
<g id="node39" class="node">
<title>Node130</title>
<g id="a_node39"><a xlink:href="_burggraf_flow_8_h.html" target="_top" xlink:title=" ">
<polygon fill="white" stroke="black" points="3889.5,-112.5 3889.5,-131.5 3981.5,-131.5 3981.5,-112.5 3889.5,-112.5"/>
<text text-anchor="middle" x="3935.5" y="-119.5" font-family="Helvetica,sans-Serif" font-size="10.00">BurggrafFlow.H</text>
</a>
</g>
</g>
<!-- Node2&#45;&gt;Node130 -->
<g id="edge40" class="edge">
<title>Node2&#45;&gt;Node130</title>
<path fill="none" stroke="midnightblue" d="M2629.12,-168.05C3182.41,-102.37 3329.3,-184.78 3880.5,-132 3883.39,-131.72 3886.36,-131.39 3889.34,-131.01"/>
<polygon fill="midnightblue" stroke="midnightblue" points="2628.39,-164.61 2618.88,-169.27 2629.22,-171.56 2628.39,-164.61"/>
</g>
<!-- Node131 -->
<g id="node40" class="node">
<title>Node131</title>
<g id="a_node40"><a xlink:href="_convecting_taylor_vortex_8cpp.html" target="_top" xlink:title=" ">
<polygon fill="white" stroke="black" points="4048.5,-56.5 4048.5,-75.5 4200.5,-75.5 4200.5,-56.5 4048.5,-56.5"/>
<text text-anchor="middle" x="4124.5" y="-63.5" font-family="Helvetica,sans-Serif" font-size="10.00">ConvectingTaylorVortex.cpp</text>
</a>
</g>
</g>
<!-- Node2&#45;&gt;Node131 -->
<g id="edge45" class="edge">
<title>Node2&#45;&gt;Node131</title>
<path fill="none" stroke="midnightblue" d="M2629.1,-168.63C2770.66,-162.9 4160.2,-161.98 4189.5,-132 4209.47,-111.57 4169.73,-87.93 4144.02,-75.56"/>
<polygon fill="midnightblue" stroke="midnightblue" points="2628.64,-165.15 2618.88,-169.26 2629.07,-172.14 2628.64,-165.15"/>
</g>
<!-- Node132 -->
<g id="node41" class="node">
<title>Node132</title>
<g id="a_node41"><a xlink:href="_convecting_taylor_vortex_8_h.html" target="_top" xlink:title=" ">
<polygon fill="white" stroke="red" points="4038,-112.5 4038,-131.5 4181,-131.5 4181,-112.5 4038,-112.5"/>
<text text-anchor="middle" x="4109.5" y="-119.5" font-family="Helvetica,sans-Serif" font-size="10.00">ConvectingTaylorVortex.H</text>
</a>
</g>
</g>
<!-- Node2&#45;&gt;Node132 -->
<g id="edge46" class="edge">
<title>Node2&#45;&gt;Node132</title>
<path fill="none" stroke="midnightblue" d="M2628.91,-168.08C3245.54,-95.49 3407.49,-172.11 4023.5,-132 4028.14,-131.7 4032.92,-131.34 4037.74,-130.94"/>
<polygon fill="midnightblue" stroke="midnightblue" points="2628.4,-164.61 2618.88,-169.26 2629.22,-171.56 2628.4,-164.61"/>
</g>
<!-- Node133 -->
<g id="node42" class="node">
<title>Node133</title>
<g id="a_node42"><a xlink:href="_ekman_spiral_8cpp.html" target="_top" xlink:title=" ">
<polygon fill="white" stroke="black" points="4269.5,-56.5 4269.5,-75.5 4367.5,-75.5 4367.5,-56.5 4269.5,-56.5"/>
<text text-anchor="middle" x="4318.5" y="-63.5" font-family="Helvetica,sans-Serif" font-size="10.00">EkmanSpiral.cpp</text>
</a>
</g>
</g>
<!-- Node2&#45;&gt;Node133 -->
<g id="edge48" class="edge">
<title>Node2&#45;&gt;Node133</title>
<path fill="none" stroke="midnightblue" d="M2629.06,-168.63C2777.89,-162.68 4303.37,-164.81 4335.5,-132 4350.52,-116.66 4335.16,-89.79 4325.34,-75.89"/>
<polygon fill="midnightblue" stroke="midnightblue" points="2628.64,-165.15 2618.88,-169.25 2629.07,-172.13 2628.64,-165.15"/>
</g>
<!-- Node134 -->
<g id="node43" class="node">
<title>Node134</title>
<g id="a_node43"><a xlink:href="_ekman_spiral_8_h.html" target="_top" xlink:title=" ">
<polygon fill="white" stroke="black" points="4238,-112.5 4238,-131.5 4327,-131.5 4327,-112.5 4238,-112.5"/>
<text text-anchor="middle" x="4282.5" y="-119.5" font-family="Helvetica,sans-Serif" font-size="10.00">EkmanSpiral.H</text>
</a>
</g>
</g>
<!-- Node2&#45;&gt;Node134 -->
<g id="edge49" class="edge">
<title>Node2&#45;&gt;Node134</title>
<path fill="none" stroke="midnightblue" d="M2629.03,-168.07C3333.95,-86.33 3520.03,-193.33 4223.5,-132 4228.15,-131.6 4232.98,-131.05 4237.79,-130.44"/>
<polygon fill="midnightblue" stroke="midnightblue" points="2628.4,-164.62 2618.88,-169.25 2629.21,-171.57 2628.4,-164.62"/>
</g>
<!-- Node135 -->
<g id="node44" class="node">
<title>Node135</title>
<g id="a_node44"><a xlink:href="_free_stream_8cpp.html" target="_top" xlink:title=" ">
<polygon fill="white" stroke="black" points="4384,-112.5 4384,-131.5 4477,-131.5 4477,-112.5 4384,-112.5"/>
<text text-anchor="middle" x="4430.5" y="-119.5" font-family="Helvetica,sans-Serif" font-size="10.00">FreeStream.cpp</text>
</a>
</g>
</g>
<!-- Node2&#45;&gt;Node135 -->
<g id="edge51" class="edge">
<title>Node2&#45;&gt;Node135</title>
<path fill="none" stroke="midnightblue" d="M2628.81,-168.1C3398.42,-79.47 3601.11,-196.37 4369.5,-132 4374.19,-131.61 4379.08,-131.08 4383.94,-130.48"/>
<polygon fill="midnightblue" stroke="midnightblue" points="2628.41,-164.62 2618.88,-169.25 2629.21,-171.57 2628.41,-164.62"/>
</g>
<!-- Node100 -->
<g id="node45" class="node">
<title>Node100</title>
<g id="a_node45"><a xlink:href="_hybrid_r_a_n_s_l_e_s_a_b_l_8cpp.html" target="_top" xlink:title=" ">
<polygon fill="white" stroke="black" points="4518,-56.5 4518,-75.5 4651,-75.5 4651,-56.5 4518,-56.5"/>
<text text-anchor="middle" x="4584.5" y="-63.5" font-family="Helvetica,sans-Serif" font-size="10.00">HybridRANSLESABL.cpp</text>
</a>
</g>
</g>
<!-- Node2&#45;&gt;Node100 -->
<g id="edge52" class="edge">
<title>Node2&#45;&gt;Node100</title>
<path fill="none" stroke="midnightblue" d="M2629.13,-168.62C2792.69,-162.19 4588.72,-170.46 4626.5,-132 4643.73,-114.46 4614.86,-88.78 4597,-75.56"/>
<polygon fill="midnightblue" stroke="midnightblue" points="2628.64,-165.14 2618.87,-169.24 2629.07,-172.13 2628.64,-165.14"/>
</g>
<!-- Node136 -->
<g id="node46" class="node">
<title>Node136</title>
<g id="a_node46"><a xlink:href="_hybrid_r_a_n_s_l_e_s_a_b_l_8_h.html" target="_top" xlink:title=" ">
<polygon fill="white" stroke="black" points="4495,-112.5 4495,-131.5 4618,-131.5 4618,-112.5 4495,-112.5"/>
<text text-anchor="middle" x="4556.5" y="-119.5" font-family="Helvetica,sans-Serif" font-size="10.00">HybridRANSLESABL.H</text>
</a>
</g>
</g>
<!-- Node2&#45;&gt;Node136 -->
<g id="edge53" class="edge">
<title>Node2&#45;&gt;Node136</title>
<path fill="none" stroke="midnightblue" d="M2629.12,-168.08C3054.38,-121.18 4076.94,-161.77 4485.5,-132 4488.6,-131.77 4491.77,-131.51 4494.97,-131.21"/>
<polygon fill="midnightblue" stroke="midnightblue" points="2628.42,-164.64 2618.87,-169.24 2629.21,-171.6 2628.42,-164.64"/>
</g>
<!-- Node137 -->
<g id="node47" class="node">
<title>Node137</title>
<g id="a_node47"><a xlink:href="_m_m_s_8cpp.html" target="_top" xlink:title=" ">
<polygon fill="white" stroke="black" points="4697,-56.5 4697,-75.5 4758,-75.5 4758,-56.5 4697,-56.5"/>
<text text-anchor="middle" x="4727.5" y="-63.5" font-family="Helvetica,sans-Serif" font-size="10.00">MMS.cpp</text>
</a>
</g>
</g>
<!-- Node2&#45;&gt;Node137 -->
<g id="edge55" class="edge">
<title>Node2&#45;&gt;Node137</title>
<path fill="none" stroke="midnightblue" d="M2628.88,-168.62C2795.97,-161.98 4695.59,-172.6 4735.5,-132 4750.33,-116.92 4739.38,-89.44 4732.29,-75.54"/>
<polygon fill="midnightblue" stroke="midnightblue" points="2628.64,-165.13 2618.87,-169.24 2629.07,-172.12 2628.64,-165.13"/>
</g>
<!-- Node138 -->
<g id="node48" class="node">
<title>Node138</title>
<g id="a_node48"><a xlink:href="_m_m_s_8_h.html" target="_top" xlink:title=" ">
<polygon fill="white" stroke="black" points="4675,-112.5 4675,-131.5 4726,-131.5 4726,-112.5 4675,-112.5"/>
<text text-anchor="middle" x="4700.5" y="-119.5" font-family="Helvetica,sans-Serif" font-size="10.00">MMS.H</text>
</a>
</g>
</g>
<!-- Node2&#45;&gt;Node138 -->
<g id="edge56" class="edge">
<title>Node2&#45;&gt;Node138</title>
<path fill="none" stroke="midnightblue" d="M2629.04,-168.1C3092.99,-117.43 4215.16,-185.48 4660.5,-132 4665.16,-131.44 4670.08,-130.57 4674.81,-129.59"/>
<polygon fill="midnightblue" stroke="midnightblue" points="2628.42,-164.65 2618.87,-169.24 2629.2,-171.6 2628.42,-164.65"/>
</g>
<!-- Node139 -->
<g id="node49" class="node">
<title>Node139</title>
<g id="a_node49"><a xlink:href="_m_m_s_forcing_8cpp.html" target="_top" xlink:title=" ">
<polygon fill="white" stroke="black" points="4782.5,-112.5 4782.5,-131.5 4878.5,-131.5 4878.5,-112.5 4782.5,-112.5"/>
<text text-anchor="middle" x="4830.5" y="-119.5" font-family="Helvetica,sans-Serif" font-size="10.00">MMSForcing.cpp</text>
</a>
</g>
</g>
<!-- Node2&#45;&gt;Node139 -->
<g id="edge58" class="edge">
<title>Node2&#45;&gt;Node139</title>
<path fill="none" stroke="midnightblue" d="M2628.85,-168.12C3116.55,-114.66 4297.44,-169.99 4768.5,-132 4772.95,-131.64 4777.56,-131.17 4782.17,-130.62"/>
<polygon fill="midnightblue" stroke="midnightblue" points="2628.42,-164.64 2618.87,-169.24 2629.2,-171.6 2628.42,-164.64"/>
</g>
<!-- Node3&#45;&gt;Node5 -->
<g id="edge3" class="edge">
<title>Node3&#45;&gt;Node5</title>
<path fill="none" stroke="midnightblue" d="M112.44,-103.86C105.86,-94.5 97.99,-83.33 92.66,-75.75"/>
<polygon fill="midnightblue" stroke="midnightblue" points="109.61,-105.92 118.23,-112.08 115.33,-101.89 109.61,-105.92"/>
</g>
<!-- Node5&#45;&gt;Node6 -->
<g id="edge4" class="edge">
<title>Node5&#45;&gt;Node6</title>
<path fill="none" stroke="midnightblue" d="M74.55,-47.57C68.19,-38.27 60.63,-27.25 55.5,-19.75"/>
<polygon fill="midnightblue" stroke="midnightblue" points="71.85,-49.81 80.39,-56.08 77.63,-45.86 71.85,-49.81"/>
</g>
<!-- Node63&#45;&gt;Node23 -->
<g id="edge24" class="edge">
<title>Node63&#45;&gt;Node23</title>
<path fill="none" stroke="midnightblue" d="M2193.57,-112.03C2017.11,-85.26 1816.62,-72.21 1749.04,-68.29"/>
<polygon fill="midnightblue" stroke="midnightblue" points="2193.14,-115.51 2203.55,-113.56 2194.2,-108.59 2193.14,-115.51"/>
</g>
<!-- Node130&#45;&gt;Node15 -->
<g id="edge41" class="edge">
<title>Node130&#45;&gt;Node15</title>
<path fill="none" stroke="midnightblue" d="M3879.35,-111.99C3609.42,-82.71 3300.04,-72.04 3165.13,-68.52"/>
<polygon fill="midnightblue" stroke="midnightblue" points="3879.01,-115.48 3889.33,-113.09 3879.78,-108.52 3879.01,-115.48"/>
</g>
<!-- Node130&#45;&gt;Node129 -->
<g id="edge42" class="edge">
<title>Node130&#45;&gt;Node129</title>
<path fill="none" stroke="midnightblue" d="M3940.32,-102.4C3942.67,-93.36 3945.37,-82.94 3947.23,-75.75"/>
<polygon fill="midnightblue" stroke="midnightblue" points="3936.93,-101.52 3937.81,-112.08 3943.71,-103.28 3936.93,-101.52"/>
</g>
<!-- Node132&#45;&gt;Node131 -->
<g id="edge47" class="edge">
<title>Node132&#45;&gt;Node131</title>
<path fill="none" stroke="midnightblue" d="M4114.67,-102.4C4117.18,-93.36 4120.07,-82.94 4122.07,-75.75"/>
<polygon fill="midnightblue" stroke="midnightblue" points="4111.28,-101.51 4111.98,-112.08 4118.03,-103.38 4111.28,-101.51"/>
</g>
<!-- Node134&#45;&gt;Node133 -->
<g id="edge50" class="edge">
<title>Node134&#45;&gt;Node133</title>
<path fill="none" stroke="midnightblue" d="M4294.12,-103.57C4300.32,-94.27 4307.67,-83.25 4312.67,-75.75"/>
<polygon fill="midnightblue" stroke="midnightblue" points="4291.08,-101.82 4288.44,-112.08 4296.9,-105.7 4291.08,-101.82"/>
</g>
<!-- Node136&#45;&gt;Node100 -->
<g id="edge54" class="edge">
<title>Node136&#45;&gt;Node100</title>
<path fill="none" stroke="midnightblue" d="M4565.84,-102.98C4570.59,-93.82 4576.16,-83.09 4579.96,-75.75"/>
<polygon fill="midnightblue" stroke="midnightblue" points="4562.62,-101.59 4561.12,-112.08 4568.83,-104.82 4562.62,-101.59"/>
</g>
<!-- Node138&#45;&gt;Node137 -->
<g id="edge57" class="edge">
<title>Node138&#45;&gt;Node137</title>
<path fill="none" stroke="midnightblue" d="M4709.51,-102.98C4714.09,-93.82 4719.45,-83.09 4723.12,-75.75"/>
<polygon fill="midnightblue" stroke="midnightblue" points="4706.3,-101.57 4704.96,-112.08 4712.56,-104.7 4706.3,-101.57"/>
</g>
</g>
</svg>
        <g id="navigator" transform="translate(0 0)" fill="#404254">
                <rect fill="#f2f5e9" fill-opacity="0.5" stroke="#606060" stroke-width=".5" x="0" y="0" width="60" height="60"/>
                <use id="zoomplus" xlink:href="#zoomPlus" x="17" y="9" onmousedown="handleZoom(evt,'in')"/>
                <use id="zoomminus" xlink:href="#zoomMin" x="42" y="9" onmousedown="handleZoom(evt,'out')"/>
                <use id="reset" xlink:href="#resetDef" x="30" y="36" onmousedown="handleReset()"/>
                <g id="arrowUp" xlink:href="#dirArrow" transform="translate(30 24)" onmousedown="handlePan(0,-1)">
                  <use xlink:href="#rim" fill="#404040">
                        <set attributeName="fill" to="#808080" begin="arrowUp.mouseover" end="arrowUp.mouseout"/>
                  </use>
                  <path fill="none" stroke="white" stroke-width="1.5" d="M0,-3.0v7 M-2.5,-0.5L0,-3.0L2.5,-0.5"/>
                </g>
                <g id="arrowRight" xlink:href="#dirArrow" transform="rotate(90) translate(36 -43)" onmousedown="handlePan(1,0)">
                  <use xlink:href="#rim" fill="#404040">
                        <set attributeName="fill" to="#808080" begin="arrowRight.mouseover" end="arrowRight.mouseout"/>
                  </use>
                  <path fill="none" stroke="white" stroke-width="1.5" d="M0,-3.0v7 M-2.5,-0.5L0,-3.0L2.5,-0.5"/>
                </g>
                <g id="arrowDown" xlink:href="#dirArrow" transform="rotate(180) translate(-30 -48)" onmousedown="handlePan(0,1)">
                  <use xlink:href="#rim" fill="#404040">
                        <set attributeName="fill" to="#808080" begin="arrowDown.mouseover" end="arrowDown.mouseout"/>
                  </use>
                  <path fill="none" stroke="white" stroke-width="1.5" d="M0,-3.0v7 M-2.5,-0.5L0,-3.0L2.5,-0.5"/>
                </g>
                <g id="arrowLeft" xlink:href="#dirArrow" transform="rotate(270) translate(-36 17)" onmousedown="handlePan(-1,0)">
                  <use xlink:href="#rim" fill="#404040">
                        <set attributeName="fill" to="#808080" begin="arrowLeft.mouseover" end="arrowLeft.mouseout"/>
                  </use>
                  <path fill="none" stroke="white" stroke-width="1.5" d="M0,-3.0v7 M-2.5,-0.5L0,-3.0L2.5,-0.5"/>
                </g>
        </g>
        <svg viewBox="0 0 15 15" width="100%" height="30px" preserveAspectRatio="xMaxYMin meet">
         <g id="arrow_out" transform="scale(0.3 0.3)">
          <a xlink:href="helics_8_h__dep__incl_org.svg" target="_base">
           <rect id="button" ry="5" rx="5" y="6" x="6" height="38" width="38"
                fill="#f2f5e9" fill-opacity="0.5" stroke="#606060" stroke-width="1.0"/>
           <path id="arrow"
             d="M 11.500037,31.436501 C 11.940474,20.09759 22.043105,11.32322 32.158766,21.979434 L 37.068811,17.246167 C 37.068811,17.246167 37.088388,32 37.088388,32 L 22.160133,31.978069 C 22.160133,31.978069 26.997745,27.140456 26.997745,27.140456 C 18.528582,18.264221 13.291696,25.230495 11.500037,31.436501 z"
             style="fill:#404040;"/>
          </a>
         </g>
        </svg>
</svg>
