<?xml version="1.0" encoding="UTF-8" standalone="no"?>
<!DOCTYPE svg PUBLIC "-//W3C//DTD SVG 1.1//EN"
 "http://www.w3.org/Graphics/SVG/1.1/DTD/svg11.dtd">
<!-- Generated by graphviz version 2.43.0 (0)
 -->
<!-- Title: Graphical Class Hierarchy Pages: 1 -->
<svg width="375pt" height="872pt"
 viewBox="0.00 0.00 375.00 872.00" xmlns="http://www.w3.org/2000/svg" xmlns:xlink="http://www.w3.org/1999/xlink">
<g id="graph0" class="graph" transform="scale(1 1) rotate(0) translate(4 868)">
<title>Graphical Class Hierarchy</title>
<polygon fill="white" stroke="transparent" points="-4,4 -4,-868 371,-868 371,4 -4,4"/>
<!-- Node0 -->
<g id="node1" class="node">
<title>Node0</title>
<g id="a_node1"><a xlink:href="classamr__wind_1_1_a_b_l_mesoscale_forcing.html" target="_top" xlink:title=" ">
<polygon fill="white" stroke="black" points="0,-128 0,-147 176,-147 176,-128 0,-128"/>
<text text-anchor="middle" x="88" y="-135" font-family="Helvetica,sans-Serif" font-size="10.00">amr_wind::ABLMesoscaleForcing</text>
</a>
</g>
</g>
<!-- Node1 -->
<g id="node2" class="node">
<title>Node1</title>
<g id="a_node2"><a xlink:href="classamr__wind_1_1pde_1_1icns_1_1_a_b_l_meso_forcing_mom.html" target="_top" xlink:title="Forcing term for meso&#45;micro scale coupled ABL simulations.">
<polygon fill="white" stroke="black" points="225.5,-147.5 225.5,-177.5 353.5,-177.5 353.5,-147.5 225.5,-147.5"/>
<text text-anchor="start" x="233.5" y="-165.5" font-family="Helvetica,sans-Serif" font-size="10.00">amr_wind::pde::icns</text>
<text text-anchor="middle" x="289.5" y="-154.5" font-family="Helvetica,sans-Serif" font-size="10.00">::ABLMesoForcingMom</text>
</a>
</g>
</g>
<!-- Node0&#45;&gt;Node1 -->
<g id="edge1" class="edge">
<title>Node0&#45;&gt;Node1</title>
<path fill="none" stroke="midnightblue" d="M175.37,-148.32C192.17,-150.43 209.49,-152.6 225.37,-154.59"/>
<polygon fill="midnightblue" stroke="midnightblue" points="175.35,-144.79 164.99,-147.02 174.48,-151.74 175.35,-144.79"/>
</g>
<!-- Node2 -->
<g id="node3" class="node">
<title>Node2</title>
<g id="a_node3"><a xlink:href="classamr__wind_1_1pde_1_1temperature_1_1_a_b_l_meso_forcing_temp.html" target="_top" xlink:title=" ">
<polygon fill="white" stroke="black" points="212,-98.5 212,-128.5 367,-128.5 367,-98.5 212,-98.5"/>
<text text-anchor="start" x="220" y="-116.5" font-family="Helvetica,sans-Serif" font-size="10.00">amr_wind::pde::temperature</text>
<text text-anchor="middle" x="289.5" y="-105.5" font-family="Helvetica,sans-Serif" font-size="10.00">::ABLMesoForcingTemp</text>
</a>
</g>
</g>
<!-- Node0&#45;&gt;Node2 -->
<g id="edge2" class="edge">
<title>Node0&#45;&gt;Node2</title>
<path fill="none" stroke="midnightblue" d="M178.31,-126.76C189.47,-125.41 200.8,-124.05 211.74,-122.73"/>
<polygon fill="midnightblue" stroke="midnightblue" points="177.64,-123.31 168.13,-127.98 178.48,-130.26 177.64,-123.31"/>
</g>
<!-- Node354 -->
<g id="node4" class="node">
<title>Node354</title>
<g id="a_node4"><a xlink:title=" ">
<polygon fill="white" stroke="#bfbfbf" points="12,-496 12,-515 164,-515 164,-496 12,-496"/>
<text text-anchor="middle" x="88" y="-503" font-family="Helvetica,sans-Serif" font-size="10.00">MomentumSource::Register</text>
</a>
</g>
</g>
<!-- Node354&#45;&gt;Node1 -->
<g id="edge5" class="edge">
<title>Node354&#45;&gt;Node1</title>
<path fill="none" stroke="midnightblue" d="M90.87,-485.62C97.14,-430.19 122.37,-272.48 212,-187.5 216.06,-183.65 220.71,-180.4 225.68,-177.65"/>
<polygon fill="midnightblue" stroke="midnightblue" points="87.36,-485.52 89.8,-495.83 94.32,-486.24 87.36,-485.52"/>
</g>
<!-- Node355 -->
<g id="node5" class="node">
<title>Node355</title>
<g id="a_node5"><a xlink:href="classamr__wind_1_1pde_1_1icns_1_1_a_b_l_forcing.html" target="_top" xlink:title="Forcing term to drive the ABL profile to a desired state.">
<polygon fill="white" stroke="black" points="232.5,-833.5 232.5,-863.5 346.5,-863.5 346.5,-833.5 232.5,-833.5"/>
<text text-anchor="start" x="240.5" y="-851.5" font-family="Helvetica,sans-Serif" font-size="10.00">amr_wind::pde::icns</text>
<text text-anchor="middle" x="289.5" y="-840.5" font-family="Helvetica,sans-Serif" font-size="10.00">::ABLForcing</text>
</a>
</g>
</g>
<!-- Node354&#45;&gt;Node355 -->
<g id="edge3" class="edge">
<title>Node354&#45;&gt;Node355</title>
<path fill="none" stroke="midnightblue" d="M90.8,-525.5C96.88,-581.24 121.67,-739.77 212,-824.5 217.79,-829.93 224.79,-834.13 232.18,-837.38"/>
<polygon fill="midnightblue" stroke="midnightblue" points="94.25,-524.83 89.77,-515.23 87.28,-525.53 94.25,-524.83"/>
</g>
<!-- Node356 -->
<g id="node6" class="node">
<title>Node356</title>
<g id="a_node6"><a xlink:href="classamr__wind_1_1pde_1_1icns_1_1_a_b_l_mean_boussinesq.html" target="_top" xlink:title="Boussinesq buoyancy source term.">
<polygon fill="white" stroke="black" points="227.5,-784.5 227.5,-814.5 351.5,-814.5 351.5,-784.5 227.5,-784.5"/>
<text text-anchor="start" x="235.5" y="-802.5" font-family="Helvetica,sans-Serif" font-size="10.00">amr_wind::pde::icns</text>
<text text-anchor="middle" x="289.5" y="-791.5" font-family="Helvetica,sans-Serif" font-size="10.00">::ABLMeanBoussinesq</text>
</a>
</g>
</g>
<!-- Node354&#45;&gt;Node356 -->
<g id="edge4" class="edge">
<title>Node354&#45;&gt;Node356</title>
<path fill="none" stroke="midnightblue" d="M92.27,-525.03C101.59,-574.47 132.86,-705.57 212,-775.5 216.59,-779.56 221.86,-782.93 227.45,-785.73"/>
<polygon fill="midnightblue" stroke="midnightblue" points="95.69,-524.26 90.48,-515.03 88.8,-525.49 95.69,-524.26"/>
</g>
<!-- Node357 -->
<g id="node7" class="node">
<title>Node357</title>
<g id="a_node7"><a xlink:href="classamr__wind_1_1pde_1_1icns_1_1_actuator_forcing.html" target="_top" xlink:title="Body forces introduced by turbines modeled as actuators in flow field.">
<polygon fill="white" stroke="black" points="232.5,-735.5 232.5,-765.5 346.5,-765.5 346.5,-735.5 232.5,-735.5"/>
<text text-anchor="start" x="240.5" y="-753.5" font-family="Helvetica,sans-Serif" font-size="10.00">amr_wind::pde::icns</text>
<text text-anchor="middle" x="289.5" y="-742.5" font-family="Helvetica,sans-Serif" font-size="10.00">::ActuatorForcing</text>
</a>
</g>
</g>
<!-- Node354&#45;&gt;Node357 -->
<g id="edge6" class="edge">
<title>Node354&#45;&gt;Node357</title>
<path fill="none" stroke="midnightblue" d="M94.38,-524.88C107.27,-567.74 144.03,-671.15 212,-726.5 218.04,-731.42 225.1,-735.34 232.45,-738.46"/>
<polygon fill="midnightblue" stroke="midnightblue" points="97.7,-523.76 91.55,-515.14 90.98,-525.71 97.7,-523.76"/>
</g>
<!-- Node358 -->
<g id="node8" class="node">
<title>Node358</title>
<g id="a_node8"><a xlink:href="classamr__wind_1_1pde_1_1icns_1_1_body_force.html" target="_top" xlink:title="Apply a user&#45;defined body force as a source term.">
<polygon fill="white" stroke="black" points="232.5,-686.5 232.5,-716.5 346.5,-716.5 346.5,-686.5 232.5,-686.5"/>
<text text-anchor="start" x="240.5" y="-704.5" font-family="Helvetica,sans-Serif" font-size="10.00">amr_wind::pde::icns</text>
<text text-anchor="middle" x="289.5" y="-693.5" font-family="Helvetica,sans-Serif" font-size="10.00">::BodyForce</text>
</a>
</g>
</g>
<!-- Node354&#45;&gt;Node358 -->
<g id="edge7" class="edge">
<title>Node354&#45;&gt;Node358</title>
<path fill="none" stroke="midnightblue" d="M97.51,-524.6C114.26,-560.04 154.91,-636.14 212,-677.5 218.09,-681.91 225.01,-685.53 232.14,-688.49"/>
<polygon fill="midnightblue" stroke="midnightblue" points="100.61,-522.98 93.25,-515.36 94.26,-525.91 100.61,-522.98"/>
</g>
<!-- Node359 -->
<g id="node9" class="node">
<title>Node359</title>
<g id="a_node9"><a xlink:href="classamr__wind_1_1pde_1_1icns_1_1_boussinesq_buoyancy.html" target="_top" xlink:title="Boussinesq buoyancy source term.">
<polygon fill="white" stroke="black" points="226.5,-637.5 226.5,-667.5 352.5,-667.5 352.5,-637.5 226.5,-637.5"/>
<text text-anchor="start" x="234.5" y="-655.5" font-family="Helvetica,sans-Serif" font-size="10.00">amr_wind::pde::icns</text>
<text text-anchor="middle" x="289.5" y="-644.5" font-family="Helvetica,sans-Serif" font-size="10.00">::BoussinesqBuoyancy</text>
</a>
</g>
</g>
<!-- Node354&#45;&gt;Node359 -->
<g id="edge8" class="edge">
<title>Node354&#45;&gt;Node359</title>
<path fill="none" stroke="midnightblue" d="M101.98,-523.08C122.48,-549.66 164.89,-599.96 212,-628.5 217.6,-631.89 223.71,-634.84 229.98,-637.41"/>
<polygon fill="midnightblue" stroke="midnightblue" points="104.72,-520.91 95.89,-515.05 99.14,-525.13 104.72,-520.91"/>
</g>
<!-- Node360 -->
<g id="node10" class="node">
<title>Node360</title>
<g id="a_node10"><a xlink:href="classamr__wind_1_1pde_1_1icns_1_1_burggraf_flow_forcing.html" target="_top" xlink:title="Body forcing introduced to represent the Burrgraf cavity flow.">
<polygon fill="white" stroke="black" points="228,-588.5 228,-618.5 351,-618.5 351,-588.5 228,-588.5"/>
<text text-anchor="start" x="236" y="-606.5" font-family="Helvetica,sans-Serif" font-size="10.00">amr_wind::pde::icns</text>
<text text-anchor="middle" x="289.5" y="-595.5" font-family="Helvetica,sans-Serif" font-size="10.00">::BurggrafFlowForcing</text>
</a>
</g>
</g>
<!-- Node354&#45;&gt;Node360 -->
<g id="edge9" class="edge">
<title>Node354&#45;&gt;Node360</title>
<path fill="none" stroke="midnightblue" d="M110.78,-520.79C134.71,-537.06 174.72,-562.73 212,-579.5 219.24,-582.76 227.04,-585.75 234.81,-588.44"/>
<polygon fill="midnightblue" stroke="midnightblue" points="112.66,-517.84 102.43,-515.05 108.69,-523.6 112.66,-517.84"/>
</g>
<!-- Node361 -->
<g id="node11" class="node">
<title>Node361</title>
<g id="a_node11"><a xlink:href="classamr__wind_1_1pde_1_1icns_1_1_coriolis_forcing.html" target="_top" xlink:title="Account for Coriolis forcing due to earth&#39;s rotation.">
<polygon fill="white" stroke="black" points="232.5,-539.5 232.5,-569.5 346.5,-569.5 346.5,-539.5 232.5,-539.5"/>
<text text-anchor="start" x="240.5" y="-557.5" font-family="Helvetica,sans-Serif" font-size="10.00">amr_wind::pde::icns</text>
<text text-anchor="middle" x="289.5" y="-546.5" font-family="Helvetica,sans-Serif" font-size="10.00">::CoriolisForcing</text>
</a>
</g>
</g>
<!-- Node354&#45;&gt;Node361 -->
<g id="edge10" class="edge">
<title>Node354&#45;&gt;Node361</title>
<path fill="none" stroke="midnightblue" d="M137.7,-517.46C166.28,-524.48 202.51,-533.38 232.29,-540.69"/>
<polygon fill="midnightblue" stroke="midnightblue" points="138.49,-514.05 127.94,-515.06 136.82,-520.85 138.49,-514.05"/>
</g>
<!-- Node362 -->
<g id="node12" class="node">
<title>Node362</title>
<g id="a_node12"><a xlink:href="classamr__wind_1_1pde_1_1icns_1_1_density_buoyancy.html" target="_top" xlink:title="Buoyancy term from density variations.">
<polygon fill="white" stroke="black" points="232.5,-490.5 232.5,-520.5 346.5,-520.5 346.5,-490.5 232.5,-490.5"/>
<text text-anchor="start" x="240.5" y="-508.5" font-family="Helvetica,sans-Serif" font-size="10.00">amr_wind::pde::icns</text>
<text text-anchor="middle" x="289.5" y="-497.5" font-family="Helvetica,sans-Serif" font-size="10.00">::DensityBuoyancy</text>
</a>
</g>
</g>
<!-- Node354&#45;&gt;Node362 -->
<g id="edge11" class="edge">
<title>Node354&#45;&gt;Node362</title>
<path fill="none" stroke="midnightblue" d="M174.32,-505.5C193.97,-505.5 214.37,-505.5 232.41,-505.5"/>
<polygon fill="midnightblue" stroke="midnightblue" points="174.14,-502 164.14,-505.5 174.14,-509 174.14,-502"/>
</g>
<!-- Node363 -->
<g id="node13" class="node">
<title>Node363</title>
<g id="a_node13"><a xlink:href="classamr__wind_1_1pde_1_1icns_1_1_geostrophic_forcing.html" target="_top" xlink:title="Apply source term equivalent to drive the flow to match given geostrophic wind.">
<polygon fill="white" stroke="black" points="231.5,-441.5 231.5,-471.5 347.5,-471.5 347.5,-441.5 231.5,-441.5"/>
<text text-anchor="start" x="239.5" y="-459.5" font-family="Helvetica,sans-Serif" font-size="10.00">amr_wind::pde::icns</text>
<text text-anchor="middle" x="289.5" y="-448.5" font-family="Helvetica,sans-Serif" font-size="10.00">::GeostrophicForcing</text>
</a>
</g>
</g>
<!-- Node354&#45;&gt;Node363 -->
<g id="edge12" class="edge">
<title>Node354&#45;&gt;Node363</title>
<path fill="none" stroke="midnightblue" d="M137.96,-493.47C166.13,-486.56 201.67,-477.83 231.14,-470.59"/>
<polygon fill="midnightblue" stroke="midnightblue" points="136.82,-490.15 127.94,-495.94 138.49,-496.95 136.82,-490.15"/>
</g>
<!-- Node364 -->
<g id="node14" class="node">
<title>Node364</title>
<g id="a_node14"><a xlink:href="classamr__wind_1_1pde_1_1icns_1_1_gravity_forcing.html" target="_top" xlink:title="Gravity Forcing term.">
<polygon fill="white" stroke="black" points="232.5,-392.5 232.5,-422.5 346.5,-422.5 346.5,-392.5 232.5,-392.5"/>
<text text-anchor="start" x="240.5" y="-410.5" font-family="Helvetica,sans-Serif" font-size="10.00">amr_wind::pde::icns</text>
<text text-anchor="middle" x="289.5" y="-399.5" font-family="Helvetica,sans-Serif" font-size="10.00">::GravityForcing</text>
</a>
</g>
</g>
<!-- Node354&#45;&gt;Node364 -->
<g id="edge13" class="edge">
<title>Node354&#45;&gt;Node364</title>
<path fill="none" stroke="midnightblue" d="M111.24,-490.26C135.28,-474.29 175.1,-449.23 212,-432.5 220.02,-428.86 228.72,-425.5 237.29,-422.5"/>
<polygon fill="midnightblue" stroke="midnightblue" points="109.19,-487.42 102.84,-495.9 113.09,-493.23 109.19,-487.42"/>
</g>
<!-- Node365 -->
<g id="node15" class="node">
<title>Node365</title>
<g id="a_node15"><a xlink:href="classamr__wind_1_1pde_1_1icns_1_1_hurricane_forcing.html" target="_top" xlink:title="Idealized Hurricane forcing source term Apply mesoscale tendency source term to drive the flow and ma...">
<polygon fill="white" stroke="black" points="232.5,-343.5 232.5,-373.5 346.5,-373.5 346.5,-343.5 232.5,-343.5"/>
<text text-anchor="start" x="240.5" y="-361.5" font-family="Helvetica,sans-Serif" font-size="10.00">amr_wind::pde::icns</text>
<text text-anchor="middle" x="289.5" y="-350.5" font-family="Helvetica,sans-Serif" font-size="10.00">::HurricaneForcing</text>
</a>
</g>
</g>
<!-- Node354&#45;&gt;Node365 -->
<g id="edge14" class="edge">
<title>Node354&#45;&gt;Node365</title>
<path fill="none" stroke="midnightblue" d="M102.36,-487.74C123.07,-461.38 165.42,-411.96 212,-383.5 218.32,-379.64 225.3,-376.3 232.4,-373.44"/>
<polygon fill="midnightblue" stroke="midnightblue" points="99.53,-485.68 96.19,-495.73 105.07,-489.96 99.53,-485.68"/>
</g>
<!-- Node366 -->
<g id="node16" class="node">
<title>Node366</title>
<g id="a_node16"><a xlink:href="classamr__wind_1_1pde_1_1icns_1_1_rayleigh_damping.html" target="_top" xlink:title="Apply Rayleigh damping as a source terms.">
<polygon fill="white" stroke="black" points="232.5,-294.5 232.5,-324.5 346.5,-324.5 346.5,-294.5 232.5,-294.5"/>
<text text-anchor="start" x="240.5" y="-312.5" font-family="Helvetica,sans-Serif" font-size="10.00">amr_wind::pde::icns</text>
<text text-anchor="middle" x="289.5" y="-301.5" font-family="Helvetica,sans-Serif" font-size="10.00">::RayleighDamping</text>
</a>
</g>
</g>
<!-- Node354&#45;&gt;Node366 -->
<g id="edge15" class="edge">
<title>Node354&#45;&gt;Node366</title>
<path fill="none" stroke="midnightblue" d="M97.58,-486.58C114.46,-451.45 155.32,-375.96 212,-334.5 218.09,-330.05 225.01,-326.36 232.15,-323.31"/>
<polygon fill="midnightblue" stroke="midnightblue" points="94.37,-485.19 93.29,-495.73 100.71,-488.16 94.37,-485.19"/>
</g>
<!-- Node367 -->
<g id="node17" class="node">
<title>Node367</title>
<g id="a_node17"><a xlink:href="classamr__wind_1_1pde_1_1icns_1_1_synth_turb_forcing.html" target="_top" xlink:title="Synthetic turbulence momentum source term.">
<polygon fill="white" stroke="black" points="232.5,-245.5 232.5,-275.5 346.5,-275.5 346.5,-245.5 232.5,-245.5"/>
<text text-anchor="start" x="240.5" y="-263.5" font-family="Helvetica,sans-Serif" font-size="10.00">amr_wind::pde::icns</text>
<text text-anchor="middle" x="289.5" y="-252.5" font-family="Helvetica,sans-Serif" font-size="10.00">::SynthTurbForcing</text>
</a>
</g>
</g>
<!-- Node354&#45;&gt;Node367 -->
<g id="edge16" class="edge">
<title>Node354&#45;&gt;Node367</title>
<path fill="none" stroke="midnightblue" d="M94.45,-486.27C107.5,-443.72 144.54,-341 212,-285.5 218.04,-280.53 225.1,-276.54 232.44,-273.33"/>
<polygon fill="midnightblue" stroke="midnightblue" points="91.07,-485.36 91.59,-495.94 97.78,-487.34 91.07,-485.36"/>
</g>
<!-- Node368 -->
<g id="node18" class="node">
<title>Node368</title>
<g id="a_node18"><a xlink:href="classamr__wind_1_1pde_1_1icns_1_1mms_1_1_m_m_s_forcing.html" target="_top" xlink:title=" ">
<polygon fill="white" stroke="black" points="232.5,-196.5 232.5,-226.5 346.5,-226.5 346.5,-196.5 232.5,-196.5"/>
<text text-anchor="start" x="240.5" y="-214.5" font-family="Helvetica,sans-Serif" font-size="10.00">amr_wind::pde::icns</text>
<text text-anchor="middle" x="289.5" y="-203.5" font-family="Helvetica,sans-Serif" font-size="10.00">::mms::MMSForcing</text>
</a>
</g>
</g>
<!-- Node354&#45;&gt;Node368 -->
<g id="edge17" class="edge">
<title>Node354&#45;&gt;Node368</title>
<path fill="none" stroke="midnightblue" d="M92.41,-485.76C101.97,-436.38 133.64,-306.47 212,-236.5 217.94,-231.2 225.03,-227.01 232.46,-223.72"/>
<polygon fill="midnightblue" stroke="midnightblue" points="88.94,-485.3 90.57,-495.77 95.82,-486.57 88.94,-485.3"/>
</g>
<!-- Node429 -->
<g id="node19" class="node">
<title>Node429</title>
<g id="a_node19"><a xlink:title=" ">
<polygon fill="white" stroke="#bfbfbf" points="29.5,-49.5 29.5,-79.5 146.5,-79.5 146.5,-49.5 29.5,-49.5"/>
<text text-anchor="start" x="37.5" y="-67.5" font-family="Helvetica,sans-Serif" font-size="10.00">TemperatureSource::</text>
<text text-anchor="middle" x="88" y="-56.5" font-family="Helvetica,sans-Serif" font-size="10.00">Register</text>
</a>
</g>
</g>
<!-- Node429&#45;&gt;Node2 -->
<g id="edge18" class="edge">
<title>Node429&#45;&gt;Node2</title>
<path fill="none" stroke="midnightblue" d="M156.65,-81.12C179.47,-86.72 204.79,-92.94 227.1,-98.42"/>
<polygon fill="midnightblue" stroke="midnightblue" points="157.25,-77.66 146.7,-78.67 155.58,-84.46 157.25,-77.66"/>
</g>
<!-- Node430 -->
<g id="node20" class="node">
<title>Node430</title>
<g id="a_node20"><a xlink:href="classamr__wind_1_1pde_1_1temperature_1_1_body_force.html" target="_top" xlink:title=" ">
<polygon fill="white" stroke="black" points="212,-49.5 212,-79.5 367,-79.5 367,-49.5 212,-49.5"/>
<text text-anchor="start" x="220" y="-67.5" font-family="Helvetica,sans-Serif" font-size="10.00">amr_wind::pde::temperature</text>
<text text-anchor="middle" x="289.5" y="-56.5" font-family="Helvetica,sans-Serif" font-size="10.00">::BodyForce</text>
</a>
</g>
</g>
<!-- Node429&#45;&gt;Node430 -->
<g id="edge19" class="edge">
<title>Node429&#45;&gt;Node430</title>
<path fill="none" stroke="midnightblue" d="M156.94,-64.5C174.65,-64.5 193.86,-64.5 211.99,-64.5"/>
<polygon fill="midnightblue" stroke="midnightblue" points="156.7,-61 146.7,-64.5 156.7,-68 156.7,-61"/>
</g>
<!-- Node431 -->
<g id="node21" class="node">
<title>Node431</title>
<g id="a_node21"><a xlink:href="classamr__wind_1_1pde_1_1temperature_1_1_hurricane_temp_forcing.html" target="_top" xlink:title=" ">
<polygon fill="white" stroke="black" points="212,-0.5 212,-30.5 367,-30.5 367,-0.5 212,-0.5"/>
<text text-anchor="start" x="220" y="-18.5" font-family="Helvetica,sans-Serif" font-size="10.00">amr_wind::pde::temperature</text>
<text text-anchor="middle" x="289.5" y="-7.5" font-family="Helvetica,sans-Serif" font-size="10.00">::HurricaneTempForcing</text>
</a>
</g>
</g>
<!-- Node429&#45;&gt;Node431 -->
<g id="edge20" class="edge">
<title>Node429&#45;&gt;Node431</title>
<path fill="none" stroke="midnightblue" d="M156.65,-47.88C179.47,-42.28 204.79,-36.06 227.1,-30.58"/>
<polygon fill="midnightblue" stroke="midnightblue" points="155.58,-44.54 146.7,-50.33 157.25,-51.34 155.58,-44.54"/>
</g>
</g>
</svg>
